<svg width="120" height="120" viewBox="0 0 120 120" fill="none" xmlns="http://www.w3.org/2000/svg">
<g filter="url(#filter0_d_98_1590)">
<rect x="9" y="9" width="100" height="100" rx="16" fill="white"/>
</g>
<path d="M44.1569 64.7562C44.1569 65.433 43.8852 66.0822 43.4016 66.5608C42.9179 67.0394 42.262 67.3083 41.578 67.3083C40.894 67.3083 40.238 67.0394 39.7544 66.5608C39.2707 66.0822 38.999 65.433 38.999 64.7562V53.2718C38.999 52.595 39.2707 51.9458 39.7544 51.4672C40.238 50.9886 40.894 50.7197 41.578 50.7197C42.262 50.7197 42.9179 50.9886 43.4016 51.4672C43.8852 51.9458 44.1569 52.595 44.1569 53.2718V64.7562ZM80.2622 64.7562C80.2622 65.433 79.9905 66.0822 79.5068 66.5608C79.0232 67.0394 78.3672 67.3083 77.6832 67.3083C76.9993 67.3083 76.3433 67.0394 75.8596 66.5608C75.376 66.0822 75.1043 65.433 75.1043 64.7562V53.2718C75.1043 52.595 75.376 51.9458 75.8596 51.4672C76.3433 50.9886 76.9993 50.7197 77.6832 50.7197C78.3672 50.7197 79.0232 50.9886 79.5068 51.4672C79.9905 51.9458 80.2622 52.595 80.2622 53.2718V64.7562ZM57.0517 78.7914C57.0517 79.4682 56.7799 80.1174 56.2963 80.596C55.8127 81.0746 55.1567 81.3435 54.4727 81.3435C53.7887 81.3435 53.1328 81.0746 52.6491 80.596C52.1655 80.1174 51.8938 79.4682 51.8938 78.7914V67.307C51.8938 66.6301 52.1655 65.981 52.6491 65.5024C53.1328 65.0238 53.7887 64.7549 54.4727 64.7549C55.1567 64.7549 55.8127 65.0238 56.2963 65.5024C56.7799 65.981 57.0517 66.6301 57.0517 67.307V78.7914ZM67.3674 78.7914C67.3674 79.4682 67.0957 80.1174 66.6121 80.596C66.1284 81.0746 65.4725 81.3435 64.7885 81.3435C64.1045 81.3435 63.4486 81.0746 62.9649 80.596C62.4813 80.1174 62.2096 79.4682 62.2096 78.7914V67.307C62.2096 66.6301 62.4813 65.981 62.9649 65.5024C63.4486 65.0238 64.1045 64.7549 64.7885 64.7549C65.4725 64.7549 66.1284 65.0238 66.6121 65.5024C67.0957 65.981 67.3674 66.6301 67.3674 67.307V78.7914Z" fill="#7CB342"/>
<path d="M46.7363 50.7197V69.859C46.7363 70.5359 47.008 71.185 47.4917 71.6636C47.9753 72.1423 48.6313 72.4111 49.3153 72.4111H69.9469C70.6308 72.4111 71.2868 72.1423 71.7704 71.6636C72.2541 71.185 72.5258 70.5359 72.5258 69.859V50.7197H46.7363ZM59.6311 37.958C51.8942 37.958 47.1812 42.6092 46.7363 48.1663H72.5258C72.0796 42.6092 67.3679 37.958 59.6311 37.958ZM54.4732 45.1013C54.1312 45.1013 53.8032 44.9668 53.5614 44.7275C53.3196 44.4882 53.1837 44.1637 53.1837 43.8252C53.1837 43.4868 53.3196 43.1623 53.5614 42.9229C53.8032 42.6836 54.1312 42.5492 54.4732 42.5492C54.8152 42.5492 55.1431 42.6836 55.385 42.9229C55.6268 43.1623 55.7626 43.4868 55.7626 43.8252C55.7626 44.1637 55.6268 44.4882 55.385 44.7275C55.1431 44.9668 54.8152 45.1013 54.4732 45.1013ZM64.789 45.1013C64.447 45.1013 64.119 44.9668 63.8772 44.7275C63.6353 44.4882 63.4995 44.1637 63.4995 43.8252C63.4995 43.4868 63.6353 43.1623 63.8772 42.9229C64.119 42.6836 64.447 42.5492 64.789 42.5492C65.1309 42.5492 65.4589 42.6836 65.7008 42.9229C65.9426 43.1623 66.0784 43.4868 66.0784 43.8252C66.0784 44.1637 65.9426 44.4882 65.7008 44.7275C65.4589 44.9668 65.1309 45.1013 64.789 45.1013Z" fill="#7CB342"/>
<path d="M67.3685 36.6825L65.2202 39.8713M51.8948 36.6825L53.6136 39.3392" stroke="#7CB342" stroke-width="2" stroke-linecap="round"/>
<defs>
<filter id="filter0_d_98_1590" x="0" y="0" width="120" height="120" filterUnits="userSpaceOnUse" color-interpolation-filters="sRGB">
<feFlood flood-opacity="0" result="BackgroundImageFix"/>
<feColorMatrix in="SourceAlpha" type="matrix" values="0 0 0 0 0 0 0 0 0 0 0 0 0 0 0 0 0 0 127 0" result="hardAlpha"/>
<feOffset dx="1" dy="1"/>
<feGaussianBlur stdDeviation="5"/>
<feComposite in2="hardAlpha" operator="out"/>
<feColorMatrix type="matrix" values="0 0 0 0 0 0 0 0 0 0.407843 0 0 0 0 0.717647 0 0 0 0.1 0"/>
<feBlend mode="normal" in2="BackgroundImageFix" result="effect1_dropShadow_98_1590"/>
<feBlend mode="normal" in="SourceGraphic" in2="effect1_dropShadow_98_1590" result="shape"/>
</filter>
</defs>
</svg>
