<svg width="120" height="120" viewBox="0 0 120 120" fill="none" xmlns="http://www.w3.org/2000/svg">
<g filter="url(#filter0_d_98_1955)">
<rect x="9" y="9" width="100" height="100" rx="16" fill="white"/>
</g>
<g clip-path="url(#clip0_98_1955)">
<path d="M44.731 34H72.269C78.1957 34 83 38.8043 83 44.731V72.269C83 78.1957 78.1957 83 72.269 83H44.731C38.8043 83 34 78.1957 34 72.269V44.731C34 38.8043 38.8043 34 44.731 34Z" fill="url(#paint0_linear_98_1955)"/>
<path d="M49.703 69.5654L49.7076 69.5669L48.0323 72.4687C47.4207 73.5279 46.0663 73.8908 45.0071 73.2793C43.948 72.6677 43.5849 71.3133 44.1965 70.2541L45.4307 68.1165L45.5491 67.9113C45.7607 67.6073 46.2826 67.0825 47.3267 67.1813C47.3267 67.1813 49.7838 67.4479 49.9616 68.725C49.9616 68.725 49.9858 69.1451 49.703 69.5654ZM73.4648 62.1542H68.2406C67.8847 62.1302 67.7295 62.0031 67.6682 61.9293L67.6644 61.9226L62.0721 52.2363L62.0648 52.2411L61.7295 51.7602C61.1798 50.9196 60.307 53.0695 60.307 53.0695C59.2647 55.4651 60.4549 58.1886 60.8697 59.0119L68.6373 72.4658C69.2487 73.5248 70.6031 73.8879 71.6625 73.2762C72.7216 72.6647 73.0847 71.3103 72.4729 70.251L70.5307 66.8869C70.493 66.8053 70.4276 66.5841 70.8259 66.5831H73.4648C74.6879 66.5831 75.6794 65.5916 75.6794 64.3685C75.6794 63.1455 74.6879 62.154 73.4648 62.154V62.1542ZM63.3176 65.1646C63.3176 65.1646 63.5965 66.5831 62.5175 66.5831H43.2048C41.9817 66.5831 40.9902 65.5916 40.9902 64.3685C40.9902 63.1455 41.9817 62.154 43.2048 62.154H48.1699C48.9715 62.1077 49.1614 61.6448 49.1614 61.6448L49.166 61.6471L55.647 50.4215L55.6451 50.4212C55.7632 50.2043 55.6648 49.9993 55.6477 49.967L53.5072 46.2596C52.8957 45.2006 53.2586 43.846 54.3179 43.2346C55.3771 42.6231 56.7315 42.9858 57.343 44.045L58.3357 45.7644L59.3266 44.0481C59.9381 42.989 61.2925 42.6259 62.3517 43.2377C63.411 43.8492 63.7739 45.2034 63.1624 46.2627L54.1437 61.8833C54.1042 61.9785 54.0922 62.1278 54.3856 62.154H59.7764L59.7775 62.2066C59.7775 62.2066 62.8932 62.255 63.3176 65.1646Z" fill="white"/>
</g>
<defs>
<filter id="filter0_d_98_1955" x="0" y="0" width="120" height="120" filterUnits="userSpaceOnUse" color-interpolation-filters="sRGB">
<feFlood flood-opacity="0" result="BackgroundImageFix"/>
<feColorMatrix in="SourceAlpha" type="matrix" values="0 0 0 0 0 0 0 0 0 0 0 0 0 0 0 0 0 0 127 0" result="hardAlpha"/>
<feOffset dx="1" dy="1"/>
<feGaussianBlur stdDeviation="5"/>
<feComposite in2="hardAlpha" operator="out"/>
<feColorMatrix type="matrix" values="0 0 0 0 0 0 0 0 0 0.407843 0 0 0 0 0.717647 0 0 0 0.1 0"/>
<feBlend mode="normal" in2="BackgroundImageFix" result="effect1_dropShadow_98_1955"/>
<feBlend mode="normal" in="SourceGraphic" in2="effect1_dropShadow_98_1955" result="shape"/>
</filter>
<linearGradient id="paint0_linear_98_1955" x1="58.5" y1="34" x2="58.5" y2="83" gradientUnits="userSpaceOnUse">
<stop stop-color="#17C9FB"/>
<stop offset="1" stop-color="#1A74E8"/>
</linearGradient>
<clipPath id="clip0_98_1955">
<rect width="49" height="49" fill="white" transform="translate(34 34)"/>
</clipPath>
</defs>
</svg>
