<svg width="120" height="120" viewBox="0 0 120 120" fill="none" xmlns="http://www.w3.org/2000/svg">
<g filter="url(#filter0_d_98_2062)">
<rect x="9" y="9" width="100" height="100" rx="16" fill="white"/>
</g>
<g clip-path="url(#clip0_98_2062)">
<path d="M34.0565 56.8533C38.806 67.7643 50.8577 69.5939 65.2413 60.3457C71.8755 66.486 73.5283 73.7652 67.9926 81.0926C65.0731 82.3207 61.8661 83 58.5 83C44.9691 83 34 72.0309 34 58.5C34 57.9468 34.0203 57.3979 34.0565 56.8535V56.8533ZM56.4621 52.1172C58.607 43.1795 64.5959 38.0526 74.0098 39.5347C79.4975 44.0278 83.0002 50.8545 83.0002 58.5C83.0002 68.1459 77.4251 76.4882 69.3223 80.4843C76.683 69.9983 70.6679 58.9351 56.4621 52.1172ZM58.5002 34C63.7514 34 68.616 35.6528 72.6043 38.4655C59.2153 36.909 52.8926 48.0693 53.7757 63.4812C45.0759 66.1496 37.9885 64.1834 34.2431 55.0503C35.9198 43.1529 46.1403 34 58.5 34H58.5002Z" fill="#662D91"/>
</g>
<defs>
<filter id="filter0_d_98_2062" x="0" y="0" width="120" height="120" filterUnits="userSpaceOnUse" color-interpolation-filters="sRGB">
<feFlood flood-opacity="0" result="BackgroundImageFix"/>
<feColorMatrix in="SourceAlpha" type="matrix" values="0 0 0 0 0 0 0 0 0 0 0 0 0 0 0 0 0 0 127 0" result="hardAlpha"/>
<feOffset dx="1" dy="1"/>
<feGaussianBlur stdDeviation="5"/>
<feComposite in2="hardAlpha" operator="out"/>
<feColorMatrix type="matrix" values="0 0 0 0 0 0 0 0 0 0.407843 0 0 0 0 0.717647 0 0 0 0.1 0"/>
<feBlend mode="normal" in2="BackgroundImageFix" result="effect1_dropShadow_98_2062"/>
<feBlend mode="normal" in="SourceGraphic" in2="effect1_dropShadow_98_2062" result="shape"/>
</filter>
<clipPath id="clip0_98_2062">
<rect width="49" height="49" fill="white" transform="translate(34 34)"/>
</clipPath>
</defs>
</svg>
