<svg width="40" height="40" viewBox="0 0 40 40" fill="none" xmlns="http://www.w3.org/2000/svg">
<g clip-path="url(#clip0_395_7055)">
<path d="M31.1115 24.4444H33.3338V33.3333H24.4449V31.1111H22.2227V35.5555H35.556V22.2222H31.1115V24.4444Z" fill="#0068B7"/>
<path d="M15.5554 33.3333H6.66656V24.4445H8.88878V22.2222H4.44434V35.5556H17.7777V31.1111H15.5554V33.3333Z" fill="#0068B7"/>
<path d="M8.88878 15.5556H6.66656V6.66668H15.5554V8.8889H17.7777V4.44446H4.44434V17.7778H8.88878V15.5556Z" fill="#0068B7"/>
<path d="M22.2227 4.44434V8.88878H24.4449V6.66656H33.3338V15.5554H31.1115V17.7777H35.556V4.44434H22.2227Z" fill="#0068B7"/>
<path d="M12.2227 12.2222H18.8893V18.8888H12.2227V12.2222Z" fill="#0068B7"/>
<path d="M21.1113 12.2222H27.778V18.8888H21.1113V12.2222Z" fill="#0068B7"/>
<path d="M12.2227 21.1111H18.8893V27.7778H12.2227V21.1111Z" fill="#0068B7"/>
<path d="M21.1113 21.1111H27.778V27.7778H21.1113V21.1111Z" fill="#0068B7"/>
</g>
<defs>
<clipPath id="clip0_395_7055">
<rect width="40" height="40" fill="white"/>
</clipPath>
</defs>
</svg>
