<?xml version="1.0" standalone="no"?>
<!DOCTYPE svg PUBLIC "-//W3C//DTD SVG 20010904//EN"
 "http://www.w3.org/TR/2001/REC-SVG-20010904/DTD/svg10.dtd">
<svg version="1.0" xmlns="http://www.w3.org/2000/svg"
 width="648.000000pt" height="540.000000pt" viewBox="0 0 648.000000 540.000000"
 preserveAspectRatio="xMidYMid meet">

<g transform="translate(0.000000,540.000000) scale(0.100000,-0.100000)"
fill="#000000" stroke="none">
<path d="M3115 5327 c-102 -34 -181 -100 -226 -187 -18 -36 -24 -66 -27 -147
-3 -80 -7 -103 -18 -103 -25 0 -187 -87 -249 -133 -216 -162 -358 -381 -409
-629 -20 -96 -21 -262 -2 -362 39 -201 152 -421 290 -561 36 -37 66 -74 66
-81 0 -7 -11 -16 -24 -20 -20 -5 -102 48 -478 309 -249 173 -523 363 -608 423
-236 166 -347 218 -525 249 -159 27 -336 4 -480 -64 l-60 -28 80 -7 c271 -24
455 -97 735 -294 91 -64 208 -146 260 -182 52 -36 267 -186 478 -333 210 -147
389 -270 396 -273 11 -4 14 -23 14 -67 -1 -45 6 -80 25 -125 20 -52 23 -64 11
-69 -8 -3 -14 -10 -14 -17 0 -6 -11 -23 -25 -38 -14 -15 -25 -32 -25 -38 0 -5
-6 -10 -14 -10 -21 0 -28 -32 -20 -85 l6 -46 357 1 c196 1 360 1 365 0 20 -1
-28 -39 -218 -172 -111 -78 -218 -155 -240 -172 -37 -29 -39 -29 -52 -11 -19
26 -18 30 12 43 18 9 24 17 19 31 -3 10 1 24 10 31 29 24 12 50 -33 50 -9 0
-24 4 -32 10 -12 7 -12 12 4 29 18 20 18 20 -8 27 -14 3 -33 4 -41 0 -10 -4
-19 2 -25 18 -12 34 -19 36 -73 24 -55 -11 -87 -45 -87 -92 -1 -17 -7 -42 -15
-56 -23 -41 -18 -94 16 -157 17 -32 40 -68 51 -79 15 -17 16 -24 7 -30 -7 -4
-19 1 -29 12 -9 10 -25 24 -35 30 -11 5 -30 31 -43 57 -17 35 -28 47 -45 47
-12 0 -33 9 -47 20 -31 24 -52 25 -107 4 -34 -13 -49 -14 -67 -6 -28 13 -87 0
-106 -23 -7 -8 -20 -15 -29 -15 -9 0 -35 -9 -56 -20 l-40 -20 -26 31 c-18 23
-38 34 -70 40 -24 4 -57 11 -72 15 -21 5 -36 1 -55 -13 -15 -11 -42 -25 -61
-31 -40 -14 -71 -39 -71 -58 0 -20 -18 -26 -41 -14 -17 10 -27 7 -59 -15 -34
-24 -38 -31 -33 -57 4 -23 1 -33 -16 -44 -24 -18 -27 -37 -7 -53 8 -7 18 -38
22 -69 3 -31 11 -63 17 -70 19 -24 14 -64 -14 -93 -15 -16 -32 -29 -39 -29 -7
0 -25 -8 -41 -17 -20 -12 -34 -15 -43 -8 -54 40 -71 48 -97 48 -34 0 -69 -28
-69 -55 0 -24 24 -70 44 -87 22 -18 20 -31 -4 -31 -10 0 -30 -5 -43 -11 -20
-9 -31 -7 -63 13 -116 73 -257 91 -356 46 -32 -15 -112 -75 -202 -154 -81 -71
-162 -139 -178 -150 -41 -30 -77 -81 -84 -120 -14 -77 66 -209 157 -259 83
-45 110 -39 223 49 53 41 102 73 109 70 6 -3 57 -60 112 -126 248 -299 433
-441 592 -455 75 -6 94 5 233 135 92 87 114 102 132 96 13 -3 84 -35 158 -69
206 -96 544 -239 650 -274 303 -102 603 -152 920 -155 168 -1 211 2 309 22
197 40 345 96 596 224 127 65 330 168 451 230 l221 111 130 -130 c156 -157
180 -166 311 -122 141 47 290 173 499 421 69 82 127 148 129 148 3 0 47 -33
97 -73 51 -41 104 -77 118 -80 87 -22 218 87 268 221 l19 54 -26 50 c-14 27
-42 62 -61 76 -41 31 -229 191 -281 240 -19 18 -63 46 -97 63 -53 27 -73 31
-135 31 -77 -1 -162 -24 -224 -62 -33 -21 -34 -21 -84 -3 -27 10 -50 21 -50
25 0 4 9 22 20 40 25 41 25 70 2 91 -33 30 -90 19 -139 -26 -21 -19 -24 -19
-41 -4 -10 10 -26 17 -35 17 -47 0 -103 104 -71 131 10 9 14 22 10 41 -3 15
-1 30 4 33 6 3 10 16 10 28 0 13 7 32 15 44 13 19 12 23 -10 47 -28 30 -30 37
-15 52 8 8 0 19 -24 37 -38 29 -56 33 -73 16 -13 -13 -33 -4 -33 15 0 19 -42
54 -75 62 -16 4 -42 16 -57 27 -20 15 -35 18 -60 13 -18 -4 -50 -10 -71 -13
-27 -4 -45 -15 -66 -40 l-28 -34 -39 20 c-21 12 -45 21 -53 21 -8 0 -22 6 -30
14 -28 23 -81 37 -102 25 -21 -11 -86 -3 -95 12 -9 16 -58 9 -84 -11 -14 -11
-32 -20 -41 -20 -22 0 -59 -42 -59 -67 0 -14 -12 -26 -35 -37 -19 -9 -35 -23
-35 -31 0 -8 -9 -15 -20 -15 -25 0 -25 4 3 43 39 52 77 135 77 164 0 16 -9 45
-20 66 -11 21 -18 43 -14 48 9 16 -15 65 -39 78 -12 6 -42 13 -67 14 -38 2
-46 -1 -55 -21 -7 -16 -18 -22 -42 -22 -35 0 -51 -16 -34 -33 18 -18 13 -24
-23 -31 -48 -9 -64 -31 -41 -56 10 -11 15 -26 11 -35 -4 -11 2 -19 19 -25 27
-10 30 -17 16 -38 -10 -17 -13 -16 -269 163 -110 77 -198 143 -196 147 3 4
171 8 375 8 l369 0 0 60 c0 55 -3 62 -37 95 -20 19 -40 35 -45 35 -4 0 -8 9
-8 19 0 10 -7 21 -15 25 -12 4 -11 15 10 71 16 43 25 86 25 124 l0 59 168 120
c92 65 280 199 417 297 138 98 336 239 440 315 205 148 278 192 395 239 137
54 249 82 365 90 l110 7 -65 31 c-96 46 -172 64 -295 70 -129 6 -244 -12 -360
-56 -110 -43 -180 -85 -377 -228 -98 -70 -271 -194 -385 -275 -115 -81 -291
-206 -392 -278 -101 -71 -188 -130 -195 -130 -19 1 -46 26 -46 43 0 9 9 21 20
27 37 20 160 185 204 275 84 170 121 318 120 480 -1 262 -91 493 -263 678
-115 123 -313 255 -424 282 -32 8 -51 46 -42 82 8 33 -21 150 -49 198 -31 52
-81 97 -145 131 -62 32 -191 42 -256 21z m227 -68 c117 -60 187 -184 166 -299
-4 -25 -9 -53 -10 -63 -2 -14 14 -24 77 -46 152 -54 262 -123 383 -243 127
-126 212 -276 259 -457 22 -87 24 -110 20 -251 -6 -199 -33 -295 -125 -450
-55 -91 -73 -114 -163 -206 -55 -56 -70 -78 -71 -102 -1 -40 15 -59 77 -87 65
-31 98 -60 124 -112 48 -97 33 -207 -39 -282 l-40 -41 40 0 c34 0 47 -7 87
-45 25 -25 50 -45 54 -45 5 0 9 -15 9 -34 l0 -34 -292 -5 c-161 -2 -582 -5
-935 -6 l-643 -1 0 27 c0 14 7 33 15 42 8 9 31 35 51 58 34 39 40 41 78 37
l41 -5 -42 43 c-78 80 -95 179 -48 275 28 56 62 86 141 126 93 47 88 75 -35
195 -156 153 -236 301 -283 517 -21 102 -14 294 15 408 71 272 264 506 517
628 98 47 117 56 146 64 21 5 21 7 7 48 -39 110 16 258 118 323 82 52 223 62
301 23z m-2357 -1218 c135 -35 255 -101 495 -275 19 -14 148 -103 285 -198
138 -96 352 -245 477 -331 l227 -158 -40 -36 c-22 -20 -52 -56 -66 -80 -13
-23 -27 -43 -30 -43 -4 0 -774 536 -1153 803 -154 108 -276 175 -400 217 -85
29 -225 60 -273 60 -76 0 -23 25 118 56 82 18 259 11 360 -15z m4845 -5 c36
-8 79 -20 95 -27 29 -12 29 -12 -42 -25 -153 -27 -328 -87 -443 -153 -25 -14
-310 -215 -635 -446 -324 -232 -602 -429 -617 -439 l-27 -18 -20 40 c-11 22
-40 59 -64 83 l-44 42 221 157 c190 134 530 376 820 583 157 113 280 173 408
201 83 18 267 19 348 2z m-2263 -1718 l135 -93 -60 -5 c-98 -8 -121 -43 -82
-128 11 -23 15 -40 9 -37 -19 12 -454 316 -479 335 -25 19 -24 19 158 19 l183
1 136 -92z m-430 1 c46 -34 81 -65 76 -69 -12 -10 -316 -225 -330 -234 -7 -4
-4 11 7 36 26 57 25 74 -5 103 -20 21 -34 25 -82 25 -64 1 -65 -4 12 50 17 12
71 50 120 85 50 36 96 65 103 65 8 0 52 -28 99 -61z m1005 21 c21 -6 43 -20
49 -31 14 -27 4 -66 -21 -79 -17 -9 -20 -8 -20 9 0 11 5 23 10 26 34 21 -11
65 -66 65 -14 0 -22 4 -19 10 8 13 21 13 67 0z m-1772 -39 c0 -5 -15 -12 -34
-15 -49 -9 -62 -29 -48 -71 8 -29 8 -35 -4 -35 -20 0 -38 43 -30 73 6 24 36
42 86 50 14 2 26 5 28 6 1 0 2 -3 2 -8z m1768 0 c24 -15 -17 -74 -45 -64 -18
7 -17 -12 3 -42 23 -34 11 -75 -31 -103 -35 -24 -75 -26 -83 -5 -2 7 10 21 27
30 38 22 40 35 4 32 -74 -6 -85 18 -18 37 42 11 57 30 28 36 -25 5 -28 78 -2
78 10 0 21 -4 24 -10 9 -15 25 -12 25 5 0 17 46 21 68 6z m-1758 -52 c0 -19 1
-19 22 -5 12 9 28 16 35 16 17 0 5 -72 -16 -88 -14 -11 -14 -14 -1 -22 8 -5
24 -10 35 -10 11 0 27 -5 35 -10 23 -15 -7 -32 -47 -26 -42 6 -53 -11 -16 -25
26 -10 43 -25 43 -41 0 -16 -68 -7 -93 12 -33 26 -42 64 -22 102 19 39 20 38
-10 38 -18 0 -25 5 -25 19 0 11 -6 22 -12 25 -19 7 20 36 49 36 17 0 23 -6 23
-21z m980 -79 c36 -26 147 -104 248 -174 100 -70 182 -130 182 -134 0 -4 -14
-13 -32 -20 -27 -10 -35 -9 -49 4 -10 9 -40 17 -68 19 -43 3 -53 1 -62 -17 -6
-11 -8 -31 -4 -45 5 -23 4 -24 -25 -18 -35 8 -51 -15 -32 -45 9 -14 5 -21 -18
-39 l-29 -21 27 -45 c14 -24 38 -49 52 -54 14 -5 75 -8 136 -8 104 2 113 4
147 29 52 41 95 16 47 -27 -11 -10 -20 -29 -20 -43 0 -14 -7 -33 -16 -43 -8
-9 -16 -27 -17 -40 -1 -15 -11 -26 -30 -33 -20 -8 -27 -17 -25 -31 4 -27 81
-34 108 -10 26 23 60 11 60 -21 0 -40 18 -64 47 -64 39 0 63 27 63 71 0 21 9
53 20 71 24 39 25 60 6 96 -13 25 -12 30 9 55 13 15 26 27 29 27 3 0 38 -25
78 -55 40 -30 78 -55 85 -55 6 0 13 -4 15 -8 2 -4 27 -23 56 -42 28 -18 52
-37 52 -41 0 -3 16 -14 35 -23 19 -9 35 -21 35 -26 0 -5 10 -12 23 -16 12 -4
28 -15 35 -25 7 -11 21 -19 30 -19 9 0 28 -12 43 -26 16 -16 40 -27 59 -28 31
-1 32 -3 34 -49 l2 -47 -42 0 c-82 0 -215 -48 -439 -160 -614 -305 -808 -362
-1120 -330 -202 20 -322 59 -675 220 -74 34 -230 99 -347 146 -165 65 -222 84
-260 84 l-50 0 0 43 c-1 42 -1 43 32 43 24 0 41 8 59 27 14 15 32 27 40 27 9
0 21 9 28 20 7 11 18 20 24 20 6 0 23 10 37 23 29 25 69 55 102 77 78 51 145
99 193 138 l54 44 29 -32 c23 -25 27 -35 19 -50 -15 -27 -12 -83 5 -106 8 -10
15 -38 15 -61 0 -46 26 -83 57 -83 26 0 53 31 53 61 0 42 33 56 67 29 27 -21
72 -20 100 2 16 13 6 36 -19 44 -11 3 -26 21 -34 39 -7 19 -18 36 -23 39 -4 3
-8 17 -8 31 0 14 -11 37 -24 51 -18 19 -20 27 -11 36 10 10 23 7 60 -14 44
-25 56 -26 162 -26 l115 1 33 33 c17 17 32 39 32 48 0 9 4 16 10 16 17 0 -1
27 -26 39 -21 9 -23 14 -14 32 18 32 6 50 -30 43 -30 -6 -30 -6 -30 40 0 40
-3 46 -21 46 -11 0 -28 -4 -38 -9 -10 -6 -23 -6 -31 -1 -10 6 -21 3 -35 -10
-18 -17 -25 -18 -53 -8 -18 7 -32 17 -32 23 0 5 42 38 93 73 50 35 182 128
292 207 228 164 189 156 315 65z m630 51 c0 -12 -37 -24 -50 -16 -20 12 -10
25 20 25 17 0 30 -4 30 -9z m234 -17 c19 -50 -9 -138 -62 -196 -36 -39 -59
-37 -31 2 13 16 19 33 15 37 -4 4 -15 -3 -25 -16 -15 -19 -23 -22 -49 -16 -18
3 -32 10 -32 15 0 10 29 22 40 15 4 -3 13 2 20 10 7 8 18 15 26 15 17 0 34 32
33 62 -2 22 -2 22 -6 2 -2 -12 -14 -30 -25 -40 -21 -19 -21 -19 -13 1 5 11 10
39 13 63 4 37 7 42 29 42 23 0 25 -3 21 -42 -3 -24 -8 -51 -13 -62 -6 -14 -5
-18 6 -14 20 7 39 67 33 106 -5 33 9 45 20 16z m-499 -15 c32 -9 225 -131 269
-170 6 -6 -1 -21 -18 -38 l-28 -30 -27 32 c-14 17 -25 38 -23 48 2 11 -7 18
-29 23 -17 3 -35 4 -39 1 -4 -3 -10 4 -13 14 -6 24 -107 81 -144 81 -53 0 -72
-50 -32 -86 12 -10 27 -31 35 -46 15 -30 68 -63 84 -53 6 3 14 -4 19 -17 10
-26 44 -60 57 -57 21 4 54 -2 54 -8 0 -5 -4 -14 -9 -22 -7 -11 -28 -1 -103 49
-138 93 -186 144 -208 220 -18 62 51 88 155 59z m-1221 -5 c22 -9 10 -24 -20
-24 -23 0 -31 10 -17 23 8 9 17 9 37 1z m-260 -42 c-7 -45 19 -107 41 -98 7 2
19 -2 25 -10 7 -8 19 -14 26 -14 8 0 14 -4 14 -10 0 -5 14 -10 30 -10 37 0 39
-13 3 -29 -25 -12 -29 -10 -48 13 -11 14 -24 26 -28 26 -14 0 -6 -27 13 -45
23 -21 26 -35 6 -35 -19 0 -66 57 -66 79 0 10 -9 26 -20 36 -22 20 -27 83 -10
116 16 29 21 23 14 -19z m66 8 c4 0 10 -19 13 -42 2 -24 8 -52 13 -63 7 -20 7
-20 -14 -1 -12 11 -23 29 -23 40 -1 17 -2 18 -6 3 -8 -30 -23 -8 -23 35 0 32
3 39 16 34 9 -3 19 -6 24 -6z m551 0 c37 -20 19 -95 -38 -164 -14 -17 -73 -65
-132 -107 -94 -68 -107 -75 -119 -61 -10 13 -9 18 4 25 8 5 24 7 35 4 20 -5
69 43 69 68 0 9 6 12 15 9 17 -7 85 41 85 60 0 7 11 22 25 34 49 43 24 99 -40
89 -45 -7 -127 -56 -133 -79 -3 -12 -14 -18 -31 -18 -35 0 -53 -13 -45 -33 3
-10 1 -17 -5 -17 -6 0 -19 -13 -29 -30 l-19 -30 -19 23 c-11 13 -23 28 -27 34
-11 18 226 183 276 193 61 11 106 11 128 0z m860 -35 c10 -4 19 -13 19 -21 0
-8 10 -14 25 -14 14 0 25 -4 25 -10 0 -5 -6 -10 -14 -10 -8 0 -24 -12 -35 -26
-17 -22 -23 -24 -36 -14 -8 7 -15 17 -15 23 0 6 -12 21 -27 33 -23 18 -25 24
-15 37 13 15 30 15 73 2z m705 -6 c3 -6 1 -16 -5 -22 -18 -18 -13 -34 14 -41
45 -11 25 -39 -36 -50 -21 -4 -42 -13 -49 -21 -29 -35 -76 5 -65 54 6 30 36
57 48 44 4 -3 20 6 37 21 35 29 45 32 56 15z m64 -30 c0 -5 -10 -9 -21 -9 -18
0 -19 2 -9 15 12 15 30 12 30 -6z m93 -5 c-5 -14 -35 -19 -46 -7 -4 3 -2 12 3
19 14 16 50 6 43 -12z m399 9 c22 -20 24 -61 3 -69 -32 -13 -63 5 -68 38 -2
18 -3 36 0 41 8 13 46 7 65 -10z m-2182 -33 c-6 -11 -16 -23 -23 -27 -7 -4
-18 -21 -25 -37 l-13 -30 -25 32 c-14 18 -32 32 -40 32 -8 0 -14 5 -14 10 0 6
11 10 25 10 14 0 25 6 25 14 0 18 60 35 83 24 13 -7 15 -13 7 -28z m2090 5 c0
-33 -23 -42 -56 -20 -20 13 -23 19 -13 31 6 8 24 14 40 14 24 0 29 -4 29 -25z
m-2807 -8 c18 -12 39 -23 47 -22 15 0 40 -40 40 -66 0 -9 -8 -24 -19 -33 -18
-16 -21 -16 -52 3 -19 12 -46 21 -61 21 -16 0 -31 8 -37 19 -12 21 -5 31 21
31 19 0 25 25 8 35 -16 10 -12 35 6 35 8 0 30 -10 47 -23z m2495 -12 c24 -10
41 -19 39 -21 -2 -2 -31 1 -65 7 -53 9 -61 14 -51 26 7 7 17 12 23 10 6 -3 30
-13 54 -22z m134 -2 c15 -7 46 -38 69 -69 22 -30 58 -67 78 -82 21 -15 44 -40
50 -57 9 -23 14 -27 20 -16 10 16 41 8 41 -11 0 -26 -17 -40 -39 -33 -11 3
-21 11 -21 16 0 17 -43 69 -57 69 -7 0 -21 17 -32 38 -29 57 -90 108 -150 129
-66 23 -81 45 -24 36 21 -3 50 -12 65 -20z m356 10 c32 -28 32 -57 1 -61 -33
-4 -52 19 -43 52 7 31 15 32 42 9z m-3533 -5 c3 -7 1 -26 -3 -43 -7 -26 -13
-30 -43 -30 -27 0 -35 4 -37 22 -6 41 70 87 83 51z m374 3 c17 -11 6 -31 -19
-31 -21 0 -35 26 -17 34 18 7 21 7 36 -3z m77 -19 c-22 -5 -30 3 -21 18 5 8
11 7 22 -2 15 -12 14 -13 -1 -16z m1780 -14 c-11 -15 -16 -18 -16 -7 0 16 21
42 28 34 2 -2 -3 -14 -12 -27z m-2136 7 c16 -19 6 -31 -32 -40 -30 -8 -46 11
-34 40 7 20 50 19 66 0z m2233 8 c-7 -2 -21 -2 -30 0 -10 3 -4 5 12 5 17 0 24
-2 18 -5z m1009 -18 c20 0 40 -4 44 -8 4 -4 27 -7 50 -7 24 0 45 -4 48 -9 8
-13 -41 -109 -62 -120 -15 -8 -24 -5 -42 14 -13 14 -29 25 -36 25 -20 0 -74
72 -74 98 0 19 3 23 18 16 9 -4 34 -8 54 -9z m-3032 -5 c0 -10 -59 -38 -94
-46 -11 -2 -35 -18 -53 -36 -39 -38 -44 -29 -7 16 38 44 62 59 109 67 22 4 41
7 43 8 1 0 2 -3 2 -9z m109 -4 c9 -11 3 -15 -36 -20 -27 -4 -57 -9 -68 -12
-11 -2 -4 3 15 12 19 9 42 20 50 25 21 11 26 11 39 -5z m2640 0 c114 -31 186
-110 198 -216 7 -67 22 -90 59 -90 13 0 51 -7 83 -16 70 -20 114 -14 166 22
40 27 57 26 34 -2 -8 -9 -23 -35 -35 -58 -19 -38 -23 -41 -58 -38 -24 3 -44
-2 -55 -12 -13 -12 -25 -14 -47 -7 -16 4 -35 6 -42 4 -7 -3 -28 9 -48 26 -37
33 -62 38 -95 20 -16 -8 -25 -7 -38 5 -10 9 -29 16 -43 16 -17 0 -34 11 -52
35 -17 21 -41 39 -66 46 -22 7 -49 23 -61 35 -13 14 -34 24 -49 24 -15 0 -40
10 -55 22 -15 12 -37 22 -48 23 -37 3 -44 31 -16 59 21 21 35 25 74 24 41 0
52 4 72 26 13 15 23 36 23 47 0 23 23 24 99 5z m-3164 -17 c10 -31 -28 -68
-53 -53 -20 14 -17 44 6 62 23 18 40 15 47 -9z m2435 6 c6 -8 10 -20 7 -27 -4
-8 -8 -4 -13 10 -9 30 -28 23 -32 -11 -4 -29 -22 -28 -22 2 0 36 38 53 60 26z
m204 7 c6 -10 -53 -57 -61 -49 -2 3 3 17 12 31 17 26 39 34 49 18z m666 -21
c36 -26 91 -101 83 -114 -4 -7 -12 -2 -22 14 -19 29 -77 88 -111 112 l-25 18
25 -7 c14 -3 36 -14 50 -23z m450 9 c-24 -15 -37 -11 -16 5 11 8 22 12 25 9 3
-3 -1 -9 -9 -14z m-2557 3 c-7 -2 -21 -2 -30 0 -10 3 -4 5 12 5 17 0 24 -2 18
-5z m74 -8 c9 -24 -1 -27 -15 -5 -8 13 -8 20 -2 20 6 0 13 -7 17 -15z m1205
-47 c-12 -12 -25 -18 -29 -14 -4 5 -2 11 5 13 6 3 12 17 12 31 0 25 1 25 17 9
16 -16 16 -18 -5 -39z m556 35 c-4 -21 -66 -39 -81 -24 -14 14 -5 22 35 31 49
12 50 11 46 -7z m-2808 -20 c0 -27 -58 -91 -115 -129 -30 -20 -47 -10 -72 45
-9 20 -21 39 -27 43 -18 12 14 38 39 32 13 -3 34 0 47 7 12 7 39 12 58 11 19
-1 42 2 50 8 20 13 20 13 20 -17z m2638 4 l41 -23 -29 -27 c-34 -32 -41 -33
-58 -7 -7 11 -19 20 -27 20 -21 0 -19 16 5 40 25 25 20 25 68 -3z m-2323 -24
c20 -47 29 -53 85 -53 32 -1 53 -8 74 -24 34 -28 30 -56 -7 -56 -14 0 -30 -7
-37 -15 -7 -8 -31 -20 -54 -26 -22 -6 -52 -21 -66 -34 -14 -12 -38 -25 -54
-29 -16 -4 -46 -25 -68 -47 -21 -21 -47 -39 -56 -39 -10 0 -27 -7 -40 -15 -17
-13 -26 -13 -43 -5 -27 15 -59 7 -91 -23 -34 -31 -112 -42 -145 -20 -19 13
-29 14 -50 4 -14 -6 -27 -10 -28 -9 -7 7 -75 130 -75 136 0 3 10 -4 23 -16 46
-43 129 -55 205 -28 22 8 42 12 45 10 3 -3 16 -2 30 1 26 7 54 55 43 74 -4 5
-2 20 3 33 5 13 12 35 16 51 13 60 106 136 192 156 71 17 81 14 98 -26z m673
25 c15 -15 15 -45 0 -54 -7 -5 -9 -2 -5 8 3 9 0 24 -7 34 -13 17 -14 16 -25
-5 -7 -13 -15 -20 -18 -18 -8 9 17 47 30 47 7 0 18 -5 25 -12z m1452 -18 c-23
-21 -36 -27 -47 -21 -14 7 -13 11 6 30 11 11 33 21 47 21 l26 0 -32 -30z
m1020 15 c-7 -8 -17 -15 -22 -15 -6 0 -5 7 2 15 7 8 17 15 22 15 6 0 5 -7 -2
-15z m107 -8 c6 -13 14 -49 18 -80 l7 -57 -56 1 c-47 1 -56 4 -56 20 0 10 11
26 25 35 20 13 25 24 25 60 0 49 20 60 37 21z m-3442 -4 c-36 -19 -75 -59
-101 -101 -25 -43 -51 -44 -29 -2 26 50 75 99 109 109 47 14 54 12 21 -6z
m657 0 c33 -29 21 -44 -17 -20 -19 12 -34 25 -35 30 0 13 33 7 52 -10z m-1142
-3 c8 -5 12 -11 9 -14 -3 -3 -14 1 -25 9 -21 16 -8 20 16 5z m3763 -39 c-1
-30 2 -41 13 -41 8 0 14 4 14 9 0 16 51 71 65 71 21 0 -42 -104 -75 -124 -39
-22 -70 -21 -70 3 0 11 5 23 11 26 6 4 8 13 5 20 -7 19 16 86 28 82 6 -2 10
-23 9 -46z m-2985 23 c25 -7 11 -24 -21 -24 -31 0 -57 14 -57 32 0 7 45 2 78
-8z m177 -20 c8 -13 11 -24 6 -24 -5 0 -23 -11 -39 -25 l-29 -24 -28 29 c-16
17 -27 31 -24 33 2 2 16 8 32 15 15 6 27 16 27 21 0 17 39 -1 55 -25z m315 16
c0 -10 8 -24 18 -29 14 -9 14 -10 2 -11 -9 0 -21 5 -28 12 -15 15 -16 48 -2
48 6 0 10 -9 10 -20z m1420 -10 c-13 -25 -27 -33 -35 -20 -8 13 24 52 36 44 5
-3 5 -14 -1 -24z m180 22 c0 -5 -11 -19 -24 -31 -17 -16 -29 -20 -40 -14 -15
8 -14 11 4 31 20 21 60 31 60 14z m-2793 -38 c-7 -7 -37 7 -37 17 0 6 9 5 21
-1 11 -7 19 -14 16 -16z m1037 10 c9 -8 14 -20 11 -25 -8 -12 -35 -12 -35 1 0
5 -12 16 -27 24 l-28 15 32 1 c17 0 39 -7 47 -16z m-1134 -32 c0 -29 7 -43 30
-64 41 -36 38 -48 -15 -49 -25 -1 -51 -2 -57 -3 -16 -1 -13 86 3 127 17 41 39
35 39 -11z m160 -6 c6 -19 10 -41 8 -48 -1 -7 4 -24 11 -36 14 -26 14 -27 -14
-36 -31 -9 -79 26 -109 79 -14 26 -26 52 -26 56 0 17 51 -24 66 -53 17 -34 36
-28 33 10 -5 69 12 84 31 28z m2610 26 c0 -5 -9 -17 -20 -27 -26 -23 -52 -6
-30 20 13 16 50 21 50 7z m180 -1 c0 -5 -12 -19 -28 -29 -23 -17 -30 -18 -45
-7 -17 12 -17 14 5 29 24 17 68 22 68 7z m-2587 -38 c-10 -15 -34 -45 -53 -66
-19 -20 -43 -46 -52 -57 -23 -26 -34 -25 -42 2 -6 26 23 63 31 41 8 -22 24
-14 34 16 6 17 26 39 45 50 19 11 37 28 40 36 4 9 9 14 11 11 3 -2 -4 -17 -14
-33z m722 21 c12 -12 13 -19 4 -30 -9 -11 -16 -10 -40 9 -15 12 -28 25 -28 30
-1 14 48 7 64 -9z m140 -4 c10 -11 15 -23 12 -27 -8 -7 -47 25 -47 39 0 14 16
9 35 -12z m1445 -12 c-1 -21 -28 -51 -39 -44 -7 5 -7 15 1 31 12 26 38 34 38
13z m144 3 c3 -4 -3 -16 -14 -26 -26 -23 -52 -6 -30 20 14 17 36 20 44 6z
m-1774 -27 c13 -13 13 -16 0 -24 -22 -14 -32 -12 -59 11 -21 17 -22 22 -10 29
17 11 48 4 69 -16z m148 14 c16 -16 15 -38 -1 -38 -8 0 -22 9 -31 19 -13 15
-14 20 -4 24 20 8 23 8 36 -5z m1830 -3 c3 -3 -6 -16 -19 -29 -24 -24 -24 -24
-48 -5 -20 16 -21 22 -10 35 12 14 62 14 77 -1z m-648 -13 c0 -24 -8 -32 -26
-25 -22 8 -17 43 6 43 13 0 20 -7 20 -18z m67 -4 c4 -13 8 -29 8 -37 0 -28 21
-21 30 11 13 44 48 46 53 4 8 -64 -44 -103 -122 -93 -42 6 -43 5 -38 -18 3
-18 0 -25 -12 -25 -9 0 -19 -7 -22 -15 -10 -24 -32 -17 -49 15 -20 39 -20 40
13 40 25 1 26 1 7 12 -19 11 -44 38 -45 48 0 8 94 6 108 -3 16 -11 32 0 25 18
-8 23 6 65 22 65 7 0 17 -10 22 -22z m133 7 c10 -12 10 -15 -3 -15 -8 0 -17 7
-21 15 -3 8 -2 15 3 15 5 0 14 -7 21 -15z m144 -4 c3 -5 -1 -14 -9 -21 -8 -7
-15 -19 -15 -26 0 -16 -16 -19 -25 -4 -8 12 20 60 35 60 5 0 11 -4 14 -9z
m866 -4 c0 -7 -4 -17 -9 -22 -5 -6 -5 -20 0 -34 7 -18 15 -22 35 -18 14 2 47
-2 74 -10 48 -14 90 -7 90 16 0 14 27 21 100 27 62 5 69 4 80 -15 6 -12 8 -26
5 -31 -11 -17 -54 -11 -75 10 l-21 21 -25 -30 c-40 -48 -90 -58 -182 -37 -42
10 -83 20 -89 22 -7 2 -13 14 -13 27 0 14 -3 39 -6 56 -6 27 -4 31 15 31 11 0
21 -6 21 -13z m-2432 -34 c-2 -9 -8 -18 -13 -20 -13 -4 -38 35 -30 47 9 15 47
-9 43 -27z m128 12 c22 -34 8 -52 -17 -20 -11 13 -17 29 -14 35 9 15 13 13 31
-15z m1604 18 c0 -5 -8 -18 -18 -31 -15 -19 -20 -21 -35 -9 -26 19 -12 47 24
47 16 0 29 -3 29 -7z m207 -1 c8 -5 2 -17 -18 -40 -25 -28 -31 -31 -49 -20
-27 17 -25 25 13 48 36 22 37 23 54 12z m-2108 -26 c9 -11 6 -17 -15 -31 -25
-16 -27 -16 -50 6 -18 17 -21 25 -12 31 20 12 64 9 77 -6z m383 -8 c-6 -6 -15
-8 -19 -4 -4 4 -1 11 7 16 19 12 27 3 12 -12z m156 -26 c3 -40 14 -53 27 -32
9 14 105 8 105 -7 0 -6 -12 -21 -27 -32 -27 -20 -27 -20 -5 -21 27 0 29 -25 5
-52 -20 -22 -43 -24 -43 -3 0 10 -7 15 -17 13 -14 -2 -18 3 -16 23 1 25 0 25
-52 21 -50 -4 -57 -2 -85 26 -30 30 -38 64 -21 91 13 21 51 -4 51 -34 0 -16 6
-25 15 -25 10 0 15 10 15 28 0 30 17 54 35 49 5 -2 11 -22 13 -45z m62 29 c0
-24 -26 -35 -34 -14 -8 19 1 33 20 33 8 0 14 -9 14 -19z m1031 -55 c-11 -12
-21 -25 -21 -29 0 -15 20 -6 42 18 14 15 28 21 35 17 9 -6 4 -18 -18 -45 -17
-20 -36 -37 -43 -37 -7 0 -21 -9 -31 -20 -28 -31 -94 -51 -135 -41 l-35 9 30
1 c56 3 150 58 117 69 -7 2 -4 16 9 39 11 20 18 42 14 51 -3 8 0 21 6 28 9 11
15 9 31 -12 l20 -25 -21 -23z m153 65 c8 -12 -26 -72 -39 -68 -17 6 -17 44 0
61 18 18 31 20 39 7z m182 -15 c19 -15 18 -15 -6 -40 -25 -25 -25 -25 -50 -6
-24 18 -24 19 -6 39 23 25 35 26 62 7z m-2571 -6 c3 -5 3 -16 -2 -22 -4 -7 -8
-29 -8 -48 0 -30 -4 -35 -25 -38 -14 -2 -47 -10 -74 -19 -70 -22 -139 -14
-176 22 -36 35 -38 55 -6 55 35 0 56 -10 56 -26 0 -21 45 -28 93 -14 23 6 54
11 68 11 37 -1 55 23 41 53 -6 13 -8 27 -5 30 10 9 31 7 38 -4z m713 -2 c17
-17 15 -35 -5 -42 -18 -7 -58 28 -48 44 8 14 38 13 53 -2z m154 -13 c16 -35 1
-45 -22 -15 -24 30 -25 40 -5 40 9 0 21 -11 27 -25z m1956 2 c23 -19 -4 -31
-29 -13 -13 9 -31 16 -41 16 -9 0 -20 5 -24 11 -8 14 75 2 94 -14z m-2310 -3
c27 -19 28 -35 3 -51 -17 -11 -23 -8 -45 21 -14 19 -22 36 -19 40 11 11 38 7
61 -10z m2857 6 c3 -5 -3 -10 -15 -10 -12 0 -18 5 -15 10 3 6 10 10 15 10 5 0
12 -4 15 -10z m-925 -10 c18 -10 18 -12 2 -40 -18 -32 -38 -35 -56 -8 -8 13
-6 22 8 37 22 24 21 24 46 11z m-1621 -19 c7 -13 7 -23 -2 -35 -11 -15 -14
-14 -34 12 -12 17 -19 32 -16 36 13 12 43 5 52 -13z m139 -6 c-3 -14 -1 -28 3
-31 5 -3 9 -12 9 -21 0 -9 7 -25 17 -35 15 -17 15 -18 -1 -18 -53 0 57 -59
114 -61 l35 -1 -30 -9 c-41 -13 -89 -3 -122 25 -15 13 -38 26 -51 30 -20 7
-72 64 -72 79 0 16 28 5 50 -18 33 -35 46 -20 15 17 -24 29 -25 32 -9 49 25
28 47 25 42 -6z m1799 14 c15 -5 36 -20 45 -32 15 -18 18 -19 18 -5 0 25 12
28 56 17 44 -12 73 -34 84 -65 6 -15 18 -21 41 -22 45 -1 59 -18 30 -38 -16
-12 -21 -23 -17 -39 7 -27 -17 -41 -34 -20 -8 10 -8 19 0 34 12 24 8 26 -21
11 -25 -14 -54 1 -71 38 -11 23 -20 27 -64 30 -45 3 -51 6 -61 33 -7 17 -24
34 -42 42 -52 22 -18 37 36 16z m-2109 -11 c18 -18 15 -31 -9 -46 -18 -12 -24
-11 -45 9 -18 17 -21 25 -13 36 14 16 51 17 67 1z m1982 2 c18 -10 18 -11 -6
-35 -22 -22 -28 -24 -44 -12 -18 12 -18 15 -4 35 17 25 27 27 54 12z m-2970
-10 c12 -7 11 -13 -10 -34 -13 -15 -34 -26 -47 -26 -19 0 -23 5 -23 29 0 23 5
31 23 34 37 7 41 7 57 -3z m765 0 c-3 -5 -13 -10 -21 -10 -8 0 -25 -7 -38 -16
-30 -19 -49 2 -21 23 22 15 89 18 80 3z m-610 -9 c7 -12 -12 -24 -25 -16 -11
7 -4 25 10 25 5 0 11 -4 15 -9z m2340 -21 c-10 -11 -24 -20 -32 -20 -7 0 -13
-4 -13 -9 0 -5 10 -7 23 -4 21 4 21 3 -3 -10 -14 -8 -38 -17 -55 -18 -25 -3
-31 0 -33 18 -3 18 3 24 25 28 15 3 44 14 63 24 41 22 50 19 25 -9z m-1695 -1
c0 -5 -8 -9 -18 -9 -22 0 -48 -27 -54 -55 -2 -16 -12 -21 -48 -23 -45 -3 -80
-24 -80 -47 0 -17 -44 -35 -61 -24 -24 15 -30 10 -23 -17 4 -17 2 -29 -7 -34
-20 -13 -29 -2 -29 32 0 21 -6 31 -20 35 -41 11 -14 33 41 33 19 0 29 5 29 15
0 26 45 63 90 75 38 10 45 9 53 -5 8 -15 11 -15 32 5 35 33 95 45 95 19z m304
-1 c11 -19 0 -48 -20 -55 -13 -4 -47 54 -39 68 10 15 46 7 59 -13z m1571 12
c3 -5 1 -10 -4 -10 -6 0 -11 5 -11 10 0 6 2 10 4 10 3 0 8 -4 11 -10z m180 0
c6 -9 -1 -25 -24 -59 -8 -12 -12 -12 -25 -2 -19 16 -21 42 -4 59 14 14 45 16
53 2z m213 -12 c15 -15 16 -48 2 -48 -6 0 -13 -7 -17 -16 -6 -17 33 -64 54
-64 7 0 13 -4 13 -10 0 -5 19 -22 41 -37 23 -16 48 -32 55 -38 15 -11 19 -8
28 23 5 15 3 22 -6 22 -8 0 -23 6 -34 14 -14 11 -16 18 -7 26 8 9 20 9 47 -1
20 -7 36 -16 36 -21 0 -4 10 -16 22 -28 25 -23 16 -40 -12 -22 -11 7 -20 9
-20 4 0 -14 23 -32 42 -32 22 0 22 -1 4 -34 l-14 -27 -29 25 c-17 14 -41 30
-54 36 -13 6 -49 29 -79 51 -74 55 -128 89 -139 89 -5 0 -16 11 -25 25 -9 14
-12 25 -6 25 5 0 10 -4 10 -10 0 -5 7 -10 15 -10 10 0 15 11 15 35 0 30 3 35
23 35 13 0 28 -5 35 -12z m-2144 -20 c8 -14 6 -21 -9 -32 -18 -13 -22 -12 -44
11 -19 20 -21 27 -10 34 20 13 50 7 63 -13z m1344 -55 c13 -3 30 1 40 9 23 20
52 30 52 18 0 -24 -41 -50 -78 -50 -42 0 -64 17 -81 61 -15 41 0 44 23 4 11
-20 31 -38 44 -42z m1621 63 c9 -11 4 -23 -27 -59 -32 -36 -42 -59 -52 -112
-11 -59 -11 -69 3 -83 14 -13 21 -14 57 -2 22 7 57 29 77 48 31 28 89 62 107
62 2 0 6 -10 9 -22 8 -28 -17 -68 -41 -68 -28 0 -152 -64 -157 -81 -3 -9 -16
-21 -30 -27 -13 -6 -27 -23 -31 -37 -4 -15 -13 -25 -24 -25 -10 0 -20 -5 -22
-12 -3 -7 -14 -9 -31 -4 -24 6 -25 9 -16 30 8 18 7 30 -4 52 -13 25 -13 32 1
61 9 18 22 33 29 33 17 0 17 -15 -2 -30 -19 -16 -19 -54 -1 -69 17 -14 29 0
20 24 -4 10 3 26 17 41 32 34 17 57 -42 64 -36 4 -45 10 -53 31 -11 33 -1 75
20 83 21 8 44 -11 44 -35 0 -11 6 -19 13 -19 14 0 37 40 37 65 0 16 39 87 55
97 16 12 31 9 44 -6z m-889 -12 c0 -8 -4 -12 -10 -9 -5 3 -10 10 -10 16 0 5 5
9 10 9 6 0 10 -7 10 -16z m-1966 -10 c10 -26 7 -51 -8 -63 -11 -9 -18 -5 -35
21 -19 31 -19 34 -4 46 23 16 40 15 47 -4z m320 7 c4 -5 29 -15 56 -22 54 -14
56 -17 38 -42 -11 -14 -19 -15 -50 -7 -21 6 -40 16 -44 21 -4 8 1 9 17 4 27
-9 20 3 -13 19 -23 12 -36 36 -19 36 5 0 12 -4 15 -9z m1306 0 c0 -16 -30 -33
-46 -27 -13 5 -14 9 -4 21 13 16 50 21 50 6z m107 -24 c9 -6 10 -14 1 -32 -14
-32 -23 -31 -59 4 -26 26 -27 31 -14 45 15 15 27 12 72 -17z m142 24 c11 -7 9
-15 -10 -40 -12 -17 -27 -31 -31 -31 -18 0 -20 31 -4 55 18 27 24 29 45 16z
m-2086 -46 c-6 -37 10 -47 36 -22 11 10 13 9 9 -3 -3 -8 -20 -25 -39 -37 -76
-50 -132 -89 -162 -114 -18 -15 -42 -30 -55 -33 -12 -4 -34 -18 -49 -32 l-26
-24 -13 26 c-18 33 -18 34 5 34 21 0 48 27 37 37 -3 4 -12 1 -18 -5 -14 -14
-28 -16 -28 -3 0 24 78 81 110 81 20 0 9 -31 -15 -42 -19 -9 -24 -16 -19 -32
4 -12 8 -23 10 -25 4 -5 95 58 105 72 4 5 17 14 30 21 13 6 28 24 33 39 8 22
6 30 -8 40 -15 11 -16 17 -7 35 10 19 46 33 63 25 4 -2 4 -19 1 -38z m352 35
c-3 -5 -11 -10 -16 -10 -6 0 -7 5 -4 10 3 6 11 10 16 10 6 0 7 -4 4 -10z m460
-27 c-11 -44 -44 -73 -83 -73 -37 0 -72 23 -72 47 0 11 4 11 23 1 12 -7 25
-17 28 -21 14 -19 55 -1 78 36 29 44 36 47 26 10z m-788 -15 c-3 -7 -5 -2 -5
12 0 14 2 19 5 13 2 -7 2 -19 0 -25z m-830 -20 c14 -24 31 -60 36 -80 11 -44
33 -50 47 -13 18 46 70 22 70 -32 0 -34 -25 -56 -71 -62 -51 -7 -62 -30 -30
-65 13 -14 18 -29 14 -44 -6 -24 6 -29 25 -10 18 18 15 39 -10 65 -21 23 -21
23 -1 23 29 0 47 -47 33 -85 -6 -16 -8 -41 -5 -57 6 -25 4 -28 -19 -28 -13 0
-28 5 -31 11 -4 5 -12 8 -18 6 -7 -2 -18 9 -24 26 -7 16 -22 31 -33 34 -10 3
-22 13 -25 22 -6 18 -121 81 -150 81 -42 0 -77 72 -41 86 18 7 65 -17 91 -46
26 -29 92 -60 127 -60 21 0 29 6 34 24 3 13 1 32 -4 43 -5 10 -13 37 -16 59
-5 28 -18 52 -42 75 -41 40 -45 69 -9 69 18 0 32 -11 52 -42z m1201 30 c17
-17 15 -28 -7 -28 -25 0 -47 26 -29 33 20 8 23 8 36 -5z m1721 -32 c-26 -28
-39 -33 -39 -14 0 20 43 59 53 49 7 -7 1 -19 -14 -35z m201 -5 c26 -5 36 -13
38 -29 2 -12 12 -27 23 -32 10 -6 19 -15 19 -20 0 -5 -20 4 -45 21 -25 17 -45
35 -45 40 0 5 -6 9 -14 9 -8 0 -22 10 -30 22 -22 31 -20 45 2 18 9 -12 33 -25
52 -29z m-2172 27 c14 -14 16 -54 3 -62 -11 -7 -63 59 -54 68 10 10 38 7 51
-6z m176 -4 c4 -10 -5 -27 -21 -45 -25 -26 -28 -27 -45 -12 -25 23 -22 40 10
57 35 20 48 20 56 0z m2056 2 c0 -19 -17 -29 -25 -16 -4 6 -14 8 -24 5 -9 -3
-26 2 -37 10 -17 13 -15 14 34 15 39 0 52 -4 52 -14z m320 -12 l31 -27 -21
-14 c-20 -14 -24 -13 -55 17 -54 52 -14 73 45 24z m-827 -7 c56 -60 74 -110
53 -142 -29 -44 -70 -22 -43 22 4 6 3 14 -2 17 -5 4 -9 20 -9 36 1 35 -14 56
-47 64 -14 4 -25 11 -25 17 0 15 57 4 73 -14z m307 -8 c0 -6 -8 -22 -19 -35
-17 -21 -20 -22 -32 -8 -11 14 -10 19 10 35 26 21 41 24 41 8z m458 -28 c37
-33 41 -40 28 -51 -13 -10 -24 -7 -61 14 -53 32 -61 70 -15 75 3 0 24 -17 48
-38z m742 24 c16 -19 -1 -63 -36 -96 -13 -12 -29 -41 -35 -63 -14 -53 -64
-101 -114 -110 -34 -7 -42 -5 -57 14 -16 19 -25 60 -14 60 2 0 17 -7 32 -15
40 -20 67 -19 98 6 24 19 26 23 13 43 -11 17 -11 26 -1 45 7 13 10 38 7 56 -4
26 0 36 22 53 32 26 67 28 85 7z m-3494 -5 c43 0 25 -17 -23 -23 -27 -3 -50
-3 -52 -1 -9 8 23 35 36 29 8 -3 26 -5 39 -5z m64 2 c0 -20 -146 -136 -155
-123 -3 5 4 12 15 16 12 4 23 18 26 35 5 23 12 29 46 34 28 5 42 12 45 26 5
19 23 28 23 12z m142 -9 c10 -9 18 -25 18 -35 0 -17 -4 -16 -29 9 -38 37 -28
62 11 26z m2968 7 c0 -5 -4 -10 -10 -10 -5 0 -10 5 -10 10 0 6 5 10 10 10 6 0
10 -4 10 -10z m65 0 c3 -5 -1 -10 -9 -10 -9 0 -16 5 -16 10 0 6 4 10 9 10 6 0
13 -4 16 -10z m-3559 -11 c3 -6 -7 -25 -23 -41 -27 -27 -32 -29 -52 -17 -28
18 -27 26 12 49 36 23 53 25 63 9z m2275 -17 c0 -4 1 -36 2 -72 1 -63 1 -65
-25 -68 -25 -3 -26 -1 -21 35 4 33 1 43 -21 63 -30 29 -33 45 -9 58 16 10 72
-3 74 -16z m-1441 13 c0 -3 -15 -11 -34 -19 -39 -16 -48 -38 -48 -108 0 -57
-14 -70 -40 -38 -27 34 -22 63 22 119 32 41 46 51 70 51 17 0 30 -2 30 -5z
m1844 -3 c3 -5 -9 -19 -25 -31 -36 -27 -57 -16 -33 17 15 22 48 30 58 14z
m577 -29 c8 -40 -2 -42 -30 -7 -27 34 -26 46 1 42 16 -2 24 -12 29 -35z m369
27 c0 -5 -4 -10 -10 -10 -5 0 -10 5 -10 10 0 6 5 10 10 10 6 0 10 -4 10 -10z
m-3126 -29 c15 -16 15 -20 1 -31 -12 -10 -18 -8 -35 11 -10 13 -19 27 -20 32
0 14 37 7 54 -12z m2706 -16 c19 -19 31 -35 27 -35 -16 0 -77 46 -77 58 0 20
14 14 50 -23z m317 29 c-3 -3 -12 -4 -19 -1 -8 3 -5 6 6 6 11 1 17 -2 13 -5z
m-4187 -24 c24 -17 28 -25 23 -54 -3 -18 0 -43 6 -54 8 -16 8 -28 -1 -48 -11
-23 -10 -28 7 -40 23 -17 96 -19 112 -3 16 16 32 3 26 -21 -15 -58 -99 -54
-153 7 -17 18 -30 42 -30 52 0 9 -18 42 -40 71 -37 50 -49 87 -33 103 13 14
55 7 83 -13z m200 11 c0 -11 -31 -24 -39 -16 -3 3 1 10 9 15 19 12 30 12 30 1z
m55 -1 c3 -5 -1 -10 -10 -10 -9 0 -13 5 -10 10 3 6 8 10 10 10 2 0 7 -4 10
-10z m485 -2 c0 -19 -11 -31 -47 -56 -35 -25 -41 -26 -63 -12 -23 14 44 80 82
80 16 0 28 -5 28 -12z m3495 2 c3 -5 1 -10 -4 -10 -6 0 -11 5 -11 10 0 6 2 10
4 10 3 0 8 -4 11 -10z m-3115 -52 c0 -24 -9 -22 -44 6 -27 22 -27 24 -10 34
23 13 54 -10 54 -40z m420 33 c8 -16 6 -23 -8 -33 -28 -19 -44 -57 -38 -84 6
-23 0 -29 -30 -25 -8 1 -10 -14 -7 -44 5 -35 2 -46 -11 -51 -24 -9 -46 14 -46
47 0 22 6 32 24 38 27 11 36 44 30 109 -3 37 0 44 19 52 35 14 56 11 67 -9z
m1850 11 c0 -16 -48 -54 -59 -47 -18 11 -12 35 12 45 29 11 47 12 47 2z
m-2860 -10 c0 -4 -13 -23 -30 -42 l-29 -35 -1 31 c0 16 5 35 12 42 13 13 48
16 48 4z m3178 -19 c60 -34 57 -32 45 -44 -25 -25 -146 31 -128 60 10 17 33
13 83 -16z m-3473 -3 c3 -5 -1 -10 -9 -10 -9 0 -16 5 -16 10 0 6 4 10 9 10 6
0 13 -4 16 -10z m340 -9 c0 -6 -20 -23 -45 -38 l-44 -27 34 42 c33 40 55 49
55 23z m2866 -2 c-2 -8 -6 -26 -9 -41 -5 -33 -9 -34 -34 -11 -23 20 -23 49 0
62 23 14 48 8 43 -10z m411 -2 c34 -21 40 -45 11 -41 -7 1 -21 2 -31 3 -29 2
-56 26 -49 45 8 21 25 20 69 -7z m-984 -4 c7 -11 4 -26 -10 -50 -17 -28 -26
-33 -56 -33 -35 1 -36 2 -18 15 11 8 23 15 28 15 4 0 8 9 8 19 0 48 29 68 48
34z m1282 -3 c-6 -11 -17 -20 -25 -20 -8 0 -15 9 -15 20 0 15 7 20 25 20 23 0
24 -2 15 -20z m-3087 -4 c21 -16 22 -35 2 -42 -14 -6 -54 30 -55 49 0 12 34 7
53 -7z m3878 -13 c51 -24 294 -232 282 -243 -4 -3 -27 -12 -49 -18 -23 -7 -68
-33 -100 -57 -61 -47 -78 -66 -289 -315 -135 -160 -251 -278 -335 -340 -119
-89 -246 -128 -308 -96 -62 32 -34 84 68 129 62 28 85 50 95 90 8 30 -15 57
-188 213 l-77 71 89 66 c50 37 125 107 168 155 208 232 311 317 437 359 54 17
151 11 207 -14z m-4176 -8 c0 -22 -37 -43 -90 -52 -51 -8 -45 16 13 49 53 31
77 32 77 3z m2758 -2 c4 -3 -4 -14 -18 -25 -14 -10 -25 -26 -25 -34 0 -8 -4
-14 -10 -14 -11 0 -24 65 -15 79 6 10 46 6 68 -6z m436 8 c17 -11 6 -48 -19
-61 -26 -14 -46 20 -30 50 11 21 27 25 49 11z m-3749 -11 c0 -5 -5 -10 -11
-10 -5 0 -7 5 -4 10 3 6 8 10 11 10 2 0 4 -4 4 -10z m407 -6 c9 -23 -18 -44
-61 -47 -52 -3 -55 14 -9 41 45 26 62 27 70 6z m393 1 c15 -18 4 -52 -21 -65
-16 -9 -19 -7 -19 13 0 12 -5 28 -11 34 -6 6 -8 16 -5 22 10 16 41 14 56 -4z
m558 -2 c5 -10 7 -23 5 -30 -2 -7 10 -21 27 -32 30 -18 31 -19 11 -26 -21 -6
-61 9 -61 25 0 5 -7 16 -15 24 -12 12 -14 20 -5 36 13 25 26 26 38 3z m-1287
-3 c12 0 12 -27 0 -35 -11 -6 -41 21 -41 37 0 5 7 7 16 4 9 -3 20 -6 25 -6z
m3402 -1 c23 -6 37 -16 37 -26 0 -13 -9 -15 -46 -10 -49 5 -70 18 -60 36 9 14
21 14 69 0z m-3941 -41 c63 -30 157 -96 209 -148 8 -8 57 -63 108 -122 96
-110 207 -213 273 -251 36 -21 48 -42 29 -49 -5 -2 -29 -21 -53 -43 -24 -22
-78 -71 -120 -108 -43 -38 -80 -77 -83 -87 -13 -40 39 -101 98 -115 13 -4 41
-20 61 -36 104 -87 -30 -140 -178 -71 -146 68 -258 172 -517 477 -97 116 -193
222 -213 237 -50 40 -125 78 -152 78 -13 0 -24 4 -24 9 0 9 188 178 246 220
85 62 197 66 316 9z m4100 25 c38 -6 58 -30 36 -45 -20 -12 -102 -10 -116 4
-27 27 -7 63 28 51 8 -3 32 -7 52 -10z m682 2 c0 -13 -74 -55 -95 -55 -15 0
-15 3 0 35 14 34 18 36 56 33 22 -2 40 -7 39 -13z m-184 -5 c0 -6 -7 -13 -15
-16 -21 -8 -67 4 -60 16 8 13 75 13 75 0z m-3862 -12 c15 -15 16 -55 1 -63
-12 -8 -49 22 -49 40 0 12 20 35 30 35 3 0 11 -5 18 -12z m467 -7 c3 -10 0
-31 -6 -47 -11 -28 -11 -28 -19 -8 -5 12 -19 29 -31 38 l-23 15 25 10 c36 15
47 13 54 -8z m2046 9 c6 0 9 -17 7 -37 -3 -33 -7 -38 -30 -41 -21 -3 -28 1
-29 15 -3 49 7 77 27 69 9 -3 20 -6 25 -6z m587 -6 c19 -13 20 -18 11 -37 -16
-30 -29 -37 -53 -28 -28 11 -40 58 -18 71 24 13 34 12 60 -6z m-2798 -19 c0
-19 -31 -35 -69 -35 -42 0 -40 24 2 38 47 15 67 14 67 -3z m-812 -37 c6 -17
10 -33 8 -35 -5 -5 -48 14 -71 32 -17 14 -18 17 -5 25 30 19 55 11 68 -22z
m146 26 c9 -3 16 -10 16 -14 0 -13 -40 -19 -63 -10 -22 8 -22 8 3 18 14 6 26
11 27 11 1 1 8 -2 17 -5z m536 -13 c0 -31 -25 -42 -82 -39 -45 3 -53 6 -53 23
0 16 9 21 40 26 79 12 95 10 95 -10z m3097 2 c5 -14 -20 -28 -63 -36 -38 -7
-70 12 -61 37 6 14 18 16 64 14 32 -2 58 -8 60 -15z m491 -58 c30 -13 22 -30
-13 -30 -39 0 -72 53 -54 86 12 22 12 22 28 -12 9 -19 26 -38 39 -44z m-3360
56 c8 -5 12 -21 10 -37 -2 -24 -8 -29 -35 -32 -44 -4 -63 28 -33 58 22 22 37
25 58 11z m3082 -10 c11 -21 4 -51 -11 -51 -5 0 -15 12 -21 26 -10 21 -9 27 3
35 18 11 17 12 29 -10z m-65 -20 c-9 -16 -73 -41 -102 -41 -13 0 -26 7 -29 15
-11 26 15 44 69 47 55 3 74 -3 62 -21z m489 -58 c-138 -160 -274 -293 -301
-293 -23 0 -14 20 27 60 22 22 40 49 40 61 0 11 13 49 30 84 24 51 35 64 59
68 16 4 32 14 35 25 8 25 144 79 165 65 2 -1 -23 -33 -55 -70z m-3606 35 c5
-25 -36 -39 -82 -28 -45 10 -50 14 -42 35 9 24 119 17 124 -7z m2845 6 c9 -4
17 -13 17 -20 0 -18 -10 -18 -38 2 -23 16 -31 40 -9 30 6 -3 20 -9 30 -12z
m531 -27 c32 -47 32 -49 -1 -45 -20 2 -29 10 -35 33 -7 28 -3 63 7 54 2 -3 15
-21 29 -42z m-3921 13 c6 -23 -31 -84 -53 -87 -8 -2 -21 1 -29 6 -12 8 -8 15
17 36 18 15 32 35 32 46 0 25 26 25 33 -1z m244 -5 c2 -6 -3 -20 -11 -30 -19
-26 -41 -7 -31 25 7 21 35 25 42 5z m3253 5 c0 -5 -9 -14 -20 -20 -21 -11 -40
-6 -40 10 0 7 10 11 53 19 4 0 7 -3 7 -9z m-3093 -22 c22 -22 -8 -50 -45 -42
-37 9 -84 36 -90 52 -6 18 115 9 135 -10z m3283 14 c0 -22 -83 -77 -100 -67
-24 15 -8 41 33 57 50 18 67 21 67 10z m-3109 -35 c-15 -19 -49 -28 -57 -16
-3 5 6 14 20 21 14 6 26 16 26 22 0 6 4 6 12 -2 8 -8 8 -15 -1 -25z m-777 14
c3 -5 18 -12 32 -15 15 -4 39 -20 55 -37 15 -16 36 -29 47 -29 14 0 24 -13 36
-44 9 -25 24 -50 32 -56 7 -7 14 -25 14 -41 0 -19 12 -43 36 -69 20 -22 33
-40 29 -40 -21 0 -146 114 -223 203 -125 146 -119 137 -89 137 14 0 28 -4 31
-9z m248 -37 c-4 -46 -10 -54 -35 -54 -36 0 -39 10 -12 42 14 16 25 34 25 40
0 5 6 8 13 5 7 -2 11 -17 9 -33z m3496 13 c3 -14 -1 -18 -20 -15 -12 2 -24 11
-26 21 -3 14 1 18 20 15 12 -2 24 -11 26 -21z m182 9 c0 -8 -11 -27 -24 -43
-21 -24 -26 -26 -41 -13 -16 13 -14 16 17 42 38 31 48 34 48 14z m133 -16 c-5
-20 -15 -25 -26 -14 -9 9 12 46 23 39 4 -3 6 -14 3 -25z m-3364 3 c3 -2 0 -8
-6 -14 -12 -12 -53 4 -53 22 0 8 48 3 59 -8z m-180 -16 c47 -21 50 -24 38 -41
-9 -12 -20 -16 -33 -12 -27 8 -76 55 -69 67 8 12 4 13 64 -14z m3173 -6 c13
-23 14 -32 4 -40 -22 -19 -40 6 -37 52 2 25 14 21 33 -12z m318 15 c0 -7 -9
-25 -21 -40 -36 -46 -71 -28 -47 24 10 23 19 30 40 30 17 0 28 -5 28 -14z
m-3551 -46 c34 -29 35 -50 2 -50 -20 0 -51 40 -51 65 0 21 10 18 49 -15z m179
7 c4 -20 -25 -34 -40 -19 -15 15 -1 44 19 40 10 -2 19 -11 21 -21z m3168 10
c11 -1 29 -9 38 -17 10 -8 30 -13 46 -12 23 2 28 -2 34 -28 3 -17 3 -50 0 -73
-4 -28 -1 -56 10 -81 16 -37 15 -38 -3 -25 -10 8 -59 51 -108 95 -50 45 -95
83 -102 85 -9 3 -8 13 6 37 14 25 23 31 38 26 11 -3 29 -7 41 -7z m-3503 -18
c4 -15 1 -19 -11 -17 -21 4 -29 38 -9 38 8 0 17 -9 20 -21z m3831 12 c4 -5 -6
-23 -20 -40 -17 -21 -24 -39 -21 -52 4 -14 -2 -29 -18 -45 -32 -31 -42 -30
-50 6 -9 40 1 65 29 78 13 6 32 22 43 36 19 27 29 31 37 17z m-3739 -31 c26
-50 -6 -70 -45 -28 -31 34 -26 49 22 57 4 0 15 -13 23 -29z m285 -31 c-12 -22
-21 -24 -37 -8 -9 9 -6 19 10 41 21 28 22 28 29 8 4 -12 3 -30 -2 -41z m3376
48 c-68 -42 -82 -87 -47 -155 20 -40 14 -72 -14 -72 -29 0 -45 42 -45 116 0
68 1 72 25 78 13 3 29 15 35 26 7 13 21 20 38 19 25 0 26 -1 8 -12z m1234 -35
c14 -10 33 -35 44 -56 16 -33 17 -42 6 -82 -34 -119 -173 -230 -237 -189 -35
24 -30 67 12 109 25 25 56 42 106 57 l71 21 -89 59 c-48 32 -89 63 -91 67 -4
14 90 42 123 37 17 -3 41 -13 55 -23z m-4705 10 c10 -7 45 -58 45 -65 0 -8
-242 -217 -251 -217 -14 0 -11 12 11 45 15 23 20 47 20 105 0 83 8 104 34 94
11 -4 26 2 41 16 15 14 30 20 43 16 11 -4 23 -2 27 4 7 12 16 13 30 2z m-346
-31 c6 -10 26 -28 46 -40 37 -22 46 -53 24 -93 -11 -20 -11 -19 -40 8 -19 18
-27 34 -23 46 3 11 -3 29 -15 44 -22 28 -27 54 -11 54 5 0 14 -8 19 -19z m102
-15 c15 -13 33 -26 38 -28 6 -1 11 -31 13 -64 3 -85 -33 -139 -69 -103 -8 8
-6 22 8 53 10 22 19 53 19 67 0 30 -34 79 -55 79 -8 0 -17 5 -20 10 -12 20 38
9 66 -14z m-1133 -8 c17 -5 32 -13 32 -17 0 -5 -38 -34 -85 -65 -47 -31 -83
-60 -81 -65 3 -5 23 -12 43 -16 114 -20 195 -127 130 -170 -53 -34 -170 44
-222 148 -31 63 -32 94 -2 138 42 63 92 75 185 47z m4494 4 c20 -9 119 -93
219 -187 100 -93 185 -171 190 -173 22 -9 6 -22 -27 -22 -100 0 -174 -30 -564
-228 -561 -286 -603 -306 -735 -350 -213 -71 -387 -97 -590 -87 -333 16 -597
68 -910 180 -124 45 -465 190 -571 243 -135 68 -350 148 -443 166 l-64 12 226
202 c125 111 238 207 252 212 78 30 198 -10 666 -218 404 -179 513 -211 747
-220 162 -5 284 8 407 43 118 35 372 145 600 260 211 107 299 146 387 169 74
20 165 19 210 -2z m1425 -38 c29 -20 53 -40 53 -44 0 -4 -13 -13 -30 -20 -35
-14 -110 -93 -110 -115 0 -8 -2 -15 -5 -15 -14 0 -105 76 -105 87 0 14 121
143 135 143 5 0 33 -16 62 -36z m-5770 -78 c35 -36 63 -71 63 -78 -1 -11 -90
-88 -103 -88 -3 0 -8 11 -11 24 -7 29 -70 91 -108 107 -16 6 -27 16 -26 20 4
11 100 78 113 78 5 1 37 -28 72 -63z m4832 -326 c43 -21 57 -45 40 -66 -7 -8
-43 -31 -82 -51 -42 -22 -77 -49 -88 -67 l-18 -29 -80 81 c-45 45 -81 86 -81
91 0 10 67 38 122 51 64 15 147 11 187 -10z m-3839 -78 c30 -11 69 -25 85 -32
l30 -12 -74 -69 -75 -69 -25 31 c-15 17 -57 47 -96 67 -58 31 -71 42 -73 65
-3 21 2 30 20 37 33 14 144 4 208 -18z"/>
<path d="M3205 5240 c17 -4 44 -8 60 -8 l30 0 -30 8 c-16 4 -43 8 -60 8 l-30
0 30 -8z"/>
<path d="M3148 5233 c7 -3 16 -2 19 1 4 3 -2 6 -13 5 -11 0 -14 -3 -6 -6z"/>
<path d="M3325 5213 c39 -20 83 -61 106 -98 11 -16 19 -24 19 -17 0 29 -116
133 -147 132 -4 -1 6 -8 22 -17z"/>
<path d="M3074 5204 c-18 -14 -18 -15 4 -4 12 6 22 13 22 15 0 8 -5 6 -26 -11z"/>
<path d="M3113 5203 c-7 -3 -13 -11 -13 -18 0 -7 -25 -38 -55 -68 l-55 -55 11
-57 c6 -32 8 -68 5 -82 -5 -17 -2 -25 12 -31 26 -10 87 -65 95 -85 6 -17 28
-23 40 -11 8 9 105 7 134 -2 17 -5 25 -1 30 12 8 24 72 88 96 97 17 6 23 28
11 40 -9 8 -8 87 0 108 8 19 -130 163 -146 153 -12 -8 -131 -9 -144 -2 -5 3
-15 3 -21 1z m129 -49 c11 -11 -17 -64 -33 -64 -21 0 -44 56 -26 64 17 6 53 7
59 0z m-107 -55 c21 -39 6 -62 -34 -53 -44 11 -47 22 -16 54 16 16 30 30 32
30 1 0 10 -14 18 -31z m196 5 c24 -25 24 -26 5 -40 -23 -17 -52 -18 -61 -3 -8
11 13 69 24 69 4 0 18 -12 32 -26z m-76 -74 c29 -32 10 -74 -33 -78 -18 -2
-40 2 -48 9 -17 14 -18 61 -2 77 19 19 63 14 83 -8z m125 -34 c0 -32 -6 -35
-46 -23 -43 13 -43 24 -2 42 39 16 48 12 48 -19z m-263 -13 c4 -10 -54 -40
-62 -32 -7 8 -14 57 -8 63 8 7 66 -18 70 -31z m202 -54 c17 -6 31 -14 31 -17
0 -12 -34 -42 -47 -42 -15 0 -36 47 -27 61 7 11 5 11 43 -2z m-169 -3 c0 -3
-4 -16 -10 -30 -11 -30 -25 -33 -48 -10 -15 15 -14 18 3 30 18 13 55 19 55 10z
m85 -46 c21 -40 20 -40 -25 -40 -22 0 -40 2 -40 5 0 14 32 65 40 65 5 0 16
-13 25 -30z"/>
<path d="M3023 5168 c-31 -35 -56 -78 -49 -85 3 -3 6 -1 6 5 0 6 16 31 35 56
37 49 41 60 8 24z"/>
<path d="M2961 5054 c0 -11 3 -14 6 -6 3 7 2 16 -1 19 -3 4 -6 -2 -5 -13z"/>
<path d="M3463 5015 c0 -22 2 -30 4 -17 2 12 2 30 0 40 -3 9 -5 -1 -4 -23z"/>
<path d="M3461 4954 c0 -11 3 -14 6 -6 3 7 2 16 -1 19 -3 4 -6 -2 -5 -13z"/>
<path d="M3432 4885 c-14 -30 -38 -55 -74 -79 -29 -20 -48 -36 -41 -36 23 0
110 79 127 115 10 20 16 38 14 41 -2 2 -14 -16 -26 -41z"/>
<path d="M3001 4860 c29 -39 113 -100 138 -100 9 0 -4 10 -29 21 -24 11 -65
41 -90 67 -34 36 -39 39 -19 12z"/>
<path d="M3450 4861 c-15 -28 -13 -31 18 -30 17 1 21 3 9 6 -12 3 -16 10 -12
24 8 25 -1 25 -15 0z"/>
<path d="M3510 4822 c8 -5 26 -13 40 -16 17 -5 20 -4 10 2 -8 5 -26 13 -40 16
-17 5 -20 4 -10 -2z"/>
<path d="M2885 4805 c-39 -17 -21 -18 25 0 19 7 28 14 20 14 -8 0 -28 -6 -45
-14z"/>
<path d="M2775 4757 c-87 -47 -147 -91 -221 -159 -59 -56 -134 -146 -134 -163
0 -4 20 20 45 53 79 105 184 191 320 264 39 21 66 37 60 38 -5 0 -37 -15 -70
-33z"/>
<path d="M3630 4775 c14 -8 30 -14 35 -14 6 0 -1 6 -15 14 -14 8 -29 14 -35
14 -5 0 1 -6 15 -14z"/>
<path d="M3278 4763 c7 -3 16 -2 19 1 4 3 -2 6 -13 5 -11 0 -14 -3 -6 -6z"/>
<path d="M3193 4753 c15 -2 37 -2 50 0 12 2 0 4 -28 4 -27 0 -38 -2 -22 -4z"/>
<path d="M3174 4723 c7 -7 77 -5 85 2 2 3 -17 5 -44 5 -27 0 -45 -3 -41 -7z"/>
<path d="M3095 4676 c-5 -2 -46 -14 -90 -26 -208 -59 -371 -193 -466 -385 -64
-130 -82 -215 -76 -360 7 -186 68 -329 200 -471 198 -213 513 -299 795 -217
430 124 661 580 499 983 -85 208 -241 356 -465 438 -91 33 -105 35 -242 38
-80 2 -149 2 -155 0z m330 -70 c243 -67 445 -264 506 -493 26 -96 28 -259 4
-348 -64 -247 -279 -452 -532 -509 -89 -20 -236 -20 -328 -1 -188 40 -369 170
-468 337 -64 108 -90 204 -91 338 -1 172 45 310 143 430 107 132 223 204 411
255 71 19 270 14 355 -9z"/>
<path d="M3120 4600 l-35 -7 42 -2 c23 0 45 -6 48 -11 4 -6 12 -4 21 5 19 18
29 19 46 2 11 -11 18 -10 43 5 l30 18 -80 -1 c-44 -1 -96 -5 -115 -9z"/>
<path d="M3048 4583 c7 -3 16 -2 19 1 4 3 -2 6 -13 5 -11 0 -14 -3 -6 -6z"/>
<path d="M3417 4571 c12 -12 33 -21 47 -21 31 0 42 -16 24 -37 -11 -14 -9 -14
14 1 16 11 36 15 50 12 13 -3 -4 7 -37 23 -33 16 -73 32 -90 36 l-30 6 22 -20z"/>
<path d="M2911 4535 c-100 -49 -189 -124 -251 -212 l-33 -48 35 38 c20 20 45
37 55 37 16 0 19 5 15 25 -4 24 8 31 41 26 4 0 7 8 7 18 0 21 44 62 92 87 22
11 37 13 58 6 24 -9 27 -8 23 8 -6 23 11 34 34 21 15 -7 21 -4 30 15 16 34 2
32 -106 -21z"/>
<path d="M3125 4561 c-3 -6 -25 -11 -48 -12 l-42 -1 30 -13 c26 -11 33 -11 53
1 12 8 28 12 34 8 6 -4 9 -1 6 6 -6 18 -24 24 -33 11z"/>
<path d="M3191 4550 c0 -8 4 -24 9 -35 5 -13 9 -14 9 -5 0 8 -4 24 -9 35 -5
13 -9 14 -9 5z"/>
<path d="M3242 4535 c0 -16 2 -22 5 -12 2 9 2 23 0 30 -3 6 -5 -1 -5 -18z"/>
<path d="M3277 4548 c-4 -13 12 -16 88 -19 17 -1 33 -7 37 -13 5 -7 8 -4 8 7
0 20 -7 23 -76 31 -37 5 -53 3 -57 -6z"/>
<path d="M3580 4517 c0 -3 18 -16 40 -31 24 -16 40 -34 40 -46 0 -11 3 -19 8
-19 21 4 34 -3 44 -26 6 -14 19 -25 30 -25 24 0 87 -88 88 -122 0 -15 7 -31
16 -36 11 -6 15 -17 11 -31 -4 -15 3 -30 25 -51 26 -27 29 -28 23 -7 -3 12
-25 60 -47 107 -33 69 -57 101 -127 171 -71 71 -151 132 -151 116z"/>
<path d="M3543 4466 c13 -14 35 -28 50 -31 31 -8 31 -8 16 -38 -10 -21 -10
-21 5 -3 24 30 20 42 -28 70 -56 33 -72 33 -43 2z"/>
<path d="M2884 4469 c-3 -6 -22 -17 -40 -25 -20 -9 -34 -21 -34 -32 0 -10 3
-13 8 -7 4 6 20 15 36 20 29 10 68 55 48 55 -6 0 -14 -5 -18 -11z"/>
<path d="M3171 4443 c-1 -25 -36 -33 -43 -11 -3 8 -12 4 -26 -10 -20 -20 -35
-26 -54 -23 -5 0 -8 -3 -8 -8 0 -14 -43 -21 -57 -9 -11 8 -12 7 -7 -7 6 -15 3
-17 -19 -13 -19 4 -27 1 -27 -10 0 -20 -115 -132 -137 -132 -12 0 -14 -3 -6
-11 11 -11 -4 -69 -18 -69 -3 0 -12 -21 -19 -46 -9 -30 -20 -48 -32 -52 -15
-3 -16 -7 -7 -18 19 -23 18 -166 -1 -181 -13 -11 -13 -12 3 -13 17 0 45 -53
39 -72 -1 -5 2 -8 7 -8 12 0 44 -87 36 -100 -3 -5 1 -10 10 -10 10 0 33 -16
53 -36 20 -20 47 -43 59 -51 13 -9 23 -24 23 -34 0 -11 5 -16 14 -13 7 3 39
-6 71 -20 32 -15 66 -26 77 -26 10 0 21 -7 24 -15 5 -11 10 -12 26 -4 11 6 26
8 34 5 8 -3 14 -1 14 4 0 6 -12 10 -26 10 -74 0 -213 64 -286 132 -121 112
-177 304 -134 463 49 181 194 313 387 349 38 8 73 17 77 21 4 4 -3 4 -15 1
-17 -6 -22 -2 -26 16 l-4 23 -2 -22z"/>
<path d="M3320 4432 c0 -10 -11 -12 -45 -6 -25 3 -45 2 -45 -2 0 -5 21 -10 48
-12 146 -9 311 -110 382 -235 16 -28 31 -44 34 -38 4 6 2 11 -4 11 -7 0 -10 6
-7 13 2 6 -3 17 -12 24 -13 10 -14 15 -3 33 11 19 11 20 -10 15 -18 -4 -31 5
-62 41 -29 34 -36 48 -27 57 6 6 11 16 11 21 0 6 -7 3 -15 -8 -16 -21 -50 -14
-42 9 4 9 1 12 -8 9 -17 -7 -177 53 -187 70 -6 8 -8 7 -8 -2z"/>
<path d="M3100 4376 c-306 -86 -436 -432 -260 -692 89 -132 230 -204 401 -204
366 0 588 391 394 695 -60 94 -157 165 -275 201 -55 17 -199 17 -260 0z m251
-32 c78 -23 125 -50 182 -102 93 -87 137 -186 137 -307 0 -272 -249 -468 -523
-412 -183 37 -315 172 -349 356 -29 153 59 334 200 417 105 62 243 80 353 48z"/>
<path d="M3097 4321 c-151 -50 -253 -168 -280 -325 -29 -172 70 -349 241 -429
86 -40 218 -50 303 -22 155 50 263 174 288 333 27 168 -73 348 -235 424 -88
41 -226 49 -317 19z m-137 -148 c-5 -21 -11 -79 -15 -129 -6 -81 -5 -92 10
-98 15 -5 15 -9 4 -22 -7 -9 -14 -23 -15 -32 -3 -17 -24 -33 -36 -26 -5 3 -6
10 -3 15 4 5 1 9 -5 9 -7 0 -9 7 -6 15 3 9 -1 18 -9 21 -8 4 -15 12 -15 20 0
17 17 18 22 2 3 -7 8 25 11 72 7 89 22 156 39 178 19 22 26 12 18 -25z m489
-8 c32 -15 62 -23 74 -19 14 4 18 2 15 -7 -5 -14 -29 -15 -83 -4 -16 3 -41 8
-55 10 -39 6 -54 10 -68 19 -14 8 -42 -9 -42 -26 0 -6 7 -5 15 2 13 10 15 9
15 -9 0 -13 4 -19 10 -16 6 4 18 1 26 -6 9 -8 35 -10 76 -6 33 3 71 1 84 -3
33 -13 49 -47 35 -77 -9 -19 -7 -29 6 -49 15 -24 15 -29 -6 -95 -22 -70 -21
-89 5 -89 19 0 18 -14 -2 -31 -11 -9 -14 -22 -10 -41 5 -24 2 -28 -17 -29 -12
-1 -60 -3 -107 -5 -47 -2 -95 -6 -107 -9 -13 -3 -23 -1 -23 4 0 14 31 35 53
36 27 0 28 26 2 82 -14 30 -24 41 -35 36 -70 -29 -115 -41 -122 -30 -4 7 -10
3 -16 -13 -7 -19 -6 -26 4 -28 19 -5 17 -29 -3 -36 -12 -5 -14 -9 -5 -18 23
-23 11 -29 -53 -27 -42 1 -64 6 -62 13 2 6 15 12 29 14 15 2 29 10 32 18 7 17
-12 102 -24 109 -5 3 -6 -4 -3 -16 5 -19 4 -20 -15 -10 -18 10 -21 9 -16 -4 8
-20 -29 -20 -46 -1 -6 8 -18 12 -25 10 -9 -4 -12 0 -8 14 2 11 0 23 -6 26 -15
10 -14 56 1 56 6 0 19 -7 29 -16 16 -14 18 -13 24 15 5 22 21 41 52 62 29 20
41 35 35 41 -6 6 -16 6 -28 0 -19 -10 -57 -1 -67 15 -18 29 58 48 88 23 16
-13 18 -13 13 0 -2 8 -26 22 -52 31 -26 9 -52 21 -58 27 -13 13 -1 35 15 25
18 -11 50 -4 64 14 10 13 15 14 28 3 12 -10 16 -9 21 3 4 12 17 14 57 11 61
-6 68 -11 43 -30 -11 -8 -15 -14 -10 -14 6 0 9 -23 7 -54 -3 -66 4 -69 108
-49 41 8 98 12 126 9 57 -5 68 2 58 35 -7 20 -11 21 -91 14 -56 -4 -95 -3
-120 5 -29 10 -38 10 -45 -1 -15 -24 -20 -2 -10 42 5 24 18 49 27 56 29 21
104 15 163 -12z m-509 -316 c0 -6 7 -9 15 -5 8 3 15 1 15 -4 0 -6 -7 -10 -15
-10 -11 0 -15 -12 -15 -45 0 -25 -4 -45 -10 -45 -5 0 -10 18 -10 41 0 32 -4
42 -20 46 -11 3 -17 9 -15 14 3 4 12 6 20 2 8 -3 15 0 15 6 0 6 5 11 10 11 6
0 10 -5 10 -11z m-36 -78 c-9 -10 -26 18 -18 30 5 9 9 8 14 -7 4 -10 6 -21 4
-23z m71 8 c-10 -15 -25 -10 -19 6 4 8 10 12 15 9 5 -3 7 -10 4 -15z"/>
<path d="M3090 4110 c0 -5 5 -10 11 -10 5 0 7 5 4 10 -3 6 -8 10 -11 10 -2 0
-4 -4 -4 -10z"/>
<path d="M3385 3860 c3 -5 8 -10 11 -10 2 0 4 5 4 10 0 6 -5 10 -11 10 -5 0
-7 -4 -4 -10z"/>
<path d="M3426 3813 c-5 -16 -3 -29 4 -33 9 -5 9 -9 1 -14 -19 -12 -13 -46 8
-46 11 0 26 -3 35 -6 28 -11 22 77 -7 104 -30 28 -33 28 -41 -5z"/>
<path d="M3728 4310 c5 -34 62 -85 62 -55 0 8 -6 18 -14 21 -8 3 -19 19 -25
35 -13 38 -29 37 -23 -1z"/>
<path d="M2714 4322 c-6 -4 -14 -17 -18 -29 -4 -13 -11 -23 -16 -23 -14 0 -41
-31 -35 -40 3 -5 14 -1 24 9 10 10 24 20 30 22 8 3 36 70 28 69 -1 0 -7 -4
-13 -8z"/>
<path d="M2598 4225 c-21 -40 -51 -145 -44 -152 3 -4 6 1 6 11 0 9 11 28 24
41 14 14 20 27 15 30 -15 10 -10 35 9 43 14 5 17 13 12 32 l-6 25 -16 -30z"/>
<path d="M3700 4120 c-8 -5 -10 -10 -5 -10 6 0 17 5 25 10 8 5 11 10 5 10 -5
0 -17 -5 -25 -10z"/>
<path d="M3833 4119 c12 -7 16 -17 12 -29 -3 -11 2 -34 11 -52 14 -26 19 -29
22 -15 2 10 -2 24 -8 32 -7 8 -9 22 -6 31 8 20 -10 44 -33 44 -14 -1 -14 -2 2
-11z"/>
<path d="M2607 4113 c-4 -3 -7 -21 -7 -39 0 -18 -4 -36 -10 -39 -5 -3 -10 -16
-10 -28 0 -19 3 -17 21 12 13 21 19 45 17 62 -4 22 0 29 16 32 l21 4 -21 2
c-11 0 -24 -2 -27 -6z"/>
<path d="M3705 4081 c4 -9 9 -28 12 -43 6 -32 9 -33 29 -13 14 13 14 15 0 15
-15 0 -31 34 -22 48 3 5 -2 9 -10 9 -9 0 -13 -6 -9 -16z"/>
<path d="M2538 4005 c-4 -33 -3 -87 1 -120 5 -33 9 -50 10 -37 0 13 6 32 12
43 8 15 7 24 -2 35 -10 12 -10 20 -2 34 7 10 8 21 3 26 -5 5 -10 25 -12 44 -3
28 -5 23 -10 -25z"/>
<path d="M3912 4014 c-8 -17 -9 -31 -2 -44 11 -21 4 -50 -13 -50 -5 0 -3 -8 6
-17 8 -10 17 -31 20 -48 2 -16 5 18 6 78 0 59 -1 107 -2 107 -2 0 -9 -12 -15
-26z"/>
<path d="M3768 3923 c7 -3 16 -2 19 1 4 3 -2 6 -13 5 -11 0 -14 -3 -6 -6z"/>
<path d="M3727 3875 c-4 -22 -10 -51 -13 -65 -5 -25 -5 -25 11 3 8 15 23 27
32 27 15 0 16 1 1 13 -9 6 -18 23 -20 37 -3 20 -5 17 -11 -15z"/>
<path d="M3750 3900 c0 -5 7 -10 15 -10 8 0 15 5 15 10 0 6 -7 10 -15 10 -8 0
-15 -4 -15 -10z"/>
<path d="M3803 3893 c9 -2 23 -2 30 0 6 3 -1 5 -18 5 -16 0 -22 -2 -12 -5z"/>
<path d="M2585 3868 c-4 -9 1 -28 10 -41 10 -16 14 -34 9 -51 -3 -15 -2 -26 4
-26 19 0 20 64 1 99 -14 26 -20 31 -24 19z"/>
<path d="M3857 3855 c-13 -18 -16 -34 -11 -60 8 -43 20 -37 26 12 3 21 8 46
12 56 12 25 -6 20 -27 -8z"/>
<path d="M3906 3780 c-4 -22 -15 -35 -38 -45 -19 -8 -26 -14 -15 -15 10 0 17
-8 17 -20 0 -18 -10 -24 -32 -21 -4 0 -4 -15 -1 -34 7 -42 -25 -98 -67 -117
-17 -7 -30 -21 -30 -30 0 -10 -10 -20 -24 -24 -14 -3 -27 -15 -30 -29 -3 -13
-25 -37 -49 -53 -50 -35 -92 -34 -120 0 l-19 23 16 -27 c21 -36 11 -60 -23
-56 -17 2 -32 -4 -43 -19 -26 -32 -23 -33 32 -13 158 58 303 183 377 325 40
77 71 170 61 181 -3 2 -8 -9 -12 -26z"/>
<path d="M2556 3765 c7 -32 70 -175 77 -175 2 0 2 11 -1 25 -2 14 1 31 7 38 8
11 6 13 -12 13 -19 -1 -22 4 -21 32 1 17 -2 32 -7 32 -5 0 -18 15 -30 33 l-20
32 7 -30z"/>
<path d="M3678 3718 c-62 -130 -245 -255 -382 -259 l-31 -1 38 -10 c20 -6 37
-15 38 -21 0 -7 4 -3 8 8 9 20 152 82 179 77 6 -2 12 6 12 16 0 21 25 36 42
25 7 -3 8 -1 4 5 -9 15 75 104 93 97 11 -4 11 -2 2 9 -11 13 -6 46 8 46 4 0 7
9 8 20 2 27 -1 25 -19 -12z"/>
<path d="M3800 3648 c0 -10 -9 -22 -19 -28 -11 -5 -23 -20 -27 -32 -4 -13 -12
-27 -18 -31 -7 -5 -3 -7 9 -5 11 2 21 12 23 22 2 10 15 28 28 40 18 16 21 25
14 36 -8 13 -10 13 -10 -2z"/>
<path d="M2664 3639 c-3 -6 6 -23 20 -38 14 -15 26 -34 26 -43 0 -23 17 -31
37 -18 17 11 17 11 1 6 -13 -4 -18 0 -18 15 0 26 -56 93 -66 78z"/>
<path d="M2672 3536 c60 -89 210 -196 338 -240 61 -21 67 -20 36 9 -15 13 -33
22 -41 19 -20 -8 -47 15 -41 33 5 11 0 13 -17 7 -12 -4 -30 -7 -41 -6 -31 2
-95 50 -102 77 -4 16 -13 25 -25 25 -11 0 -24 11 -31 25 -6 14 -19 25 -29 25
-9 0 -31 17 -49 38 l-32 37 34 -49z"/>
<path d="M2801 3487 c-13 -21 -12 -21 5 -5 10 10 16 20 13 22 -3 3 -11 -5 -18
-17z"/>
<path d="M3640 3470 c0 -15 -7 -20 -24 -20 -14 0 -31 -8 -38 -18 -7 -11 -20
-21 -28 -25 -10 -4 -9 -6 6 -6 12 -1 27 5 33 13 7 8 23 17 36 20 18 5 25 13
25 31 0 14 -2 25 -5 25 -3 0 -5 -9 -5 -20z"/>
<path d="M2830 3448 c0 -9 10 -20 23 -23 12 -4 32 -17 45 -28 17 -16 27 -19
39 -11 9 6 18 16 19 22 1 7 0 8 -3 2 -8 -16 -28 -12 -48 10 -10 11 -26 20 -35
20 -9 0 -21 5 -28 12 -9 9 -12 8 -12 -4z"/>
<path d="M2995 3429 c-4 -6 -5 -12 -2 -15 2 -3 7 2 10 11 7 17 1 20 -8 4z"/>
<path d="M3053 3335 c2 -5 17 -10 33 -11 16 -1 40 -6 52 -13 12 -7 27 -9 33
-5 6 3 -2 13 -18 22 -32 17 -105 23 -100 7z"/>
<path d="M3345 3339 c-4 -6 -16 -8 -27 -6 -12 4 -18 1 -15 -6 2 -7 15 -10 28
-9 13 2 41 4 62 4 21 0 37 5 37 11 0 16 -77 21 -85 6z"/>
<path d="M3170 3279 l-35 -19 95 1 c52 1 109 5 125 9 l30 8 -33 1 c-18 0 -42
5 -52 11 -13 7 -21 6 -30 -5 -11 -14 -15 -14 -36 0 -13 8 -25 14 -26 14 -2 -1
-19 -10 -38 -20z"/>
<path d="M3098 3273 c7 -3 16 -2 19 1 4 3 -2 6 -13 5 -11 0 -14 -3 -6 -6z"/>
<path d="M2838 4624 c-38 -20 -36 -28 2 -9 17 9 30 18 30 20 0 7 -1 6 -32 -11z"/>
<path d="M3620 4616 c0 -2 7 -7 16 -10 8 -3 12 -2 9 4 -6 10 -25 14 -25 6z"/>
<path d="M2685 4600 c-3 -5 -1 -10 4 -10 6 0 11 5 11 10 0 6 -2 10 -4 10 -3 0
-8 -4 -11 -10z"/>
<path d="M3766 4587 c3 -10 9 -15 12 -12 3 3 0 11 -7 18 -10 9 -11 8 -5 -6z"/>
<path d="M3845 4580 c3 -5 8 -10 11 -10 2 0 4 5 4 10 0 6 -5 10 -11 10 -5 0
-7 -4 -4 -10z"/>
<path d="M2620 4560 c-13 -8 -12 -10 3 -10 9 0 17 5 17 10 0 12 -1 12 -20 0z"/>
<path d="M2550 4540 c0 -5 5 -10 10 -10 6 0 10 5 10 10 0 6 -4 10 -10 10 -5 0
-10 -4 -10 -10z"/>
<path d="M3760 4526 c0 -2 8 -10 18 -17 15 -13 16 -12 3 4 -13 16 -21 21 -21
13z"/>
<path d="M2565 4509 c-6 -8 -4 -10 4 -5 8 5 14 0 18 -13 6 -23 28 -28 39 -8 4
6 3 9 -1 4 -5 -4 -19 2 -31 14 -16 15 -24 17 -29 8z"/>
<path d="M2525 4490 c-3 -5 -1 -10 4 -10 6 0 11 5 11 10 0 6 -2 10 -4 10 -3 0
-8 -4 -11 -10z"/>
<path d="M3812 4480 c7 -10 14 -18 15 -16 6 6 -9 36 -18 36 -5 0 -4 -9 3 -20z"/>
<path d="M2639 4473 c-13 -16 -12 -17 4 -4 16 13 21 21 13 21 -2 0 -10 -8 -17
-17z"/>
<path d="M4010 4475 c0 -6 14 -26 30 -45 17 -19 26 -26 21 -15 -16 30 -51 71
-51 60z"/>
<path d="M2480 4464 c0 -7 9 -22 20 -35 25 -31 26 -12 0 21 -11 14 -20 20 -20
14z"/>
<path d="M2605 4439 c-4 -6 -5 -12 -2 -15 2 -3 7 2 10 11 7 17 1 20 -8 4z"/>
<path d="M3850 4436 c0 -2 8 -10 18 -17 15 -13 16 -12 3 4 -13 16 -21 21 -21
13z"/>
<path d="M4097 4335 c9 -19 18 -33 21 -31 4 5 -26 66 -33 66 -3 0 3 -16 12
-35z"/>
<path d="M2356 4325 c-9 -26 -7 -32 5 -12 6 10 9 21 6 23 -2 3 -7 -2 -11 -11z"/>
<path d="M3951 4304 c0 -11 3 -14 6 -6 3 7 2 16 -1 19 -3 4 -6 -2 -5 -13z"/>
<path d="M2408 4278 c5 -5 16 -8 23 -6 8 3 3 7 -10 11 -17 4 -21 3 -13 -5z"/>
<path d="M2365 4269 c-4 -6 -5 -12 -2 -15 2 -3 7 2 10 11 7 17 1 20 -8 4z"/>
<path d="M2321 4248 c0 -9 -4 -25 -7 -35 -5 -14 -4 -15 5 -7 7 7 11 22 8 35
-2 13 -5 16 -6 7z"/>
<path d="M3992 4203 c11 -32 27 -78 34 -103 l14 -45 -6 45 c-4 25 -7 53 -7 63
-1 9 -4 17 -8 17 -4 0 -13 16 -19 35 -6 19 -15 37 -20 40 -5 3 1 -21 12 -52z"/>
<path d="M4036 4198 c3 -4 9 -8 15 -8 5 0 9 4 9 8 0 5 -7 9 -15 9 -8 0 -12 -4
-9 -9z"/>
<path d="M2375 4178 c11 -6 25 -19 32 -27 8 -10 12 -11 13 -4 0 13 -38 43 -55
43 -5 0 -1 -6 10 -12z"/>
<path d="M4080 4175 c0 -10 -6 -12 -17 -8 -17 6 -17 6 -1 -10 22 -22 25 -22
30 8 3 14 1 25 -3 25 -5 0 -9 -7 -9 -15z"/>
<path d="M2296 4154 c-4 -14 -5 -28 -3 -31 3 -2 8 8 11 23 4 14 5 28 3 31 -3
2 -8 -8 -11 -23z"/>
<path d="M4040 4136 c0 -8 5 -18 10 -21 6 -3 10 1 10 9 0 8 -4 18 -10 21 -5 3
-10 -1 -10 -9z"/>
<path d="M4171 4134 c0 -11 3 -14 6 -6 3 7 2 16 -1 19 -3 4 -6 -2 -5 -13z"/>
<path d="M4110 4115 c-7 -9 -10 -18 -6 -22 3 -3 6 -1 6 5 0 6 8 12 18 14 11 2
13 6 6 11 -7 4 -17 0 -24 -8z"/>
<path d="M2426 4082 c-5 -18 -5 -36 -2 -39 7 -7 19 43 13 59 -2 7 -7 -2 -11
-20z"/>
<path d="M4080 4095 c0 -5 5 -17 10 -25 5 -8 10 -10 10 -5 0 6 -5 17 -10 25
-5 8 -10 11 -10 5z"/>
<path d="M4181 4084 c0 -11 3 -14 6 -6 3 7 2 16 -1 19 -3 4 -6 -2 -5 -13z"/>
<path d="M2346 4075 c-9 -26 -7 -32 5 -12 6 10 9 21 6 23 -2 3 -7 -2 -11 -11z"/>
<path d="M2301 4044 c0 -11 3 -14 6 -6 3 7 2 16 -1 19 -3 4 -6 -2 -5 -13z"/>
<path d="M4145 4050 c3 -5 8 -10 11 -10 2 0 4 5 4 10 0 6 -5 10 -11 10 -5 0
-7 -4 -4 -10z"/>
<path d="M2274 4036 c-3 -7 -4 -35 -2 -62 l3 -49 5 63 c5 63 4 73 -6 48z"/>
<path d="M4103 4030 c-1 -11 2 -20 6 -20 5 0 11 9 14 20 3 12 0 20 -7 20 -6 0
-12 -9 -13 -20z"/>
<path d="M2350 4015 c0 -8 2 -15 4 -15 2 0 6 7 10 15 3 8 1 15 -4 15 -6 0 -10
-7 -10 -15z"/>
<path d="M4142 4018 c-7 -7 -12 -20 -12 -29 0 -9 -7 -19 -15 -23 -8 -3 -15
-13 -15 -23 1 -17 1 -17 14 -1 10 14 15 15 26 5 10 -10 12 -6 7 19 -3 18 -1
36 5 42 7 7 9 14 7 17 -3 2 -11 -1 -17 -7z"/>
<path d="M4042 3995 c0 -16 2 -22 5 -12 2 9 2 23 0 30 -3 6 -5 -1 -5 -18z"/>
<path d="M4192 4000 c0 -14 2 -19 5 -12 2 6 2 18 0 25 -3 6 -5 1 -5 -13z"/>
<path d="M2332 3948 c9 -7 18 -20 21 -28 4 -10 6 -8 6 6 1 12 -6 25 -15 28
-25 9 -29 7 -12 -6z"/>
<path d="M4107 3899 c4 -13 9 -17 15 -11 11 11 3 32 -12 32 -4 0 -6 -9 -3 -21z"/>
<path d="M4043 3875 c0 -22 2 -30 4 -17 2 12 2 30 0 40 -3 9 -5 -1 -4 -23z"/>
<path d="M4072 3876 c-16 -36 -15 -41 4 -22 8 9 14 24 12 33 -2 13 -6 10 -16
-11z"/>
<path d="M2373 3855 c-10 -10 -9 -16 4 -27 13 -10 15 -10 9 0 -4 7 -2 19 4 27
16 19 -1 19 -17 0z"/>
<path d="M4192 3850 c0 -14 2 -19 5 -12 2 6 2 18 0 25 -3 6 -5 1 -5 -13z"/>
<path d="M2271 3844 c0 -11 3 -14 6 -6 3 7 2 16 -1 19 -3 4 -6 -2 -5 -13z"/>
<path d="M4120 3849 c0 -6 -6 -9 -13 -6 -16 6 -41 -20 -27 -28 6 -3 10 -1 10
4 0 6 5 11 10 11 6 0 10 -9 10 -20 0 -24 6 -25 26 -5 14 13 14 15 0 15 -19 0
-21 11 -4 28 9 9 9 12 0 12 -7 0 -12 -5 -12 -11z"/>
<path d="M4032 3800 c0 -14 2 -19 5 -12 2 6 2 18 0 25 -3 6 -5 1 -5 -13z"/>
<path d="M2282 3780 c0 -14 2 -19 5 -12 2 6 2 18 0 25 -3 6 -5 1 -5 -13z"/>
<path d="M2350 3791 c0 -6 5 -13 10 -16 6 -3 10 1 10 9 0 9 -4 16 -10 16 -5 0
-10 -4 -10 -9z"/>
<path d="M4060 3780 c0 -5 5 -10 10 -10 6 0 10 5 10 10 0 6 -4 10 -10 10 -5 0
-10 -4 -10 -10z"/>
<path d="M4181 3774 c0 -11 3 -14 6 -6 3 7 2 16 -1 19 -3 4 -6 -2 -5 -13z"/>
<path d="M4016 3734 c-4 -14 -5 -28 -3 -31 3 -2 8 8 11 23 4 14 5 28 3 31 -3
2 -8 -8 -11 -23z"/>
<path d="M2291 3734 c0 -11 3 -14 6 -6 3 7 2 16 -1 19 -3 4 -6 -2 -5 -13z"/>
<path d="M4086 3715 c-9 -26 -7 -32 5 -12 6 10 9 21 6 23 -2 3 -7 -2 -11 -11z"/>
<path d="M4115 3720 c3 -5 8 -10 11 -10 2 0 4 5 4 10 0 6 -5 10 -11 10 -5 0
-7 -4 -4 -10z"/>
<path d="M2301 3694 c0 -11 3 -14 6 -6 3 7 2 16 -1 19 -3 4 -6 -2 -5 -13z"/>
<path d="M2367 3703 c-10 -9 -9 -23 2 -23 5 0 11 7 15 15 5 15 -5 20 -17 8z"/>
<path d="M4077 3669 c-9 -6 -17 -15 -17 -21 0 -6 6 -5 16 3 13 10 17 10 25 -2
7 -12 9 -11 9 3 0 22 -12 28 -33 17z"/>
<path d="M4026 3647 c3 -10 9 -15 12 -12 3 3 0 11 -7 18 -10 9 -11 8 -5 -6z"/>
<path d="M3966 3605 c-9 -26 -7 -32 5 -12 6 10 9 21 6 23 -2 3 -7 -2 -11 -11z"/>
<path d="M4070 3594 c0 -8 5 -12 10 -9 6 4 8 11 5 16 -9 14 -15 11 -15 -7z"/>
<path d="M4040 3575 c0 -14 4 -25 9 -25 5 0 8 11 7 25 -1 33 -16 33 -16 0z"/>
<path d="M2361 3540 c14 -31 19 -36 19 -24 0 6 -7 19 -16 30 -14 18 -14 18 -3
-6z"/>
<path d="M2400 3541 c0 -6 5 -13 10 -16 6 -3 10 1 10 9 0 9 -4 16 -10 16 -5 0
-10 -4 -10 -9z"/>
<path d="M4100 3529 c-7 -11 -10 -23 -7 -25 2 -2 9 7 15 21 14 30 7 33 -8 4z"/>
<path d="M2498 3483 c7 -3 16 -2 19 1 4 3 -2 6 -13 5 -11 0 -14 -3 -6 -6z"/>
<path d="M3889 3473 c-13 -16 -12 -17 4 -4 16 13 21 21 13 21 -2 0 -10 -8 -17
-17z"/>
<path d="M2585 3460 c10 -11 20 -20 23 -20 3 0 -3 9 -13 20 -10 11 -20 20 -23
20 -3 0 3 -9 13 -20z"/>
<path d="M2525 3449 c-8 -11 22 -49 39 -49 6 0 0 7 -12 16 -13 9 -21 22 -18
30 6 16 0 19 -9 3z"/>
<path d="M2410 3446 c0 -2 8 -10 18 -17 15 -13 16 -12 3 4 -13 16 -21 21 -21
13z"/>
<path d="M2449 3395 c6 -11 22 -33 37 -50 14 -16 21 -21 15 -10 -6 11 -22 34
-37 50 -14 17 -21 21 -15 10z"/>
<path d="M2680 3357 c24 -26 49 -47 54 -47 6 0 -3 12 -19 27 -66 58 -78 65
-35 20z"/>
<path d="M3795 3368 c-37 -36 -104 -84 -170 -120 -27 -15 -44 -28 -36 -28 8 0
35 12 60 28 25 15 57 33 71 40 39 21 113 87 109 99 -2 6 -17 -3 -34 -19z"/>
<path d="M3846 3391 c-4 -5 3 -7 14 -4 23 6 26 13 6 13 -8 0 -17 -4 -20 -9z"/>
<path d="M3920 3284 c-30 -30 -68 -62 -85 -71 -16 -8 -41 -26 -55 -38 -14 -13
-50 -35 -80 -50 -30 -15 -69 -34 -87 -43 -18 -9 -30 -18 -28 -20 6 -7 159 73
221 116 52 35 187 162 173 162 -2 0 -29 -25 -59 -56z"/>
<path d="M2575 3254 c22 -20 65 -53 95 -73 107 -73 107 -65 0 14 -36 27 -75
59 -86 72 -12 12 -28 23 -35 23 -8 0 4 -16 26 -36z"/>
<path d="M2820 3255 c0 -7 58 -35 72 -35 7 1 -3 9 -22 20 -35 19 -50 24 -50
15z"/>
<path d="M2645 3240 c3 -5 8 -10 11 -10 2 0 4 5 4 10 0 6 -5 10 -11 10 -5 0
-7 -4 -4 -10z"/>
<path d="M2715 3230 c3 -5 8 -10 11 -10 2 0 4 5 4 10 0 6 -5 10 -11 10 -5 0
-7 -4 -4 -10z"/>
<path d="M2740 3230 c0 -5 5 -10 11 -10 5 0 7 5 4 10 -3 6 -8 10 -11 10 -2 0
-4 -4 -4 -10z"/>
<path d="M3641 3220 c0 -18 27 -56 34 -48 3 3 0 12 -8 19 -8 8 -16 21 -20 29
-5 13 -5 13 -6 0z"/>
<path d="M3700 3200 c0 -5 5 -10 10 -10 6 0 10 5 10 10 0 6 -4 10 -10 10 -5 0
-10 -4 -10 -10z"/>
<path d="M3600 3183 c0 -12 -6 -24 -12 -26 -8 -3 -7 -6 4 -6 23 -1 31 15 19
36 -9 16 -10 16 -11 -4z"/>
<path d="M2744 3168 c-4 -7 -3 -8 4 -4 7 4 12 3 12 -2 0 -6 7 -12 14 -15 10
-4 13 -1 10 8 -7 18 -32 27 -40 13z"/>
<path d="M3056 3161 c-5 -7 2 -11 16 -12 13 0 40 -1 61 -3 21 -2 40 1 43 6 3
4 -8 8 -24 8 -16 0 -43 3 -60 6 -17 4 -32 1 -36 -5z"/>
<path d="M3353 3163 c-18 -2 -33 -8 -33 -12 0 -8 89 5 98 14 6 5 -10 5 -65 -2z"/>
<path d="M3218 3143 c12 -2 30 -2 40 0 9 3 -1 5 -23 4 -22 0 -30 -2 -17 -4z"/>
<path d="M3070 3125 c-14 -16 -3 -20 19 -6 8 5 9 11 3 15 -5 3 -15 -1 -22 -9z"/>
<path d="M3360 3126 c-6 -8 -21 -17 -33 -19 -21 -4 -21 -4 1 -6 13 0 30 6 38
14 11 10 21 12 39 5 13 -5 27 -5 30 -1 13 22 -57 28 -75 7z"/>
<path d="M2774 3116 c11 -9 24 -16 30 -16 12 0 7 5 -24 19 -24 11 -24 11 -6
-3z"/>
<path d="M3155 3111 c3 -5 19 -9 36 -9 20 1 26 4 17 9 -18 12 -61 11 -53 0z"/>
<path d="M3270 3110 c-13 -8 -12 -10 3 -10 9 0 17 5 17 10 0 12 -1 12 -20 0z"/>
<path d="M2740 3106 c0 -3 9 -10 20 -16 11 -6 20 -8 20 -6 0 3 -9 10 -20 16
-11 6 -20 8 -20 6z"/>
<path d="M2970 3100 c-21 -7 -21 -8 -5 -9 11 0 27 4 35 9 18 11 5 11 -30 0z"/>
<path d="M2830 3090 c8 -5 22 -9 30 -9 10 0 8 3 -5 9 -27 12 -43 12 -25 0z"/>
<path d="M2903 3083 c9 -2 23 -2 30 0 6 3 -1 5 -18 5 -16 0 -22 -2 -12 -5z"/>
<path d="M3046 3052 c-3 -5 1 -15 9 -22 16 -14 20 -3 6 19 -5 8 -11 9 -15 3z"/>
<path d="M3440 3045 c0 -8 2 -15 4 -15 2 0 6 7 10 15 3 8 1 15 -4 15 -6 0 -10
-7 -10 -15z"/>
<path d="M3512 3045 c-37 -20 -11 -24 28 -4 24 13 29 18 15 18 -11 -1 -31 -7
-43 -14z"/>
<path d="M3773 3044 c-59 -22 -117 -82 -137 -141 -13 -39 -14 -59 -6 -103 14
-75 37 -109 108 -159 40 -28 136 -39 200 -22 146 40 202 241 100 357 -63 71
-177 101 -265 68z m74 -28 c-8 -20 25 -30 35 -11 9 15 49 22 46 8 0 -5 2 -16
6 -25 6 -14 12 -15 26 -8 28 15 30 13 30 -25 0 -20 -5 -35 -12 -35 -6 0 -9 -3
-6 -6 3 -3 15 0 26 7 23 15 52 6 52 -16 0 -9 -4 -13 -10 -10 -5 3 -10 0 -10
-9 0 -8 -6 -17 -12 -20 -9 -4 -8 -5 2 -5 33 2 42 -2 37 -15 -3 -8 -1 -17 6
-20 7 -2 -6 -5 -28 -6 l-40 -2 33 -14 c17 -8 32 -17 32 -22 0 -12 -20 -38 -20
-25 0 6 -9 9 -21 6 -18 -5 -19 -7 -5 -15 19 -11 21 -37 4 -39 -7 -1 -24 -1
-36 -1 -20 1 -22 -1 -11 -14 18 -22 -1 -37 -33 -25 -22 8 -27 7 -31 -10 -7
-26 -34 -24 -48 3 l-12 22 -8 -22 c-9 -23 -43 -30 -55 -10 -4 7 -3 8 4 4 8 -4
11 3 9 24 -2 34 -12 39 -20 10 -6 -24 -29 -26 -47 -5 -9 10 -9 15 -1 15 6 0
11 7 11 16 0 11 -6 14 -20 9 -21 -7 -50 9 -50 26 0 5 7 9 15 9 8 0 15 5 15 10
0 6 -9 10 -19 10 -10 0 -21 7 -25 15 -3 9 0 15 9 15 8 0 15 7 15 15 0 8 -4 15
-10 15 -5 0 -10 11 -10 25 0 14 3 24 8 24 4 -1 15 -1 25 0 17 1 17 3 3 23 -11
16 -12 26 -5 40 10 19 11 19 24 1 8 -10 15 -14 15 -9 0 5 6 3 14 -4 13 -10 13
-7 3 20 -10 25 -9 33 3 40 20 13 30 12 28 -2 -2 -6 5 -14 14 -16 13 -2 16 1
12 13 -4 10 -1 21 7 26 22 14 42 11 36 -5z"/>
<path d="M3951 2893 c7 -12 15 -20 18 -17 3 2 -3 12 -13 22 -17 16 -18 16 -5
-5z"/>
<path d="M3797 2729 c7 -7 15 -10 18 -7 3 3 -2 9 -12 12 -14 6 -15 5 -6 -5z"/>
<path d="M3840 2718 c0 -4 12 -8 26 -8 14 0 23 4 19 9 -6 11 -45 10 -45 -1z"/>
<path d="M2975 3035 c22 -8 47 -14 55 -14 21 1 -51 27 -75 28 -11 0 -2 -6 20
-14z"/>
<path d="M2525 3012 c-156 -86 -152 -307 7 -386 110 -55 235 -22 304 80 23 34
35 121 23 169 -34 135 -207 207 -334 137z m220 -56 c74 -57 93 -153 45 -230
-30 -49 -116 -91 -167 -81 -88 16 -151 79 -160 159 -13 113 63 190 183 184 49
-3 69 -10 99 -32z"/>
<path d="M3590 3030 c0 -5 5 -10 11 -10 5 0 7 5 4 10 -3 6 -8 10 -11 10 -2 0
-4 -4 -4 -10z"/>
<path d="M2918 3023 c7 -3 16 -2 19 1 4 3 -2 6 -13 5 -11 0 -14 -3 -6 -6z"/>
<path d="M3530 3020 c-18 -12 -2 -12 25 0 13 6 15 9 5 9 -8 0 -22 -4 -30 -9z"/>
<path d="M3597 2989 c7 -7 15 -10 18 -7 3 3 -2 9 -12 12 -14 6 -15 5 -6 -5z"/>
<path d="M2946 2959 c-3 -17 -5 -48 -5 -68 1 -24 4 -15 10 29 9 68 6 92 -5 39z"/>
<path d="M3035 2980 c-3 -5 -1 -10 4 -10 6 0 11 5 11 10 0 6 -2 10 -4 10 -3 0
-8 -4 -11 -10z"/>
<path d="M3551 2962 c6 -18 9 -48 7 -67 -2 -18 0 -31 4 -29 14 9 9 89 -7 110
-13 17 -14 16 -4 -14z"/>
<path d="M3540 2831 c-12 -24 -13 -34 -1 -27 9 6 22 46 15 46 -2 0 -8 -9 -14
-19z"/>
<path d="M2925 2810 c3 -5 8 -10 11 -10 2 0 4 5 4 10 0 6 -5 10 -11 10 -5 0
-7 -4 -4 -10z"/>
<path d="M2960 2816 c0 -2 8 -10 18 -17 15 -13 16 -12 3 4 -13 16 -21 21 -21
13z"/>
<path d="M3029 2747 c5 -5 26 -7 47 -5 l39 3 -47 5 c-26 3 -43 1 -39 -3z"/>
<path d="M3127 2748 c-7 -4 7 -8 31 -8 23 0 42 3 42 8 0 9 -58 9 -73 0z"/>
<path d="M3215 2749 c-11 -17 0 -20 21 -4 17 13 17 14 2 15 -9 0 -20 -5 -23
-11z"/>
<path d="M3270 2751 c0 -14 23 -20 55 -14 19 4 26 2 21 -6 -4 -6 -1 -11 9 -11
10 0 13 5 9 12 -5 8 -2 9 9 5 9 -3 19 -2 21 2 6 10 56 2 56 -8 0 -4 -6 -13
-12 -20 -11 -11 -9 -12 7 -3 11 6 29 20 39 31 l19 21 -116 0 c-65 0 -117 -4
-117 -9z"/>
<path d="M3248 2723 c6 -2 18 -2 25 0 6 3 1 5 -13 5 -14 0 -19 -2 -12 -5z"/>
<path d="M3096 2681 c-12 -8 -34 -25 -49 -38 -26 -21 -27 -23 -8 -23 12 0 21
6 21 15 0 23 36 36 110 38 39 1 70 5 70 9 0 14 -123 13 -144 -1z"/>
<path d="M3307 2688 c-5 -3 -22 -4 -36 -1 -14 2 -22 1 -18 -3 3 -4 32 -8 62
-10 31 -2 59 -5 63 -8 11 -7 38 12 29 20 -9 9 -85 11 -100 2z"/>
<path d="M3089 2629 c-10 -6 -4 -9 19 -9 17 0 32 2 32 4 0 9 -39 13 -51 5z"/>
<path d="M3370 2630 l-95 -6 103 -2 c62 -1 102 2 102 8 0 6 -3 9 -7 8 -5 -1
-51 -5 -103 -8z"/>
<path d="M3183 2623 c9 -2 23 -2 30 0 6 3 -1 5 -18 5 -16 0 -22 -2 -12 -5z"/>
<path d="M4485 1690 c-3 -5 3 -10 14 -10 11 0 29 -10 41 -22 25 -27 37 -18 13
10 -22 24 -59 37 -68 22z"/>
<path d="M1916 1629 c-14 -11 -26 -25 -26 -31 0 -7 10 -2 23 10 13 12 31 22
40 22 9 0 17 5 17 10 0 16 -26 11 -54 -11z"/>
<path d="M4604 1021 c-44 -20 -74 -54 -74 -83 0 -26 13 -22 60 17 51 42 68 44
102 8 67 -72 62 -129 -13 -148 -41 -10 -46 21 -8 44 l30 18 -26 32 c-31 36
-70 41 -105 13 -19 -16 -21 -22 -11 -40 11 -20 14 -21 27 -7 9 8 23 15 32 15
13 0 12 -4 -7 -19 -28 -22 -31 -63 -6 -91 34 -37 125 -19 174 33 20 22 23 33
18 67 -7 51 -47 114 -90 140 -39 24 -51 24 -103 1z"/>
<path d="M1768 939 c-42 -24 -7 -60 50 -52 18 3 32 1 32 -5 0 -6 3 -18 7 -27
5 -14 2 -16 -15 -11 -12 4 -30 3 -40 -3 -15 -8 -18 -6 -18 12 1 30 -33 34 -67
7 -40 -32 -60 -77 -54 -122 4 -28 1 -38 -8 -38 -41 0 -17 -57 38 -90 60 -37
167 -34 154 3 -5 15 16 59 37 76 9 8 21 31 27 53 8 32 7 44 -6 64 -15 23 -15
24 14 24 35 0 48 26 26 51 -17 18 -91 52 -135 62 -14 3 -33 1 -42 -4z m147
-79 c3 -5 -1 -10 -9 -10 -9 0 -16 5 -16 10 0 6 4 10 9 10 6 0 13 -4 16 -10z
m-154 -58 c-6 -12 -10 -31 -8 -43 1 -15 -4 -24 -15 -27 -26 -5 -24 52 3 79 24
24 35 19 20 -9z m83 -8 c9 -3 16 -17 16 -30 0 -19 -5 -24 -25 -24 -20 0 -25 5
-25 23 0 34 8 41 34 31z m-4 -83 c0 -12 -20 -25 -27 -18 -7 7 6 27 18 27 5 0
9 -4 9 -9z m-60 -46 c0 -7 8 -15 18 -18 16 -4 16 -4 -1 -12 -23 -10 -59 0 -88
24 l-24 19 48 0 c33 0 47 -4 47 -13z"/>
<path d="M4455 856 c-16 -12 -17 -16 -6 -29 7 -9 22 -17 34 -19 27 -4 63 -63
49 -81 -7 -8 -6 -18 3 -30 11 -15 17 -16 34 -8 34 19 36 54 6 105 -42 72 -80
91 -120 62z"/>
<path d="M4333 780 c-34 -20 -39 -34 -24 -59 7 -11 13 -10 32 8 12 11 26 21
30 21 4 0 14 3 23 6 30 12 16 -14 -15 -26 -68 -29 -75 -100 -12 -126 19 -8 38
-12 44 -9 5 4 12 -1 15 -10 11 -29 41 -37 78 -21 55 23 85 86 40 86 -7 0 -19
-9 -26 -20 -7 -11 -18 -20 -25 -20 -19 0 -16 14 7 28 21 13 25 29 11 50 -6 11
-16 8 -47 -13 -40 -27 -79 -30 -79 -5 0 12 52 49 90 64 6 2 -3 17 -19 35 -35
37 -75 41 -123 11z"/>
<path d="M4127 735 c-50 -17 -87 -52 -87 -82 0 -20 4 -23 20 -18 18 6 19 4 10
-20 -13 -35 7 -82 51 -119 27 -23 40 -27 71 -23 21 3 54 17 72 31 32 24 46 25
46 2 0 -6 -29 -27 -65 -46 -66 -35 -76 -49 -52 -68 10 -9 34 1 98 39 46 28 88
54 93 59 8 8 -43 93 -68 115 -7 6 -24 31 -39 58 -43 73 -88 95 -150 72z m65
-55 c25 -19 58 -76 58 -99 0 -20 -39 -51 -65 -51 -13 0 -33 10 -45 22 -21 23
-27 48 -10 48 6 0 10 -7 10 -15 0 -8 9 -19 20 -25 27 -15 60 4 60 34 0 48 -65
98 -85 66 -3 -5 -15 -10 -25 -10 -25 0 -17 24 13 38 32 15 41 14 69 -8z m-12
-70 c0 -5 -2 -10 -4 -10 -3 0 -8 5 -11 10 -3 6 -1 10 4 10 6 0 11 -4 11 -10z"/>
<path d="M2093 700 c-30 -12 -81 -85 -89 -125 -12 -63 39 -122 112 -131 45 -6
90 18 65 35 -11 7 -9 10 7 15 35 12 72 64 72 102 0 49 -14 71 -60 94 -42 21
-72 24 -107 10z m80 -51 c42 -22 48 -53 18 -90 -16 -20 -21 -21 -35 -10 -12
10 -14 17 -5 27 6 8 18 14 25 14 27 0 14 26 -21 43 -34 16 -36 16 -41 -1 -3
-9 -12 -29 -20 -44 -19 -35 -19 -36 17 -69 36 -34 16 -40 -25 -8 -38 30 -33
72 17 127 23 25 38 27 70 11z"/>
<path d="M2286 559 c-48 -56 -26 -129 42 -142 80 -15 139 102 76 152 -40 31
-87 28 -118 -10z m89 -39 c8 -13 -13 -50 -28 -50 -23 0 -37 22 -26 42 10 19
44 25 54 8z"/>
<path d="M3922 560 c-12 -12 -22 -25 -22 -31 0 -6 -6 -7 -17 -1 -27 16 -75 -6
-71 -32 2 -15 9 -20 26 -19 20 3 21 0 12 -18 -16 -29 -3 -77 26 -96 34 -22 93
-11 122 22 12 14 22 21 22 16 0 -17 25 -13 43 7 31 34 20 99 -26 150 -27 29
-85 30 -115 2z m91 -68 c24 -42 9 -67 -17 -28 -9 15 -23 26 -31 26 -15 0 -20
21 -8 34 14 14 37 0 56 -32z m-77 -52 c25 -10 26 -12 12 -27 -20 -20 -48 -10
-48 17 0 23 0 23 36 10z"/>
<path d="M2477 540 c-3 -13 0 -20 9 -20 21 0 17 -18 -5 -25 -26 -8 -37 -24
-45 -65 -7 -42 3 -60 35 -64 13 -1 34 -8 47 -15 13 -7 31 -10 39 -7 9 4 21 -1
28 -10 9 -13 18 -15 41 -7 54 18 90 101 68 158 -9 23 -57 45 -97 45 -19 0 -40
7 -47 15 -19 23 -67 19 -73 -5z m163 -80 c8 -15 8 -27 -2 -47 -21 -43 -33 -37
-33 17 0 53 16 66 35 30z m-85 -25 c0 -16 -6 -30 -14 -33 -8 -3 -11 0 -7 7 14
22 -5 33 -25 15 -17 -15 -19 -15 -19 -1 0 18 39 49 55 44 5 -2 10 -16 10 -32z"/>
<path d="M3510 508 c-41 -11 -66 -32 -73 -59 -7 -25 14 -25 62 3 50 29 83 20
104 -29 9 -21 18 -53 19 -72 4 -45 -19 -53 -33 -11 -8 21 -16 29 -26 26 -8 -3
-17 -6 -19 -6 -2 0 -4 -16 -4 -36 0 -44 -21 -42 -34 4 -9 34 4 62 30 62 8 0
14 10 14 25 0 32 -36 34 -74 4 -21 -17 -26 -29 -26 -67 0 -68 29 -112 74 -112
19 0 37 4 40 9 3 4 24 8 47 8 58 0 72 21 66 98 -6 79 -36 139 -78 154 -37 13
-42 13 -89 -1z"/>
<path d="M2730 466 c0 -13 5 -26 12 -28 20 -7 -8 -85 -33 -91 -29 -8 -22 -51
8 -55 33 -5 68 36 83 96 10 45 10 56 -4 77 -23 34 -66 35 -66 1z"/>
<path d="M3343 451 c6 -29 5 -31 -23 -31 -45 0 -80 -17 -80 -39 0 -18 5 -19
49 -14 31 3 51 1 55 -6 5 -7 -7 -11 -38 -11 -53 0 -86 -25 -86 -65 0 -25 31
-65 50 -65 6 0 10 -11 10 -25 0 -41 67 -60 125 -33 33 15 34 48 1 48 -14 0
-28 -4 -31 -10 -8 -13 -35 -13 -35 0 0 5 15 13 33 18 22 6 33 15 35 30 3 21 1
22 -50 17 -58 -6 -84 4 -75 29 5 12 20 16 61 16 l55 0 -2 83 -2 82 -29 3 c-27
3 -29 2 -23 -27z"/>
<path d="M2987 418 c-21 -17 -37 -61 -37 -104 0 -47 40 -88 78 -81 31 6 102
-11 102 -25 0 -5 -37 -8 -82 -7 -76 2 -83 1 -86 -18 -3 -18 4 -21 59 -27 34
-3 86 -6 115 -6 l54 0 0 74 c0 91 -11 123 -45 132 -35 9 -32 28 4 21 21 -5 31
-2 35 10 9 21 -10 33 -55 33 -42 0 -69 -24 -69 -63 0 -20 5 -27 19 -27 33 0
51 -11 51 -31 0 -12 -7 -19 -20 -19 -11 0 -20 6 -20 14 0 23 -39 27 -51 5 -15
-29 -29 -13 -29 32 0 33 4 41 25 49 36 14 34 50 -3 50 -16 0 -36 -6 -45 -12z"/>
</g>
</svg>
