<svg width="120" height="120" viewBox="0 0 120 120" fill="none" xmlns="http://www.w3.org/2000/svg">
<g filter="url(#filter0_d_98_1596)">
<rect x="9" y="9" width="100" height="100" rx="16" fill="white"/>
</g>
<g clip-path="url(#clip0_98_1596)">
<path d="M43.5119 53.2184C43.5119 54.0795 43.6036 54.7776 43.7634 55.2896C43.9663 55.8655 44.2106 56.4255 44.4944 56.9649C44.6087 57.151 44.6542 57.3371 44.6542 57.5002C44.6542 57.7327 44.5173 57.9655 44.2203 58.1983L42.781 59.1755C42.5753 59.3152 42.3697 59.385 42.1866 59.385C41.9583 59.385 41.7298 59.2686 41.5012 59.0591C41.1934 58.7222 40.918 58.356 40.6789 57.9655C40.4503 57.5702 40.2218 57.1277 39.9706 56.5927C38.1884 58.7333 35.9492 59.8039 33.2533 59.8039C31.3342 59.8039 29.8033 59.2452 28.6837 58.1285C27.5643 57.0113 26.9932 55.5221 26.9932 53.6606C26.9932 51.6828 27.6786 50.0772 29.0723 48.8671C30.4658 47.6571 32.3167 47.0521 34.67 47.0521C35.4467 47.0521 36.2464 47.1218 37.0917 47.2382C37.9372 47.3546 38.8054 47.5407 39.7194 47.7501V46.0515C39.7194 44.2828 39.3536 43.0497 38.6453 42.3283C37.9143 41.6069 36.6804 41.2577 34.9212 41.2577C34.1215 41.2577 33.2991 41.351 32.4536 41.5605C31.6083 41.7697 30.7857 42.0258 29.986 42.3516C29.6206 42.5144 29.3464 42.6075 29.1863 42.6541C29.0265 42.7008 28.9122 42.7239 28.8209 42.7239C28.5009 42.7239 28.3411 42.4911 28.3411 42.0025V40.8621C28.3411 40.4899 28.3869 40.2107 28.5009 40.0479C28.6152 39.8849 28.8209 39.7221 29.1408 39.5593C29.9405 39.1404 30.9 38.7912 32.0194 38.5121C33.1393 38.2096 34.3274 38.0701 35.5839 38.0701C38.303 38.0701 40.2908 38.6982 41.5702 39.9549C42.8268 41.2113 43.4666 43.1194 43.4666 45.6792V53.2184H43.5125H43.5119ZM34.2357 56.7554C34.9899 56.7554 35.7667 56.616 36.589 56.3365C37.4116 56.0574 38.1429 55.5454 38.7596 54.8473C39.1253 54.4054 39.3994 53.9167 39.5363 53.3581C39.6735 52.7998 39.7649 52.1247 39.7649 51.3336V50.3563C39.072 50.1846 38.3702 50.0525 37.6628 49.9608C36.9505 49.8686 36.2332 49.822 35.5152 49.821C33.9843 49.821 32.8649 50.1236 32.111 50.7519C31.3569 51.3803 30.9914 52.2645 30.9914 53.4278C30.9914 54.5215 31.2655 55.3359 31.8366 55.8946C32.3851 56.4763 33.1848 56.7554 34.2357 56.7554ZM52.5825 59.2686C52.1712 59.2686 51.897 59.1988 51.7143 59.0358C51.5316 58.8963 51.3715 58.5705 51.2345 58.1285L45.8655 40.141C45.728 39.6754 45.6596 39.3729 45.6596 39.2101C45.6596 38.8379 45.8423 38.6282 46.208 38.6282H48.447C48.881 38.6282 49.1783 38.6982 49.3381 38.861C49.5209 39.0007 49.6581 39.3265 49.795 39.7685L53.6334 55.1732L57.1976 39.7685C57.3119 39.3032 57.4491 39.0007 57.6316 38.861C57.8146 38.7215 58.1345 38.6285 58.5458 38.6285H60.3735C60.8075 38.6285 61.1048 38.6982 61.2872 38.861C61.4703 39.0007 61.6301 39.3265 61.7215 39.7685L65.3316 55.3593L69.284 39.7685C69.4209 39.3032 69.581 39.0007 69.7408 38.861C69.9236 38.7215 70.2206 38.6285 70.6319 38.6285H72.7566C73.1224 38.6285 73.328 38.8146 73.328 39.2101C73.328 39.3265 73.3051 39.4429 73.2822 39.5824C73.2593 39.7221 73.2137 39.9082 73.1224 40.1643L67.6158 58.1516C67.4789 58.6172 67.3191 58.9197 67.1361 59.0591C66.9533 59.1988 66.6563 59.2919 66.2682 59.2919H64.3033C63.8691 59.2919 63.5721 59.2222 63.3891 59.0591C63.2063 58.8963 63.0465 58.5938 62.9551 58.1285L59.4135 43.1194L55.895 58.1049C55.781 58.5705 55.6438 58.873 55.4611 59.0358C55.2783 59.1988 54.9584 59.2686 54.5473 59.2686H52.5822H52.5825ZM81.9417 59.8969C80.7536 59.8969 79.5655 59.7572 78.4232 59.478C77.2807 59.1988 76.3899 58.8961 75.7958 58.5474C75.4301 58.3377 75.1786 58.1052 75.0875 57.8958C74.9985 57.6904 74.9518 57.4686 74.9503 57.2441V56.0574C74.9503 55.5687 75.1331 55.3359 75.4759 55.3359C75.6158 55.3365 75.7547 55.3601 75.8872 55.4059C76.0241 55.4526 76.2298 55.5454 76.4584 55.6385C77.2653 56 78.1078 56.273 78.9715 56.4529C79.8664 56.6379 80.7773 56.7314 81.6905 56.7321C83.1298 56.7321 84.2494 56.4763 85.0262 55.9643C85.803 55.4523 86.2143 54.7079 86.2143 53.7537C86.2143 53.1023 86.0087 52.567 85.5974 52.1247C85.186 51.6828 84.4093 51.2872 83.2899 50.9147L79.9768 49.8677C78.309 49.3324 77.0753 48.5413 76.3212 47.494C75.5673 46.4701 75.1789 45.3301 75.1789 44.12C75.1789 43.1428 75.3845 42.2816 75.7958 41.5369C76.2069 40.7924 76.7554 40.141 77.4408 39.629C78.1262 39.0938 78.903 38.6982 79.817 38.419C80.7307 38.1398 81.6902 38.0234 82.6956 38.0234C83.1983 38.0234 83.7238 38.0468 84.2265 38.1165C84.7521 38.1862 85.2319 38.2793 85.7116 38.3723C86.1685 38.4887 86.6027 38.6051 87.014 38.7448C87.4253 38.8843 87.745 39.024 87.9735 39.1635C88.2935 39.3499 88.5218 39.536 88.659 39.7454C88.7961 39.9316 88.8646 40.1874 88.8646 40.5132V41.6069C88.8646 42.0955 88.6819 42.3516 88.339 42.3516C88.1563 42.3516 87.8593 42.2583 87.4711 42.0722C86.1685 41.4672 84.7063 41.1647 83.0842 41.1647C81.7819 41.1647 80.7536 41.3741 80.0453 41.8163C79.3372 42.2583 78.9715 42.9333 78.9715 43.8872C78.9715 44.5389 79.2 45.0973 79.6569 45.5395C80.114 45.9815 80.9593 46.4237 82.1703 46.8193L85.4146 47.8665C87.0596 48.4018 88.2477 49.1463 88.956 50.1002C89.6643 51.0544 90.0072 52.1481 90.0072 53.3581C90.0072 54.3587 89.8012 55.2662 89.4128 56.0574C89.0018 56.8485 88.4533 57.5466 87.745 58.1052C87.0367 58.6869 86.1914 59.1058 85.209 59.4083C84.1807 59.7341 83.1069 59.8969 81.9417 59.8969Z" fill="#252F3E"/>
<path d="M86.2594 71.2055C78.7428 76.8601 67.8214 79.8619 58.4312 79.8619C45.2708 79.8619 33.413 74.9053 24.4567 66.6678C23.7484 66.0164 24.388 65.1322 25.2333 65.6439C34.9208 71.3685 46.8702 74.8356 59.2309 74.8356C67.5702 74.8356 76.7321 73.0672 85.163 69.4371C86.4196 68.8551 87.4934 70.2749 86.2594 71.2055ZM89.3898 67.5753C88.4303 66.3189 83.038 66.9703 80.5934 67.2728C79.8621 67.3662 79.7478 66.7145 80.4106 66.2259C84.7059 63.1541 91.766 64.0386 92.5883 65.0622C93.4109 66.1095 92.3597 73.2997 88.3386 76.7437C87.7219 77.279 87.1279 76.9998 87.402 76.3017C88.3157 73.9978 90.3493 68.8087 89.3898 67.5753Z" fill="#FF9900"/>
</g>
<defs>
<filter id="filter0_d_98_1596" x="0" y="0" width="120" height="120" filterUnits="userSpaceOnUse" color-interpolation-filters="sRGB">
<feFlood flood-opacity="0" result="BackgroundImageFix"/>
<feColorMatrix in="SourceAlpha" type="matrix" values="0 0 0 0 0 0 0 0 0 0 0 0 0 0 0 0 0 0 127 0" result="hardAlpha"/>
<feOffset dx="1" dy="1"/>
<feGaussianBlur stdDeviation="5"/>
<feComposite in2="hardAlpha" operator="out"/>
<feColorMatrix type="matrix" values="0 0 0 0 0 0 0 0 0 0.407843 0 0 0 0 0.717647 0 0 0 0.1 0"/>
<feBlend mode="normal" in2="BackgroundImageFix" result="effect1_dropShadow_98_1596"/>
<feBlend mode="normal" in="SourceGraphic" in2="effect1_dropShadow_98_1596" result="shape"/>
</filter>
<clipPath id="clip0_98_1596">
<rect width="69" height="42" fill="white" transform="translate(24 38)"/>
</clipPath>
</defs>
</svg>
