<svg width="120" height="120" viewBox="0 0 120 120" fill="none" xmlns="http://www.w3.org/2000/svg">
<g filter="url(#filter0_d_98_1663)">
<rect x="9" y="9" width="100" height="100" rx="16" fill="white"/>
</g>
<g clip-path="url(#clip0_98_1663)">
<path d="M49.6685 34.0006H65.3517L49.071 81.1777C48.9037 81.6625 48.5852 82.0838 48.1602 82.3822C47.7352 82.6806 47.2253 82.8412 46.7021 82.8413H34.4966C34.1003 82.8412 33.7096 82.7489 33.357 82.572C33.0044 82.395 32.6999 82.1385 32.4687 81.8237C32.2376 81.5088 32.0863 81.1447 32.0276 80.7613C31.9688 80.378 32.0042 79.9865 32.1309 79.6192L47.299 35.6642C47.4663 35.1792 47.7849 34.7578 48.2099 34.4592C48.635 34.1607 49.1451 34.0001 49.6685 34V34.0006Z" fill="url(#paint0_linear_98_1663)"/>
<path d="M72.4585 65.6436H47.5886C47.3574 65.6434 47.1315 65.7113 46.9404 65.8384C46.7492 65.9655 46.6016 66.146 46.5168 66.3564C46.432 66.5667 46.4139 66.7972 46.4649 67.0177C46.5159 67.2382 46.6336 67.4386 46.8027 67.5928L62.7835 82.1809C63.2488 82.6052 63.8614 82.8411 64.4977 82.8409H78.58L72.4585 65.6436Z" fill="#0078D4"/>
<path d="M49.6693 34.001C49.1403 33.999 48.6245 34.1625 48.1972 34.4676C47.77 34.7728 47.4536 35.2035 47.2945 35.697L32.1504 79.5795C32.0151 79.9482 31.9727 80.3433 32.0266 80.7314C32.0805 81.1195 32.2292 81.4892 32.4601 81.8092C32.691 82.1292 32.9974 82.3901 33.3532 82.5699C33.709 82.7496 34.1038 82.8429 34.5043 82.8418H47.0245C47.4908 82.7604 47.9267 82.5593 48.2876 82.2592C48.6484 81.959 48.9213 81.5706 49.0785 81.1335L52.0986 72.4287L62.886 82.2692C63.3381 82.635 63.9053 82.8372 64.492 82.8418H78.5216L72.3685 65.6443L54.4306 65.6483L65.4093 34.001H49.6693Z" fill="url(#paint1_linear_98_1663)"/>
<path d="M69.7 35.6621C69.533 35.1779 69.2148 34.7572 68.7904 34.4592C68.3659 34.1612 67.8566 34.0009 67.3341 34.001H49.8555C50.9269 34.001 51.8788 34.6694 52.2214 35.6621L67.39 79.619C67.5168 79.9864 67.5523 80.378 67.4937 80.7615C67.435 81.145 67.2838 81.5093 67.0526 81.8244C66.8214 82.1394 66.5168 82.396 66.1641 82.573C65.8113 82.7501 65.4205 82.8424 65.024 82.8424H82.5035C82.8999 82.8423 83.2906 82.7499 83.6433 82.5728C83.996 82.3958 84.3005 82.1391 84.5316 81.8241C84.7627 81.5091 84.9139 81.1448 84.9725 80.7614C85.0311 80.3779 84.9956 79.9863 84.8688 79.619L69.6998 35.6621H69.7Z" fill="url(#paint2_linear_98_1663)"/>
</g>
<defs>
<filter id="filter0_d_98_1663" x="0" y="0" width="120" height="120" filterUnits="userSpaceOnUse" color-interpolation-filters="sRGB">
<feFlood flood-opacity="0" result="BackgroundImageFix"/>
<feColorMatrix in="SourceAlpha" type="matrix" values="0 0 0 0 0 0 0 0 0 0 0 0 0 0 0 0 0 0 127 0" result="hardAlpha"/>
<feOffset dx="1" dy="1"/>
<feGaussianBlur stdDeviation="5"/>
<feComposite in2="hardAlpha" operator="out"/>
<feColorMatrix type="matrix" values="0 0 0 0 0 0 0 0 0 0.407843 0 0 0 0 0.717647 0 0 0 0.1 0"/>
<feBlend mode="normal" in2="BackgroundImageFix" result="effect1_dropShadow_98_1663"/>
<feBlend mode="normal" in="SourceGraphic" in2="effect1_dropShadow_98_1663" result="shape"/>
</filter>
<linearGradient id="paint0_linear_98_1663" x1="51.6682" y1="37.6196" x2="36.9106" y2="82.198" gradientUnits="userSpaceOnUse">
<stop stop-color="#114A8B"/>
<stop offset="1" stop-color="#0669BC"/>
</linearGradient>
<linearGradient id="paint1_linear_98_1663" x1="59.7838" y1="59.5511" x2="56.4788" y2="60.6937" gradientUnits="userSpaceOnUse">
<stop stop-opacity="0.3"/>
<stop offset="0.071" stop-opacity="0.2"/>
<stop offset="0.321" stop-opacity="0.1"/>
<stop offset="0.623" stop-opacity="0.05"/>
<stop offset="1" stop-opacity="0"/>
</linearGradient>
<linearGradient id="paint2_linear_98_1663" x1="62.957" y1="36.2477" x2="79.0785" y2="80.1644" gradientUnits="userSpaceOnUse">
<stop stop-color="#3CCBF4"/>
<stop offset="1" stop-color="#2892DF"/>
</linearGradient>
<clipPath id="clip0_98_1663">
<rect width="53" height="49" fill="white" transform="translate(32 34)"/>
</clipPath>
</defs>
</svg>
