<svg width="40" height="40" viewBox="0 0 40 40" fill="none" xmlns="http://www.w3.org/2000/svg">
<path d="M31.25 20C31.25 18.125 29.75 16.5 27.875 16.25C26.5 13.25 23.5 11.25 20 11.25C19.75 11.25 19.375 11.25 19.125 11.375C18.375 10.5 17.375 10 16.25 10C14.125 10 12.5 11.625 12.5 13.75C12.5 14.25 12.625 14.625 12.75 15.125C11.75 16.5 11.25 18.125 11.25 20C11.25 21.875 11.75 23.5 12.75 24.875C12.625 25.375 12.5 25.75 12.5 26.25C12.5 28.375 14.125 30 16.25 30C17.375 30 18.375 29.5 19.125 28.625C19.375 28.625 19.75 28.75 20 28.75C23.5 28.75 26.5 26.625 27.875 23.75C29.75 23.5 31.25 21.875 31.25 20ZM16.25 12.5C17 12.5 17.5 13 17.5 13.75C17.5 14.5 17 15 16.25 15C15.5 15 15 14.5 15 13.75C15 13 15.5 12.5 16.25 12.5ZM16.25 27.5C15.5 27.5 15 27 15 26.25C15 25.5 15.5 25 16.25 25C17 25 17.5 25.5 17.5 26.25C17.5 27 17 27.5 16.25 27.5ZM20 26.25C20 24.125 18.375 22.5 16.25 22.5C15.625 22.5 15 22.625 14.5 23C14 22.125 13.75 21.125 13.75 20C13.75 18.875 14 17.875 14.5 17C15 17.375 15.625 17.5 16.25 17.5C18.375 17.5 20 15.875 20 13.75C22.375 13.75 24.25 15 25.375 16.875C24.375 17.625 23.75 18.75 23.75 20C23.75 21.25 24.375 22.375 25.375 23.125C24.25 25 22.375 26.25 20 26.25ZM27.5 21.25C26.75 21.25 26.25 20.75 26.25 20C26.25 19.25 26.75 18.75 27.5 18.75C28.25 18.75 28.75 19.25 28.75 20C28.75 20.75 28.25 21.25 27.5 21.25Z" fill="#0068B7"/>
<path d="M20 38.75C19.75 38.75 19.625 38.75 19.375 38.625L4.375 29.875C4 29.625 3.75 29.25 3.75 28.75V11.25C3.75 10.75 4 10.375 4.375 10.125L19.375 1.375C19.75 1.125 20.25 1.125 20.625 1.375L35.625 10.125L34.375 12.25L20 4L6.25 12V28.125L20 36.125L33.75 28.125V18.75H36.25V28.75C36.25 29.25 36 29.625 35.625 29.875L20.625 38.625C20.375 38.75 20.25 38.75 20 38.75Z" fill="#0068B7"/>
</svg>
