<svg width="120" height="120" viewBox="0 0 120 120" fill="none" xmlns="http://www.w3.org/2000/svg">
<g filter="url(#filter0_d_103_911)">
<rect x="9" y="9" width="100" height="100" rx="16" fill="white"/>
</g>
<g clip-path="url(#clip0_103_911)">
<path d="M30.0527 75.2296C30.6973 75.2296 31.2832 75.3745 31.6055 75.6645C31.6641 76.1284 31.2246 76.8822 30.9609 76.8822C30.6387 76.7662 30.3457 76.7083 29.9648 76.7083C28.4414 76.7083 27.6797 78.2739 27.6797 79.8106C27.6797 80.7674 28.002 81.3473 28.793 81.3473C29.6133 81.3473 30.4336 80.7964 30.9023 80.3905C31.0195 80.4775 31.166 80.7384 31.166 81.0284C31.166 81.3473 31.0781 81.6662 30.7559 81.9852C30.2285 82.5071 29.3203 82.971 28.002 82.971C26.5078 82.971 25.4531 82.1301 25.4531 80.1585C25.5117 77.5491 27.2109 75.2296 30.0527 75.2296ZM34.9746 81.2603C35.7949 81.2603 37.2891 79.8396 37.6992 77.1142C37.7285 76.9402 37.7285 76.9112 37.7578 76.7372C37.582 76.6793 37.3184 76.6213 37.084 76.6213C36.4688 76.6213 35.8242 76.7952 35.2676 77.5781C34.6816 78.3899 34.418 79.4047 34.418 80.2165C34.418 80.8834 34.623 81.2603 34.9746 81.2603ZM32.2793 80.5065C32.2793 79.5207 32.6016 77.839 33.8613 76.5923C34.9453 75.4905 36.2344 75.2296 37.4355 75.2296C38.2266 75.2296 39.2812 75.4905 39.9551 75.6065C39.7793 76.3313 39.3984 79.0858 39.1934 80.6804C39.1055 81.3473 39.0762 82.3041 39.1055 82.652C38.5488 82.884 37.5234 82.942 37.2305 82.942C37.084 82.942 37.0547 82.2751 37.084 81.6083C37.1133 81.4053 37.1426 81.0864 37.1426 80.9414C36.498 82.0142 35.209 82.913 33.8613 82.913C32.8945 82.942 32.2793 82.1301 32.2793 80.5065ZM44.1152 75.2296C44.7891 75.2296 45.4629 75.4905 45.7559 75.7804C45.7266 76.2443 45.375 77.0272 44.7891 76.7952C44.5254 76.7083 44.291 76.6503 43.9395 76.6503C43.5 76.6503 43.0898 76.8532 43.0898 77.2591C43.0898 77.5781 43.3242 77.81 44.4375 78.5929C45.2285 79.1728 45.5508 79.6946 45.5508 80.4195C45.5508 81.6372 44.4082 82.942 42.3867 82.942C41.5664 82.942 40.834 82.623 40.6289 82.3041C40.3359 81.8112 40.5703 80.8254 40.8926 80.9994C41.332 81.2023 42.0352 81.4343 42.6211 81.4343C43.1777 81.4343 43.5293 81.1733 43.5293 80.8544C43.5293 80.5645 43.2656 80.3325 42.2695 79.6077C41.4199 78.9698 41.1563 78.3899 41.1563 77.752C41.1563 76.3603 42.3574 75.2296 44.1152 75.2296ZM49.8867 75.2296C50.5605 75.2296 51.2344 75.4905 51.5273 75.7804C51.498 76.2443 51.1465 77.0272 50.5605 76.7952C50.2969 76.7083 50.0625 76.6503 49.7109 76.6503C49.2715 76.6503 48.8613 76.8532 48.8613 77.2591C48.8613 77.5781 49.0957 77.81 50.209 78.5929C51 79.1728 51.3223 79.6946 51.3223 80.4195C51.3223 81.6372 50.1797 82.942 48.1582 82.942C47.3379 82.942 46.6348 82.623 46.4004 82.3041C46.1074 81.8112 46.3418 80.8254 46.6641 80.9994C47.1035 81.2023 47.8066 81.4343 48.3926 81.4343C48.9492 81.4343 49.3008 81.1733 49.3008 80.8544C49.3008 80.5645 49.0371 80.3325 48.041 79.6077C47.1914 78.9698 46.9277 78.3899 46.9277 77.752C46.9277 76.3603 48.1289 75.2296 49.8867 75.2296ZM55.1309 81.2603C55.9512 81.2603 57.4453 79.8396 57.8555 77.1142C57.8848 76.9402 57.8848 76.9112 57.9141 76.7372C57.7383 76.6793 57.4746 76.6213 57.2402 76.6213C56.625 76.6213 55.9805 76.7952 55.4238 77.5781C54.8379 78.3899 54.5742 79.4047 54.5742 80.2165C54.6035 80.8834 54.7793 81.2603 55.1309 81.2603ZM52.4355 80.5065C52.4355 79.5207 52.7578 77.839 54.0176 76.5923C55.1016 75.4905 56.3906 75.2296 57.5918 75.2296C58.3828 75.2296 59.4375 75.4905 60.1113 75.6065C59.9355 76.3313 59.5547 79.0858 59.3496 80.6804C59.2617 81.3473 59.2324 82.3041 59.2617 82.652C58.7051 82.884 57.6797 82.942 57.3867 82.942C57.2402 82.942 57.2109 82.2751 57.2402 81.6083C57.2695 81.4053 57.2988 81.0864 57.2988 80.9414C56.6543 82.0142 55.3652 82.913 54.0176 82.913C53.0801 82.942 52.4355 82.1301 52.4355 80.5065ZM63.8906 77.3751C64.6523 76.1574 65.6484 75.2296 67.0547 75.2296C68.2559 75.2296 68.6367 76.3313 68.4023 77.868C68.2852 78.5929 68.0801 79.6367 67.9629 80.5935C67.8457 81.4053 67.7578 82.1301 67.7871 82.623C67.3477 82.826 66.0879 82.913 65.7949 82.913C65.6777 82.913 65.6484 82.0142 65.8242 81.0574C65.9707 80.2745 66.2344 78.8248 66.3809 77.984C66.4688 77.4911 66.4395 76.9112 65.9707 76.9112C65.3555 76.9112 63.8906 77.897 63.1582 81.8982C63.0996 82.2171 62.9824 82.4201 62.7773 82.5361C62.5137 82.681 61.9863 82.826 60.9023 82.826C61.1074 81.8112 61.4297 79.7526 61.6641 78.2159C61.8691 76.8242 61.957 75.9254 61.9277 75.5775C62.2207 75.4905 63.7148 75.1716 63.8613 75.1716C64.0371 75.1716 64.0664 75.6935 63.9199 76.9112C63.8906 77.0272 63.8906 77.2012 63.8613 77.3171H63.8906V77.3751ZM72.3867 81.2313C73.1191 81.2313 74.6133 79.8686 75.0234 77.4621C75.0527 77.3171 75.082 77.0852 75.1113 76.9402C74.9062 76.7372 74.6133 76.6213 74.1445 76.6213C72.4453 76.6213 71.7129 78.6219 71.7129 80.0716C71.7422 80.8254 72.0059 81.2313 72.3867 81.2313ZM71.3027 82.942C70.2188 82.942 69.5742 81.9852 69.5742 80.3905C69.5742 77.723 71.2734 75.2585 74.1152 75.2585C74.6133 75.2585 75.082 75.4035 75.3457 75.5485C75.4922 74.7946 75.8438 72.4461 75.873 71.7503C76.3418 71.6633 77.3379 71.5183 77.8066 71.5183C77.9824 71.5183 78.041 71.6923 77.9824 72.1272C77.5723 74.6207 76.8691 79.3757 76.7227 80.4195C76.6348 81.3183 76.6055 82.1881 76.6348 82.681C76.1074 82.913 75.0234 82.971 74.7305 82.971C74.6133 82.971 74.5547 82.2171 74.584 81.5213C74.6133 81.3183 74.6426 80.9994 74.6426 80.9414C73.7344 82.2751 72.5918 82.942 71.3027 82.942ZM81.0879 77.6071C81.9668 75.6645 83.0215 75.2296 83.7246 75.2296C83.9297 75.2296 84.2812 75.3745 84.4277 75.5195C84.4863 76.0704 84.0469 77.1432 83.666 77.5781C83.4609 77.4911 83.2266 77.3751 82.9336 77.3751C82.377 77.3751 81.2344 78.2449 80.5312 82.0142C80.4727 82.3331 80.3848 82.4491 80.209 82.5361C79.916 82.71 78.8027 82.826 78.2754 82.855C78.5391 81.4923 78.9492 78.7378 79.125 77.1142C79.1836 76.7083 79.1836 75.9254 79.1543 75.6355C79.4766 75.4905 80.7363 75.2006 81 75.2006C81.1465 75.2006 81.2637 76.0994 81.0293 77.5781H81.0879V77.6071ZM86.9766 81.2603C87.7969 81.2603 89.291 79.8396 89.7012 77.1142C89.7305 76.9402 89.7305 76.9112 89.7598 76.7372C89.584 76.6793 89.3203 76.6213 89.0859 76.6213C88.4707 76.6213 87.8262 76.7952 87.2695 77.5781C86.6836 78.3899 86.4199 79.4047 86.4199 80.2165C86.4492 80.8834 86.625 81.2603 86.9766 81.2603ZM84.2812 80.5065C84.2812 79.5207 84.6035 77.839 85.8633 76.5923C86.9473 75.4905 88.2363 75.2296 89.4375 75.2296C90.2285 75.2296 91.2832 75.4905 91.957 75.6065C91.7812 76.3313 91.4004 79.0858 91.1953 80.6804C91.1074 81.3473 91.0781 82.3041 91.1074 82.652C90.5508 82.884 89.5254 82.942 89.2324 82.942C89.0859 82.942 89.0566 82.2751 89.0859 81.6083C89.1152 81.4053 89.1445 81.0864 89.1445 80.9414C88.5 82.0142 87.2109 82.913 85.8633 82.913C84.9258 82.942 84.2812 82.1301 84.2812 80.5065Z" fill="#373535"/>
<path d="M81.2055 47.1922C81.7622 53.5419 71.6547 59.6017 58.6176 60.7035C45.5805 61.8052 34.5942 57.5431 34.0376 51.1934C33.4809 44.8437 43.5883 38.7839 56.6254 37.6822C69.6333 36.5804 80.6489 40.8135 81.2055 47.1922Z" fill="#BBE6FB"/>
<path d="M56.9766 38.4071C51.9961 38.3201 46.1953 40.2917 41.8594 42.1183C41.4199 43.3941 41.1562 44.7568 41.1562 46.1775C41.1562 53.716 48.041 59.8337 56.5371 59.8337C65.0332 59.8337 71.9473 53.7449 71.9473 46.1775C71.9473 43.8 71.2441 41.5384 70.043 39.5958C66.5859 39.0739 61.8105 38.4941 56.9766 38.4071Z" fill="white"/>
<path d="M56.5664 38.4071C53.8125 38.2331 49.0664 39.6538 45.1113 41.0745C44.4961 42.4663 44.1738 44.0029 44.1738 45.6266C44.1738 52.2373 50.2383 57.6012 56.625 57.6012C62.9824 57.6012 68.6074 52.2373 69.0762 45.6266C69.2227 43.481 68.4902 41.4515 67.4355 39.7118C63.3633 39.016 59.0273 38.581 56.5664 38.4071Z" fill="white"/>
<path d="M49.5059 44.7862C49.8574 44.0324 50.3555 43.6845 50.8535 43.0756C50.7949 42.9306 50.6777 42.4377 50.6777 42.2927C50.6777 41.5389 51.293 40.959 52.0254 40.959C52.2012 40.959 52.377 40.988 52.5234 41.046C54.7793 39.3353 57.7383 38.6105 60.7266 39.2774C60.9902 39.3354 61.2539 39.4223 61.5176 39.4803C58.5879 39.0744 55.248 40.1182 52.9922 41.9158C53.0508 42.0898 53.2559 42.5247 53.2559 42.7277C53.2559 43.4815 52.7578 43.6555 52.0254 43.6555C51.8496 43.6555 51.7031 43.6265 51.5273 43.5685C51.0293 44.2354 50.3848 45.5401 50.0918 46.3519C51.3516 47.4537 52.4648 47.8596 53.9297 48.4105C53.9297 48.3525 53.9883 48.2655 53.9883 48.2075C53.9883 45.975 55.9805 44.1484 58.2363 44.1484C60.2578 44.1484 61.957 45.5981 62.2793 47.5117C63.3047 46.8738 64.2715 46.3809 65.0039 45.4531C64.8281 45.2501 64.6523 44.6413 64.6523 44.3513C64.6523 43.6845 65.209 43.1336 65.8828 43.1336C65.9707 43.1336 66.0586 43.1336 66.1758 43.1626C66.5566 42.3797 66.8496 41.5679 67.0254 40.7271C63.4805 38.1176 56.625 38.4945 56.625 38.4945C56.625 38.4945 51.1758 38.2046 47.4844 40.0022C47.748 41.6839 48.4512 43.3655 49.5059 44.7862Z" fill="#373535"/>
<path d="M66.439 43.7709C66.7027 44.0028 66.8199 44.1768 66.9371 44.3797C67.2593 44.9596 66.6148 45.5105 65.9117 45.5105C65.8531 45.5105 65.7652 45.5105 65.7066 45.4815C64.9449 46.6703 63.5972 48.178 62.3961 48.9608C64.2418 49.2508 65.9703 49.9756 67.3179 51.1064C68.314 49.3377 69.0757 46.7573 69.0757 44.5827C69.0757 42.93 68.3433 41.7123 67.23 40.8135C67.2007 41.7123 66.7027 42.959 66.439 43.7709ZM51.5562 55.0206C52.1714 53.3389 53.6656 52.0632 55.1011 50.9324C54.8961 50.6425 54.5738 49.9466 54.4566 49.6277C52.7281 49.1058 51.2046 48.12 50.0035 46.8442C50.0035 46.8732 49.9742 46.9312 49.9742 46.9602C49.7398 47.946 49.7105 48.9608 49.8277 49.9176C50.648 50.0626 51.2925 50.7874 51.2925 51.6573C51.2925 52.1792 50.8238 52.904 50.4722 53.2519C50.8238 54.0058 51.0875 54.4117 51.5562 55.0206Z" fill="#373535"/>
<path d="M51.4395 56.4125C50.707 55.6877 50.209 54.267 49.7402 53.3682C49.6523 53.3682 49.5645 53.3972 49.4766 53.3972C48.4805 53.3972 47.4551 52.5853 47.6895 51.6285C47.8066 51.1066 48.1875 50.7587 48.7734 50.4688C48.627 49.367 48.5977 47.8303 48.8613 46.6995C48.9199 46.3806 49.0957 46.2356 49.1836 45.9167C48.0996 44.351 47.3965 42.2634 47.3965 40.2049V39.9729C45.5508 40.9007 44.1738 42.3214 44.1738 44.583C44.1738 49.5989 47.1035 54.5279 51.4395 56.4415V56.4125ZM62.1328 49.483C61.5762 51.0486 60.0527 52.2084 58.2656 52.2084C57.2988 52.2084 56.4199 51.8895 55.7461 51.3386C54.3105 52.4404 52.9922 54.383 52.3477 56.0936C52.6406 56.4125 52.8457 56.6735 53.1973 56.9634C54.1934 57.2244 55.5996 56.9634 56.6836 56.9634C61.0488 56.9634 64.9453 55.0498 67.1719 51.6575C65.6484 50.6137 63.8906 49.6279 62.1328 49.483Z" fill="#373535"/>
<path d="M49.3887 45.3654C49.7402 44.6116 50.1504 43.9447 50.6484 43.3068C50.5898 43.1619 50.5605 42.9879 50.5605 42.8429C50.5605 42.0891 51.1758 41.5092 51.9082 41.5092C52.084 41.5092 52.2598 41.5382 52.4062 41.5962C54.6621 39.8855 57.6211 39.1607 60.6094 39.8275C60.873 39.8855 61.1367 39.9725 61.4004 40.0305C58.4707 39.6246 55.4238 40.5234 53.168 42.321C53.2266 42.495 53.2852 42.669 53.2852 42.8429C53.2852 43.5968 52.6699 44.1766 51.9375 44.1766C51.7617 44.1766 51.6152 44.1477 51.4395 44.0897C50.9414 44.7565 50.502 45.5104 50.209 46.3222C51.293 47.453 52.6113 48.3808 54.0762 48.9027V48.6997C54.0762 46.4672 55.9219 44.6406 58.1777 44.6406C60.1992 44.6406 61.8984 46.0903 62.2207 48.0039C63.2461 47.366 64.125 46.5542 64.8867 45.5974C64.7109 45.3944 64.5938 45.1335 64.5938 44.8435C64.5938 44.1767 65.1504 43.6258 65.8242 43.6258C65.9121 43.6258 66 43.6258 66.1172 43.6548C66.498 42.8719 66.791 42.0601 66.9668 41.2193C63.4219 38.6098 56.5664 38.9867 56.5664 38.9867C56.5664 38.9867 51.1172 38.6968 47.4258 40.4944C47.6309 42.263 48.334 43.9447 49.3887 45.3654Z" fill="#1287B1"/>
<path d="M66.6148 43.974C66.8785 44.206 67.025 44.5249 67.025 44.8728C67.025 45.5397 66.4683 46.0906 65.7945 46.0906C65.7359 46.0906 65.648 46.0906 65.5894 46.0616C64.8277 47.2504 63.8023 48.2652 62.6011 49.019C64.3589 49.2799 66.0289 50.0338 67.4058 51.1646C68.4019 49.3959 68.9879 47.3373 68.9879 45.1628C68.9879 43.5101 68.2554 42.2924 67.1421 41.3936C67.0836 42.2924 66.9078 43.1622 66.6148 43.974ZM51.732 55.3977C52.3472 53.716 53.4019 52.2373 54.8375 51.1066C54.6324 50.8166 54.4566 50.5267 54.3394 50.1788C52.6109 49.6569 51.0875 48.6711 49.8863 47.3953C49.8863 47.4243 49.857 47.4823 49.857 47.5113C49.6226 48.4971 49.5933 49.5119 49.7105 50.4687C50.5308 50.6137 51.1754 51.3385 51.1754 52.2083C51.1754 52.7302 50.941 53.1941 50.5894 53.5131C50.8824 54.1799 51.2925 54.8178 51.732 55.3977Z" fill="#1287B1"/>
<path d="M51.4395 56.3835C50.707 55.6587 50.0918 54.8468 49.623 53.948C49.5352 53.948 49.4473 53.977 49.3594 53.977C48.3633 53.977 47.5723 53.1942 47.5723 52.2084C47.5723 51.5125 47.9824 50.9036 48.5684 50.6137C48.4219 49.5119 48.4805 48.4101 48.7441 47.2794C48.8027 46.9604 48.9199 46.6415 49.0078 46.3226C47.9238 44.7569 47.2793 42.8433 47.2793 40.7847V40.5527C45.4336 41.4805 44.0566 42.9013 44.0566 45.1628C44.0566 50.1788 47.0742 54.4989 51.4102 56.4125C51.4395 56.4125 51.4395 56.4125 51.4395 56.3835ZM62.0156 50.0628C61.459 51.6285 59.9355 52.7882 58.1484 52.7882C57.1816 52.7882 56.3027 52.4693 55.6289 51.9184C54.1934 53.0202 53.1094 54.5279 52.4355 56.2385C52.7285 56.5575 53.0508 56.8474 53.373 57.1374C54.3691 57.3983 55.4238 57.5433 56.5078 57.5433C60.873 57.5433 64.7402 55.3107 66.9668 51.9184C65.502 50.8746 63.7734 50.2078 62.0156 50.0628Z" fill="#1287B1"/>
<path d="M62.1621 49.0193L65.9414 48.1205L62.1328 47.9175L65.2383 45.598L61.7227 46.8447L64.0957 43.5684L60.7852 45.7429L61.9277 41.9157L59.6719 45.0761L59.6133 41.0749L58.1191 44.6412L56.8887 41.0459L56.9473 45.279L54.8086 41.4808L55.9805 45.511L52.4941 43.0175L55.2188 46.4098L50.8828 44.8441L54.2813 47.3376L49.916 47.4826L54.3984 48.6134L49.916 49.5702L54.3398 49.8891L50.6191 52.2376L54.457 50.8749L51.791 54.2092L55.1602 51.5128L53.959 55.9779L56.5664 52.3246L56.2148 56.6157L57.6797 52.7015L58.9395 56.7897L59.2324 52.6725L61.1074 56.1808L59.9941 52.1796L63.3926 54.7891L61.1953 51.4548L64.9453 52.9045L62.0742 50.121L65.9121 50.411L62.1621 49.0193Z" fill="white"/>
<path d="M21.8203 56.1808C33.5684 44.5541 42.9434 40.9589 51.4688 39.3352C52.582 39.1322 52.8164 36.6678 52.8164 36.6678C52.8164 36.6678 52.9629 38.4654 53.7539 38.6973C54.5449 38.9293 55.5703 35.8849 55.5703 35.8849C55.5703 35.8849 54.6328 38.6104 55.5703 38.7843C56.5078 38.9293 58.2656 36.1169 58.2656 36.1169C58.2656 36.1169 57.5625 38.5234 58.0312 38.6973C58.5 38.8423 60.873 35.1891 60.873 35.1891C60.873 35.1891 59.4668 37.5956 60.7852 37.8565C62.1328 38.0885 64.0957 36.2038 64.0957 36.2038C64.0957 36.2038 62.5723 37.9145 63.2461 38.1754C66.1758 39.1902 68.5195 35.45 68.5195 35.45C68.5195 35.45 67.9629 37.1027 66.5566 38.9003C69.6328 39.6831 71.918 35.1021 71.918 35.1021L69.6328 39.6831C70.8047 40.263 75.5215 34.8701 75.5215 34.8701C75.5215 34.8701 73.0898 39.0743 71.6543 39.9441C72.4453 40.582 75.2871 38.0595 75.2871 38.0595C75.2871 38.0595 73.002 40.8719 73.8809 41.0169C75.1406 42.0317 79.7988 35.7979 79.7988 35.7979C79.7988 35.7979 77.9824 39.4802 75.3164 42.3506C77.543 43.4814 83.1094 36.3778 83.1094 36.3778C83.1094 36.3778 82.9629 38.6393 78.9199 42.2346C81.9082 41.8577 85.7754 36.2328 85.7754 36.2328C85.7754 36.2328 84.3691 40.437 80.9707 43.4234C83.9004 43.1334 88.6172 35.9429 88.6172 35.9429C88.6172 35.9429 86.8008 40.9299 83.1094 43.8293C87.2109 44.7281 93.1289 38.6683 93.1289 38.6683C93.1289 38.6683 90.8145 42.9595 87.7676 44.7281C91.166 46.0038 95.8242 40.6979 95.8242 40.6979C95.8242 40.6979 91.166 47.8015 83.7539 47.4825C81.3223 47.3666 73.9688 40.176 58.207 40.7559C37.3477 41.5098 32.9531 50.266 21.8203 56.1808Z" fill="#373535" fill-opacity="0.35"/>
<path d="M22.2891 55.3103C34.0371 43.6837 43.4121 40.0884 51.9375 38.4647C53.0508 38.2618 53.2852 35.7973 53.2852 35.7973C53.2852 35.7973 53.4316 37.5949 54.2227 37.8268C55.0137 38.0588 56.0391 35.0144 56.0391 35.0144C56.0391 35.0144 55.1016 37.7399 56.0391 37.9138C56.9766 38.0588 58.7344 35.2464 58.7344 35.2464C58.7344 35.2464 58.0312 37.6529 58.5 37.8268C58.9688 37.9718 61.3418 34.3186 61.3418 34.3186C61.3418 34.3186 59.9355 36.7251 61.2539 36.986C62.6016 37.218 64.5645 35.3334 64.5645 35.3334C64.5645 35.3334 63.041 37.044 63.7148 37.305C66.6445 38.3197 68.9883 34.5795 68.9883 34.5795C68.9883 34.5795 68.4316 36.2322 67.0254 38.0298C70.1016 38.8126 72.3867 34.2316 72.3867 34.2316L70.1016 38.8126C71.2734 39.4505 76.0195 34.0576 76.0195 34.0576C76.0195 34.0576 73.5879 38.2618 72.1523 39.1316C72.9434 39.6825 75.7852 37.189 75.7852 37.189C75.7852 37.189 73.5 40.0014 74.3789 40.1464C75.6387 41.1612 80.2969 34.9274 80.2969 34.9274C80.2969 34.9274 78.4512 38.6097 75.7852 41.4801C78.0117 42.5819 83.6074 35.4783 83.6074 35.4783C83.6074 35.4783 83.4609 37.7399 79.418 41.3351C82.4062 40.9582 86.2734 35.3334 86.2734 35.3334C86.2734 35.3334 84.8672 39.5375 81.4688 42.5239C84.3984 42.2339 89.1152 35.0434 89.1152 35.0434C89.1152 35.0434 87.2988 40.0304 83.6074 42.9298C87.709 43.8286 93.627 37.7689 93.627 37.7689C93.627 37.7689 91.3125 42.06 88.2656 43.8286C91.6641 45.1044 96.3223 39.7984 96.3223 39.7984C96.3223 39.7984 91.6641 46.902 84.252 46.5831C81.8203 46.4671 74.4668 39.2766 58.7051 39.8564C37.8457 40.6393 33.4219 49.3665 22.2891 55.3103Z" fill="#373535"/>
<path d="M21.5273 57.4563C27.7383 60.5297 33.4219 56.9924 40.5703 58.993C46.0195 60.5007 52.6406 62.3853 61.6348 61.0805C70.6289 59.8048 78.3047 55.9196 81.9961 49.019C83.1387 45.9456 87.7969 49.7149 87.7969 49.7149C87.7969 49.7149 84.3984 48.3231 84.4863 48.961C84.5742 49.6279 89.584 51.9184 89.584 51.9184C89.584 51.9184 85.043 50.5267 85.3359 51.5705C85.5996 52.6143 91.0195 56.8474 91.0195 56.8474C91.0195 56.8474 84.8379 52.2663 84.3398 52.9042C83.8125 53.5421 86.9473 56.0646 86.9473 56.0646C86.9473 56.0646 81.791 52.9042 79.9746 53.832C78.6562 54.4989 85.3359 58.819 85.3359 58.819C85.3359 58.819 81 55.5427 79.9746 56.4125C78.9492 57.2823 84.8672 64.2989 84.8672 64.2989C84.8672 64.2989 78.1289 57.1084 77.4551 57.4563C76.7812 57.8042 79.3008 61.2545 79.3008 61.2545C79.3008 61.2545 76.0195 57.6592 75.1113 58.2681C74.2031 58.906 79.8574 68.2131 79.8574 68.2131C79.8574 68.2131 73.7344 58.674 71.1855 60.2687C75.1406 68.8799 73.6758 70.0977 73.6758 70.0977C73.6758 70.0977 73.1777 61.3125 68.2266 61.5444C65.7363 61.6604 69.3984 68.0971 69.3984 68.0971C69.3984 68.0971 66.0293 62.2113 63.7734 62.3273C67.9043 70.0977 66.4395 73.2291 66.4395 73.2291C66.4395 73.2291 67.1133 66.5894 61.5176 62.9072C63.6562 64.7918 60.1699 73.2291 60.1699 73.2291C60.1699 73.2291 63.2168 60.7906 57.9141 63.1681C57.0645 63.545 57.8555 69.3729 57.8555 69.3729C57.8555 69.3729 56.8008 62.7042 55.1895 63.0521C54.252 63.2551 49.2715 72.3013 49.2715 72.3013C49.2715 72.3013 53.3437 62.5302 52.1133 62.9362C51.2051 63.2261 49.5059 67.2563 49.5059 67.2563C49.5059 67.2563 50.3262 63.2841 49.5059 63.0521C48.6855 62.8202 44.0566 67.2563 44.0566 67.2563C44.0566 67.2563 47.4844 63.2841 46.8984 62.4433C45.9902 61.1965 44.9648 61.1385 43.7051 61.6314C41.8887 62.3273 39.457 65.6036 39.457 65.6036C39.457 65.6036 41.8887 62.2693 41.4785 61.0515C40.8047 59.051 33.8027 64.9078 33.8027 64.9078C33.8027 64.9078 37.9336 61.0515 36.9961 60.2107C36.0586 59.3989 30.9023 59.6308 29.3203 59.6308C24.6035 59.6888 22.9629 58.5871 21.5273 57.4563Z" fill="#373535" fill-opacity="0.35"/>
<path d="M21.2637 56.7607C27.4746 59.8341 33.1582 56.2968 40.3066 58.2974C45.7559 59.8051 52.377 61.6897 61.3711 60.385C70.3652 59.1092 78.041 55.224 81.7324 48.3234C82.875 45.2501 87.5332 49.0193 87.5332 49.0193C87.5332 49.0193 84.1348 47.6276 84.2227 48.2655C84.3105 48.9323 89.3203 51.2229 89.3203 51.2229C89.3203 51.2229 84.7793 49.8311 85.0723 50.8749C85.3359 51.9187 90.7559 56.1518 90.7559 56.1518C90.7559 56.1518 84.6328 51.5418 84.1348 52.1797C83.6367 52.8175 86.7422 55.34 86.7422 55.34C86.7422 55.34 81.5859 52.1797 79.7695 53.1075C78.4512 53.7743 85.1309 58.0945 85.1309 58.0945C85.1309 58.0945 80.7949 54.8181 79.7695 55.6879C78.7441 56.5578 84.6621 63.5743 84.6621 63.5743C84.6621 63.5743 77.9531 56.3838 77.2793 56.7317C76.6055 57.0797 79.125 60.53 79.125 60.53C79.125 60.53 75.7852 56.9637 74.8769 57.5726C73.9687 58.2104 79.5937 67.5175 79.5937 67.5175C79.5937 67.5175 73.4707 57.9495 70.9512 59.5442C74.9355 68.1844 73.4414 69.4021 73.4414 69.4021C73.4414 69.4021 72.9434 60.6169 67.9922 60.8489C65.5019 60.9649 69.1641 67.4016 69.1641 67.4016C69.1641 67.4016 65.8242 61.5447 63.5684 61.6607C67.6992 69.4311 66.2344 72.5625 66.2344 72.5625C66.2344 72.5625 66.9082 65.9229 61.3125 62.2406C63.4512 64.1252 59.9648 72.5625 59.9648 72.5625C59.9648 72.5625 63.0117 60.124 57.709 62.5016C56.8594 62.8785 57.6504 68.7063 57.6504 68.7063C57.6504 68.7063 56.5957 62.0376 54.9844 62.3856C54.0469 62.5885 49.0664 71.6347 49.0664 71.6347C49.0664 71.6347 53.1387 61.8637 51.9082 62.2696C51 62.5595 49.3008 66.5897 49.3008 66.5897C49.3008 66.5897 50.1211 62.6175 49.3008 62.3856C48.4805 62.1536 43.8516 66.5897 43.8516 66.5897C43.8516 66.5897 47.2793 62.6175 46.6934 61.7767C45.7852 60.53 44.7598 60.472 43.5 60.9649C41.6836 61.6607 39.252 64.9371 39.252 64.9371C39.252 64.9371 41.6836 61.6027 41.2734 60.385C40.5996 58.3844 33.5977 64.2412 33.5977 64.2412C33.5977 64.2412 37.7285 60.385 36.791 59.5442C35.8535 58.7323 30.6973 58.9643 29.1152 58.9643C24.3398 58.9933 22.6992 57.8915 21.2637 56.7607Z" fill="#373535"/>
</g>
<defs>
<filter id="filter0_d_103_911" x="0" y="0" width="120" height="120" filterUnits="userSpaceOnUse" color-interpolation-filters="sRGB">
<feFlood flood-opacity="0" result="BackgroundImageFix"/>
<feColorMatrix in="SourceAlpha" type="matrix" values="0 0 0 0 0 0 0 0 0 0 0 0 0 0 0 0 0 0 127 0" result="hardAlpha"/>
<feOffset dx="1" dy="1"/>
<feGaussianBlur stdDeviation="5"/>
<feComposite in2="hardAlpha" operator="out"/>
<feColorMatrix type="matrix" values="0 0 0 0 0 0 0 0 0 0.407843 0 0 0 0 0.717647 0 0 0 0.1 0"/>
<feBlend mode="normal" in2="BackgroundImageFix" result="effect1_dropShadow_103_911"/>
<feBlend mode="normal" in="SourceGraphic" in2="effect1_dropShadow_103_911" result="shape"/>
</filter>
<clipPath id="clip0_103_911">
<rect width="75" height="49" fill="white" transform="translate(21 34)"/>
</clipPath>
</defs>
</svg>
