<svg width="40" height="40" viewBox="0 0 40 40" fill="none" xmlns="http://www.w3.org/2000/svg">
<path d="M12.575 22.35C12.9599 22.4436 13.354 22.494 13.75 22.5C14.743 22.4997 15.7133 22.2038 16.5375 21.65L20.5625 25.2375C20.2437 25.843 20.0565 26.5091 20.0134 27.192C19.9704 27.8749 20.0723 28.5593 20.3125 29.2C20.5648 29.926 20.9811 30.584 21.5291 31.123C22.077 31.662 22.7418 32.0674 23.4719 32.3078C24.2019 32.5481 24.9775 32.6169 25.7385 32.5088C26.4994 32.4008 27.2252 32.1187 27.8595 31.6846C28.4937 31.2505 29.0194 30.676 29.3956 30.0057C29.7717 29.3355 29.9883 28.5875 30.0285 27.82C30.0687 27.0525 29.9314 26.286 29.6273 25.5801C29.3232 24.8742 28.8604 24.248 28.275 23.75L31.45 17.3875C32.0697 17.5273 32.7112 17.5406 33.3362 17.4268C33.9612 17.313 34.5569 17.0743 35.0875 16.725C35.9886 16.1751 36.6926 15.354 37.0985 14.3794C37.5044 13.4049 37.5914 12.3269 37.3471 11.2999C37.1027 10.2728 36.5396 9.34948 35.7384 8.66211C34.9371 7.97474 33.9389 7.55861 32.8866 7.47336C31.8344 7.3881 30.7821 7.63809 29.8807 8.1875C28.9792 8.73691 28.2748 9.55755 27.8683 10.5319C27.4618 11.5062 27.3742 12.5841 27.6179 13.6113C27.8616 14.6385 28.4242 15.5622 29.225 16.25L26.05 22.6125C25.7052 22.5367 25.3531 22.499 25 22.5C24.007 22.5003 23.0367 22.7962 22.2125 23.35L18.1875 19.7625C18.5064 19.157 18.6935 18.4909 18.7366 17.808C18.7796 17.1251 18.6777 16.4407 18.4375 15.8C18.187 15.0793 17.775 14.4254 17.2328 13.8886C16.6907 13.3517 16.0328 12.946 15.3097 12.7026C14.5866 12.4592 13.8173 12.3845 13.0609 12.4842C12.3044 12.584 11.5808 12.8555 10.9455 13.2781C10.3102 13.7006 9.78005 14.263 9.39561 14.922C9.01117 15.5811 8.78267 16.3194 8.7276 17.0804C8.67253 17.8414 8.79236 18.605 9.07791 19.3125C9.36346 20.0201 9.80715 20.6529 10.375 21.1625L5 31.25V2.5H2.5V35C2.5 35.663 2.76339 36.2989 3.23223 36.7678C3.70107 37.2366 4.33696 37.5 5 37.5H37.5V35H5.8375L12.575 22.35ZM32.5 10C32.9945 10 33.4778 10.1466 33.8889 10.4213C34.3 10.696 34.6205 11.0865 34.8097 11.5433C34.9989 12.0001 35.0484 12.5028 34.952 12.9877C34.8555 13.4727 34.6174 13.9181 34.2678 14.2678C33.9181 14.6174 33.4727 14.8555 32.9877 14.952C32.5028 15.0484 32.0001 14.9989 31.5433 14.8097C31.0865 14.6205 30.696 14.3 30.4213 13.8889C30.1466 13.4778 30 12.9945 30 12.5C30 11.837 30.2634 11.2011 30.7322 10.7322C31.2011 10.2634 31.837 10 32.5 10ZM27.5 27.5C27.5 27.9945 27.3534 28.4778 27.0787 28.8889C26.804 29.3 26.4135 29.6205 25.9567 29.8097C25.4999 29.9989 24.9972 30.0484 24.5123 29.952C24.0273 29.8555 23.5819 29.6174 23.2322 29.2678C22.8826 28.9181 22.6445 28.4727 22.548 27.9877C22.4516 27.5028 22.5011 27.0001 22.6903 26.5433C22.8795 26.0865 23.2 25.696 23.6111 25.4213C24.0222 25.1466 24.5055 25 25 25C25.663 25 26.2989 25.2634 26.7678 25.7322C27.2366 26.2011 27.5 26.837 27.5 27.5ZM13.75 15C14.2445 15 14.7278 15.1466 15.1389 15.4213C15.55 15.696 15.8705 16.0865 16.0597 16.5433C16.2489 17.0001 16.2984 17.5028 16.202 17.9877C16.1055 18.4727 15.8674 18.9181 15.5178 19.2678C15.1681 19.6174 14.7227 19.8555 14.2377 19.952C13.7528 20.0484 13.2501 19.9989 12.7933 19.8097C12.3365 19.6205 11.946 19.3 11.6713 18.8889C11.3966 18.4778 11.25 17.9945 11.25 17.5C11.25 16.837 11.5134 16.2011 11.9822 15.7322C12.4511 15.2634 13.087 15 13.75 15Z" fill="#0068B7"/>
</svg>
