<svg width="40" height="40" viewBox="0 0 40 40" fill="none" xmlns="http://www.w3.org/2000/svg">
<path d="M16.6667 8.33333L20 5M13.3333 26.6667L26.6667 13.3333M20 35L23.3333 31.6667M27.5 31.6667C28.6051 31.6667 29.6649 31.2277 30.4463 30.4463C31.2277 29.6649 31.6667 28.6051 31.6667 27.5C31.6667 26.3949 31.2277 25.3351 30.4463 24.5537C29.6649 23.7723 28.6051 23.3333 27.5 23.3333C26.3949 23.3333 25.3351 23.7723 24.5537 24.5537C23.7723 25.3351 23.3333 26.3949 23.3333 27.5C23.3333 28.6051 23.7723 29.6649 24.5537 30.4463C25.3351 31.2277 26.3949 31.6667 27.5 31.6667V31.6667ZM12.5 16.6667C13.6051 16.6667 14.6649 16.2277 15.4463 15.4463C16.2277 14.6649 16.6667 13.6051 16.6667 12.5C16.6667 11.3949 16.2277 10.3351 15.4463 9.55372C14.6649 8.77232 13.6051 8.33333 12.5 8.33333C11.3949 8.33333 10.3351 8.77232 9.55372 9.55372C8.77232 10.3351 8.33333 11.3949 8.33333 12.5C8.33333 13.6051 8.77232 14.6649 9.55372 15.4463C10.3351 16.2277 11.3949 16.6667 12.5 16.6667V16.6667ZM9.16667 35C10.2717 35 11.3315 34.561 12.1129 33.7796C12.8943 32.9982 13.3333 31.9384 13.3333 30.8333C13.3333 29.7283 12.8943 28.6685 12.1129 27.8871C11.3315 27.1057 10.2717 26.6667 9.16667 26.6667C8.0616 26.6667 7.00179 27.1057 6.22039 27.8871C5.43899 28.6685 5 29.7283 5 30.8333C5 31.9384 5.43899 32.9982 6.22039 33.7796C7.00179 34.561 8.0616 35 9.16667 35V35ZM30.8333 13.3333C31.9384 13.3333 32.9982 12.8943 33.7796 12.1129C34.561 11.3315 35 10.2717 35 9.16667C35 8.0616 34.561 7.00179 33.7796 6.22039C32.9982 5.43899 31.9384 5 30.8333 5C29.7283 5 28.6685 5.43899 27.8871 6.22039C27.1057 7.00179 26.6667 8.0616 26.6667 9.16667C26.6667 10.2717 27.1057 11.3315 27.8871 12.1129C28.6685 12.8943 29.7283 13.3333 30.8333 13.3333Z" stroke="#0068B7" stroke-width="2" stroke-linecap="round" stroke-linejoin="round"/>
</svg>
