<svg width="120" height="120" viewBox="0 0 120 120" fill="none" xmlns="http://www.w3.org/2000/svg">
<g filter="url(#filter0_d_103_883)">
<rect x="9" y="9" width="100" height="100" rx="16" fill="white"/>
</g>
<g clip-path="url(#clip0_103_883)">
<path d="M74.7031 28H42.2969C34.4009 28 28 34.4009 28 42.2969V74.7031C28 82.5991 34.4009 89 42.2969 89H74.7031C82.5991 89 89 82.5991 89 74.7031V42.2969C89 34.4009 82.5991 28 74.7031 28Z" fill="#F4F2ED"/>
<path d="M64.7425 82.7694H65.3303L74.9238 77.9721L75.0834 77.7465V39.4537L74.9238 39.2269L65.3303 34.4336H64.7354L64.7425 82.7694Z" fill="#5294CF"/>
<path d="M52.2576 82.7694H51.6619L42.0763 77.9721L41.8819 77.6376L41.7832 39.6489L42.0763 39.2271L51.6616 34.4336H52.265L52.2576 82.7694Z" fill="#1F5B98"/>
<path d="M51.6785 34.4336H65.3208V82.7694H51.6785V34.4336Z" fill="#2D72B8"/>
<path d="M79.9453 57.5161L79.621 57.4441L74.9924 57.0126L74.9235 57.0467L65.3215 56.6628H51.6785L42.0762 57.0467V49.7243L42.0662 49.7298L42.0762 49.7083L51.6785 47.4835H65.3215L74.9235 49.7083L78.4534 51.5848V50.3784L79.9453 50.2154L79.7909 49.9142L75.0675 46.5368L74.9235 46.5835L65.3215 43.6079H51.6785L42.0762 46.5833V39.2275L37.0547 45.11V50.2478L37.0935 50.2197L38.5466 50.3781V51.6093L37.0547 52.4076V57.5199L37.0935 57.5159L38.5466 57.5373V59.683L37.293 59.7016L37.0547 59.679V64.7932L38.5463 65.5953V66.8405L37.1171 66.9985L37.0547 66.9516V72.0884L42.0762 77.9723V70.617L51.6785 73.5925H65.3215L74.9519 70.6082L75.0798 70.6645L79.7411 67.3366L79.9453 67.0052L78.4534 66.8405V65.6203L78.258 65.5421L75.0675 67.262L74.9519 67.5032L65.3215 69.7154V69.718H51.6785V69.7154L42.0762 67.4939V60.1448L51.6785 60.5275V60.5368H65.3215L74.9235 60.1448L75.1423 60.2454L79.6289 59.8591L79.9453 59.7045L78.4534 59.683V57.5373L79.9453 57.5159V57.5161Z" fill="#1A476F"/>
<path d="M74.9238 70.6165V77.9718L79.9456 72.0882V66.9847L74.9529 70.608L74.9238 70.6165ZM74.9238 67.5096L74.9529 67.5029L79.9456 64.8175V59.6825L74.9238 60.1443V67.5096ZM74.9529 49.7143L74.9238 49.7078V57.046L79.9456 57.5154V52.3828L74.9529 49.7145V49.7143ZM74.9529 46.6114L79.9456 50.2144V45.1109L74.9238 39.2266V46.5823L74.9529 46.5926V46.6114Z" fill="#2D72B8"/>
</g>
<defs>
<filter id="filter0_d_103_883" x="0" y="0" width="120" height="120" filterUnits="userSpaceOnUse" color-interpolation-filters="sRGB">
<feFlood flood-opacity="0" result="BackgroundImageFix"/>
<feColorMatrix in="SourceAlpha" type="matrix" values="0 0 0 0 0 0 0 0 0 0 0 0 0 0 0 0 0 0 127 0" result="hardAlpha"/>
<feOffset dx="1" dy="1"/>
<feGaussianBlur stdDeviation="5"/>
<feComposite in2="hardAlpha" operator="out"/>
<feColorMatrix type="matrix" values="0 0 0 0 0 0 0 0 0 0.407843 0 0 0 0 0.717647 0 0 0 0.1 0"/>
<feBlend mode="normal" in2="BackgroundImageFix" result="effect1_dropShadow_103_883"/>
<feBlend mode="normal" in="SourceGraphic" in2="effect1_dropShadow_103_883" result="shape"/>
</filter>
<clipPath id="clip0_103_883">
<rect width="61" height="61" fill="white" transform="translate(28 28)"/>
</clipPath>
</defs>
</svg>
