<svg width="14" height="82" viewBox="0 0 14 82" fill="none" xmlns="http://www.w3.org/2000/svg">
<path d="M0.989999 74.288L2.664 74.288L2.664 79.598L6.354 79.598L6.354 75.458L8.028 75.458L8.028 79.598L13.5 79.598L13.5 81.65L0.989999 81.65L0.989999 74.288ZM13.662 68.0843C13.662 69.0203 13.452 69.8663 13.032 70.6223C12.6 71.3783 12 71.9723 11.232 72.4043C10.452 72.8363 9.552 73.0523 8.532 73.0523C7.524 73.0523 6.63 72.8303 5.85 72.3863C5.07 71.9423 4.47 71.3363 4.05 70.5683C3.63 69.8003 3.42 68.9423 3.42 67.9943C3.42 67.0463 3.63 66.1883 4.05 65.4203C4.47 64.6523 5.07 64.0463 5.85 63.6023C6.63 63.1583 7.524 62.9363 8.532 62.9363C9.54 62.9363 10.434 63.1643 11.214 63.6203C11.994 64.0763 12.6 64.7003 13.032 65.4923C13.452 66.2723 13.662 67.1363 13.662 68.0843ZM11.88 68.0843C11.88 67.5563 11.754 67.0643 11.502 66.6083C11.25 66.1403 10.872 65.7623 10.368 65.4743C9.864 65.1863 9.252 65.0423 8.532 65.0423C7.812 65.0423 7.206 65.1803 6.714 65.4563C6.21 65.7323 5.832 66.0983 5.58 66.5543C5.328 67.0103 5.202 67.5023 5.202 68.0303C5.202 68.5583 5.328 69.0503 5.58 69.5063C5.832 69.9503 6.21 70.3043 6.714 70.5683C7.206 70.8323 7.812 70.9643 8.532 70.9643C9.6 70.9643 10.428 70.6943 11.016 70.1543C11.592 69.6023 11.88 68.9123 11.88 68.0843ZM0.179999 58.8558L13.5 58.8558L13.5 60.9078L0.179999 60.9078L0.179999 58.8558ZM0.179999 54.1097L13.5 54.1097L13.5 56.1617L0.179999 56.1617L0.179999 54.1097ZM13.662 47.1136C13.662 48.0496 13.452 48.8956 13.032 49.6516C12.6 50.4076 12 51.0016 11.232 51.4336C10.452 51.8656 9.552 52.0816 8.532 52.0816C7.524 52.0816 6.63 51.8596 5.85 51.4156C5.07 50.9716 4.47 50.3656 4.05 49.5976C3.63 48.8296 3.42 47.9716 3.42 47.0236C3.42 46.0756 3.63 45.2176 4.05 44.4496C4.47 43.6816 5.07 43.0756 5.85 42.6316C6.63 42.1876 7.524 41.9656 8.532 41.9656C9.54 41.9656 10.434 42.1936 11.214 42.6496C11.994 43.1056 12.6 43.7296 13.032 44.5216C13.452 45.3016 13.662 46.1656 13.662 47.1136ZM11.88 47.1136C11.88 46.5856 11.754 46.0936 11.502 45.6376C11.25 45.1696 10.872 44.7916 10.368 44.5036C9.864 44.2156 9.252 44.0716 8.532 44.0716C7.812 44.0716 7.206 44.2096 6.714 44.4856C6.21 44.7616 5.832 45.1276 5.58 45.5836C5.328 46.0396 5.202 46.5316 5.202 47.0596C5.202 47.5876 5.328 48.0796 5.58 48.5356C5.832 48.9796 6.21 49.3336 6.714 49.5976C7.206 49.8616 7.812 49.9936 8.532 49.9936C9.6 49.9936 10.428 49.7236 11.016 49.1836C11.592 48.6316 11.88 47.9416 11.88 47.1136ZM3.582 26.6171L13.5 29.6951L13.5 31.8551L6.174 33.8531L13.5 35.8511L13.5 38.0111L3.582 41.1071L3.582 39.0191L11.556 36.9491L3.582 34.8431L3.582 32.7011L11.52 30.6851L3.582 28.6331L3.582 26.6171ZM0.989996 18.3738L8.964 18.3738C9.912 18.3738 10.626 18.1278 11.106 17.6358C11.586 17.1318 11.826 16.4358 11.826 15.5478C11.826 14.6478 11.586 13.9518 11.106 13.4598C10.626 12.9558 9.912 12.7038 8.964 12.7038L0.989996 12.7038L0.989996 10.6518L8.928 10.6518C9.948 10.6518 10.812 10.8738 11.52 11.3178C12.228 11.7618 12.756 12.3558 13.104 13.0998C13.452 13.8438 13.626 14.6658 13.626 15.5658C13.626 16.4658 13.452 17.2878 13.104 18.0318C12.756 18.7638 12.228 19.3458 11.52 19.7778C10.812 20.2098 9.948 20.4258 8.928 20.4258L0.989996 20.4258L0.989996 18.3738ZM13.662 4.38008C13.662 5.16008 13.524 5.86208 13.248 6.48608C12.96 7.09808 12.576 7.58408 12.096 7.94408C11.604 8.30408 11.058 8.49608 10.458 8.52008L10.458 6.39608C10.878 6.36008 11.232 6.16208 11.52 5.80208C11.796 5.43008 11.934 4.96808 11.934 4.41608C11.934 3.84008 11.826 3.39608 11.61 3.08408C11.382 2.76008 11.094 2.59808 10.746 2.59808C10.374 2.59808 10.098 2.77808 9.918 3.13808C9.738 3.48608 9.54 4.04408 9.324 4.81208C9.12 5.55608 8.922 6.16208 8.73 6.63008C8.538 7.09808 8.244 7.50608 7.848 7.85408C7.452 8.19008 6.93 8.35808 6.282 8.35808C5.754 8.35808 5.274 8.20208 4.842 7.89008C4.398 7.57808 4.05 7.13408 3.798 6.55808C3.546 5.97008 3.42 5.29808 3.42 4.54208C3.42 3.41408 3.708 2.50808 4.284 1.82408C4.848 1.12808 5.622 0.756077 6.606 0.708077L6.606 2.76008C6.162 2.79608 5.808 2.97608 5.544 3.30008C5.28 3.62408 5.148 4.06208 5.148 4.61408C5.148 5.15408 5.25 5.56808 5.454 5.85608C5.658 6.14408 5.928 6.28808 6.264 6.28808C6.528 6.28808 6.75 6.19208 6.93 6.00008C7.11 5.80808 7.254 5.57408 7.362 5.29808C7.458 5.02208 7.584 4.61408 7.74 4.07408C7.932 3.35408 8.13 2.76608 8.334 2.31008C8.526 1.84208 8.814 1.44008 9.198 1.10408C9.582 0.768077 10.092 0.594077 10.728 0.582077C11.292 0.582077 11.796 0.738077 12.24 1.05008C12.684 1.36208 13.032 1.80608 13.284 2.38208C13.536 2.94608 13.662 3.61208 13.662 4.38008Z" fill="white" fill-opacity="0.75"/>
</svg>
