<svg width="818" height="767" viewBox="0 0 818 767" fill="none" xmlns="http://www.w3.org/2000/svg">
<g clip-path="url(#clip0_395_6726)">
<path d="M646.113 316.88C599.749 311.222 539.707 287.223 498.757 319.175C470.326 341.356 453.464 384.048 417.22 395.585C380.756 407.188 340.68 377.404 305.829 370.479C285.229 366.391 266.699 374.631 246.406 369.674C216.382 362.334 188.337 342.009 160.156 329.894C123.78 334.793 111.802 374.318 101.773 404.364C88.9829 442.656 80.476 483.545 56.5639 516.798C96.4318 494.579 105.222 446.872 140.492 420.469C173.14 396.016 216.072 421.789 249.592 431.057C280.707 439.657 308.498 427.335 338.567 440.446C368.787 453.627 411.624 493.153 447.142 481.781C480.411 471.126 493.624 420.822 510.924 394.779C533.216 361.215 558.832 361.203 595.971 372.588C627.118 382.141 698.071 423.785 726.388 391.51C757.388 356.177 734.316 296.859 775.377 267.13C743.451 267.901 740.847 290.148 725.365 313.449C704.668 344.61 675.467 328.639 646.13 316.867L646.113 316.88Z" stroke="#84EBFE" stroke-width="0.3" stroke-miterlimit="10"/>
<path d="M766.442 266.632C750.713 286.54 747.415 307.772 742.701 332.272C739.085 351.036 736.562 379.909 719.201 392.227C688.99 413.654 631.742 380.16 601.869 370.361C583.567 364.362 560.277 355.561 540.75 361.488C524.168 366.53 513.562 382.919 505.115 396.827C489.694 422.201 476.652 466.524 445.366 476.659C412.112 487.438 372.733 453.079 344.774 439.471C325.912 430.284 313.414 428.427 293.27 429.322C277.188 430.039 265.11 430.746 249.072 426.561C217.799 418.399 177.648 393.854 145.571 411.303C108.432 431.501 95.8482 482.274 62.7868 508.373" stroke="#84EBFE" stroke-width="0.3" stroke-miterlimit="10"/>
<path d="M759.208 268.187C747.535 290.558 744.354 313.126 739.308 337.602C735.619 355.5 731.717 381.751 712.759 390.6C679.292 406.238 626.165 373.879 594.414 363.96C576.974 358.517 554.699 350.845 536.512 357.97C520.667 364.183 510.578 380.557 502.342 394.421C487.5 419.392 474.405 462.289 443.82 472.21C411.3 482.762 372.778 449.765 345.575 436.184C327.858 427.344 313.966 423.19 294.426 423.988C278.969 424.619 267.71 426.963 251.89 423.244C220.578 415.875 182.026 391.29 149.279 404.293C112.149 419.046 95.327 471.943 68.2441 498.947" stroke="#84EBFE" stroke-width="0.3" stroke-miterlimit="10"/>
<path d="M753.288 271.262C744.655 294.263 741.665 317.536 736.173 341.345C732.151 358.786 727.022 381.315 707.561 387.653C688.053 394 662.9 383.857 644.727 377.797C621.59 370.085 598.954 360.183 575.132 354.617C539.652 346.313 520.46 357.93 502.339 387.668C487.133 412.627 473.587 458.395 442.485 468.385C409.268 479.053 368.943 443.946 341.244 430.512C329.845 424.986 316.257 418.824 303.263 418.543C287.101 418.194 274.475 424.025 257.744 420.822C224.507 414.443 186.182 388.252 151.519 398.744C114.825 409.849 96.1042 461.841 73.0737 488.877" stroke="#84EBFE" stroke-width="0.3" stroke-miterlimit="10"/>
<path d="M748.387 275.406C739.804 305.423 741.019 378.098 700.636 384.708C657.334 391.79 609.713 356.52 568.39 347.722C533.513 340.3 515.646 355.575 499.384 384.55C485.196 409.833 472.655 455.841 441.585 465.818C408.984 476.286 369.509 442.288 342.504 428.768C331.26 423.146 317.711 416.586 304.862 415.714C289.421 414.66 276.44 421.125 260.494 418.485C226.312 412.839 190.896 386.851 155.308 393.383C117.748 400.278 97.9688 451.189 77.4071 478.355" stroke="#84EBFE" stroke-width="0.3" stroke-miterlimit="10"/>
<path d="M744.253 280.277C737.102 311.108 737.569 380.187 693.445 380.943C647.569 381.738 605.174 347.315 561.018 338.307C479.697 321.701 501.29 446.102 441.774 466.35C410.26 477.073 370.425 443.033 344.604 429.652C333.426 423.856 320.028 416.987 307.261 415.478C292.336 413.717 279.036 420.175 263.762 418.024C228.445 413.058 195.685 386.507 159.232 389.019C120.641 391.684 100.54 440.293 81.3701 467.706" stroke="#84EBFE" stroke-width="0.3" stroke-miterlimit="10"/>
<path d="M740.683 285.572C734.325 317.217 733.56 380.227 687.863 376.652C641.872 373.05 602.087 339.95 557.551 329.91C475.036 311.311 500.824 445.341 441.837 466.516C413.415 476.713 377.844 448.033 354.697 435.094C340.241 427.007 323.073 416.143 306.037 414.894C291.441 413.825 278.826 419.498 263.936 417.179C228.816 411.704 197.719 385.796 161.642 385.427C123.063 385.024 103.234 429.693 85.026 457.066" stroke="#84EBFE" stroke-width="0.3" stroke-miterlimit="10"/>
<path d="M737.511 291.057C730.881 326.696 727.919 381.177 678.639 371.76C632.776 363 594.345 329.618 548.039 322.622C473.11 311.298 497.302 445.066 441.367 465.162C411.413 475.917 372.148 442.855 347.99 429.668C336.803 423.567 323.992 416.478 311.347 413.799C296.657 410.683 284.042 416.492 269.42 415.769C233.35 413.981 202.818 386.893 167.141 382.402C126.989 377.341 106.97 418 88.4417 446.55" stroke="#84EBFE" stroke-width="0.3" stroke-miterlimit="10"/>
<path d="M734.61 296.559C727.386 335.577 721.183 379.554 671.225 366.783C627.751 355.66 588.302 322.022 543.041 318.224C472.482 312.311 492.262 437.602 439.276 459.16C411.284 470.554 373.232 441.645 349.889 429.868C338.681 424.204 326.396 417.937 314.046 415.079C299.04 411.615 287.49 417.017 272.761 416.692C236.743 415.882 205.717 387.498 171.131 380.065C130.832 371.394 110.606 407.092 91.6566 436.315" stroke="#84EBFE" stroke-width="0.3" stroke-miterlimit="10"/>
<path d="M731.862 301.912C728.352 319.777 726.091 344.472 712.129 358.062C698.175 371.644 678.005 366.034 661.72 360.78C623.025 348.286 587.95 322.694 547.678 315.09C473.823 301.15 486.905 425.316 436.137 450.248C411.334 462.424 379.095 442.885 356.607 433.206C342.239 427.021 326.191 419.105 310.284 418.133C297.953 417.382 286.837 421.87 274.599 421.031C239.663 418.646 209.611 391.151 177.251 380.082C135.967 365.964 115.479 394.961 94.7293 426.382" stroke="#84EBFE" stroke-width="0.3" stroke-miterlimit="10"/>
<path d="M729.186 307.03C725.586 323.456 722.602 348.425 706.705 358.567C690.316 369.016 668.353 360.431 652.155 354.374C616.47 341.025 578.373 313.143 539.516 309.996C473.646 304.646 479.308 415.859 433.337 442.058C411.617 454.436 384.422 442.725 362.872 435.404C348.299 430.456 332.929 424.139 317.42 422.948C303.259 421.862 290.539 427.78 276.635 426.192C243.15 422.374 213.374 395.055 183.698 381.581C142.05 362.665 121.075 382.802 97.7008 416.908" stroke="#84EBFE" stroke-width="0.3" stroke-miterlimit="10"/>
<path d="M726.516 311.792C722.418 327.864 718.52 350.781 700.845 358.087C682.729 365.577 659.035 354.526 642.614 347.774C608.695 333.818 569.778 304.899 532.081 305.974C473.218 307.65 472.294 408.446 431.006 435.58C408.963 450.062 380.295 438.741 357.252 432.749C346.24 429.882 335 426.432 323.638 425.187C309.065 423.597 297.093 428.964 282.98 428.764C250.212 428.297 217.659 398.033 190.057 383.259C174.532 374.956 156.489 365.653 138.457 371.337C121.649 376.625 110.271 394.535 100.624 407.869" stroke="#84EBFE" stroke-width="0.3" stroke-miterlimit="10"/>
<path d="M723.801 316.153C718.813 332.562 713.907 352.224 694.533 356.589C677.22 360.481 657.417 351.032 641.824 344.932C609.78 332.403 562.238 297.561 525.958 304.749C469.604 315.917 471.701 403.272 429.988 432.347C410.264 446.098 383.686 437.163 362.711 431.998C347.976 428.36 332.995 423.258 317.707 422.518C307.14 422.004 297.578 425.876 287.422 426.192C253.644 427.27 223.766 400.236 196.015 384.275C180.723 375.475 161.271 363.492 142.64 366.836C125.211 369.962 113.486 386.434 103.481 399.316" stroke="#84EBFE" stroke-width="0.3" stroke-miterlimit="10"/>
<path d="M720.981 320.054C714.624 337.191 708.497 352.76 687.875 354.359C672.443 355.554 656.31 349.338 641.999 344.223C608.594 332.28 569.614 306.497 532.895 308.295C476.137 311.068 466.032 399.867 428.626 428.936C409.743 443.613 383.315 434.628 362.483 429.35C334.722 422.328 314.191 420.892 286.22 422.914C252.985 425.317 221.929 396.671 194.662 381.306C157.933 360.61 134.681 357.762 106.301 391.282" stroke="#84EBFE" stroke-width="0.3" stroke-miterlimit="10"/>
<path d="M718.021 323.453C684.212 397.075 585.954 303.699 529.69 315.014C476.055 325.802 465.776 396.153 427.695 425.797C408.725 440.57 383.286 432.08 362.243 426.725C350.721 423.797 339.108 420.289 327.338 418.442C311.771 416.006 300.152 420.116 285.273 420.548C251.209 421.539 220.975 393.985 193.105 378.063C160.073 359.19 136.63 354.412 109.099 383.74" stroke="#84EBFE" stroke-width="0.3" stroke-miterlimit="10"/>
<path d="M714.926 326.334C677.574 390.602 580.832 304.566 524.54 323.109C477.08 338.751 462.046 393.445 426.609 422.631C409.118 437.038 386.479 430.197 366.304 425.27C340.251 418.911 318.097 413.631 291.541 416.085C256.1 419.361 230.177 398.107 200.625 380.4C168.901 361.392 142.193 348.249 111.912 376.747" stroke="#84EBFE" stroke-width="0.3" stroke-miterlimit="10"/>
<path d="M711.642 328.685C672.13 381.716 584.584 311.758 530.934 324.746C505.61 330.876 484.275 352.399 467.052 370.795C452.956 385.85 441.341 407.142 425.352 419.818C407.536 433.951 386.699 428.066 366.049 422.916C340.166 416.463 317.144 410.428 290.382 413.671C228.135 421.202 172.746 322.882 114.733 370.316" stroke="#84EBFE" stroke-width="0.3" stroke-miterlimit="10"/>
<path d="M708.186 330.491C662.499 376.845 579.3 305.709 523.556 326.048C501.835 333.967 483.343 351.721 467.409 367.874C452.862 382.633 440.461 404.533 424.45 417.267C406.185 431.796 384.959 425.28 363.612 419.919C338.871 413.706 317.093 408.075 291.597 410.494C261.107 413.392 239.91 400.544 213.762 384.512C183.305 365.834 151.642 340.877 117.562 364.396" stroke="#84EBFE" stroke-width="0.3" stroke-miterlimit="10"/>
<path d="M704.529 331.749C653.309 369.914 580.702 304.316 523.668 324.777C478.505 340.984 460.023 388.477 424.138 415.529C391.128 440.418 333.12 404.207 295.44 407.077C283.099 408.019 274.339 411.529 261.889 407.771C246.607 403.166 232.713 394.173 219.161 385.956C189.065 367.7 155.67 338.986 120.405 359.009" stroke="#84EBFE" stroke-width="0.3" stroke-miterlimit="10"/>
<path d="M700.677 332.469C645.229 361.358 581.489 304.02 524.093 323.938C479.486 339.42 460.806 389.707 423.581 414.461C387.986 438.129 333.761 400.044 294.121 405.115C262.309 409.18 244.545 399.248 216.774 382.608C188.528 365.678 157.213 339.114 123.309 354.145" stroke="#84EBFE" stroke-width="0.3" stroke-miterlimit="10"/>
<path d="M696.614 332.647C638.987 353.305 576.024 301.133 519.819 325.725C478.572 343.772 461.6 392.383 423.509 413.701C386.565 434.37 332.697 399.714 292.51 402.716C279.627 403.678 271.838 407.005 258.145 402.449C245.285 398.172 233.553 390.762 221.962 383.96C193.201 367.083 161.384 338.971 126.221 349.776" stroke="#84EBFE" stroke-width="0.3" stroke-miterlimit="10"/>
<path d="M692.363 332.309C636.031 346.138 571.41 300.836 518.141 326.63C478.772 345.694 462.269 394.33 423.22 412.869C384.849 431.078 338.936 396.851 299.217 399.619C286.634 400.494 278.026 405.162 265.163 402.533C249.933 399.423 234.47 389.752 221.407 381.965C192.852 364.953 164.078 340.16 129.162 345.89" stroke="#84EBFE" stroke-width="0.3" stroke-miterlimit="10"/>
<path d="M687.922 331.508C633.82 340.775 569.904 301.632 518.727 325.392C478.894 343.885 463.62 395.179 422.707 411.548C382.337 427.692 338.826 393.974 297.574 397.763C288.052 398.64 279.184 402.289 269.453 401.318C254.7 399.843 238.836 390.422 226.435 383.267C196.575 366.049 168.173 341.261 132.136 342.492" stroke="#84EBFE" stroke-width="0.3" stroke-miterlimit="10"/>
<path d="M683.363 330.421C631.319 336.198 565.384 300.146 516.651 324.83C478.257 344.267 463.947 395.506 422.168 409.867C381.371 423.888 339.726 392.135 298.537 395.453C289.365 396.188 280.4 400.023 271.081 399.488C256.713 398.674 241.334 390.039 229.248 383.247C198.776 366.132 171.205 342.292 135.205 339.714" stroke="#84EBFE" stroke-width="0.3" stroke-miterlimit="10"/>
<path d="M678.742 329.136C627.697 332.22 558.852 297.149 512.097 325.11C476.877 346.171 461.741 394.093 421.554 408.094C380.726 422.316 337.9 389.81 296.551 392.684C286.902 393.348 278.363 396.914 268.581 396.309C256.221 395.54 244.63 389.513 233.836 383.822C202.053 367.062 174.623 343.505 138.353 337.538" stroke="#84EBFE" stroke-width="0.3" stroke-miterlimit="10"/>
<path d="M674.074 327.686C623.036 328.644 553.743 294.865 507.661 325.693C475.074 347.487 459.578 392.784 420.798 405.932C380.673 419.53 340.173 388.124 299.922 389.014C275.512 389.554 262.021 394.927 238.028 383.378C205.17 367.563 177.644 344.177 141.527 335.737" stroke="#84EBFE" stroke-width="0.3" stroke-miterlimit="10"/>
<path d="M669.383 326.104C619.244 325.36 550.732 293.275 505.688 324.778C474.174 346.812 458.32 391.278 420.147 404.04C380.202 417.401 340.084 385.394 300.248 385.14C277.074 384.99 262.853 391.469 239.829 381.249C207.051 366.689 179.64 344.137 144.698 334.224" stroke="#84EBFE" stroke-width="0.3" stroke-miterlimit="10"/>
<path d="M664.691 324.401C616.917 322.277 549.101 292.416 506.078 322.416C474.497 344.45 457.718 389.605 419.592 402.426C381.537 415.218 340.922 384.459 303.512 381.473C277.57 379.404 261.803 387.662 235.987 376.181C205.753 362.725 179.565 343.217 147.822 332.911" stroke="#84EBFE" stroke-width="0.3" stroke-miterlimit="10"/>
<path d="M660.001 322.614C612.881 319.389 546.413 290.924 504.173 321.57C473.624 343.74 456.491 388.223 418.973 400.644C381.259 413.126 340.548 382.022 303.798 377.876C279.162 375.101 262.278 383.943 237.653 373.9C207.715 361.678 181.572 342.692 150.924 331.792" stroke="#84EBFE" stroke-width="0.3" stroke-miterlimit="10"/>
<path d="M655.336 320.754C609.36 316.638 546.127 290.063 504.53 318.923C472.914 340.861 456.644 386.402 418.281 398.649C379.618 410.997 339.147 378.683 301.376 374.501C279.636 372.103 263.062 379.857 241.158 372.448C210.765 362.164 184.022 342.401 153.985 330.897" stroke="#84EBFE" stroke-width="0.3" stroke-miterlimit="10"/>
<path d="M650.706 318.838C605.295 313.99 543.553 288.683 502.705 318.148C472.04 340.273 455.471 384.936 417.696 396.963C379.44 409.139 339.059 376.903 301.94 371.825C281.096 368.977 263.731 376.866 242.802 370.537C212.91 361.488 185.955 341.974 157.062 330.231" stroke="#84EBFE" stroke-width="0.3" stroke-miterlimit="10"/>
<path d="M177.944 337.619C143.679 339.733 128.75 355.093 116.054 386.308C100.679 424.1 92.329 464.361 77.5607 502.421" stroke="#84EBFE" stroke-width="0.3" stroke-miterlimit="10"/>
<path d="M196.329 347.046C169.499 351.063 147.912 347.483 132.049 373.193C112.641 404.641 105.609 444.487 95.598 479.548" stroke="#84EBFE" stroke-width="0.3" stroke-miterlimit="10"/>
<path d="M214.799 356.719C193.843 366.208 170.323 354.259 150.95 368.453C127.12 385.924 119.84 427.625 112.568 453.588" stroke="#84EBFE" stroke-width="0.3" stroke-miterlimit="10"/>
<path d="M232.837 365.156C213.623 379.293 195.539 370.075 173.484 374.18C146.784 379.155 138.724 407.183 130.359 429.972" stroke="#84EBFE" stroke-width="0.3" stroke-miterlimit="10"/>
<path d="M249.946 370.901C237.13 390.451 220.41 388.898 198.531 387.167C190.433 386.523 185.579 382.963 177.148 385.805C165.031 389.887 157.03 404.409 150.829 414.136" stroke="#84EBFE" stroke-width="0.3" stroke-miterlimit="10"/>
<path d="M265.608 372.475C259.097 393.513 248.945 406.933 224.105 401.627C214.909 399.663 209.659 393.914 200.507 394.674C190.919 395.467 181.948 404.65 175.519 410.369" stroke="#84EBFE" stroke-width="0.3" stroke-miterlimit="10"/>
<path d="M279.628 369.307C278.053 380.911 273.808 420.187 250.296 417.87C243.758 408.788 235.215 404.689 224.661 405.551C216.419 406.585 209.354 410.088 203.481 416.048" stroke="#84EBFE" stroke-width="0.3" stroke-miterlimit="10"/>
<path d="M294.507 368.631C292.515 382.755 290.681 418.696 272.468 422.552C265.156 423.694 258.865 420.984 253.598 414.405C244.679 414.288 237.755 418.074 232.833 425.77" stroke="#84EBFE" stroke-width="0.3" stroke-miterlimit="10"/>
<path d="M310.587 371.408C309.085 381.745 306.08 416.464 292.82 421.94C287.794 426.319 282.681 424.962 277.496 417.884C269.173 419.933 263.899 425.325 261.695 434.068" stroke="#84EBFE" stroke-width="0.3" stroke-miterlimit="10"/>
<path d="M327.468 376.52C324.847 396.061 323.053 407.078 314.284 423.986C295.248 406.902 294.321 411.891 288.187 435.541" stroke="#84EBFE" stroke-width="0.3" stroke-miterlimit="10"/>
<path d="M344.774 382.828C344.078 394.581 347.115 417.375 334.938 421.587C317.717 427.541 324.384 405.563 313.078 432.376" stroke="#84EBFE" stroke-width="0.3" stroke-miterlimit="10"/>
<path d="M362.099 389.192C362.571 399.274 368.117 423.538 358.956 429.553C347.138 437.302 349.951 422.72 342.476 442.263" stroke="#84EBFE" stroke-width="0.3" stroke-miterlimit="10"/>
<path d="M379.05 394.479C380.606 409.305 388.74 424.59 382.207 438.251C377.322 448.473 375.268 445.977 374.348 459.253" stroke="#84EBFE" stroke-width="0.3" stroke-miterlimit="10"/>
<path d="M395.231 397.571C397.982 413.806 403.422 425.836 404.531 442.335C405.374 454.83 404.416 464.084 406.007 475.58" stroke="#84EBFE" stroke-width="0.3" stroke-miterlimit="10"/>
<path d="M410.263 397.316C418.45 425.991 426.558 454.703 434.722 483.451" stroke="#84EBFE" stroke-width="0.3" stroke-miterlimit="10"/>
<path d="M423.812 392.809C435.12 420.269 446.596 448.045 458.049 475.826" stroke="#84EBFE" stroke-width="0.3" stroke-miterlimit="10"/>
<path d="M436.181 384.966C445.576 392.225 446.781 396.779 439.783 398.612C455.499 413.629 465.917 436.177 476.653 454.736" stroke="#84EBFE" stroke-width="0.3" stroke-miterlimit="10"/>
<path d="M447.705 374.73C450.372 378.537 453.04 382.343 455.701 386.14C451.488 385.663 452.256 385.654 458.016 386.092C464.857 385.145 468.833 389.006 469.972 397.677C476.693 408.436 484.713 417.054 492.817 426.706" stroke="#84EBFE" stroke-width="0.3" stroke-miterlimit="10"/>
<path d="M458.672 362.91C461.645 365.863 464.626 368.81 467.599 371.763C473.479 353.643 503.289 392.967 508.791 398.123" stroke="#84EBFE" stroke-width="0.3" stroke-miterlimit="10"/>
<path d="M469.363 350.329C485.683 361.755 482.373 357.342 488.206 337.546C501.685 350.075 512.317 364.012 526.807 375.361" stroke="#84EBFE" stroke-width="0.3" stroke-miterlimit="10"/>
<path d="M480.071 337.802C508.149 352.799 484.808 331.557 504.589 324.11C517.52 319.235 538.754 355.846 549.41 364.787" stroke="#84EBFE" stroke-width="0.3" stroke-miterlimit="10"/>
<path d="M491.083 326.109C493.773 328.17 508.119 334.413 513.138 330.937C520.754 325.652 512.587 314.404 521.01 310.726C529.169 307.16 571.962 360.711 580.643 368.236" stroke="#84EBFE" stroke-width="0.3" stroke-miterlimit="10"/>
<path d="M502.688 316.095C509.575 319.232 517.732 324.288 525.271 323.483C537.794 322.153 536.121 318.023 537.89 306.646C551.489 310.378 562.278 324.082 571.642 334.194C587.296 351.095 600.125 364.954 617.653 379.94" stroke="#84EBFE" stroke-width="0.3" stroke-miterlimit="10"/>
<path d="M515.157 308.552C526.094 313.614 536.721 321.83 549.485 321.234C554.869 324.743 558.235 323.891 559.569 318.676C560.753 314.151 563.874 312.541 568.917 313.845C577.88 315.015 595.526 337.603 602.871 344.918C620.18 362.157 636.735 378.047 655.843 393.362" stroke="#84EBFE" stroke-width="0.3" stroke-miterlimit="10"/>
<path d="M529.145 304.256C542.155 310.943 553.773 317.642 567.665 322.122C579.631 325.991 589.368 322.701 599.81 327.257C614.87 333.819 632.048 355.213 644.213 366.32C658.813 379.65 674.288 390.833 690.641 401.906" stroke="#84EBFE" stroke-width="0.3" stroke-miterlimit="10"/>
<path d="M545.83 303.184C561.166 311.609 576.251 319.253 592.041 326.584C605.138 332.658 619.423 334.572 631.488 341.923C661.271 360.059 683.252 387.582 717.461 399.012" stroke="#84EBFE" stroke-width="0.3" stroke-miterlimit="10"/>
<path d="M564.628 304.509C595.874 321.829 631.734 334.591 661.425 353.833C680.245 366.03 708.928 391.208 733.387 379.508" stroke="#84EBFE" stroke-width="0.3" stroke-miterlimit="10"/>
<path d="M584.809 307.379C618.285 325.627 652.101 343.255 686.943 358.739C708.789 368.45 727.322 370.473 742.112 348.603" stroke="#84EBFE" stroke-width="0.3" stroke-miterlimit="10"/>
<path d="M605.612 310.966C627.554 322.382 649.436 333.342 672.186 343.06C681.952 347.225 694.917 353.77 706.053 353.644C728.963 353.392 737.911 330.876 748.633 314.272" stroke="#84EBFE" stroke-width="0.3" stroke-miterlimit="10"/>
<path d="M626.302 314.412C648.349 324.875 692.461 354.052 717.896 337.012C736.776 324.363 739.141 297.613 758.05 284.466" stroke="#84EBFE" stroke-width="0.3" stroke-miterlimit="10"/>
</g>
<defs>
<clipPath id="clip0_395_6726">
<rect width="720" height="408" fill="white" transform="matrix(-0.784594 0.62001 0.62001 0.784594 564.907 0)"/>
</clipPath>
</defs>
</svg>
