<svg width="624" height="680" viewBox="0 0 624 680" fill="none" xmlns="http://www.w3.org/2000/svg">
<path fill-rule="evenodd" clip-rule="evenodd" d="M557.412 190.911L575.645 172.681L550.748 166L557.412 190.911Z" fill="white"/>
<path fill-rule="evenodd" clip-rule="evenodd" d="M546.677 190.911L564.897 172.681L540 166L546.677 190.911Z" stroke="white" stroke-width="2" stroke-miterlimit="10"/>
<path fill-rule="evenodd" clip-rule="evenodd" d="M13.0815 252.832L35.7699 265.075L35.0123 239.303L13.0815 252.832Z" fill="#00499D"/>
<path fill-rule="evenodd" clip-rule="evenodd" d="M9.99951 242.541L32.6878 254.784L31.9303 229L9.99951 242.541Z" stroke="#00499D" stroke-width="2" stroke-miterlimit="10"/>
<path fill-rule="evenodd" clip-rule="evenodd" d="M565.828 575.761L590.301 583.842L585.075 558.597L565.828 575.761Z" fill="#0068B7"/>
<path fill-rule="evenodd" clip-rule="evenodd" d="M561 566.151L585.473 574.245L580.234 549L561 566.151Z" stroke="#0068B7" stroke-width="2" stroke-miterlimit="10"/>
<path fill-rule="evenodd" clip-rule="evenodd" d="M118.828 628.774L143.301 636.854L138.075 611.61L118.828 628.774Z" fill="#00ADEE"/>
<path fill-rule="evenodd" clip-rule="evenodd" d="M114 619.164L138.473 627.258L133.234 602L114 619.164Z" stroke="#00ADEE" stroke-width="2" stroke-miterlimit="10"/>
</svg>
