<svg width="25" height="24" viewBox="0 0 25 24" fill="none" xmlns="http://www.w3.org/2000/svg">
<path d="M6.3128 10.348C6.41436 10.348 6.52764 10.3636 6.65264 10.3948C6.77764 10.4261 6.90264 10.469 7.02764 10.5237C7.15264 10.5784 7.27764 10.6292 7.40264 10.6761C7.52764 10.723 7.64092 10.7698 7.74249 10.8167L7.55499 10.8401C7.49249 10.848 7.42608 10.8519 7.35577 10.8519C7.22296 10.8519 7.10186 10.8323 6.99249 10.7933C6.88311 10.7542 6.78155 10.7034 6.6878 10.6409C6.59405 10.5784 6.5003 10.5315 6.40655 10.5003C6.3128 10.469 6.22686 10.4456 6.14874 10.43C6.07061 10.43 6.0003 10.4456 5.9378 10.4769C5.8753 10.5081 5.8128 10.5433 5.7503 10.5823C5.7503 10.5511 5.72296 10.5355 5.66827 10.5355C5.72296 10.4808 5.82452 10.4378 5.97296 10.4065C6.12139 10.3753 6.23467 10.3558 6.3128 10.348ZM7.89483 10.8753C8.21514 10.8753 8.50811 10.93 8.77374 11.0394C8.66436 11.0784 8.55499 11.1097 8.44561 11.1331C8.33624 11.1565 8.22296 11.1722 8.10577 11.18C7.94952 11.18 7.80889 11.1644 7.68389 11.1331C7.72296 11.0706 7.76202 11.0315 7.80108 11.0159C7.84014 11.0003 7.87139 10.9534 7.89483 10.8753ZM12.5003 0.000300481C13.6019 0.000300481 14.6605 0.144832 15.6761 0.433894C16.6917 0.722957 17.6448 1.1253 18.5355 1.64093C19.4261 2.15655 20.2386 2.78546 20.973 3.52764C21.7073 4.26983 22.3323 5.07842 22.848 5.95342C23.3636 6.82842 23.7698 7.78155 24.0667 8.8128C24.3636 9.84405 24.5081 10.9065 24.5003 12.0003C24.5003 13.1019 24.3558 14.1605 24.0667 15.1761C23.7776 16.1917 23.3753 17.1448 22.8597 18.0355C22.344 18.9261 21.7151 19.7386 20.973 20.473C20.2308 21.2073 19.4222 21.8323 18.5472 22.348C17.6722 22.8636 16.719 23.2698 15.6878 23.5667C14.6565 23.8636 13.594 24.0081 12.5003 24.0003C11.3987 24.0003 10.3401 23.8558 9.32452 23.5667C8.30889 23.2776 7.35577 22.8753 6.46514 22.3597C5.57452 21.844 4.76202 21.2151 4.02764 20.473C3.29327 19.7308 2.66827 18.9222 2.15264 18.0472C1.63702 17.1722 1.23077 16.219 0.933894 15.1878C0.637019 14.1565 0.492488 13.094 0.5003 12.0003C0.5003 10.8987 0.644832 9.84014 0.933894 8.82452C1.22296 7.80889 1.6253 6.85577 2.14093 5.96514C2.65655 5.07452 3.28546 4.26202 4.02764 3.52764C4.76983 2.79327 5.57842 2.16827 6.45342 1.65264C7.32842 1.13702 8.28155 0.730769 9.3128 0.433894C10.344 0.137019 11.4065 -0.00751202 12.5003 0.000300481ZM21.43 6.50421C21.3206 6.33233 21.2112 6.16827 21.1019 6.01202C20.9925 5.85577 20.8792 5.69561 20.762 5.53155C20.7464 5.60186 20.7269 5.65264 20.7034 5.68389C20.68 5.71514 20.6644 5.78546 20.6565 5.89483C20.6565 5.96514 20.6839 6.03155 20.7386 6.09405C20.7933 6.15655 20.8636 6.21905 20.9495 6.28155C21.0355 6.34405 21.1214 6.39092 21.2073 6.42217C21.2933 6.45342 21.3675 6.48077 21.43 6.50421ZM20.6214 5.35577C20.6214 5.41827 20.6097 5.46124 20.5862 5.48467H20.6565C20.6878 5.48467 20.7112 5.48858 20.7269 5.49639L20.6214 5.35577ZM12.5003 22.5003C13.3909 22.5003 14.262 22.387 15.1136 22.1605C15.9651 21.9339 16.7698 21.6136 17.5276 21.1995C18.2855 20.7855 18.9886 20.2776 19.637 19.6761C20.2855 19.0745 20.8519 18.4026 21.3362 17.6605C21.2347 17.4261 21.137 17.1878 21.0433 16.9456C20.9495 16.7034 20.9026 16.4534 20.9026 16.1956C20.9026 15.9144 20.9144 15.6878 20.9378 15.5159C20.9612 15.344 20.9886 15.1917 21.0198 15.0589C21.0511 14.9261 21.0667 14.8128 21.0667 14.719C21.0667 14.6253 21.055 14.5042 21.0315 14.3558C21.0081 14.2073 20.9417 14.0472 20.8323 13.8753C20.723 13.7034 20.5784 13.4612 20.3987 13.1487C20.4065 13.094 20.4183 13.0198 20.4339 12.9261C20.4495 12.8323 20.4651 12.7347 20.4808 12.6331C20.4964 12.5315 20.5003 12.4378 20.4925 12.3519C20.4847 12.2659 20.4651 12.1917 20.4339 12.1292C20.2308 12.1058 20.0198 12.0628 19.8011 12.0003C19.5823 11.9378 19.387 11.844 19.2151 11.719L19.2855 11.6605C19.1839 11.6839 19.0823 11.7151 18.9808 11.7542C18.8792 11.7933 18.7815 11.8362 18.6878 11.8831C18.594 11.93 18.4925 11.9612 18.3831 11.9769C18.2737 11.9925 18.1683 12.0081 18.0667 12.0237L17.8792 12.0003L17.9144 11.9183C17.805 11.9495 17.6878 11.9886 17.5628 12.0355C17.4378 12.0823 17.3167 12.1058 17.1995 12.1058C17.1214 12.1058 17.0081 12.0784 16.8597 12.0237C16.7112 11.969 16.5628 11.9026 16.4144 11.8245C16.2659 11.7464 16.1331 11.6605 16.0159 11.5667C15.8987 11.473 15.8401 11.3831 15.8401 11.2972L15.8636 11.262C15.8245 11.2151 15.7737 11.1722 15.7112 11.1331C15.6487 11.094 15.5901 11.055 15.5355 11.0159C15.4808 10.9769 15.43 10.9339 15.3831 10.887C15.3362 10.8401 15.3167 10.7855 15.3245 10.723L15.4534 10.6175L15.1839 10.5823L15.0901 10.2308C15.1058 10.2698 15.1409 10.2855 15.1956 10.2776C15.2503 10.2698 15.2933 10.2542 15.3245 10.2308L14.9026 10.0081L15.1956 9.25811C15.0862 8.85186 15.0589 8.53936 15.1136 8.32061C15.1683 8.10186 15.2737 7.92217 15.43 7.78155C15.5862 7.64092 15.7581 7.5003 15.9456 7.35967C16.1331 7.21905 16.3245 7.02764 16.5198 6.78546L16.4847 6.64483L17.2581 5.70733L17.4339 5.68389C17.6526 5.68389 17.8987 5.67608 18.1722 5.66046C18.4456 5.64483 18.723 5.61749 19.0042 5.57842C19.2855 5.53936 19.5628 5.5003 19.8362 5.46124C20.1097 5.42217 20.3597 5.37139 20.5862 5.30889C20.3362 5.01202 20.0745 4.73077 19.8011 4.46514C19.5276 4.19952 19.2347 3.94561 18.9222 3.70343C18.8362 3.73468 18.7308 3.77764 18.6058 3.83233C18.4808 3.88702 18.3558 3.95733 18.2308 4.04327C18.1058 4.12921 18.0081 4.22296 17.9378 4.32452C17.8675 4.42608 17.8245 4.53155 17.8089 4.64092L17.8792 4.86358C17.7386 5.09014 17.5823 5.23077 17.4105 5.28546C17.2386 5.34014 17.0628 5.37139 16.8831 5.37921C16.7034 5.38702 16.5159 5.38702 16.3206 5.37921C16.1253 5.37139 15.9378 5.40655 15.7581 5.48467L15.5706 5.08624L15.7464 4.40655L15.5472 4.11358L17.5745 3.48077C17.4886 3.26202 17.348 3.09796 17.1526 2.98858C16.9573 2.87921 16.7425 2.82452 16.5081 2.82452V2.70733L17.1644 2.60186C16.4378 2.24249 15.6839 1.96905 14.9026 1.78155C14.1214 1.59405 13.3206 1.5003 12.5003 1.5003C11.8206 1.5003 11.1487 1.56671 10.4847 1.69952C9.82061 1.83233 9.17999 2.02374 8.5628 2.27374C7.94561 2.52374 7.34796 2.83624 6.76983 3.21124C6.19171 3.58624 5.66436 4.00811 5.1878 4.47686C5.39092 4.47686 5.54717 4.52764 5.65655 4.62921C5.76592 4.73077 5.86749 4.84405 5.96124 4.96905C6.05499 5.09405 6.15264 5.20733 6.25421 5.30889C6.35577 5.41046 6.49249 5.46514 6.66436 5.47296L6.85186 5.33233L6.82842 5.07452L7.21514 4.52374L6.91046 3.65655C6.94952 3.63311 7.00811 3.59405 7.08624 3.53936C7.16436 3.48468 7.23077 3.45733 7.28546 3.45733C7.51983 3.45733 7.69952 3.46905 7.82452 3.49249C7.94952 3.51593 8.05889 3.55889 8.15264 3.62139C8.24639 3.68389 8.32842 3.77374 8.39874 3.89093C8.46905 4.00811 8.57842 4.15655 8.72686 4.33624L9.14874 4.00811C9.22686 4.03936 9.35186 4.09014 9.52374 4.16046C9.69561 4.23077 9.87139 4.31671 10.0511 4.41827C10.2308 4.51983 10.3831 4.6253 10.5081 4.73467C10.6331 4.84405 10.6995 4.94561 10.7073 5.03936C10.7073 5.15655 10.6644 5.2503 10.5784 5.32061C10.4925 5.39092 10.3792 5.44952 10.2386 5.49639C10.098 5.54327 9.95342 5.57842 9.80499 5.60186C9.65655 5.6253 9.50811 5.65655 9.35967 5.69561C9.21124 5.73467 9.09796 5.77374 9.01983 5.8128C8.94171 5.85186 8.89483 5.91827 8.87921 6.01202L9.55889 6.23467C9.40264 6.36749 9.23467 6.48858 9.05499 6.59796C8.8753 6.70733 8.6878 6.80889 8.49249 6.90264L8.53936 7.10186L7.46124 7.52374V7.85186L7.37921 7.88702L7.4378 7.47686L7.39092 7.46514C7.33624 7.46514 7.30499 7.47686 7.29717 7.5003C7.28936 7.52374 7.28546 7.55108 7.28546 7.58233C7.28546 7.61358 7.29327 7.64483 7.30889 7.67608C7.32452 7.70733 7.32842 7.73077 7.32061 7.74639L7.16827 7.66436L7.19171 7.71124C7.19171 7.73467 7.20342 7.76983 7.22686 7.81671C7.2503 7.86358 7.28155 7.90655 7.32061 7.94561C7.35967 7.98467 7.39092 8.02374 7.41436 8.0628C7.4378 8.10186 7.45342 8.12139 7.46124 8.12139C7.46124 8.14483 7.44561 8.16827 7.41436 8.19171C7.38311 8.21514 7.34405 8.23077 7.29717 8.23858C7.2503 8.24639 7.21905 8.25811 7.20342 8.27374C7.1878 8.28936 7.1878 8.29327 7.20342 8.28546C7.3128 8.28546 7.33624 8.29327 7.27374 8.30889C7.21124 8.32452 7.11358 8.36358 6.98077 8.42608C6.84796 8.48858 6.72686 8.57842 6.61749 8.69561C6.50811 8.8128 6.44561 8.98467 6.42999 9.21124C6.42999 9.34405 6.43389 9.47296 6.44171 9.59796C6.44952 9.72296 6.44561 9.85186 6.42999 9.98467C6.32061 9.6878 6.15655 9.46124 5.9378 9.30499C5.71905 9.14874 5.45342 9.07061 5.14092 9.07061L4.63702 9.11749L4.88311 9.28155C4.7503 9.26592 4.61358 9.2503 4.47296 9.23467C4.33233 9.21905 4.1878 9.21514 4.03936 9.22296C3.89093 9.23077 3.75811 9.26202 3.64093 9.31671C3.52374 9.37139 3.40655 9.45342 3.28936 9.5628L3.21905 10.0901C3.21905 10.3401 3.27374 10.5433 3.38311 10.6995C3.49249 10.8558 3.68389 10.9378 3.95733 10.9456C4.19171 10.9456 4.42218 10.9105 4.64874 10.8401C4.8753 10.7698 5.09796 10.6878 5.31671 10.594C5.24639 10.7659 5.16827 10.93 5.08233 11.0862C4.99639 11.2425 4.93389 11.4144 4.89483 11.6019L5.04717 11.6722C5.23467 11.5472 5.40655 11.5276 5.5628 11.6136C5.71905 11.6995 5.87139 11.8245 6.01983 11.9886C6.16827 12.1526 6.32061 12.3206 6.47686 12.4925C6.63311 12.6644 6.80108 12.7894 6.98077 12.8675L6.58233 13.0784L5.64483 12.5511C5.65264 12.5667 5.66046 12.6019 5.66827 12.6565C5.67608 12.7112 5.67217 12.723 5.65655 12.6917L5.23467 11.9769C4.98467 11.969 4.71905 11.93 4.4378 11.8597C4.15655 11.7894 3.87139 11.6956 3.58233 11.5784C3.29327 11.4612 3.02374 11.3323 2.77374 11.1917C2.52374 11.0511 2.29327 10.9026 2.08233 10.7464L2.0003 12.0003C2.0003 12.9534 2.12921 13.8831 2.38702 14.7894C2.64483 15.6956 3.00811 16.5472 3.47686 17.344C3.94561 18.1409 4.51983 18.8675 5.19952 19.5237C5.87921 20.18 6.63311 20.7386 7.46124 21.1995C7.42217 21.0355 7.41827 20.8714 7.44952 20.7073C7.48077 20.5433 7.51983 20.3792 7.56671 20.2151C7.61358 20.0511 7.66436 19.887 7.71905 19.723C7.77374 19.5589 7.80108 19.3909 7.80108 19.219C7.80108 18.969 7.76202 18.7073 7.68389 18.4339C7.60577 18.1605 7.51202 17.8831 7.40264 17.6019C7.29327 17.3206 7.17217 17.0433 7.03936 16.7698C6.90655 16.4964 6.80108 16.2386 6.72296 15.9964C6.64483 15.7542 6.58233 15.5276 6.53546 15.3167C6.48858 15.1058 6.51202 14.9222 6.60577 14.7659L6.42999 14.6839C6.47686 14.5745 6.53936 14.469 6.61749 14.3675C6.69561 14.2659 6.77764 14.1644 6.86358 14.0628C6.94952 13.9612 7.01592 13.8519 7.0628 13.7347C7.10967 13.6175 7.13702 13.5003 7.14483 13.3831C7.14483 13.305 7.12921 13.223 7.09796 13.137C7.06671 13.0511 7.03936 12.969 7.01592 12.8909L7.26202 12.9495C7.39483 12.6448 7.57452 12.4378 7.80108 12.3284C8.02764 12.219 8.3128 12.1605 8.65655 12.1526C8.69561 12.1526 8.77764 12.1683 8.90264 12.1995C9.02764 12.2308 9.16046 12.2737 9.30108 12.3284C9.44171 12.3831 9.57452 12.4261 9.69952 12.4573C9.82452 12.4886 9.91827 12.5198 9.98077 12.5511C9.98077 12.6058 10.012 12.6409 10.0745 12.6565C10.137 12.6722 10.1722 12.6995 10.18 12.7386L10.1565 12.8323C10.18 12.8401 10.2347 12.8675 10.3206 12.9144C10.4065 12.9612 10.5003 13.0198 10.6019 13.0901C10.7034 13.1605 10.7933 13.223 10.8714 13.2776C10.9495 13.3323 11.0042 13.3753 11.0355 13.4065C11.1761 13.4065 11.3675 13.4534 11.6097 13.5472C11.8519 13.6409 12.1175 13.7581 12.4065 13.8987C12.6956 14.0394 12.9808 14.2073 13.262 14.4026C13.5433 14.598 13.8089 14.7933 14.0589 14.9886C14.3089 15.1839 14.5003 15.3792 14.6331 15.5745C14.7659 15.7698 14.844 15.9417 14.8675 16.0901L14.469 16.512C14.5003 16.9105 14.473 17.2151 14.387 17.4261C14.3011 17.637 14.1683 17.8128 13.9886 17.9534C13.8089 18.094 13.6019 18.2112 13.3675 18.305C13.1331 18.3987 12.8792 18.5315 12.6058 18.7034C12.6058 18.8597 12.5667 19.0276 12.4886 19.2073C12.4105 19.387 12.3128 19.5589 12.1956 19.723C12.0784 19.887 11.9378 20.0237 11.7737 20.1331C11.6097 20.2425 11.4456 20.2972 11.2815 20.2972L10.7894 19.9222C10.805 19.9378 10.805 19.9651 10.7894 20.0042C10.7737 20.0433 10.7542 20.0511 10.7308 20.0276C10.8089 20.1761 10.8284 20.348 10.7894 20.5433C10.7503 20.7386 10.6839 20.9378 10.5901 21.1409C10.4964 21.344 10.3909 21.5355 10.2737 21.7151C10.1565 21.8948 10.0511 22.0472 9.95733 22.1722C10.3792 22.2815 10.8011 22.3636 11.223 22.4183C11.6448 22.473 12.0706 22.5003 12.5003 22.5003Z" fill="#EF5423"/>
</svg>
