<svg width="120" height="120" viewBox="0 0 120 120" fill="none" xmlns="http://www.w3.org/2000/svg">
<g filter="url(#filter0_d_98_1558)">
<rect x="9" y="9" width="100" height="100" rx="16" fill="white"/>
</g>
<g clip-path="url(#clip0_98_1558)">
<path d="M68.2378 47.5151L73.3664 42.2219L73.7082 39.9931C64.3625 31.2224 49.5062 32.2169 41.0812 42.0682C38.7413 44.8044 37.0051 48.2156 36.0793 51.7381L37.9162 51.471L48.1732 49.7251L48.9651 48.8895C53.5277 43.7178 61.2422 43.0221 66.5102 47.4223L68.2378 47.5151Z" fill="#EA4335"/>
<path d="M80.6727 51.5824C79.4939 47.102 77.0736 43.0742 73.7086 39.9932L66.5106 47.4221C68.0108 48.6872 69.213 50.2874 70.0266 52.1019C70.8402 53.9164 71.2439 55.8979 71.2074 57.897V59.2157C74.745 59.2157 77.6137 62.1759 77.6137 65.8273C77.6137 69.479 74.7453 72.365 71.2074 72.365H58.3769L57.1172 73.7765V81.7069L58.3769 82.9512H71.2071C80.4097 83.0252 87.9283 75.4599 88 65.962C88.0214 63.1276 87.3636 60.3316 86.0853 57.8229C84.8069 55.3142 82.9476 53.1704 80.6727 51.5824Z" fill="#4285F4"/>
<path d="M45.5642 82.9511H58.3766V72.3647H45.5642C44.6572 72.3646 43.761 72.1619 42.937 71.7705L41.1193 72.3461L35.9548 77.6393L35.5049 79.4409C38.4012 81.698 41.935 82.9672 45.5642 82.9511Z" fill="#34A853"/>
<path d="M45.5639 48.6105C36.3612 48.6673 28.9455 56.4131 29.0003 65.9113C29.0154 68.5286 29.6092 71.1078 30.7364 73.4525C31.8635 75.7971 33.4944 77.8453 35.5046 79.441L42.9367 71.7708C39.7125 70.267 38.2794 66.3508 39.7362 63.0231C41.1928 59.6954 44.9877 58.2164 48.2117 59.7197C49.6325 60.3822 50.7704 61.5567 51.4122 63.0231L58.8444 55.3525C57.2845 53.2477 55.274 51.5439 52.9701 50.3743C50.6662 49.2047 48.1314 48.601 45.5639 48.6105Z" fill="#FBBC05"/>
</g>
<defs>
<filter id="filter0_d_98_1558" x="0" y="0" width="120" height="120" filterUnits="userSpaceOnUse" color-interpolation-filters="sRGB">
<feFlood flood-opacity="0" result="BackgroundImageFix"/>
<feColorMatrix in="SourceAlpha" type="matrix" values="0 0 0 0 0 0 0 0 0 0 0 0 0 0 0 0 0 0 127 0" result="hardAlpha"/>
<feOffset dx="1" dy="1"/>
<feGaussianBlur stdDeviation="5"/>
<feComposite in2="hardAlpha" operator="out"/>
<feColorMatrix type="matrix" values="0 0 0 0 0 0 0 0 0 0.407843 0 0 0 0 0.717647 0 0 0 0.1 0"/>
<feBlend mode="normal" in2="BackgroundImageFix" result="effect1_dropShadow_98_1558"/>
<feBlend mode="normal" in="SourceGraphic" in2="effect1_dropShadow_98_1558" result="shape"/>
</filter>
<clipPath id="clip0_98_1558">
<rect width="59" height="49" fill="white" transform="translate(29 34)"/>
</clipPath>
</defs>
</svg>
