<svg width="50" height="50" viewBox="0 0 50 50" fill="none" xmlns="http://www.w3.org/2000/svg">
<g opacity="0.8">
<circle cx="25" cy="25" r="24" fill="#232C68" stroke="white" stroke-width="2"/>
<path d="M21.15 15.8334H28.85C31.7834 15.8334 34.1667 18.2167 34.1667 21.15V28.85C34.1667 30.2601 33.6066 31.6124 32.6095 32.6095C31.6124 33.6066 30.2601 34.1667 28.85 34.1667H21.15C18.2167 34.1667 15.8334 31.7834 15.8334 28.85V21.15C15.8334 19.74 16.3935 18.3877 17.3906 17.3906C18.3877 16.3935 19.74 15.8334 21.15 15.8334ZM20.9667 17.6667C20.0915 17.6667 19.2521 18.0144 18.6333 18.6333C18.0144 19.2521 17.6667 20.0915 17.6667 20.9667V29.0334C17.6667 30.8575 19.1425 32.3334 20.9667 32.3334H29.0334C29.9086 32.3334 30.748 31.9857 31.3668 31.3668C31.9857 30.748 32.3334 29.9086 32.3334 29.0334V20.9667C32.3334 19.1425 30.8575 17.6667 29.0334 17.6667H20.9667ZM29.8125 19.0417C30.1164 19.0417 30.4079 19.1624 30.6228 19.3773C30.8377 19.5922 30.9584 19.8836 30.9584 20.1875C30.9584 20.4914 30.8377 20.7829 30.6228 20.9978C30.4079 21.2127 30.1164 21.3334 29.8125 21.3334C29.5086 21.3334 29.2172 21.2127 29.0023 20.9978C28.7874 20.7829 28.6667 20.4914 28.6667 20.1875C28.6667 19.8836 28.7874 19.5922 29.0023 19.3773C29.2172 19.1624 29.5086 19.0417 29.8125 19.0417ZM25 20.4167C26.2156 20.4167 27.3814 20.8996 28.2409 21.7591C29.1005 22.6187 29.5834 23.7845 29.5834 25C29.5834 26.2156 29.1005 27.3814 28.2409 28.2409C27.3814 29.1005 26.2156 29.5834 25 29.5834C23.7845 29.5834 22.6187 29.1005 21.7591 28.2409C20.8996 27.3814 20.4167 26.2156 20.4167 25C20.4167 23.7845 20.8996 22.6187 21.7591 21.7591C22.6187 20.8996 23.7845 20.4167 25 20.4167ZM25 22.25C24.2707 22.25 23.5712 22.5398 23.0555 23.0555C22.5398 23.5712 22.25 24.2707 22.25 25C22.25 25.7294 22.5398 26.4289 23.0555 26.9446C23.5712 27.4603 24.2707 27.75 25 27.75C25.7294 27.75 26.4289 27.4603 26.9446 26.9446C27.4603 26.4289 27.75 25.7294 27.75 25C27.75 24.2707 27.4603 23.5712 26.9446 23.0555C26.4289 22.5398 25.7294 22.25 25 22.25Z" fill="white"/>
</g>
</svg>
