<svg width="40" height="40" viewBox="0 0 40 40" fill="none" xmlns="http://www.w3.org/2000/svg">
<g clip-path="url(#clip0_395_7076)">
<path d="M34.2889 23.2667C35.02 23.3566 35.724 23.5989 36.3556 23.9778H36.4111C37.0673 20.8759 36.8323 17.6517 35.7334 14.6778C35.6309 14.4029 35.4238 14.1797 35.1574 14.0569C34.8909 13.9341 34.5867 13.9216 34.3111 14.0222C34.0362 14.1247 33.813 14.3318 33.6902 14.5982C33.5674 14.8647 33.555 15.1689 33.6556 15.4445C34.5739 17.9458 34.7928 20.6502 34.2889 23.2667ZM29.2556 31.7556C27.3195 33.3708 24.9942 34.451 22.5111 34.8889C22.3652 34.9013 22.2232 34.9423 22.0931 35.0096C21.9631 35.0769 21.8475 35.1692 21.7531 35.2811C21.6587 35.3931 21.5873 35.5225 21.5429 35.6621C21.4985 35.8016 21.4821 35.9486 21.4945 36.0945C21.5069 36.2404 21.5479 36.3824 21.6152 36.5125C21.6825 36.6425 21.7748 36.7581 21.8867 36.8525C21.9986 36.9469 22.1281 37.0183 22.2676 37.0627C22.4072 37.1071 22.5541 37.1235 22.7 37.1111H22.9C25.8596 36.5891 28.6256 35.2847 30.9111 33.3334V33.2556C30.2569 32.8817 29.692 32.3699 29.2556 31.7556ZM17.3556 34.8222C15.6745 34.5086 14.0613 33.9032 12.5889 33.0334C11.9596 32.6613 11.3546 32.2493 10.7778 31.8C10.3542 32.4223 9.80074 32.9454 9.15559 33.3334C9.87709 33.9421 10.6462 34.492 11.4556 34.9778C13.1526 35.9775 15.0095 36.6766 16.9445 37.0445H17.1556C17.4503 37.071 17.7434 36.9794 17.9706 36.7897C18.1977 36.6001 18.3402 36.328 18.3667 36.0334C18.3932 35.7387 18.3016 35.4455 18.112 35.2184C17.9224 34.9913 17.6503 34.8488 17.3556 34.8222ZM5.0667 23.5C5.29107 23.483 5.51389 23.4496 5.73337 23.4C5.2037 20.7801 5.41141 18.0645 6.33337 15.5556C6.43503 15.2786 6.4225 14.9725 6.29852 14.7048C6.17453 14.437 5.94926 14.2295 5.67226 14.1278C5.39525 14.0261 5.08921 14.0387 4.82145 14.1626C4.55369 14.2866 4.34615 14.5119 4.24448 14.7889C3.14392 17.787 2.92794 21.0382 3.62226 24.1556C4.06813 23.8658 4.55506 23.6448 5.0667 23.5Z" fill="#0068B7"/>
<path d="M35.4445 25.5555C35.0476 25.303 34.6047 25.1318 34.1412 25.0517C33.6778 24.9716 33.203 24.9842 32.7445 25.0889C32.1632 25.241 31.6287 25.535 31.1889 25.9444L26.8889 23.4555C27.5661 21.7824 27.6286 19.9234 27.0651 18.2086C26.5016 16.4939 25.3488 15.0342 23.8111 14.0889L23.6889 14.0111C22.8597 13.539 21.9463 13.2333 21 13.1111V8.88886C21.8854 8.62396 22.634 8.0267 23.0889 7.2222C23.5798 6.39126 23.7232 5.40032 23.4882 4.4643C23.2531 3.52828 22.6585 2.72267 21.8334 2.2222C21.4314 1.98701 20.9865 1.83442 20.5247 1.77337C20.063 1.71231 19.5938 1.74403 19.1445 1.86664C18.6812 1.98474 18.2461 2.19392 17.8646 2.48199C17.483 2.77005 17.1627 3.13122 16.9222 3.54442C16.4452 4.37134 16.3095 5.35169 16.544 6.27708C16.7785 7.20248 17.3646 7.99995 18.1778 8.49998C18.4318 8.66836 18.7087 8.79933 19 8.88886V13.1111C17.881 13.2647 16.8122 13.6731 15.876 14.305C14.9397 14.9368 14.1611 15.7752 13.6 16.7555C13.0202 17.758 12.6767 18.8796 12.5958 20.0349C12.515 21.1902 12.6988 22.3487 13.1334 23.4222L8.68891 25.9666C8.53186 25.8285 8.36473 25.7022 8.18891 25.5889C7.78403 25.356 7.33724 25.2052 6.87407 25.1451C6.41089 25.085 5.94041 25.1167 5.4895 25.2385C5.0386 25.3602 4.61609 25.5696 4.24613 25.8547C3.87618 26.1398 3.56601 26.495 3.33335 26.9C2.85338 27.7229 2.71254 28.7004 2.94067 29.6253C3.1688 30.5503 3.74799 31.3502 4.55558 31.8555C5.10911 32.1888 5.74278 32.3655 6.38891 32.3666C6.68148 32.3687 6.97299 32.3313 7.25558 32.2555C7.72962 32.1346 8.17402 31.9182 8.56166 31.6197C8.9493 31.3213 9.27203 30.9469 9.51016 30.5195C9.74828 30.0922 9.89679 29.6207 9.94663 29.1341C9.99647 28.6474 9.94658 28.1556 9.80002 27.6889L14.1111 25.2C14.6901 25.9555 15.4017 26.5993 16.2111 27.1C17.7645 28.0794 19.633 28.4293 21.4356 28.0783C23.2381 27.7273 24.8388 26.7018 25.9111 25.2111L30.1667 27.6666C29.9661 28.4244 30.0144 29.2266 30.3045 29.9549C30.5946 30.6831 31.1111 31.2988 31.7778 31.7111C32.3267 32.0456 32.9572 32.2224 33.6 32.2222C34.2216 32.2245 34.8327 32.0623 35.3714 31.752C35.91 31.4417 36.3569 30.9944 36.6667 30.4555C37.1297 29.6377 37.2611 28.6734 37.0336 27.7616C36.8062 26.8498 36.2373 26.0601 35.4445 25.5555ZM7.7778 29.5778C7.66681 29.7591 7.51982 29.9157 7.34591 30.0381C7.17201 30.1604 6.97487 30.2457 6.76669 30.2889C6.56434 30.347 6.35209 30.3622 6.14352 30.3335C5.93496 30.3048 5.7347 30.2328 5.55558 30.1222C5.19221 29.8967 4.93097 29.5386 4.82725 29.1237C4.72353 28.7089 4.78551 28.2699 5.00002 27.9C5.10504 27.7181 5.24582 27.5593 5.41387 27.4333C5.58192 27.3072 5.77375 27.2165 5.9778 27.1666C6.10079 27.1319 6.22778 27.1132 6.35558 27.1111C6.65093 27.1118 6.93997 27.1966 7.18891 27.3555C7.55791 27.5756 7.82613 27.9313 7.93619 28.3466C8.04624 28.7619 7.98939 29.2038 7.7778 29.5778ZM18.6445 4.54442C18.7495 4.3625 18.8903 4.20374 19.0583 4.0777C19.2264 3.95167 19.4182 3.86097 19.6222 3.81109C19.7452 3.77631 19.8722 3.75764 20 3.75553C20.2817 3.75685 20.558 3.83358 20.8 3.97775C21.1634 4.20322 21.4246 4.56136 21.5283 4.97623C21.6321 5.39109 21.5701 5.83004 21.3556 6.19998C21.2506 6.3819 21.1098 6.54066 20.9417 6.6667C20.7737 6.79273 20.5818 6.88343 20.3778 6.93331C20.1804 6.98665 19.9743 6.99939 19.7718 6.97074C19.5694 6.94209 19.3748 6.87266 19.2 6.76664C18.8367 6.54118 18.5754 6.18303 18.4717 5.76817C18.368 5.35331 18.4299 4.91436 18.6445 4.54442ZM21.3222 26.0111C20.6351 26.1888 19.9194 26.2272 19.2172 26.1242C18.515 26.0211 17.8405 25.7787 17.2334 25.4111C15.9798 24.6415 15.077 23.4122 14.7178 21.9859C14.3586 20.5595 14.5716 19.0492 15.3111 17.7778C15.7878 16.9566 16.4719 16.2749 17.2947 15.8011C18.1176 15.3273 19.0505 15.0778 20 15.0778C20.9615 15.0755 21.9058 15.3327 22.7334 15.8222C23.9869 16.5917 24.8897 17.8211 25.2489 19.2474C25.6081 20.6738 25.3952 22.1841 24.6556 23.4555C24.2988 24.0826 23.8201 24.6318 23.2476 25.0707C22.675 25.5096 22.0204 25.8294 21.3222 26.0111ZM34.9334 29.4333C34.7186 29.8009 34.3671 30.0685 33.9556 30.1778C33.7575 30.2295 33.5509 30.2404 33.3484 30.2098C33.146 30.1792 32.9518 30.1079 32.7778 30C32.4144 29.7745 32.1532 29.4164 32.0495 29.0015C31.9458 28.5866 32.0077 28.1477 32.2222 27.7778C32.322 27.5806 32.4629 27.4072 32.6354 27.2692C32.8079 27.1312 33.008 27.0318 33.2222 26.9778C33.3479 26.9666 33.4743 26.9666 33.6 26.9778C33.8702 26.9756 34.1357 27.0487 34.3667 27.1889C34.7379 27.4127 35.0057 27.7742 35.1118 28.1945C35.218 28.6148 35.1538 29.06 34.9334 29.4333ZM8.94447 11.1111C10.5363 9.23069 12.5826 7.78869 14.8889 6.9222C14.6656 6.1772 14.6013 5.39364 14.7 4.6222C11.8108 5.58817 9.2379 7.32008 7.25558 9.63331C7.05961 9.85727 6.96064 10.1499 6.98043 10.4468C7.00023 10.7438 7.13717 11.0207 7.36113 11.2166C7.58509 11.4126 7.87773 11.5116 8.17466 11.4918C8.47159 11.472 8.7485 11.335 8.94447 11.1111Z" fill="#0068B7"/>
<path d="M27.4113 8.0333C28.7791 8.85398 30.0028 9.89375 31.0336 11.1111C31.1284 11.222 31.2442 11.3131 31.3742 11.3793C31.5043 11.4454 31.6461 11.4853 31.7916 11.4967C31.937 11.508 32.0833 11.4906 32.2221 11.4454C32.3608 11.4002 32.4893 11.3281 32.6002 11.2333C32.7111 11.1385 32.8022 11.0227 32.8684 10.8926C32.9346 10.7626 32.9744 10.6208 32.9858 10.4753C32.9971 10.3298 32.9797 10.1835 32.9345 10.0448C32.8894 9.90602 32.8173 9.77753 32.7224 9.66663C31.5358 8.25882 30.1241 7.05736 28.5447 6.11108C27.5088 5.50878 26.4143 5.01362 25.278 4.6333C25.3896 5.39931 25.3327 6.18043 25.1113 6.92219C25.907 7.22934 26.6762 7.60094 27.4113 8.0333Z" fill="#0068B7"/>
</g>
<defs>
<clipPath id="clip0_395_7076">
<rect width="40" height="40" fill="white"/>
</clipPath>
</defs>
</svg>
