<svg width="120" height="120" viewBox="0 0 120 120" fill="none" xmlns="http://www.w3.org/2000/svg">
<g filter="url(#filter0_d_98_1539)">
<rect x="9" y="9" width="100" height="100" rx="16" fill="white"/>
</g>
<path d="M34.5937 45.8465C34.5937 45.8465 33.8219 44.5969 32.9156 45.1342C32.4781 45.3966 31.7469 46.1276 30.875 47.1898L31.6781 48.7018C32.1709 47.9868 32.7106 47.3053 33.2937 46.6618C33.0469 46.943 32.525 47.5928 31.7812 48.7299C32.825 48.658 33.8625 48.53 34.8938 48.3456C35.2031 46.6306 34.5937 45.8465 34.5937 45.8465ZM23.8438 65.3088C22.9719 67.7128 22.1653 70.14 21.425 72.5876C21.3943 72.6864 21.3393 72.7759 21.2651 72.8479C21.1908 72.92 21.0997 72.9723 21 73C21.7188 70.6258 22.4312 68.389 23.1469 66.3647C22.7 66.2616 22.0656 66.3866 21.2906 66.7083C21.8219 66.3022 22.35 65.9523 22.8531 65.9211C22.6938 65.8867 22.2812 65.743 21.7281 65.2338C22.2563 65.4306 22.7156 65.5275 23.0469 65.4587C22.9781 64.5778 22.5031 63.6781 21.8781 62.7721C21.875 62.7659 22.7531 63.2751 23.075 63.803L23.0812 63.7312C23.1344 63.0439 23.2313 62.3629 23.3719 61.6881V61.6819C23.4781 61.1383 23.6094 60.5947 23.7688 60.0512L23.975 59.3545C24.0625 59.0827 24.1625 58.8047 24.2656 58.511C24.6094 57.5707 25 56.6492 25.4375 55.7495L25.55 55.5245C25.95 54.7217 26.375 53.9282 26.825 53.1503C27.0625 52.7348 27.3063 52.3318 27.5469 51.932C27.5688 51.9101 27.5813 51.8789 27.6 51.8507L27.5937 51.8445L27.6187 51.8039C28.3562 50.6168 29.1438 49.4609 29.975 48.3425C30.2066 48.029 30.4452 47.7207 30.6906 47.4178L30.8719 47.1929L31.6719 48.6987C31.383 49.1128 31.1038 49.5336 30.8344 49.9607C30.2969 50.823 29.7875 51.707 29.3125 52.6036L28.6344 53.8969L27.9406 52.5255L28.6281 53.9001L28.6062 53.9469C28.4688 54.2281 28.325 54.5092 28.1906 54.7904C28.1083 54.956 28.0281 55.1226 27.95 55.2902L27.3062 56.6773C26.6887 58.0666 26.0948 59.4663 25.525 60.8759L24.9625 62.3035C24.9217 62.4111 24.8801 62.5184 24.8375 62.6253C24.7 63.0033 24.5531 63.3719 24.4188 63.7406V63.7531L24.3156 64.028L23.875 65.2182L23.8438 65.3088ZM33.9531 50.8667C33.6441 51.4741 33.2954 52.0606 32.9094 52.6224C32.5781 53.0878 32.2344 53.4033 31.4812 53.7564L31.55 53.7439C31.5563 53.7376 31.5594 53.7376 31.5687 53.7376C31.9594 53.6658 32.4437 53.5064 32.725 53.3409C32.7653 53.3204 32.8031 53.2952 32.8375 53.2659C32.8217 53.3596 32.8008 53.4524 32.775 53.5439C32.7562 53.622 32.725 53.7126 32.6938 53.8095L32.6562 53.9126L32.5438 54.2C32.4473 54.4396 32.341 54.6752 32.225 54.906C32.2 54.9653 32.1687 55.0247 32.1375 55.084L32.0625 55.2059C31.9854 55.3338 31.8975 55.4551 31.8 55.5683L31.675 55.7057C31.5641 55.8182 31.4461 55.9236 31.3219 56.0212C31.0616 56.2133 30.7781 56.3718 30.4781 56.493L30.5312 56.4867L30.7313 56.4523C31.1344 56.3555 31.5156 56.1868 31.8594 55.9525C31.4281 56.8116 30.8406 57.5051 29.8969 57.8644L30.0594 57.8425L30.2156 57.8081C30.4912 57.7537 30.7582 57.6623 31.0094 57.5364C30.8419 58.0558 30.6542 58.5685 30.4469 59.0734C30.225 59.6169 29.9938 60.1043 29.7438 60.5416C29.4396 61.0896 29.0726 61.6001 28.65 62.063C27.7875 62.9939 26.4469 63.7499 25.4406 63.8749L25.4906 63.8843C26.6344 64.1217 27.8188 63.7374 28.6031 62.8721C28.5006 63.0712 28.39 63.2661 28.2719 63.4563C27.8094 64.206 27.2781 64.6621 26.2281 65.1338C26.9469 65.1745 27.3219 65.0058 27.6281 64.6184C27.5781 64.7246 27.5239 64.8289 27.4656 64.9308C26.7937 66.0429 25.4844 66.424 23.975 66.3553C24.3008 66.6545 24.4961 67.0695 24.5188 67.5112C24.2875 67.0926 24.0437 66.7271 23.7344 66.5834L24.0969 65.54C24.1146 65.4826 24.1355 65.4263 24.1594 65.3713V65.3525L24.5719 64.1967C24.6022 64.125 24.6293 64.052 24.6531 63.978L24.6625 63.9467L25.1937 62.5285L25.2156 62.4597L25.7406 61.1008C25.9313 60.6041 26.1281 60.1261 26.3156 59.6638C26.7 58.7235 27.0969 57.7894 27.5094 56.8616C27.6719 56.4992 27.825 56.1493 27.9844 55.8119L28.1406 55.4745L28.4437 54.8341C28.5312 54.6373 28.6281 54.453 28.7188 54.2624L28.8031 54.0813C28.8094 54.075 28.8125 54.0625 28.8094 54.0469L28.8281 54.0438C29.0594 53.5752 29.275 53.1347 29.4937 52.7223C29.9625 51.8164 30.4594 50.9229 30.975 50.0451L31.0156 49.9732C31.2906 49.5109 31.55 49.0985 31.7844 48.7361C32.825 48.6643 33.8625 48.5362 34.8938 48.3613C34.8594 48.5237 34.825 48.6955 34.775 48.8767C34.7063 49.1141 34.6281 49.3485 34.5406 49.5796C34.3695 50.02 34.1745 50.4507 33.9563 50.8698H33.9531V50.8667ZM41.3 52.9722V67.33C41.3 68.2047 41.1719 68.9763 40.9094 69.6167C40.6752 70.2282 40.3006 70.7761 39.8156 71.2162C39.34 71.6493 38.7728 71.9696 38.1562 72.1534C37.5219 72.3502 36.8125 72.4502 36.05 72.4502C35.3567 72.4571 34.6651 72.3795 33.9906 72.219C33.9496 72.2075 33.9134 72.183 33.8875 72.1492C33.8616 72.1154 33.8473 72.0742 33.8469 72.0316V69.4012C33.8467 69.3718 33.8531 69.3428 33.8657 69.3162C33.8782 69.2896 33.8965 69.2662 33.9193 69.2476C33.9421 69.229 33.9687 69.2158 33.9973 69.2088C34.0259 69.2019 34.0556 69.2014 34.0844 69.2075C34.325 69.2637 34.5906 69.3106 34.8656 69.3481C35.3719 69.4231 36.0406 69.4418 36.5531 69.3168C36.7859 69.2597 37.0016 69.1476 37.1821 68.99C37.3626 68.8323 37.5027 68.6338 37.5906 68.4109C37.7075 68.0985 37.7627 67.7665 37.7531 67.4331V52.9691C37.7531 52.8598 37.8375 52.7723 37.9469 52.7723H41.1031C41.2156 52.7723 41.3 52.8598 41.3 52.9691V52.9722ZM68.1375 57.4708C67.6855 57.003 67.1315 56.6459 66.5188 56.4274C65.8432 56.1811 65.1283 56.0604 64.4094 56.0712C63.6156 56.0712 62.8781 56.1993 62.2156 56.4617C61.5656 56.7179 60.9813 57.1177 60.5125 57.6395C60.0194 58.2024 59.6471 58.8606 59.4187 59.5732C59.1469 60.4412 59.0172 61.3473 59.0344 62.2567C59.0344 63.2563 59.1719 64.1498 59.4562 64.9058C59.7438 65.6556 60.15 66.2897 60.6625 66.7896C61.175 67.28 61.8 67.6518 62.5062 67.8986C63.2537 68.1477 64.0371 68.2722 64.825 68.2672C65.2719 68.2672 65.6594 68.2516 66.0031 68.2203C66.6539 68.171 67.295 68.0344 67.9094 67.8142C68.2062 67.7111 68.4938 67.583 68.7625 67.4393C68.7942 67.4234 68.8207 67.3988 68.839 67.3684C68.8572 67.3379 68.8665 67.303 68.8656 67.2675V64.8621C68.8646 64.8294 68.8555 64.7974 68.8391 64.7692C68.8226 64.7409 68.7994 64.7171 68.7715 64.7001C68.7436 64.683 68.7119 64.6732 68.6792 64.6715C68.6465 64.6698 68.6139 64.6762 68.5844 64.6902C67.7777 65.1145 66.9031 65.3947 66 65.5181C65.6812 65.5493 65.3625 65.565 65.0406 65.5618C64.6871 65.5698 64.3352 65.5115 64.0031 65.39C63.7174 65.2763 63.4586 65.1039 63.2437 64.8839C63.0308 64.6438 62.8664 64.3648 62.7594 64.0623C62.6595 63.7642 62.5986 63.4545 62.5781 63.1408H69.3187C69.3704 63.1408 69.42 63.1205 69.4569 63.0842C69.4937 63.048 69.5148 62.9987 69.5156 62.9471V61.4382C69.5291 60.6683 69.4086 59.9019 69.1594 59.1733C68.9474 58.5389 68.5985 57.9587 68.1375 57.4739V57.4708ZM62.6437 60.6853C62.7125 60.0105 62.8969 59.5076 63.1938 59.1921C63.3503 59.022 63.5415 58.8875 63.7544 58.7975C63.9673 58.7075 64.197 58.6642 64.4281 58.6704C64.6935 58.6644 64.9566 58.72 65.1969 58.8328C65.4156 58.9359 65.6031 59.0921 65.7469 59.2827C65.8988 59.4889 66.0102 59.7221 66.075 59.9699C66.1375 60.1917 66.1781 60.4323 66.1937 60.6853H62.6437ZM95.9969 56.3524V59.2702C95.9968 59.2995 95.99 59.3285 95.9771 59.3549C95.9642 59.3813 95.9454 59.4044 95.9222 59.4224C95.899 59.4405 95.872 59.4531 95.8433 59.4591C95.8145 59.4652 95.7848 59.4647 95.7563 59.4576C95.4987 59.3829 95.23 59.3543 94.9625 59.3733L94.7125 59.3608C94.3344 59.3608 93.9844 59.4107 93.6594 59.5076C93.3643 59.5953 93.0936 59.7504 92.8688 59.9606C92.6369 60.192 92.4625 60.4744 92.3594 60.7853C92.2375 61.1289 92.175 61.56 92.175 62.0692V67.8673C92.175 67.9195 92.1543 67.9696 92.1173 68.0065C92.0804 68.0434 92.0303 68.0641 91.9781 68.0641H88.8719C88.8197 68.0641 88.7696 68.0434 88.7327 68.0065C88.6957 67.9696 88.675 67.9195 88.675 67.8673V56.4805C88.675 56.3711 88.7625 56.2836 88.8719 56.2836H91.225C91.3125 56.2836 91.3906 56.3461 91.4125 56.4274L91.8 57.8706C91.925 57.6613 92.0656 57.4645 92.2156 57.2739C92.5944 56.7658 93.1288 56.3951 93.7375 56.218C94.1765 56.0854 94.637 56.0387 95.0937 56.0806C95.1969 56.0806 95.2969 56.0806 95.3938 56.0993C95.4818 56.1059 95.5695 56.1174 95.6562 56.1337C95.7261 56.1368 95.7954 56.1484 95.8625 56.1681C95.9024 56.1796 95.9374 56.2039 95.9622 56.2372C95.987 56.2704 96.0003 56.3109 96 56.3524H95.9969ZM77.3844 65.0807C77.4103 65.0978 77.4315 65.121 77.4462 65.1482C77.461 65.1755 77.4687 65.206 77.4688 65.2369V67.5518C77.4696 67.5873 77.4603 67.6222 77.4421 67.6526C77.4238 67.6831 77.3973 67.7077 77.3656 67.7236C77.0045 67.9013 76.6223 68.0325 76.2281 68.1141C75.2781 68.3265 74.2906 68.3203 73.3406 68.0891C72.8974 67.9726 72.489 67.7508 72.15 67.4425C71.7914 67.0962 71.5176 66.6717 71.35 66.2022C71.1513 65.5893 71.0583 64.947 71.075 64.3029V58.9984H69.7812C69.7301 58.9976 69.6813 58.9769 69.6451 58.9408C69.609 58.9046 69.5883 58.8558 69.5875 58.8047V57.4926C69.5869 57.4592 69.5953 57.4262 69.6118 57.3971C69.6283 57.368 69.6523 57.3438 69.6813 57.3271L71.3344 56.318L72.2094 53.975C72.2233 53.9383 72.2481 53.9066 72.2805 53.8843C72.3129 53.862 72.3513 53.8501 72.3906 53.8501H74.3781C74.4875 53.8501 74.5719 53.9375 74.5719 54.0469V56.2774H77.15C77.2563 56.2774 77.3469 56.3649 77.3469 56.4711V58.8047C77.3469 58.8569 77.3261 58.9069 77.2892 58.9439C77.2523 58.9808 77.2022 59.0015 77.15 59.0015H74.5719V64.2966C74.5719 64.684 74.6625 64.9652 74.8375 65.1338C74.9341 65.2237 75.0478 65.2933 75.1718 65.3383C75.2958 65.3834 75.4276 65.4031 75.5594 65.3963C75.8531 65.3963 76.125 65.3619 76.3813 65.3025C76.6594 65.2338 76.9344 65.1463 77.2062 65.0526C77.2355 65.0416 77.267 65.0379 77.298 65.0417C77.329 65.0455 77.3586 65.0568 77.3844 65.0745V65.0776V65.0807ZM58.3063 52.9722V67.8736C58.3046 67.9241 58.2836 67.9722 58.2475 68.0076C58.2115 68.0431 58.1631 68.0634 58.1125 68.0641H55.1656C55.1134 68.0641 55.0633 68.0434 55.0264 68.0065C54.9895 67.9696 54.9688 67.9195 54.9688 67.8673V60.2136L55.0125 58.736L55.0438 57.98L55.0688 57.3958L51.8875 67.9236C51.8753 67.9637 51.8505 67.9987 51.8167 68.0235C51.7829 68.0483 51.7419 68.0615 51.7 68.061H48.7937C48.7519 68.061 48.7112 68.0476 48.6775 68.0229C48.6438 67.9982 48.6189 67.9634 48.6062 67.9236L45.7031 57.552C45.7537 58.4677 45.7881 59.3842 45.8063 60.3011C45.8156 60.5322 45.8219 60.7447 45.8219 60.9384V67.8673C45.8219 67.9195 45.8011 67.9696 45.7642 68.0065C45.7273 68.0434 45.6772 68.0641 45.625 68.0641H42.8031C42.7509 68.0641 42.7008 68.0434 42.6639 68.0065C42.627 67.9696 42.6062 67.9195 42.6062 67.8673V52.9691C42.6062 52.8629 42.6906 52.7723 42.8 52.7723H47.1C47.1938 52.7723 47.2656 52.8348 47.2906 52.9191L50.3563 63.7687L53.625 52.916C53.6376 52.8762 53.6626 52.8414 53.6963 52.8167C53.73 52.7919 53.7707 52.7786 53.8125 52.7786H58.1125C58.2188 52.7786 58.3063 52.8629 58.3063 52.9691V52.9722ZM86.8531 57.4708C86.4021 57.0033 85.8492 56.6463 85.2375 56.4274C84.561 56.1806 83.845 56.0599 83.125 56.0712C82.3344 56.0712 81.5938 56.1993 80.9344 56.4617C80.2844 56.7179 79.7 57.1177 79.2313 57.6395C78.7381 58.2024 78.3659 58.8606 78.1375 59.5732C77.8656 60.4417 77.7313 61.3476 77.75 62.2567C77.75 63.2563 77.8937 64.1498 78.1719 64.9058C78.4625 65.6556 78.8687 66.2897 79.3812 66.7896C79.8937 67.28 80.5187 67.6518 81.225 67.8986C81.9725 68.1477 82.7558 68.2722 83.5438 68.2672C83.9906 68.2672 84.375 68.2516 84.7188 68.2203C85.6827 68.1479 86.6221 67.8822 87.4812 67.4393C87.5129 67.4234 87.5395 67.3988 87.5577 67.3684C87.576 67.3379 87.5852 67.303 87.5844 67.2675V64.8621C87.5834 64.8294 87.5743 64.7974 87.5578 64.7692C87.5414 64.7409 87.5182 64.7171 87.4902 64.7001C87.4623 64.683 87.4306 64.6732 87.3979 64.6715C87.3653 64.6698 87.3327 64.6762 87.3031 64.6902C86.4956 65.1151 85.6199 65.3953 84.7156 65.5181C84.4 65.5493 84.0781 65.565 83.7594 65.5618C83.4058 65.5699 83.0539 65.5116 82.7219 65.39C82.4371 65.2762 82.1794 65.1038 81.9656 64.8839C81.7506 64.6443 81.584 64.3653 81.475 64.0623C81.3761 63.7641 81.3162 63.4543 81.2969 63.1408H88.0375C88.0892 63.1408 88.1388 63.1205 88.1756 63.0842C88.2125 63.048 88.2336 62.9987 88.2344 62.9471V61.4382C88.2479 60.6683 88.1273 59.9019 87.8781 59.1733C87.665 58.5387 87.3151 57.9585 86.8531 57.4739V57.4708ZM84.4625 59.2827C84.6154 59.4888 84.7278 59.722 84.7937 59.9699C84.8562 60.1917 84.8969 60.4323 84.9125 60.6853H81.3594C81.4281 60.0105 81.6156 59.5076 81.9125 59.1921C82.0691 59.022 82.2602 58.8875 82.4731 58.7975C82.6861 58.7075 82.9158 58.6642 83.1469 58.6704C83.4122 58.6644 83.6754 58.72 83.9156 58.8328C84.1312 58.937 84.3187 59.0912 84.4625 59.2827ZM40.5625 45.3466H40.1344L37.9062 50.6761H38.4656L39.1469 49.0079H41.55L42.2375 50.6761H42.8L40.5688 45.3404H40.5625V45.3466ZM39.2531 48.5956L40.3531 45.9589L41.4187 48.5956H39.2531ZM43.8875 48.7049H45.6219C46.5344 48.7049 47.15 47.8864 47.15 47.018C47.15 46.1901 46.4906 45.3435 45.5781 45.3435H43.3656V50.6793H43.8844V48.7049H43.8875ZM43.8875 45.8121H45.55C46.1344 45.8121 46.6312 46.3494 46.6312 47.018C46.6312 47.6646 46.225 48.2426 45.5938 48.2426H43.8875V45.8121ZM47.4156 50.6793L48.0969 49.0111H50.4937L51.1813 50.6793H51.7562L49.525 45.3435H49.0937L46.8594 50.6793H47.4125H47.4156ZM49.3094 45.9621L50.3781 48.5956H48.2188L49.3188 45.9589H49.3125L49.3094 45.9621ZM51.7406 47.9708C51.7406 46.6899 52.6688 45.3154 54.2719 45.3154C54.6778 45.2977 55.0801 45.398 55.4301 45.6043C55.7801 45.8105 56.0628 46.1139 56.2437 46.4775L55.8219 46.7306C55.6796 46.437 55.4549 46.1912 55.1752 46.0231C54.8955 45.855 54.573 45.772 54.2469 45.784C52.9719 45.784 52.2719 46.9242 52.2719 47.9989C52.2719 49.1735 53.1344 50.2419 54.2687 50.2419C54.6083 50.2469 54.9425 50.1564 55.2331 49.9808C55.5237 49.8051 55.7591 49.5514 55.9125 49.2485L56.35 49.4765C56.0031 50.2763 55.0563 50.7167 54.2375 50.7167C52.775 50.7167 51.7406 49.3203 51.7406 47.9676V47.9708ZM57.6 50.6793H57.0844V45.3435H57.6V47.7177H60.7594V45.3435H61.2875V50.6793H60.7594V48.1832H57.6031V50.6793H57.6ZM66.0688 50.6793H62.4906V45.3435H66.0031V45.8121H63.0063V47.7365H65.6187V48.1801H63.0031V50.2107H66.0719V50.6793H66.0688Z" fill="black"/>
<defs>
<filter id="filter0_d_98_1539" x="0" y="0" width="120" height="120" filterUnits="userSpaceOnUse" color-interpolation-filters="sRGB">
<feFlood flood-opacity="0" result="BackgroundImageFix"/>
<feColorMatrix in="SourceAlpha" type="matrix" values="0 0 0 0 0 0 0 0 0 0 0 0 0 0 0 0 0 0 127 0" result="hardAlpha"/>
<feOffset dx="1" dy="1"/>
<feGaussianBlur stdDeviation="5"/>
<feComposite in2="hardAlpha" operator="out"/>
<feColorMatrix type="matrix" values="0 0 0 0 0 0 0 0 0 0.407843 0 0 0 0 0.717647 0 0 0 0.1 0"/>
<feBlend mode="normal" in2="BackgroundImageFix" result="effect1_dropShadow_98_1539"/>
<feBlend mode="normal" in="SourceGraphic" in2="effect1_dropShadow_98_1539" result="shape"/>
</filter>
</defs>
</svg>
