<svg width="120" height="120" viewBox="0 0 120 120" fill="none" xmlns="http://www.w3.org/2000/svg">
<g filter="url(#filter0_d_92_2477)">
<rect x="9" y="9" width="100" height="100" rx="16" fill="white"/>
</g>
<g clip-path="url(#clip0_92_2477)">
<path fill-rule="evenodd" clip-rule="evenodd" d="M92.7794 51.2674L95.8752 51.2847C95.8752 51.2847 90.1194 59.1932 89.6494 59.8377C89.4968 60.0464 89.2649 60.2715 89.1473 60.5506C88.85 61.252 88.5447 62.7906 88.5447 62.7906L85.7121 62.805C85.7121 62.805 86.1529 61.2011 86.1347 60.3469C86.1188 59.6006 85.743 58.8553 85.5323 58.1068C85.3192 57.3491 85.03 55.8666 85.03 55.8666H87.9423L88.344 57.4958L92.7794 51.2674Z" fill="#1A1918"/>
<path fill-rule="evenodd" clip-rule="evenodd" d="M86.9174 52.9353C87.4887 53.2845 87.8394 55.2111 87.8394 55.2111C87.8394 55.2111 84.8499 55.2558 83.223 55.2558H81.8172L80.11 62.7906H77.4992C77.4992 62.7906 79.124 54.6022 79.5076 53.1176C79.6319 52.6369 80.3591 52.7194 81.5872 52.7194H83.5484C84.8148 52.7194 86.2949 52.5554 86.9174 52.9353ZM74.7628 56.605C74.7628 56.605 74.8441 56.1213 74.4867 55.5612C74.1813 55.0838 73.8993 54.9727 73.0959 54.9472C70.8275 54.8749 70.8715 56.5795 70.8715 56.5795L74.7628 56.605ZM77.223 54.6529C77.5554 55.8688 76.9218 58.7259 76.9218 58.7259C76.9218 58.7259 73.6129 58.6699 71.8004 58.7259C71.2369 58.7433 70.5624 58.6637 70.3946 58.9296C70.1586 59.3021 70.4809 59.8756 70.754 60.1178C71.0684 60.3967 71.6808 60.4285 71.9009 60.4568C73.3719 60.6463 76.4507 60.5057 76.4507 60.5057L75.9174 62.9004C75.9174 62.9004 71.5666 63.1217 69.3904 62.595C68.9607 62.4912 68.5579 62.2815 68.2857 61.9841C68.2114 61.9028 68.147 61.7919 68.0767 61.696C68.0207 61.6195 67.8571 61.3682 67.7836 61.1695C67.2866 59.8265 67.8419 57.2536 68.3862 55.8748C68.4493 55.7151 68.5287 55.5124 68.6122 55.3402C68.7166 55.1255 68.8049 54.8831 68.8883 54.7547C68.9444 54.6662 69.0139 54.6092 69.0721 54.5257C69.1393 54.4269 69.2175 54.3312 69.2899 54.2458C69.4908 54.0095 69.7188 53.8425 69.9929 53.6349C70.8996 52.9464 72.5404 52.412 74.5117 52.6166C75.2539 52.6939 76.3747 52.9627 76.9218 53.7366C77.0683 53.9433 77.1407 54.3536 77.223 54.653V54.6529ZM65.2481 52.7101L67.7797 52.695C67.7797 52.695 66.3688 59.4813 65.6498 62.7906H62.7375C60.7022 62.7906 58.8896 63.0462 58.1184 61.5687C57.3703 60.1341 58.0843 57.7749 58.4196 56.172C58.6566 55.0377 59.1558 52.7193 59.1558 52.7193L61.7788 52.695C61.7788 52.695 61.0376 56.3045 60.7292 58.1068C60.6188 58.7524 60.391 59.3603 60.6289 59.8376C60.8548 60.2919 61.1712 60.3244 62.1351 60.3469C62.4405 60.3542 63.4406 60.3469 63.4406 60.3469L65.2481 52.7101ZM53.3987 57.5976C53.6638 56.6426 54.0504 55.6071 54.0013 54.7465C53.9481 53.8262 53.187 52.9882 52.6959 52.8121C51.2167 52.2826 49.832 53.0228 49.2816 53.6266C48.5696 54.4086 48.3286 55.322 48.0765 56.5796C47.8889 57.5131 47.7351 58.4987 48.0765 59.2268C48.6809 60.5139 50.5659 60.2328 52.5954 60.2452C52.8966 59.4265 53.1456 58.5071 53.3987 57.5976ZM56.9134 53.8303C57.2025 55.9623 56.0931 58.3157 55.3288 60.3621C56.1081 60.4335 56.791 60.3511 56.8402 60.41C56.8913 60.4864 56.3178 62.8528 56.1179 62.8589C55.4995 62.8752 53.45 62.8925 52.5954 62.8925C49.8067 62.8925 47.1979 63.0767 45.8675 61.6707C45.3272 61.0994 44.9536 60.1197 44.8631 59.4305C44.7125 58.2799 44.9013 57.0131 45.1645 55.9686C45.4025 55.0256 45.7076 54.1357 46.1687 53.321C47.3406 51.247 49.379 49.7075 52.7962 50.0629C53.459 50.1321 54.4109 50.4263 55.0055 50.7756C55.0465 50.8 55.1903 50.9161 55.2233 50.9365C56.0267 51.4548 56.7588 52.6919 56.9134 53.8303ZM44.5749 52.7224C44.4063 53.5013 44.2376 54.3843 44.0598 55.154H41.2481C41.4659 54.3007 41.6327 53.4525 41.8507 52.7102C42.7504 52.7102 43.5869 52.7224 44.5751 52.7224M41.1477 55.8668H43.8591C43.5045 57.8564 42.8026 61.0657 42.2523 63.2997C41.9079 64.6978 41.678 65.718 40.746 66.4562C40.6626 66.5224 40.6145 66.4909 40.5451 66.558C40.3734 66.7241 39.5791 66.9166 39.1394 66.9653C38.4244 67.0438 37.6161 66.9755 36.7373 66.9572C36.9673 66.105 37.2274 65.0817 37.4324 64.3178C39.5743 64.5807 39.6285 62.5278 40.0432 60.5506C40.2831 59.4081 41.0102 56.3249 41.1477 55.8668Z" fill="#1A1918"/>
<path fill-rule="evenodd" clip-rule="evenodd" d="M34.8209 61.0607L34.7628 61.2133C33.7728 63.1683 32.0183 64.3678 29.5159 64.4207C28.3461 64.445 27.2315 64.1408 26.5033 63.8097C24.932 63.0941 23.6102 61.7664 22.8884 60.3479C21.853 58.3145 21.6663 55.4857 23.8192 53.373C23.8525 53.373 23.558 53.8312 23.5913 53.8312L23.532 54.0267C21.9806 58.9518 26.7604 63.1724 31.4068 62.6896C32.5235 62.5737 33.9474 61.9537 34.8209 61.0607Z" fill="#21609B"/>
<path fill-rule="evenodd" clip-rule="evenodd" d="M32.0096 59.0241C33.1786 59.0323 34.3996 58.4784 35.1227 57.7005C34.49 59.3287 32.6584 60.3753 30.2022 60.0424C28.1456 59.7633 26.1864 57.6649 25.9847 55.5623C25.8371 54.0318 26.363 53.1185 27.2298 52.0107C26.9286 52.5901 26.816 53.037 26.788 53.3221C26.4587 56.6324 29.3959 59.0068 32.0096 59.0241Z" fill="#21609B"/>
<path fill-rule="evenodd" clip-rule="evenodd" d="M35.0048 54.9122C34.8231 55.3348 33.7769 56.1329 33.3148 56.2326C31.4852 56.6279 30.3135 55.7481 29.6996 54.7472C29.6084 54.5975 29.4398 54.1892 29.4096 54.0853C29.1715 53.2646 29.2809 52.0233 29.991 51.3809C29.7771 51.992 29.7459 52.7014 29.8585 53.1628C29.9267 53.4418 30.1345 53.9287 30.3425 54.235C30.7209 54.793 30.9608 54.9286 31.447 55.2248C31.666 55.3581 31.9009 55.4651 32.0023 55.4946C32.4632 55.632 33.4364 55.9946 35.005 54.9122" fill="#21609B"/>
</g>
<defs>
<filter id="filter0_d_92_2477" x="0" y="0" width="120" height="120" filterUnits="userSpaceOnUse" color-interpolation-filters="sRGB">
<feFlood flood-opacity="0" result="BackgroundImageFix"/>
<feColorMatrix in="SourceAlpha" type="matrix" values="0 0 0 0 0 0 0 0 0 0 0 0 0 0 0 0 0 0 127 0" result="hardAlpha"/>
<feOffset dx="1" dy="1"/>
<feGaussianBlur stdDeviation="5"/>
<feComposite in2="hardAlpha" operator="out"/>
<feColorMatrix type="matrix" values="0 0 0 0 0 0 0 0 0 0.407843 0 0 0 0 0.717647 0 0 0 0.1 0"/>
<feBlend mode="normal" in2="BackgroundImageFix" result="effect1_dropShadow_92_2477"/>
<feBlend mode="normal" in="SourceGraphic" in2="effect1_dropShadow_92_2477" result="shape"/>
</filter>
<clipPath id="clip0_92_2477">
<rect width="74" height="17" fill="white" transform="translate(22 50)"/>
</clipPath>
</defs>
</svg>
