<svg width="120" height="120" viewBox="0 0 120 120" fill="none" xmlns="http://www.w3.org/2000/svg">
<g filter="url(#filter0_d_92_2447)">
<rect x="9" y="9" width="100" height="100" rx="16" fill="white"/>
</g>
<path d="M37.0625 37.0625H79.9375V79.9375H37.0625V37.0625Z" fill="#F5DE19"/>
<path d="M65.8635 70.5584C66.2288 71.3005 66.7964 71.9242 67.5008 72.3576C68.2051 72.7911 69.0177 73.0167 69.8447 73.0084C71.5138 73.0084 72.5811 72.1739 72.5811 71.0178C72.5811 69.6397 71.4847 69.1466 69.6472 68.3427L68.6396 67.9109C65.7303 66.6721 63.8009 65.121 63.8009 61.841C63.8009 58.8199 66.0978 56.5184 69.7008 56.5184C70.8672 56.4342 72.0325 56.6952 73.0515 57.269C74.0705 57.8427 74.8979 58.7038 75.4307 59.7447L72.281 61.7583C72.0758 61.2422 71.7186 60.8006 71.2567 60.4921C70.7948 60.1836 70.2501 60.0229 69.6947 60.0311C69.4524 60.0068 69.2077 60.0333 68.9762 60.1089C68.7447 60.1844 68.5314 60.3073 68.3501 60.4698C68.1687 60.6323 68.0232 60.8308 67.9228 61.0527C67.8223 61.2745 67.7692 61.5148 67.7668 61.7583C67.7668 62.9665 68.5156 63.4565 70.2444 64.2083L71.252 64.6401C74.6758 66.1086 76.6113 67.6046 76.6113 70.9688C76.6113 74.5963 73.7617 76.5839 69.9351 76.5839C68.4441 76.6789 66.9575 76.3404 65.6547 75.6092C64.3518 74.878 63.2884 73.7855 62.5927 72.4633L65.8635 70.5584ZM51.6305 70.9076C52.2629 72.03 52.8387 72.9793 54.2229 72.9793C55.5459 72.9793 56.382 72.4618 56.382 70.4482V56.7481H60.4107V70.5018C60.4107 74.6729 57.9607 76.5716 54.3944 76.5716C53.1338 76.6406 51.8819 76.3264 50.8032 75.6705C49.7245 75.0146 48.8695 74.0476 48.3506 72.8966L51.6305 70.9076Z" fill="black"/>
<defs>
<filter id="filter0_d_92_2447" x="0" y="0" width="120" height="120" filterUnits="userSpaceOnUse" color-interpolation-filters="sRGB">
<feFlood flood-opacity="0" result="BackgroundImageFix"/>
<feColorMatrix in="SourceAlpha" type="matrix" values="0 0 0 0 0 0 0 0 0 0 0 0 0 0 0 0 0 0 127 0" result="hardAlpha"/>
<feOffset dx="1" dy="1"/>
<feGaussianBlur stdDeviation="5"/>
<feComposite in2="hardAlpha" operator="out"/>
<feColorMatrix type="matrix" values="0 0 0 0 0 0 0 0 0 0.407843 0 0 0 0 0.717647 0 0 0 0.1 0"/>
<feBlend mode="normal" in2="BackgroundImageFix" result="effect1_dropShadow_92_2447"/>
<feBlend mode="normal" in="SourceGraphic" in2="effect1_dropShadow_92_2447" result="shape"/>
</filter>
</defs>
</svg>
