<svg width="120" height="120" viewBox="0 0 120 120" fill="none" xmlns="http://www.w3.org/2000/svg">
<g filter="url(#filter0_d_98_1528)">
<rect x="9" y="9" width="100" height="100" rx="16" fill="white"/>
</g>
<g clip-path="url(#clip0_98_1528)">
<path d="M82.973 45.0659C82.9908 45.131 83 45.1982 83 45.2657V55.7651C83 56.0394 82.8519 56.2928 82.6113 56.4292L73.7094 61.5031V71.5593C73.7094 71.6938 73.6737 71.826 73.6059 71.9426C73.538 72.0592 73.4404 72.1561 73.3228 72.2235L54.74 82.8129C54.6974 82.8367 54.6511 82.8519 54.6046 82.8684C54.5872 82.874 54.5709 82.8846 54.5525 82.8894C54.4226 82.9233 54.286 82.9233 54.1561 82.8894C54.1348 82.8838 54.1154 82.8721 54.0952 82.8645C54.0526 82.8491 54.0082 82.8358 53.9677 82.8129L35.3887 72.2234C35.2706 72.1563 35.1725 72.0596 35.1043 71.943C35.036 71.8264 35.0001 71.694 35 71.5593V40.0612C35 39.9921 35.0097 39.9251 35.027 39.8602C35.0328 39.8381 35.0463 39.818 35.0542 39.7959C35.0686 39.7558 35.0823 39.7146 35.1035 39.6773C35.1179 39.6525 35.1391 39.6324 35.1566 39.6094C35.1789 39.5788 35.1991 39.5472 35.2252 39.5203C35.2475 39.4984 35.2766 39.4821 35.3017 39.463C35.3298 39.4399 35.3548 39.4151 35.3866 39.3969H35.3876L44.6774 34.1023C44.7951 34.0353 44.9284 34 45.0642 34C45.1999 34 45.3332 34.0353 45.4509 34.1023L54.7407 39.3969H54.7426C54.7736 39.4162 54.7998 39.4399 54.8278 39.462C54.8529 39.4812 54.881 39.4984 54.9031 39.5196C54.9303 39.5472 54.9496 39.579 54.9727 39.6094C54.9892 39.6324 55.0115 39.6525 55.025 39.6773C55.0471 39.7156 55.0597 39.7558 55.0753 39.7961C55.0829 39.818 55.0964 39.8381 55.1022 39.8611C55.1201 39.9262 55.1292 39.9936 55.1294 40.0612V59.7343L62.8706 55.3219V45.2648C62.8706 45.198 62.8803 45.1299 62.8977 45.0659C62.9045 45.0428 62.9171 45.0228 62.9248 45.0009C62.9403 44.9606 62.9538 44.9192 62.975 44.8821C62.9894 44.8572 63.0106 44.8372 63.0273 44.8142C63.0504 44.7835 63.0697 44.752 63.0967 44.7251C63.1192 44.7032 63.1471 44.6868 63.1722 44.6677C63.2013 44.6447 63.2264 44.6198 63.2574 44.6017H63.2583L72.5491 39.3071C72.6667 39.2399 72.8001 39.2046 72.9358 39.2046C73.0716 39.2046 73.205 39.2399 73.3226 39.3071L82.6124 44.6017C82.6452 44.6208 82.6704 44.6447 82.6994 44.6666C82.7234 44.6859 82.7516 44.7032 82.7739 44.7242C82.8009 44.752 82.8202 44.7835 82.8433 44.8142C82.8609 44.8372 82.8821 44.8572 82.8958 44.8821C82.9179 44.9192 82.9304 44.9606 82.9458 45.0009C82.9546 45.0228 82.9672 45.0428 82.973 45.0659ZM81.4514 55.3221V46.5912L78.2004 48.4437L73.7092 51.0036V59.7345L81.4524 55.3221H81.4514ZM72.1616 71.1162V62.3792L67.7437 64.8769L55.1285 72.0042V80.823L72.1616 71.1158V71.1162ZM36.5486 41.3864V71.1162L53.5798 80.8223V72.0051L44.6825 67.0205L44.6797 67.0186L44.6759 67.0167C44.6459 66.9995 44.6206 66.9746 44.5927 66.9536C44.5683 66.9343 44.5404 66.9191 44.5192 66.898L44.5173 66.8952C44.4922 66.8712 44.4747 66.8415 44.4536 66.8148C44.4341 66.7888 44.411 66.7669 44.3954 66.7402L44.3945 66.7372C44.3771 66.7086 44.3664 66.6741 44.3538 66.6416C44.3413 66.6129 44.3249 66.5859 44.3171 66.5555V66.5546C44.3075 66.5182 44.3056 66.4798 44.3017 66.4425C44.2979 66.4139 44.2901 66.3851 44.2901 66.3564V45.799L39.7996 43.238L36.5486 41.3875V41.3864ZM45.0652 35.6506L37.3248 40.0612L45.0633 44.4715L52.8026 40.0601L45.0633 35.6506H45.0652ZM49.0904 63.1756L53.5807 60.6169V41.3864L50.33 43.2391L45.8384 45.7988V65.0291L49.0904 63.1756ZM72.9358 40.8554L65.1965 45.2657L72.9358 49.6763L80.6741 45.2648L72.9359 40.8554H72.9358ZM72.1614 51.0036L67.6702 48.4437L64.4193 46.5912V55.3221L68.9096 57.881L72.1616 59.7345V51.0036H72.1614ZM54.3532 70.6789L65.705 64.2636L71.3795 61.0579L63.6459 56.6503L54.7417 61.7247L46.6263 66.3497L54.3532 70.6789Z" fill="#FF2D20"/>
</g>
<defs>
<filter id="filter0_d_98_1528" x="0" y="0" width="120" height="120" filterUnits="userSpaceOnUse" color-interpolation-filters="sRGB">
<feFlood flood-opacity="0" result="BackgroundImageFix"/>
<feColorMatrix in="SourceAlpha" type="matrix" values="0 0 0 0 0 0 0 0 0 0 0 0 0 0 0 0 0 0 127 0" result="hardAlpha"/>
<feOffset dx="1" dy="1"/>
<feGaussianBlur stdDeviation="5"/>
<feComposite in2="hardAlpha" operator="out"/>
<feColorMatrix type="matrix" values="0 0 0 0 0 0 0 0 0 0.407843 0 0 0 0 0.717647 0 0 0 0.1 0"/>
<feBlend mode="normal" in2="BackgroundImageFix" result="effect1_dropShadow_98_1528"/>
<feBlend mode="normal" in="SourceGraphic" in2="effect1_dropShadow_98_1528" result="shape"/>
</filter>
<clipPath id="clip0_98_1528">
<rect width="48" height="49" fill="white" transform="translate(35 34)"/>
</clipPath>
</defs>
</svg>
