<svg width="120" height="120" viewBox="0 0 120 120" fill="none" xmlns="http://www.w3.org/2000/svg">
<g filter="url(#filter0_d_92_2470)">
<rect x="9" y="9" width="100" height="100" rx="16" fill="white"/>
</g>
<path d="M90.2905 68.9858C90.2865 70.5778 89.6468 72.1034 88.5112 73.229C87.3756 74.3547 85.8366 74.9889 84.2307 74.9928H33.2893C31.6834 74.9889 30.1444 74.3547 29.0088 73.229C27.8732 72.1034 27.2335 70.5778 27.2295 68.9858V49.8508C27.2335 48.2588 27.8732 46.7332 29.0088 45.6076C30.1444 44.4819 31.6834 43.8477 33.2893 43.8438H84.2307C85.8366 43.8477 87.3756 44.4819 88.5112 45.6076C89.6468 46.7332 90.2865 48.2588 90.2905 49.8508V68.9858Z" fill="url(#paint0_linear_92_2470)"/>
<path d="M79.634 59.0092C80.7442 59.2334 81.7444 59.8252 82.4703 60.6875C83.1962 61.5498 83.6046 62.6313 83.6283 63.7541C83.6543 64.4277 83.5179 65.0978 83.2305 65.7087C82.943 66.3196 82.5128 66.8538 81.9754 67.267C80.6108 68.2519 78.9485 68.7466 77.2622 68.6696C75.268 68.6474 73.3136 68.1132 71.5897 67.1189C71.6252 66.5403 71.7622 65.9722 71.9947 65.4403C72.1972 64.9083 72.4976 64.4182 72.8807 63.995C74.1546 64.7269 75.5846 65.1507 77.0547 65.232C77.5029 65.2577 77.9495 65.1605 78.3456 64.951C78.4825 64.8778 78.5967 64.7691 78.6761 64.6365C78.7554 64.5039 78.7969 64.3524 78.7962 64.1982C78.7962 63.6077 78.3355 63.1653 77.4141 62.8709L75.7612 62.2511C73.2603 61.3478 72.0099 59.8741 72.0099 57.8299C71.9811 57.1576 72.1082 56.4876 72.3816 55.8716C72.655 55.2557 73.0673 54.7101 73.5869 54.2769C74.7609 53.2487 76.2679 52.6718 77.8343 52.6509C78.8156 52.6637 79.7923 52.7874 80.7452 53.0198C81.6624 53.3051 82.54 53.703 83.3575 54.2041C83.3848 54.8247 83.2724 55.4436 83.0284 56.0158C82.847 56.5629 82.5137 57.0482 82.0666 57.4159C80.7572 56.7638 79.3275 56.383 77.8647 56.2968C77.537 56.2743 77.212 56.3686 76.9484 56.5628C76.8475 56.6445 76.7667 56.7481 76.7123 56.8655C76.6579 56.9829 76.6313 57.1111 76.6345 57.2403C76.6345 57.712 77.015 58.085 77.7761 58.3594L79.6391 59.0092H79.634ZM66.3475 59.0092C67.4572 59.2339 68.4569 59.826 69.1822 60.6882C69.9076 61.5505 70.3157 62.6316 70.3393 63.7541C70.3654 64.4275 70.2293 65.0973 69.9423 65.7082C69.6553 66.3191 69.2256 66.8534 68.6889 67.267C67.324 68.2514 65.6619 68.746 63.9757 68.6696C61.9815 68.6472 60.0271 68.1129 58.3032 67.1189C58.3384 66.5403 58.4755 65.9721 58.7082 65.4403C58.9102 64.9081 59.2107 64.4179 59.5941 63.995C60.868 64.7269 62.2981 65.1507 63.7682 65.232C64.2164 65.258 64.6631 65.1607 65.0591 64.951C65.1958 64.8776 65.3098 64.7688 65.3892 64.6363C65.4685 64.5037 65.5101 64.3524 65.5096 64.1982C65.5096 63.6077 65.049 63.1653 64.1276 62.8709L62.4747 62.2511C59.9738 61.3478 58.7234 59.8741 58.7234 57.8299C58.6943 57.1575 58.8214 56.4875 59.0948 55.8715C59.3682 55.2555 59.7807 54.71 60.3003 54.2769C61.4735 53.2489 62.9796 52.672 64.5452 52.6509C65.5266 52.6636 66.5032 52.7873 67.4562 53.0198C68.3734 53.305 69.2509 53.7029 70.0684 54.2041C70.0957 54.8247 69.9833 55.4436 69.7394 56.0158C69.558 56.5629 69.2246 57.0482 68.7775 57.4159C67.4673 56.7636 66.0367 56.3828 64.5731 56.2968C64.2454 56.2741 63.9203 56.3684 63.6568 56.5628C63.556 56.6447 63.4754 56.7482 63.421 56.8656C63.3666 56.983 63.3399 57.1111 63.3429 57.2403C63.3429 57.712 63.7234 58.085 64.4845 58.3594L66.3475 59.0092ZM56.6376 59.2175C56.6466 58.3619 56.4991 57.5118 56.2022 56.7083C55.9308 55.9711 55.5066 55.2984 54.9569 54.7336C54.3985 54.1714 53.7289 53.7297 52.9901 53.4363C52.1853 53.0064 51.3027 52.7386 50.393 52.6484C49.3418 52.7264 48.3214 53.0359 47.4062 53.5543C46.5868 53.9229 45.8669 54.4783 45.3052 55.1752C44.7364 55.8971 44.3175 56.7234 44.0725 57.6066C43.7945 58.5999 43.6581 59.627 43.6675 60.6578C43.6585 61.718 43.7689 62.7759 43.9966 63.8118C44.1902 64.7173 44.574 65.5723 45.123 66.321C45.6619 67.0348 46.3742 67.6019 47.1935 67.9696C48.1845 68.4296 49.2658 68.6669 50.3601 68.6646C52.4616 68.6965 54.5199 68.0714 56.2427 66.8781C56.1425 65.866 55.7125 64.9138 55.0176 64.1656C54.3115 64.4364 53.5865 64.6562 52.8483 64.823C52.3032 64.9456 51.7467 65.012 51.1878 65.0213C50.8112 65.0578 50.431 65.0115 50.0744 64.8857C49.7178 64.7599 49.3936 64.5578 49.1249 64.2936C48.673 63.7502 48.43 63.0657 48.4389 62.3615H56.2427C56.5246 61.3375 56.6575 60.2788 56.6376 59.2175ZM48.4161 59.4207C48.4185 58.555 48.6066 57.6997 48.9679 56.9116C49.1268 56.6903 49.3404 56.5131 49.5881 56.3971C49.8359 56.2811 50.1096 56.2302 50.3829 56.2491C50.6691 56.2319 50.9549 56.2879 51.2129 56.4118C51.4709 56.5357 51.6924 56.7234 51.8561 56.9567C52.2013 57.6197 52.3703 58.3589 52.3472 59.1046V59.4308H48.4161V59.4207Z" fill="#F6F6F6"/>
<path d="M91.8619 61.3935C91.4156 61.7915 91.0638 62.2825 90.8318 62.8314C90.5999 63.3802 90.4935 63.9732 90.5203 64.5676V69.714C90.5769 70.4557 90.4489 71.1999 90.1475 71.8811C89.846 72.5623 89.3804 73.1597 88.7915 73.6208C87.5793 74.5098 86.1126 74.9923 84.6048 74.9983H83.6606V72.4189C84.2318 72.2845 84.7535 71.9942 85.1667 71.5808C85.5216 71.2427 85.7997 70.8335 85.9826 70.3805C86.1655 69.9276 86.2489 69.4411 86.2273 68.9537V64.796C86.1393 63.6516 86.364 62.5048 86.8778 61.4763C87.6561 60.4907 88.7139 59.7584 89.9153 59.3736C88.4746 58.8209 87.2842 57.7701 86.564 56.4153C86.2542 55.4733 86.1381 54.4793 86.2222 53.4921V49.6831C86.2794 48.7147 85.9461 47.7634 85.2958 47.0384C84.848 46.6088 84.2732 46.3327 83.6556 46.2505V43.8417H86.0046C86.9701 43.9078 87.8838 44.2991 88.594 44.9508C89.4125 45.5996 90.0078 46.4842 90.2976 47.4825C90.4596 48.0537 90.533 48.6459 90.5153 49.239V53.6476C90.4751 54.2812 90.5667 54.9161 90.7844 55.5131C91.0021 56.11 91.3413 56.6562 91.7809 57.1178C92.3966 57.6807 93.137 58.0924 93.9426 58.3197V60.312C93.174 60.4977 92.462 60.8644 91.8669 61.381L91.8619 61.3935ZM32.1598 43.8442H31.3144C30.3487 43.9097 29.4348 44.3011 28.7249 44.9533C27.8641 45.5625 27.2581 46.4631 27.0214 47.4851C26.9306 48.0659 26.8984 48.6543 26.9252 49.2415V53.6501C26.9483 54.2926 26.8377 54.933 26.6004 55.5313C26.3631 56.1296 26.004 56.6731 25.5457 57.1279C24.8035 57.6818 23.9603 58.0882 23.0625 58.3248V60.3146C23.927 60.5042 24.7429 60.8681 25.4596 61.3835C25.923 61.774 26.2941 62.2607 26.5465 62.8093C26.7989 63.3578 26.9264 63.9547 26.9201 64.5576V69.7039C26.8426 70.4366 26.949 71.1769 27.2299 71.859C27.5108 72.541 27.9574 73.1437 28.53 73.6133C29.7419 74.5031 31.2085 74.9866 32.7167 74.9933H33.7823V72.4189C33.1778 72.2785 32.6182 71.9904 32.1547 71.5808C31.8199 71.2335 31.563 70.8199 31.4012 70.367C31.2393 69.9142 31.1761 69.4325 31.2157 68.9537V64.7985C31.2701 63.6427 31.003 62.4943 30.4436 61.4788C29.6654 60.4932 28.6076 59.7609 27.4061 59.3761C28.8463 58.8238 30.0366 57.774 30.7575 56.4203C31.1153 55.4884 31.2731 54.4928 31.2207 53.4971V49.6856C31.1304 48.7341 31.4183 47.7852 32.0231 47.0409C32.4448 46.6995 32.9446 46.466 33.4786 46.3609H34.562V43.8442H32.1598Z" fill="#F6F6F6" stroke="#404040" stroke-width="0.25" stroke-miterlimit="10"/>
<path d="M42.1416 64.7276H41.3316C40.4507 64.7276 40.1191 64.2684 40.1191 63.345V46.3854C40.1674 45.6111 39.9258 44.8463 39.4407 44.2375C39.061 43.826 38.4004 43.8311 37.4587 43.8311H35.4135V64.1706C35.3302 65.2795 35.6459 66.3818 36.3045 67.282C36.6865 67.6449 37.1436 67.9211 37.6441 68.0913C38.1446 68.2616 38.6764 68.3219 39.2028 68.2681C40.2798 68.2557 41.3541 68.1567 42.4149 67.972C42.4945 67.5511 42.5251 67.1226 42.5061 66.6948C42.5032 66.0249 42.3815 65.3608 42.1466 64.7326L42.1416 64.7276Z" fill="#F6F6F6"/>
<defs>
<filter id="filter0_d_92_2470" x="0" y="0" width="120" height="120" filterUnits="userSpaceOnUse" color-interpolation-filters="sRGB">
<feFlood flood-opacity="0" result="BackgroundImageFix"/>
<feColorMatrix in="SourceAlpha" type="matrix" values="0 0 0 0 0 0 0 0 0 0 0 0 0 0 0 0 0 0 127 0" result="hardAlpha"/>
<feOffset dx="1" dy="1"/>
<feGaussianBlur stdDeviation="5"/>
<feComposite in2="hardAlpha" operator="out"/>
<feColorMatrix type="matrix" values="0 0 0 0 0 0 0 0 0 0.407843 0 0 0 0 0.717647 0 0 0 0.1 0"/>
<feBlend mode="normal" in2="BackgroundImageFix" result="effect1_dropShadow_92_2470"/>
<feBlend mode="normal" in="SourceGraphic" in2="effect1_dropShadow_92_2470" result="shape"/>
</filter>
<linearGradient id="paint0_linear_92_2470" x1="58.7613" y1="43.8438" x2="58.7613" y2="74.9928" gradientUnits="userSpaceOnUse">
<stop offset="0.15" stop-color="#2A4F84"/>
<stop offset="0.388" stop-color="#294E82"/>
<stop offset="1" stop-color="#172E4E"/>
</linearGradient>
</defs>
</svg>
