<svg width="50" height="50" viewBox="0 0 50 50" fill="none" xmlns="http://www.w3.org/2000/svg">
<g opacity="0.8">
<circle cx="25" cy="25" r="24" fill="#654c45" stroke="white" stroke-width="2"/>
<path d="M20.3616 18.5833C20.3614 19.0695 20.168 19.5357 19.824 19.8794C19.48 20.223 19.0136 20.4159 18.5274 20.4157C18.0411 20.4154 17.5749 20.2221 17.2313 19.8781C16.8876 19.5341 16.6947 19.0677 16.6949 18.5814C16.6952 18.0952 16.8886 17.629 17.2326 17.2853C17.5766 16.9417 18.043 16.7488 18.5292 16.749C19.0154 16.7493 19.4816 16.9427 19.8253 17.2866C20.1689 17.6306 20.3619 18.097 20.3616 18.5833ZM20.4166 21.7733H16.7499V33.2499H20.4166V21.7733ZM26.2099 21.7733H22.5616V33.2499H26.1733V27.2274C26.1733 23.8724 30.5458 23.5608 30.5458 27.2274V33.2499H34.1666V25.9808C34.1666 20.3249 27.6949 20.5358 26.1733 23.3133L26.2099 21.7733Z" fill="white"/>
</g>
</svg>
