<svg width="22" height="30" viewBox="0 0 22 30" fill="none" xmlns="http://www.w3.org/2000/svg">
<path d="M11 21.7125C13.475 19.7125 15.344 17.7875 16.607 15.9375C17.869 14.0875 18.5 12.35 18.5 10.725C18.5 9.325 18.244 8.131 17.732 7.143C17.219 6.156 16.5875 5.356 15.8375 4.743C15.0875 4.131 14.275 3.6875 13.4 3.4125C12.525 3.1375 11.725 3 11 3C10.275 3 9.475 3.1375 8.6 3.4125C7.725 3.6875 6.9125 4.131 6.1625 4.743C5.4125 5.356 4.7815 6.156 4.2695 7.143C3.7565 8.131 3.5 9.325 3.5 10.725C3.5 12.35 4.131 14.0875 5.393 15.9375C6.656 17.7875 8.525 19.7125 11 21.7125ZM11 25.5C7.475 22.9 4.8435 20.375 3.1055 17.925C1.3685 15.475 0.5 13.075 0.5 10.725C0.5 8.95 0.819 7.3935 1.457 6.0555C2.094 4.7185 2.9125 3.6 3.9125 2.7C4.9125 1.8 6.0375 1.125 7.2875 0.675C8.5375 0.225 9.775 0 11 0C12.225 0 13.4625 0.225 14.7125 0.675C15.9625 1.125 17.0875 1.8 18.0875 2.7C19.0875 3.6 19.9065 4.7185 20.5445 6.0555C21.1815 7.3935 21.5 8.95 21.5 10.725C21.5 13.075 20.631 15.475 18.893 17.925C17.156 20.375 14.525 22.9 11 25.5ZM11 13.5C11.825 13.5 12.5315 13.206 13.1195 12.618C13.7065 12.031 14 11.325 14 10.5C14 9.675 13.7065 8.9685 13.1195 8.3805C12.5315 7.7935 11.825 7.5 11 7.5C10.175 7.5 9.469 7.7935 8.882 8.3805C8.294 8.9685 8 9.675 8 10.5C8 11.325 8.294 12.031 8.882 12.618C9.469 13.206 10.175 13.5 11 13.5ZM0.5 30V27H21.5V30H0.5Z" fill="#EF5423"/>
</svg>
