<svg width="120" height="120" viewBox="0 0 120 120" fill="none" xmlns="http://www.w3.org/2000/svg">
<g filter="url(#filter0_d_98_2058)">
<rect x="9" y="9" width="100" height="100" rx="16" fill="white"/>
</g>
<g clip-path="url(#clip0_98_2058)">
<path d="M43.6444 39.1147C43.6444 39.1147 43.4811 39.374 43.6362 39.7578C43.7302 39.9947 44.016 40.2805 44.3304 40.5827C44.3304 40.5827 47.6277 43.8003 48.032 44.2658C49.8592 46.3749 50.6535 48.4512 50.727 51.3157C50.7719 53.1532 50.4187 54.7702 49.5571 56.6506C48.0136 60.0173 44.7592 63.7311 39.7367 67.8593L40.4717 67.6143C40.9474 67.2611 41.5905 66.8814 43.1095 66.0504C46.6069 64.1394 50.533 62.3795 55.3575 60.5665C62.2971 57.9593 73.712 54.8988 80.2086 53.9045L80.8844 53.8004L80.7823 53.6371C80.1862 52.7142 79.7819 52.1446 79.2919 51.5403C77.8689 49.7783 76.1437 48.341 74.0305 47.1589C71.1273 45.5317 67.3604 44.2679 62.5972 43.3205C61.1104 43.0409 59.6191 42.7857 58.1239 42.5549C55.4493 42.1447 52.7787 41.7092 50.1124 41.2482C49.2447 41.0951 47.9482 40.8787 47.0887 40.6929C46.4259 40.5521 45.7709 40.3762 45.1267 40.1662C44.5795 39.9518 43.8098 39.7435 43.6444 39.1147ZM45.5554 40.9706C45.5615 40.9665 45.684 41.0053 45.8351 41.0563C46.1128 41.1502 46.4803 41.2605 46.909 41.3809C47.2071 41.4626 47.5358 41.5524 47.887 41.6402C48.3321 41.7546 48.7016 41.8526 48.7057 41.8587C48.7547 41.9138 49.504 44.3046 49.7592 45.2213C49.8572 45.5725 49.9307 45.8644 49.9246 45.8706C49.8534 45.782 49.7918 45.6862 49.7408 45.5847C48.8752 44.0617 47.5011 42.512 45.9147 41.2646C45.7914 41.171 45.6716 41.0729 45.5554 40.9706ZM49.21 41.9792C49.3443 41.992 49.4774 42.0152 49.6081 42.0486C50.8719 42.3262 53.13 42.7632 54.5796 43.0082C54.8225 43.049 55.0206 43.0898 55.0206 43.1041C54.9614 43.1572 54.8938 43.2 54.8205 43.2307C54.5775 43.3532 53.5914 43.9432 53.2627 44.1637C52.5119 44.6569 51.8079 45.218 51.1598 45.8399C51.0291 45.974 50.895 46.1047 50.7576 46.2319C50.7225 46.141 50.6945 46.0475 50.6739 45.9522C50.3272 44.7087 49.8834 43.4943 49.3468 42.3201C49.2929 42.2103 49.2445 42.0979 49.2018 41.9832C49.2018 41.9812 49.2018 41.9792 49.21 41.9792ZM55.6351 43.2001C55.676 43.2144 55.7576 43.4655 55.8985 44.0249C56.2239 45.344 56.3294 46.7078 56.2109 48.0613L56.1864 48.1389L55.8046 48.0164C54.747 47.6851 53.6838 47.372 52.6155 47.0772C52.2295 46.9784 51.848 46.8626 51.4722 46.7301C51.4722 46.6852 52.3889 45.7685 52.7829 45.4194C53.5363 44.7538 55.5637 43.1776 55.6351 43.2001ZM56.1455 43.2736C56.168 43.2532 59.2162 43.7799 60.6005 44.0453C61.6335 44.2434 63.126 44.5557 63.2158 44.5945C63.2607 44.6109 63.1056 44.6966 62.6094 44.9212C60.6495 45.8032 59.1958 46.5954 57.7503 47.5611C57.3705 47.8142 57.0541 48.0225 57.048 48.0225C57.0398 48.0225 57.0357 47.8102 57.0357 47.5529C57.0357 46.1442 56.7519 44.7211 56.2374 43.5186C56.1992 43.4399 56.1685 43.3579 56.1455 43.2736ZM64.0264 44.8334C64.0488 44.8559 63.9488 45.4582 63.863 45.8134C63.5935 46.9159 62.879 48.5574 61.997 50.0989C61.9043 50.2727 61.8007 50.4405 61.6866 50.6011C61.5314 50.5353 61.3818 50.4568 61.2395 50.3663C60.3779 49.862 59.402 49.3863 58.3301 48.9433C58.1383 48.8679 57.949 48.7862 57.7625 48.6983C57.7135 48.6534 60.0962 47.0752 61.36 46.3177C62.3706 45.7113 63.9978 44.8048 64.0264 44.8334ZM64.5899 44.9212C64.6572 44.9212 66.0088 45.2887 66.7071 45.499C68.4486 46.0196 70.4576 46.7526 71.7602 47.3447L72.3012 47.5897L71.9195 47.6774C68.7324 48.4124 65.9986 49.2557 63.369 50.3234C63.1505 50.4133 62.9606 50.4868 62.9463 50.4868C62.9834 50.3556 63.0347 50.229 63.0995 50.1091C63.8916 48.4288 64.402 46.6648 64.5347 45.1682C64.547 45.0314 64.5715 44.9212 64.5899 44.9212ZM51.1557 48.0082C51.1761 47.9878 52.2051 48.2287 52.7666 48.3859C53.6098 48.6227 55.4044 49.223 55.4044 49.2699C55.4044 49.2781 55.2064 49.4517 54.9655 49.6538C53.9229 50.5303 52.913 51.4449 51.9377 52.3957C51.7359 52.598 51.5261 52.7921 51.3088 52.9776C51.2945 52.9776 51.2884 52.9307 51.2966 52.8755C51.466 51.6281 51.4293 50.0274 51.1945 48.3982C51.1713 48.27 51.1577 48.1404 51.1537 48.0102L51.1557 48.0082ZM72.8178 48.0286C72.8321 48.0449 72.34 48.8147 72.0338 49.2536C71.5846 49.8947 70.9374 50.7359 69.4592 52.5958L67.5115 55.0499C67.3336 55.2807 67.1505 55.5073 66.9623 55.7298C66.9562 55.7298 66.8602 55.595 66.752 55.4317C65.9175 54.1863 64.9065 53.0688 63.7507 52.114C63.5697 51.9623 63.3859 51.8139 63.1995 51.6689C63.1444 51.6319 63.0937 51.5888 63.0484 51.5403C63.0484 51.5199 64.3081 50.9809 65.2697 50.5889C67.1327 49.84 69.0248 49.1658 70.9415 48.5676C71.8439 48.292 72.8035 48.0164 72.8178 48.0286ZM73.3854 48.1777C73.5341 48.228 73.6761 48.2966 73.808 48.3818C75.6082 49.4132 77.2733 50.6641 78.7652 52.1058C79.1612 52.4937 80.1269 53.5003 80.1127 53.5084L79.3715 53.5677C76.2478 53.8024 72.2543 54.466 68.4078 55.3909C68.1465 55.4521 67.9219 55.5052 67.9055 55.5052C67.8912 55.5052 68.1771 55.2194 68.5405 54.8682C70.8006 52.6979 71.8296 51.3279 73.0424 48.8779C73.222 48.5145 73.3752 48.1981 73.3813 48.1797H73.3854V48.1777ZM56.8724 49.8722C56.9765 49.8927 57.9402 50.3418 58.667 50.7052C59.3305 51.038 60.3371 51.575 60.3881 51.6219C60.3942 51.6281 60.041 51.8118 59.6 52.0323C58.2917 52.6819 57.0124 53.3883 55.7658 54.1495C55.4085 54.368 55.1125 54.5456 55.1022 54.5456C55.0716 54.5456 55.0818 54.5191 55.2819 54.1557C55.9714 52.8697 56.4785 51.494 56.7887 50.0682C56.8172 49.9417 56.8499 49.8641 56.8724 49.8702V49.8722ZM55.9026 50.0437C55.923 50.0642 55.6739 50.9829 55.5147 51.4729C55.0833 52.7621 54.5116 53.9999 53.8099 55.1642L53.6261 55.4644L53.2117 55.0622C52.8084 54.6511 52.3426 54.3066 51.8315 54.0413C51.705 53.9842 51.5846 53.9144 51.4722 53.8331C51.4722 53.7718 52.738 52.6224 53.7139 51.7955C54.4142 51.2034 55.8862 50.0254 55.9026 50.0437ZM61.7989 52.4692L62.1603 52.704C62.9912 53.243 63.9733 53.9678 64.7226 54.5905C65.1432 54.9417 65.9578 55.6726 66.1252 55.8482L66.215 55.9442L65.6148 56.1116C62.5456 56.9487 59.5143 57.9187 56.5294 59.0189C56.3139 59.1015 56.096 59.1778 55.876 59.2476C55.8332 59.2476 55.7903 59.2864 56.5559 58.582C58.5159 56.7792 60.2452 54.7927 61.5376 52.8612L61.7989 52.4692ZM60.2493 52.8572C60.2677 52.8755 59.2448 54.3067 58.6384 55.1152C57.9116 56.0809 56.6172 57.6979 55.727 58.7494C55.4997 59.0266 55.2641 59.2969 55.0206 59.5599C55.0002 59.5661 54.99 59.4579 54.9879 59.2884C54.9879 58.3901 54.7592 57.4305 54.3591 56.6179C54.1896 56.2749 54.161 56.1932 54.1957 56.1606C54.3346 56.034 56.4967 54.8008 57.8585 54.0719C58.7956 53.5697 60.233 52.8388 60.2493 52.8572ZM50.878 55.154C51.4713 55.4383 52.028 55.7934 52.5359 56.2116C52.5522 56.2218 52.3582 56.3811 52.1071 56.5628C51.4027 57.0712 50.3309 57.8776 49.7122 58.3717C49.0589 58.8923 49.0365 58.9087 49.11 58.7943C49.6 58.045 49.845 57.6224 50.1022 57.0793C50.3329 56.5975 50.5595 56.0258 50.7229 55.5277C50.7566 55.396 50.8095 55.2701 50.8801 55.154H50.878ZM53.375 57.114C53.4097 57.1079 53.4567 57.1712 53.6588 57.4713C54.0814 58.1042 54.406 58.9454 54.4897 59.6314L54.5061 59.7804L53.4914 60.1724C51.9327 60.7716 50.39 61.4115 48.865 62.0916C48.5485 62.2386 47.9911 62.504 47.6257 62.6878C47.2602 62.8715 46.9621 63.0144 46.9621 63.0063C46.9621 62.9981 47.1908 62.8246 47.4725 62.6224C49.6918 61.0095 51.6069 59.2455 53.0504 57.4795C53.2035 57.2917 53.3444 57.1283 53.3627 57.1161C53.3665 57.1139 53.3707 57.1125 53.375 57.112V57.114ZM52.2235 57.3999C52.2541 57.4284 51.4048 58.388 50.8331 58.9719C49.4521 60.3911 47.9057 61.6393 46.2271 62.6898C46.0066 62.8307 45.8065 62.9552 45.778 62.9716C45.731 63.0002 45.7943 62.9267 46.566 62.0855C47.052 61.5567 47.4235 61.1177 47.8482 60.5685C48.044 60.2852 48.2954 60.0449 48.5873 59.8621C49.6837 59.0699 52.1949 57.3692 52.2235 57.3978V57.3999ZM54.2631 34.0003C54.0998 33.9799 51.464 34.9293 49.7715 35.6153C47.4787 36.5483 45.6963 37.4405 44.5979 38.2123C44.1895 38.4981 43.675 39.0147 43.6015 39.2127C43.5726 39.2932 43.5581 39.3782 43.5587 39.4638L44.555 40.403L46.9192 41.1584L52.5522 42.167L58.9896 43.2736L59.0549 42.7223L58.9977 42.7121L58.1505 42.5774L57.9769 42.2752C57.1019 40.7315 56.3 39.1474 55.5739 37.5283C55.1502 36.5553 54.7887 35.5562 54.4918 34.5373C54.353 34.0412 54.3387 34.0105 54.2631 34.0003ZM54.1386 34.3801H54.1488C54.1549 34.3862 54.1835 34.5944 54.2141 34.8394C54.3407 35.8766 54.5735 36.8811 54.9369 37.9632C55.2105 38.7799 55.2145 38.7329 54.8879 38.641C54.1325 38.4307 50.7392 37.8489 48.2851 37.5079C48.0414 37.4768 47.7984 37.4407 47.5562 37.3997C47.5256 37.3691 49.3264 36.4258 50.1247 36.0522C51.1475 35.5785 53.9365 34.4189 54.1386 34.3801ZM46.9887 37.7039L47.2765 37.8019C48.8527 38.3368 52.8013 39.0922 54.9838 39.2719C55.2288 39.2923 55.4371 39.3148 55.4432 39.3209C55.4493 39.327 55.239 39.4393 54.9777 39.57C53.9262 40.0967 52.7666 40.7399 51.9642 41.2421C51.7294 41.3891 51.515 41.5075 51.4844 41.5055C51.3684 41.4892 51.2527 41.4708 51.1373 41.4504L50.8433 41.4034L50.0981 40.6786C48.7894 39.4128 47.7686 38.4328 47.3725 38.0653L46.9887 37.7039ZM46.6967 37.9367L47.74 39.2392C48.3157 39.9538 48.8915 40.6664 49.0181 40.8195C49.1467 40.9726 49.2447 41.1012 49.2386 41.1053C49.21 41.1278 47.7277 40.8399 46.9417 40.6582C46.3885 40.5406 45.8414 40.3962 45.3022 40.2254L44.8939 40.0947L44.896 39.9947C44.9021 39.4944 45.533 38.7554 46.6028 38.002L46.6967 37.9367ZM55.582 39.7109C55.6127 39.7129 55.6474 39.7762 55.7392 39.9783C55.9924 40.5337 56.7805 42.0363 56.9704 42.3262C57.0316 42.4222 57.1337 42.4283 56.0863 42.2589C53.5751 41.8546 52.7605 41.7178 52.7605 41.7015C52.8116 41.6571 52.8686 41.62 52.9299 41.5912C53.731 41.1417 54.4878 40.6174 55.19 40.0253L55.5473 39.7252C55.5596 39.7149 55.5718 39.7088 55.582 39.7109ZM64.3796 56.8772L54.5632 60.0785L46.0291 63.8474L43.6403 64.4804C42.3746 65.6771 41.0614 66.8227 39.704 67.9144C38.9988 68.4978 38.3476 69.1435 37.7583 69.8438C37.0805 70.6891 36.5496 71.5874 36.321 72.2795C35.9126 73.5249 36.1107 74.7867 36.9028 75.9504C37.9135 77.4368 39.9245 78.9476 42.2622 79.9766C43.4566 80.4993 45.4676 81.1771 46.9785 81.5569C49.4958 82.1939 54.357 82.8839 57.0357 82.986C57.5788 83.0064 58.3015 83.0064 58.3362 82.9819C58.3934 82.9431 58.812 82.1551 59.2958 81.1649C60.9414 77.8043 62.1317 74.6519 62.7728 71.961C63.1607 70.3297 63.4629 68.1574 63.6589 65.5808C63.7192 64.2655 63.7301 62.9484 63.6915 61.6322C63.6406 60.4645 63.5158 59.3011 63.3179 58.1492C63.292 58.0493 63.2837 57.9456 63.2934 57.8429C63.322 57.8225 63.4139 57.7919 64.6205 57.4407L64.3796 56.8772ZM62.1337 58.1941C62.2256 58.1941 62.4604 60.4685 62.5237 61.9099C62.5359 62.2182 62.5339 62.4142 62.5155 62.4142C62.4584 62.4142 61.2599 61.7098 60.4085 61.1769C59.6051 60.6708 58.814 60.1453 58.0361 59.6008C57.9647 59.5436 57.9728 59.5416 58.5792 59.3333C59.6102 58.9781 62.0582 58.1941 62.1358 58.1941H62.1337ZM57.1357 59.8335C57.197 59.8335 57.3705 59.9295 57.7789 60.1847C59.3101 61.1443 61.3845 62.2978 62.2705 62.6857C62.5482 62.8082 62.5788 62.7592 61.9439 63.19C60.5923 64.1088 58.91 65.0112 56.8458 65.9299C56.6229 66.0319 56.3976 66.1286 56.17 66.2199C56.1851 66.0811 56.2145 65.9442 56.2578 65.8115C56.758 63.9638 57.0398 62.0957 57.048 60.5971C57.052 59.858 57.052 59.8539 57.1235 59.8356H57.1357V59.8335ZM56.1067 60.2276C56.1496 60.2725 56.119 61.9303 56.0659 62.3836C55.9104 63.6596 55.6245 64.9164 55.2125 66.1341C55.1839 66.1688 54.1692 65.1786 53.8323 64.7866C53.2989 64.1817 52.8403 63.5147 52.4665 62.8001C52.299 62.4693 52.0295 61.8119 52.054 61.7935C52.1684 61.7119 56.0782 60.201 56.1067 60.2276ZM51.2578 62.1386C51.266 62.1386 51.2741 62.1406 51.2782 62.1467C51.3235 62.2327 51.3617 62.3221 51.3925 62.4142C51.7075 63.1981 52.1205 63.939 52.6216 64.6192C53.2262 65.4197 53.9232 66.1461 54.698 66.7834C54.745 66.8242 54.7592 66.816 53.5506 67.2734C52.0033 67.8568 50.4416 68.4014 48.867 68.9067C48.1994 69.1231 47.6338 69.3048 47.6114 69.315C47.544 69.3375 47.5644 69.2967 47.7604 68.9924C48.6322 67.6327 49.9511 64.9704 50.6902 63.0879C50.8168 62.7613 50.9393 62.4346 50.9617 62.3611C50.9924 62.2549 51.025 62.2182 51.1251 62.1733C51.1661 62.1518 51.2115 62.1399 51.2578 62.1386ZM49.7715 62.7511C49.7919 62.7694 49.4162 63.5637 49.0446 64.2844C48.2569 65.8078 47.4034 67.2962 46.4864 68.7454L46.1148 69.3334C46.0781 69.3885 46.0617 69.3702 45.9474 69.1415C45.6805 68.5967 45.4882 68.0185 45.3757 67.4224C45.2708 66.6879 45.2845 65.9414 45.4166 65.2113C45.5125 64.7478 45.5085 64.758 45.7269 64.6478C46.6702 64.1639 49.7408 62.7245 49.7715 62.7511ZM62.5686 63.2717V63.5861C62.5476 65.6325 62.3736 67.6744 62.048 69.6948C60.7017 69.3062 59.4022 68.7708 58.1729 68.0982C57.4502 67.7021 56.4069 67.0631 56.4375 67.0324C56.4436 67.0243 56.7519 66.863 57.1194 66.6711C58.5772 65.9157 59.9675 65.099 61.1782 64.2905C61.6315 63.9883 62.3114 63.4963 62.4625 63.3636L62.5686 63.2717ZM44.1691 65.4624C44.1997 65.4624 44.1916 65.5196 44.1446 65.7911C44.1041 66.0551 44.0762 66.3208 44.0609 66.5874C43.9997 67.6735 44.1773 68.4739 44.7142 69.5682C44.8653 69.8744 44.9837 70.1276 44.9776 70.1317C44.9225 70.1787 40.0164 71.6139 38.4729 72.0366L37.5847 72.2816C37.5296 72.2979 37.5255 72.2857 37.5439 72.1591C37.7134 71.0709 38.5443 69.6437 39.704 68.4432C40.4757 67.647 41.0923 67.1733 42.1438 66.5751C42.812 66.1918 43.4872 65.8209 44.1691 65.4624ZM55.7433 67.5347C55.7474 67.5306 55.9291 67.6266 56.1455 67.7532C57.7319 68.6699 59.943 69.5294 61.8275 69.9602L61.999 70.001L61.7642 70.1297C60.7801 70.6768 57.5359 72.0264 54.2223 73.2677C53.8726 73.3983 53.5235 73.5304 53.1749 73.6638C53.1219 73.6898 53.0656 73.7083 53.0075 73.7189C53.0075 73.7107 53.1443 73.4494 53.3117 73.135C54.2427 71.3955 55.1696 69.2824 55.6474 67.8164C55.6943 67.6674 55.7372 67.5408 55.7433 67.5347ZM54.5632 67.9226C54.5279 68.0403 54.4849 68.1555 54.4346 68.2677C53.6815 70.0464 52.8217 71.7782 51.8601 73.4535C51.6968 73.7529 51.5252 74.0477 51.3456 74.3375C51.3354 74.3375 51.1128 74.2028 50.8474 74.0415C49.2753 73.0778 47.8829 71.8937 46.9682 70.7401L46.8376 70.5768L47.5154 70.391C49.7373 69.7966 51.9138 69.0441 54.0283 68.139C54.3182 68.0165 54.5592 67.9165 54.5632 67.9226ZM61.8928 70.4808C61.8949 70.4808 61.8969 70.4829 61.8969 70.4869C61.8969 70.6503 61.5233 72.1774 61.2109 73.284C60.9496 74.2089 60.7291 74.9337 60.3228 76.2179C60.2192 76.5644 60.1048 76.9075 59.9798 77.2469C57.8841 76.8887 55.8313 76.3132 53.8548 75.5299C53.4117 75.3564 52.9764 75.1637 52.5502 74.9521C52.5379 74.9378 52.985 74.7275 53.5424 74.4825C56.9214 73.0104 60.4208 71.3322 61.6172 70.6115C61.7008 70.5523 61.7941 70.508 61.8928 70.4808ZM44.9735 71.0586C44.9919 71.077 44.0466 72.4286 42.7277 74.2763L41.5292 75.9566C41.3312 76.2404 41.029 76.6875 40.8575 76.9529L40.5452 77.4347L40.2144 77.155C39.7192 76.7205 39.2572 76.2496 38.8322 75.7463C38.1952 74.9521 37.7644 74.117 37.5929 73.3494C37.5153 72.9941 37.5112 72.8144 37.5868 72.792C38.9012 72.4749 40.2174 72.1653 41.5354 71.863L44.1895 71.2403C44.6162 71.1382 44.9695 71.0566 44.9735 71.0586ZM45.9229 71.422L46.1618 71.6895C47.1595 72.8222 48.3361 73.7836 49.6449 74.5356C49.7876 74.6064 49.9212 74.6942 50.043 74.7969C47.1047 75.8621 44.1578 76.9034 41.2026 77.9207C41.152 77.8905 41.1029 77.8578 41.0556 77.8227L40.9188 77.7247L41.1332 77.4143C41.8273 76.4078 42.7012 75.3012 44.6142 73.0002L45.9229 71.422ZM51.8437 75.6544C51.8499 75.6483 52.1806 75.7647 52.5828 75.9157C53.5485 76.2771 54.306 76.5119 55.333 76.7692C56.5927 77.0856 58.4159 77.4021 59.4939 77.4919C59.6572 77.5042 59.743 77.5246 59.7185 77.5409C59.6674 77.5736 58.5751 77.937 57.7727 78.1902C54.6264 79.1472 51.4712 80.0749 48.3076 80.9729C48.2361 80.9872 47.987 80.9219 47.987 80.8913C47.987 80.8729 48.1647 80.6483 48.3811 80.389C49.4606 79.0963 50.4667 77.7439 51.3946 76.3384C51.5435 76.1098 51.6932 75.8819 51.8437 75.6544ZM50.533 75.6912C50.5432 75.7014 50.0165 76.5446 49.0916 78.0023C48.6996 78.6169 48.2565 79.3192 48.1055 79.5581C47.9523 79.799 47.7298 80.1665 47.6114 80.3747L47.3929 80.7524L47.2827 80.7239C47.0172 80.6524 45.141 79.9889 44.6469 79.7929C44.0571 79.5597 43.4805 79.2946 42.9196 78.9987C42.3296 78.6802 41.5823 78.2065 41.6395 78.1881L43.8955 77.5715C47.1459 76.6854 48.9446 76.1771 50.1226 75.8075C50.3452 75.7402 50.5289 75.6871 50.531 75.6912H50.533ZM59.7675 77.8574H59.7797C59.8103 77.9349 58.6057 81.2669 58.1668 82.3245C58.0667 82.5614 58.032 82.6206 57.979 82.6165C57.002 82.4931 56.0267 82.357 55.0532 82.2082C53.2035 81.9264 50.1063 81.3854 49.3243 81.2077L49.1426 81.1669L50.2512 80.9178C52.6277 80.3829 53.769 80.095 54.9267 79.7398C56.4188 79.2806 57.8773 78.7184 59.2917 78.0574C59.4465 77.9821 59.6053 77.9153 59.7675 77.8574Z" fill="black"/>
</g>
<defs>
<filter id="filter0_d_98_2058" x="0" y="0" width="120" height="120" filterUnits="userSpaceOnUse" color-interpolation-filters="sRGB">
<feFlood flood-opacity="0" result="BackgroundImageFix"/>
<feColorMatrix in="SourceAlpha" type="matrix" values="0 0 0 0 0 0 0 0 0 0 0 0 0 0 0 0 0 0 127 0" result="hardAlpha"/>
<feOffset dx="1" dy="1"/>
<feGaussianBlur stdDeviation="5"/>
<feComposite in2="hardAlpha" operator="out"/>
<feColorMatrix type="matrix" values="0 0 0 0 0 0 0 0 0 0.407843 0 0 0 0 0.717647 0 0 0 0.1 0"/>
<feBlend mode="normal" in2="BackgroundImageFix" result="effect1_dropShadow_98_2058"/>
<feBlend mode="normal" in="SourceGraphic" in2="effect1_dropShadow_98_2058" result="shape"/>
</filter>
<clipPath id="clip0_98_2058">
<rect width="49" height="49" fill="white" transform="translate(34 34)"/>
</clipPath>
</defs>
</svg>
