<svg width="40" height="40" viewBox="0 0 40 40" fill="none" xmlns="http://www.w3.org/2000/svg">
<path d="M28.75 8.75H33.75V13.75H28.75V8.75ZM28.75 16.25H33.75V21.25H28.75V16.25ZM21.25 8.75H26.25V13.75H21.25V8.75ZM21.25 16.25H26.25V21.25H21.25V16.25Z" fill="#0068B7"/>
<path d="M18.125 32.5C19.1605 32.5 20 31.6605 20 30.625C20 29.5895 19.1605 28.75 18.125 28.75C17.0895 28.75 16.25 29.5895 16.25 30.625C16.25 31.6605 17.0895 32.5 18.125 32.5Z" fill="#0068B7"/>
<path d="M26.25 37.5H10C9.33716 37.4993 8.70166 37.2357 8.23296 36.767C7.76427 36.2983 7.50066 35.6628 7.5 35V5C7.50066 4.33716 7.76427 3.70166 8.23296 3.23296C8.70166 2.76427 9.33716 2.50066 10 2.5H26.25V5H10V35H26.25V25H28.75V35C28.7493 35.6628 28.4857 36.2983 28.017 36.767C27.5483 37.2357 26.9128 37.4993 26.25 37.5Z" fill="#0068B7"/>
</svg>
