<svg width="120" height="120" viewBox="0 0 120 120" fill="none" xmlns="http://www.w3.org/2000/svg">
<g filter="url(#filter0_d_103_897)">
<rect x="9" y="9" width="100" height="100" rx="16" fill="white"/>
</g>
<g clip-path="url(#clip0_103_897)">
<path d="M44.1211 66.3343L46.2788 73.4228C46.7636 75.0322 46.9658 76.1557 46.8848 76.796C48.0649 73.596 48.8895 70.1087 49.3586 66.3343H51.9532C50.8375 72.4791 49.3661 76.9444 47.5397 79.73C46.1166 81.8766 44.5577 82.9498 42.86 82.9498C42.4074 82.9498 41.8494 82.8114 41.1872 82.5365V81.0552C41.5108 81.1033 41.8903 81.129 42.3268 81.129C43.1188 81.129 43.7571 80.9067 44.2427 80.4632C44.8242 79.9228 45.1153 79.3154 45.1153 78.6422C45.1153 78.1825 44.8882 77.2391 44.4363 75.8121L41.4299 66.3343H44.121H44.1211ZM27.6071 61.9775L31.5592 74.1863H31.5837L35.5601 61.9775H38.8089C39.5203 68.0322 39.9404 73.572 40.0694 78.5935H37.3304C37.234 73.8994 36.967 69.4855 36.5305 65.3508H36.5066L32.3357 78.5935H30.2498L26.104 65.3508H26.0796C25.7721 69.3216 25.5785 73.7356 25.4978 78.5935H23C23.1614 72.6854 23.5654 67.1472 24.2119 61.9775H27.6072H27.6071Z" fill="#00758F"/>
<path d="M71.8813 61.7306C76.1326 61.7306 78.2583 64.4805 78.2583 69.9776C78.2583 72.9648 77.619 75.2212 76.3417 76.7455C76.1115 77.0241 75.857 77.2647 75.5891 77.4877L78.5976 78.9938L78.5947 78.9936L77.5265 80.8612L73.6086 78.5467C72.9592 78.7415 72.2446 78.8388 71.466 78.8388C69.3786 78.8388 67.8193 78.2228 66.7885 76.9925C65.6569 75.6314 65.0914 73.4888 65.0914 70.5682C65.0914 67.5978 65.7296 65.35 67.0073 63.8237C68.171 62.4276 69.796 61.7305 71.8813 61.7305V61.7306ZM58.8628 61.7548C60.3822 61.7548 61.7638 62.1664 63.0083 62.9868L62.3762 64.4128C61.3113 63.9546 60.2614 63.7244 59.2261 63.7244C58.386 63.7244 57.7387 63.9292 57.2875 64.3411C56.8338 64.7494 56.5531 65.2748 56.5531 65.9153C56.5531 66.8995 57.2456 67.753 58.5243 68.4741C58.9432 68.7059 59.3607 68.9404 59.7766 69.1776L59.8721 69.232L59.9199 69.2592L60.0154 69.3135L60.0631 69.3408L60.1585 69.3952C61.1265 69.9477 62.0373 70.4751 62.0373 70.4751C63.3158 71.394 63.9532 72.3737 63.9532 73.9874C63.9532 75.3966 63.4431 76.5533 62.4264 77.4585C61.409 78.3596 60.0421 78.8114 58.3303 78.8114C56.7293 78.8114 55.1777 78.2913 53.6748 77.26L54.3779 75.8326C55.6713 76.489 56.8417 76.8169 57.8926 76.8169C58.8783 76.8169 59.6499 76.594 60.2081 76.154C60.7651 75.7108 61.0989 75.0926 61.0989 74.3087C61.0989 73.3221 60.4211 72.4787 59.1776 71.7713C58.7884 71.5535 58.4003 71.3337 58.0134 71.1118L57.9182 71.0572C57.7432 70.9571 57.5669 70.8557 57.3943 70.7564L57.3007 70.7025C56.461 70.219 55.7351 69.7965 55.7351 69.7965C54.492 68.8759 53.8687 67.8882 53.8687 66.2607C53.8687 64.9146 54.3335 63.8267 55.2618 62.999C56.1923 62.1695 57.3927 61.7548 58.8628 61.7548ZM83.2545 61.9772V76.5491H88.4184V78.5931H80.6355V61.9772H83.2545ZM91.2877 76.5554V76.9008H90.72V78.5912H90.286V76.9008H89.6962V76.5554H91.2879H91.2877ZM92.3361 76.5554L92.8812 77.9432L93.382 76.5554H93.9973V78.5912H93.5882V77.0419L93.0182 78.5912H92.7233L92.1524 77.0419H92.1305V78.5912H91.7434V76.5554H92.3362H92.3361ZM71.614 63.774C69.1087 63.774 67.8554 65.8674 67.8554 70.0513C67.8554 72.448 68.1875 74.1859 68.8505 75.2691C69.4645 76.2715 70.4262 76.7718 71.7357 76.7718C74.241 76.7718 75.4941 74.6621 75.4941 70.4447C75.4941 68.0817 75.162 66.3587 74.4999 65.2749C73.8851 64.2747 72.9239 63.774 71.6141 63.774H71.614Z" fill="#F29111"/>
<path d="M65.0479 35.0296C65.879 32.962 68.7849 34.5278 69.9125 35.25C70.1889 35.4307 70.5059 35.8124 70.8228 35.9536C71.3171 35.9732 71.8111 36.0124 72.3063 36.0333C73.2351 36.2543 74.1051 36.4348 74.837 36.8569C78.2384 38.885 80.4526 40.9517 82.4904 44.3654C82.9258 45.0885 83.1434 45.8709 83.499 46.6534C83.9927 47.8197 84.5474 49.044 85.1204 50.1468C85.3769 50.6697 85.5754 51.2511 85.9316 51.6927C86.0707 51.8946 86.4658 51.9541 86.702 52.0747C87.3548 52.4168 88.1458 52.6766 88.7598 53.0781C89.9065 53.802 91.0152 54.6647 92.0231 55.5478C92.3987 55.8887 92.6547 56.3712 93.0126 56.7318V56.9138C92.6949 57.0125 92.3783 57.1135 92.0615 57.1946C91.3694 57.3746 90.7563 57.3338 90.0849 57.514C89.6699 57.6358 89.1548 57.7966 88.7196 57.8375L88.7598 57.8785C89.0158 58.6191 90.4009 59.2214 91.0343 59.6644C91.8037 60.2265 92.5166 60.9083 93.0904 61.6913C93.2886 61.8911 93.4868 62.0729 93.6839 62.2722C93.8218 62.4741 93.8606 62.7352 94.0001 62.9152V62.9761C93.8456 62.921 93.7346 62.8157 93.6293 62.7056L93.5665 62.6392C93.5037 62.5732 93.4403 62.5083 93.368 62.4548C92.9315 62.153 92.498 61.7919 92.0615 61.5112C91.311 61.0291 90.4405 60.7492 89.6699 60.2653C89.2342 59.9843 88.8189 59.6644 88.4036 59.3428C88.0271 59.0611 87.6125 58.5199 87.3759 58.1184C87.2365 57.8966 87.2174 57.6358 87.0582 57.4754C87.0866 57.2073 87.3292 57.1277 87.5739 57.0623L87.6302 57.0473C87.7147 57.0251 87.7973 57.0029 87.8694 56.9736C88.8975 56.5316 90.1233 56.3712 91.7061 56.4114C91.6464 56.009 90.6574 55.5076 90.3417 55.2667C89.7079 54.8042 89.0369 54.3217 88.3646 53.9007C88.0084 53.6803 87.3945 53.5194 86.9998 53.3393C86.4658 53.1183 85.2789 52.8974 84.983 52.4765C84.4803 51.813 84.1192 51.0215 83.7686 50.2221L83.6732 50.0039C83.6414 49.9312 83.6095 49.8585 83.5775 49.7859C83.1632 48.8231 82.6484 47.8194 82.2331 46.8337C82.016 46.3528 81.9162 45.9307 81.6784 45.4695C80.2353 42.6393 78.0993 40.2698 75.5096 38.6033C74.6586 38.0611 73.7096 37.5593 72.6621 37.2183C72.0685 37.0367 71.356 37.1371 70.7235 36.9979H70.3072C69.9519 36.8965 69.6553 36.5152 69.3781 36.3141C68.7659 35.8932 68.1526 35.6106 67.4205 35.3102C67.1639 35.1898 66.4313 34.9092 66.1756 35.1301C66.0172 35.1704 65.9369 35.2309 65.898 35.3918C65.7405 35.6319 65.879 35.9936 65.977 36.215C66.2741 36.8566 66.689 37.2379 67.0656 37.7802C67.4006 38.261 67.8168 38.8033 68.0543 39.3261C68.5669 40.45 68.8055 41.6953 69.2805 42.819C69.4566 43.2416 69.7352 43.7225 69.9916 44.1037C70.2089 44.4063 70.604 44.625 70.7235 45.008C70.9617 45.4096 70.3668 46.7345 70.2291 47.1553C69.714 48.8018 69.8138 51.0905 70.407 52.5177L70.4387 52.5929L70.4703 52.6692C70.6869 53.1919 70.9187 53.7547 71.4946 53.9009C71.5343 53.861 71.4946 53.8819 71.5733 53.861C71.7126 52.7563 71.7519 51.6925 72.128 50.8282C72.3453 50.2878 72.7792 49.9058 73.0766 49.4646C73.2749 49.5848 73.2749 49.9472 73.3931 50.187C73.6504 50.809 73.9268 51.4909 74.2441 52.1147C74.8953 53.3994 75.628 54.6449 76.4583 55.7686C76.7363 56.1701 77.1308 56.6119 77.4867 56.9734C77.6452 57.1134 77.8227 57.1943 77.9418 57.3744H77.9806V57.4351C77.3874 57.2137 77.0113 56.5922 76.5381 56.2294C75.6473 55.5475 74.5805 54.5234 73.9665 53.5408C73.7096 52.9766 73.432 52.4359 73.1552 51.8746V51.834C73.037 51.9944 73.0766 52.1536 73.0174 52.3962C72.7606 53.3994 72.9583 54.5438 72.0685 54.9046C71.0598 55.3272 70.3073 54.2227 69.9916 53.7208C68.9826 52.0548 68.7062 49.2442 69.4178 46.9755C69.5758 46.4732 69.5973 45.8709 69.8733 45.4699C69.8137 45.1074 69.5377 45.0083 69.3781 44.7862C69.1013 44.4065 68.8643 43.9643 68.6476 43.5427C68.2313 42.7191 67.9351 41.735 67.619 40.8517C67.4801 40.491 67.4403 40.1289 67.3018 39.7875C67.0655 39.2663 66.6299 38.7435 66.2939 38.2824C65.8389 37.6197 64.5138 36.3353 65.0479 35.0296ZM71.5339 38.9629C71.5867 39.0165 71.6505 39.0634 71.7165 39.1096L71.7961 39.1649C71.9022 39.2394 72.005 39.3177 72.0679 39.4244C72.1678 39.5657 72.1863 39.7051 72.3059 39.8466C72.3059 40.3292 72.1678 40.65 71.8889 40.8499C71.8889 40.8499 71.8699 40.871 71.8503 40.8906C71.6922 40.569 71.5537 40.249 71.3945 39.9276C71.1984 39.6471 70.9212 39.4245 70.7615 39.104H70.7231V39.0637C70.9617 39.004 71.1984 38.9629 71.5339 38.9629Z" fill="#00758F"/>
</g>
<defs>
<filter id="filter0_d_103_897" x="0" y="0" width="120" height="120" filterUnits="userSpaceOnUse" color-interpolation-filters="sRGB">
<feFlood flood-opacity="0" result="BackgroundImageFix"/>
<feColorMatrix in="SourceAlpha" type="matrix" values="0 0 0 0 0 0 0 0 0 0 0 0 0 0 0 0 0 0 127 0" result="hardAlpha"/>
<feOffset dx="1" dy="1"/>
<feGaussianBlur stdDeviation="5"/>
<feComposite in2="hardAlpha" operator="out"/>
<feColorMatrix type="matrix" values="0 0 0 0 0 0 0 0 0 0.407843 0 0 0 0 0.717647 0 0 0 0.1 0"/>
<feBlend mode="normal" in2="BackgroundImageFix" result="effect1_dropShadow_103_897"/>
<feBlend mode="normal" in="SourceGraphic" in2="effect1_dropShadow_103_897" result="shape"/>
</filter>
<clipPath id="clip0_103_897">
<rect width="71" height="49" fill="white" transform="translate(23 34)"/>
</clipPath>
</defs>
</svg>
