<svg width="84" height="84" viewBox="0 0 84 84" fill="none" xmlns="http://www.w3.org/2000/svg">
<g opacity="0.5">
<circle cx="42" cy="42" r="41" transform="matrix(-1 0 0 1 84 0)" stroke="#0068B7" stroke-width="2"/>
<path d="M22.6667 42C22.6667 42.6847 22.8987 43.2591 23.3627 43.7231C23.8267 44.1871 24.4002 44.4183 25.0833 44.4167L52.0896 44.4167L40.3083 56.1979C39.825 56.6813 39.5833 57.2556 39.5833 57.921C39.5833 58.5864 39.825 59.1599 40.3083 59.6417C40.7917 60.125 41.3556 60.3667 42 60.3667C42.6444 60.3667 43.2083 60.125 43.6917 59.6417L59.6417 43.6917C59.8833 43.45 60.0541 43.1882 60.154 42.9063C60.2539 42.6243 60.3046 42.3222 60.3062 42C60.3062 41.6778 60.2555 41.3652 60.154 41.0623C60.0525 40.7594 59.8817 40.5081 59.6417 40.3083L43.6917 24.3583C43.2083 23.875 42.6444 23.6333 42 23.6333C41.3556 23.6333 40.7917 23.875 40.3083 24.3583C39.825 24.8417 39.5833 25.416 39.5833 26.0814C39.5833 26.7468 39.825 27.3204 40.3083 27.8021L52.0896 39.5833L25.0833 39.5833C24.3986 39.5833 23.8243 39.8153 23.3602 40.2793C22.8962 40.7433 22.6651 41.3169 22.6667 42Z" fill="#0068B7"/>
</g>
</svg>
