<svg width="120" height="120" viewBox="0 0 120 120" fill="none" xmlns="http://www.w3.org/2000/svg">
<g filter="url(#filter0_d_98_1547)">
<rect x="9" y="9" width="100" height="100" rx="16" fill="white"/>
</g>
<g clip-path="url(#clip0_98_1547)">
<path d="M58.5 82.909C57.8323 82.909 57.2092 82.7293 56.6305 82.4148L50.7101 78.8651C49.8199 78.3709 50.265 78.1911 50.5321 78.1013C51.7339 77.6969 51.9564 77.607 53.2028 76.888C53.3365 76.7981 53.5145 76.843 53.6479 76.9329L58.1884 79.6738C58.3665 79.7637 58.589 79.7637 58.7226 79.6738L76.4836 69.2945C76.6616 69.2046 76.7506 69.0249 76.7506 68.8003V48.0861C76.7506 47.8615 76.6616 47.6818 76.4836 47.5919L58.7226 37.2573C58.5445 37.1675 58.322 37.1675 58.1884 37.2573L40.4274 47.5921C40.2494 47.6819 40.1603 47.9066 40.1603 48.0863V68.8003C40.1603 68.98 40.2494 69.2046 40.4274 69.2945L45.2795 72.1251C47.9059 73.4731 49.5526 71.9005 49.5526 70.3279V49.8834C49.5526 49.6138 49.7754 49.3442 50.0869 49.3442H52.3572C52.6243 49.3442 52.8914 49.5689 52.8914 49.8834V70.3277C52.8914 73.8774 50.9772 75.9443 47.6386 75.9443C46.6149 75.9443 45.8137 75.9443 43.5436 74.821L38.8695 72.1251C37.7122 71.451 37 70.1929 37 68.845V48.1312C37 46.7833 37.7122 45.5253 38.8695 44.8511L56.6305 34.4718C57.7433 33.8427 59.2567 33.8427 60.3695 34.4718L78.1305 44.8511C79.2878 45.5251 80 46.7831 80 48.1312V68.8452C80 70.1931 79.2878 71.4512 78.1305 72.1251L60.3695 82.5048C59.7908 82.7744 59.1232 82.9092 58.5 82.9092V82.909ZM63.9751 68.6653C56.1852 68.6653 54.5828 65.0708 54.5828 62.0154C54.5828 61.7458 54.8054 61.4762 55.1169 61.4762H57.4316C57.6986 61.4762 57.9213 61.6559 57.9213 61.9255C58.2774 64.3068 59.3012 65.4752 64.0196 65.4752C67.7588 65.4752 69.3614 64.6215 69.3614 62.5996C69.3614 61.4313 68.9162 60.5776 63.0849 59.9933C58.2329 59.4991 55.206 58.4207 55.206 54.5118C55.206 50.872 58.2328 48.7153 63.3074 48.7153C69.0051 48.7153 71.8095 50.6923 72.1656 55.0058C72.1656 55.1406 72.1211 55.2754 72.0321 55.4102C71.943 55.5001 71.8095 55.5899 71.676 55.5899H69.3614C69.1386 55.5899 68.9162 55.4102 68.8716 55.1855C68.3374 52.7144 66.9576 51.9056 63.3074 51.9056C59.2124 51.9056 58.7226 53.3434 58.7226 54.4217C58.7226 55.7249 59.3012 56.1291 64.8208 56.848C70.2961 57.5669 72.8778 58.6005 72.8778 62.4647C72.8333 66.4188 69.6284 68.6653 63.9751 68.6653Z" fill="#539E43"/>
</g>
<defs>
<filter id="filter0_d_98_1547" x="0" y="0" width="120" height="120" filterUnits="userSpaceOnUse" color-interpolation-filters="sRGB">
<feFlood flood-opacity="0" result="BackgroundImageFix"/>
<feColorMatrix in="SourceAlpha" type="matrix" values="0 0 0 0 0 0 0 0 0 0 0 0 0 0 0 0 0 0 127 0" result="hardAlpha"/>
<feOffset dx="1" dy="1"/>
<feGaussianBlur stdDeviation="5"/>
<feComposite in2="hardAlpha" operator="out"/>
<feColorMatrix type="matrix" values="0 0 0 0 0 0 0 0 0 0.407843 0 0 0 0 0.717647 0 0 0 0.1 0"/>
<feBlend mode="normal" in2="BackgroundImageFix" result="effect1_dropShadow_98_1547"/>
<feBlend mode="normal" in="SourceGraphic" in2="effect1_dropShadow_98_1547" result="shape"/>
</filter>
<clipPath id="clip0_98_1547">
<rect width="43" height="49" fill="white" transform="translate(37 34)"/>
</clipPath>
</defs>
</svg>
