<svg width="120" height="120" viewBox="0 0 120 120" fill="none" xmlns="http://www.w3.org/2000/svg">
<g filter="url(#filter0_d_103_893)">
<rect x="9" y="9" width="100" height="100" rx="16" fill="white"/>
</g>
<g clip-path="url(#clip0_103_893)">
<path d="M54.3561 59.8168H58.8494L56.4735 55.9507L52.1129 62.9408H50.1284L55.4323 54.5442C55.6628 54.205 56.0472 54 56.4735 54C56.8858 54 57.2701 54.1979 57.4938 54.5301L62.8186 62.9408H60.8341L59.8978 61.3788H55.3486L54.3562 59.8168H54.3561ZM74.9708 61.3787V54.0848H73.2868V62.0926C73.2868 62.3117 73.3706 62.5238 73.5313 62.6863C73.692 62.8489 73.9086 62.9408 74.1462 62.9408H81.8261L82.8185 61.3788H74.9707L74.9708 61.3787ZM47.1094 60.0711C48.7447 60.0711 50.0725 58.7353 50.0725 57.0815C50.0725 55.4275 48.7447 54.0846 47.1094 54.0846H39.7419V62.9409H41.4255V55.6469H46.9977C47.7804 55.6469 48.4093 56.2902 48.4093 57.0818C48.4093 57.8732 47.7804 58.5164 46.9977 58.5164L42.2501 58.5094L47.2772 62.9409H49.723L46.3408 60.0714H47.1096L47.1094 60.0711ZM29.3788 62.9408C26.9616 62.9409 25 60.9618 25 58.5164C25 56.0708 26.9616 54.0849 29.3788 54.0849H34.4682C36.8859 54.0849 38.8461 56.0708 38.8461 58.5164C38.8461 60.9618 36.8859 62.9408 34.4681 62.9408H29.3788ZM34.355 61.3788C35.921 61.3788 37.1894 60.0994 37.1894 58.5163C37.1894 56.9332 35.921 55.6469 34.355 55.6469H29.4915C27.926 55.6469 26.657 56.9332 26.657 58.5164C26.657 60.0994 27.926 61.3788 29.4913 61.3788H34.3549H34.355ZM66.3336 62.9408C63.9159 62.9408 61.9522 60.9618 61.9522 58.5164C61.9522 56.0708 63.9159 54.0849 66.3336 54.0849H72.3785L71.393 55.6469H66.4455C64.8801 55.6469 63.6083 56.9332 63.6083 58.5164C63.6083 60.0994 64.8801 61.3788 66.4455 61.3788H72.5181L71.5257 62.9408H66.3336ZM86.9275 61.3788C85.6348 61.3788 84.5376 60.5024 84.2022 59.2937H91.3999L92.3921 57.7318H84.2022C84.5376 56.5302 85.6348 55.6469 86.9275 55.6469H91.8682L92.8672 54.0846H86.8156C84.3977 54.0846 82.4341 56.0707 82.4341 58.5161C82.4341 60.9617 84.3977 62.9406 86.8156 62.9406H92.0078L93 61.3788H86.9274H86.9275Z" fill="#EA1B22"/>
</g>
<defs>
<filter id="filter0_d_103_893" x="0" y="0" width="120" height="120" filterUnits="userSpaceOnUse" color-interpolation-filters="sRGB">
<feFlood flood-opacity="0" result="BackgroundImageFix"/>
<feColorMatrix in="SourceAlpha" type="matrix" values="0 0 0 0 0 0 0 0 0 0 0 0 0 0 0 0 0 0 127 0" result="hardAlpha"/>
<feOffset dx="1" dy="1"/>
<feGaussianBlur stdDeviation="5"/>
<feComposite in2="hardAlpha" operator="out"/>
<feColorMatrix type="matrix" values="0 0 0 0 0 0 0 0 0 0.407843 0 0 0 0 0.717647 0 0 0 0.1 0"/>
<feBlend mode="normal" in2="BackgroundImageFix" result="effect1_dropShadow_103_893"/>
<feBlend mode="normal" in="SourceGraphic" in2="effect1_dropShadow_103_893" result="shape"/>
</filter>
<clipPath id="clip0_103_893">
<rect width="68" height="9" fill="white" transform="translate(25 54)"/>
</clipPath>
</defs>
</svg>
