<svg width="120" height="120" viewBox="0 0 120 120" fill="none" xmlns="http://www.w3.org/2000/svg">
<g filter="url(#filter0_d_103_876)">
<rect x="9" y="9" width="100" height="100" rx="16" fill="white"/>
</g>
<g clip-path="url(#clip0_103_876)">
<path d="M82.8139 63.3415C82.5261 62.4786 81.7722 61.8776 80.7972 61.7334C80.3374 61.6654 79.8109 61.6944 79.1879 61.8215C78.1019 62.0433 77.2962 62.1278 76.7082 62.1441C78.9276 58.4348 80.7323 54.2048 81.7712 50.223C83.4512 43.7845 82.5535 40.8514 81.5044 39.5247C78.7281 36.013 74.6776 34.1265 69.7909 34.0688C67.1841 34.0372 64.8957 34.5467 63.7019 34.9131C62.5904 34.719 61.3952 34.6106 60.1412 34.5905C57.7906 34.5534 55.7136 35.0607 53.9389 36.1032C52.9564 35.7743 51.3796 35.3107 49.5586 35.0148C45.2757 34.3188 41.8238 34.8611 39.2989 36.6268C36.2416 38.7646 34.8242 42.479 35.0864 47.6667C35.1696 49.3137 36.1004 54.3251 37.5659 59.0777C38.4081 61.8095 39.3062 64.0779 40.2353 65.8208C41.5529 68.2921 42.9627 69.7475 44.5454 70.2701C45.4324 70.5626 47.0442 70.7676 48.7394 69.3699C48.9542 69.6276 49.2409 69.8835 49.6214 70.1213C50.1046 70.4229 50.6954 70.6694 51.2854 70.8154C53.4119 71.3416 55.4037 71.21 57.103 70.4724C57.1135 70.7716 57.1216 71.0575 57.1283 71.3043C57.1396 71.7047 57.1508 72.0972 57.1656 72.4644C57.2663 74.9467 57.4369 76.8768 57.9424 78.2272C57.9702 78.3015 58.0075 78.4147 58.0469 78.5348C58.2991 79.2991 58.7207 80.5787 59.7936 81.5808C60.9046 82.6189 62.2484 82.9372 63.4791 82.9372C64.0964 82.9372 64.6853 82.857 65.2019 82.7475C67.0431 82.3568 69.1343 81.7617 70.6471 79.6295C72.0773 77.6138 72.7726 74.5779 72.8984 69.7942C72.9147 69.6589 72.9297 69.5297 72.9441 69.4067L72.9741 69.1539L73.3111 69.1832L73.3979 69.189C75.2732 69.2736 77.5664 68.8799 78.9747 68.2324C80.0875 67.7212 83.6536 65.8575 82.8139 63.3415Z" fill="black"/>
<path d="M79.6074 63.831C74.0312 64.9697 73.6477 63.1008 73.6477 63.1008C79.5352 54.4529 81.9965 43.4756 79.8727 40.7889C74.0782 33.4603 64.0479 36.9263 63.8805 37.0161L63.8267 37.0258C62.7249 36.7993 61.4921 36.6646 60.1063 36.6421C57.5833 36.6013 55.6693 37.2969 54.2169 38.3872C54.2169 38.3872 36.3238 31.0903 37.1561 47.5643C37.3331 51.0689 42.2306 74.0824 48.072 67.1313C50.207 64.5894 52.2701 62.4403 52.2701 62.4403C53.2946 63.114 54.5212 63.4577 55.8071 63.3343L55.907 63.2504C55.8759 63.566 55.8902 63.8746 55.947 64.2401C54.4421 65.9044 54.8844 66.1965 51.8762 66.8096C48.8321 67.4306 50.6203 68.5361 51.7878 68.8253C53.2033 69.1755 56.4778 69.6718 58.6903 66.6058L58.6022 66.9557C59.1917 67.4232 59.6057 69.9965 59.5363 72.3293C59.4669 74.662 59.4206 76.2636 59.885 77.5146C60.3498 78.7656 60.8128 81.5803 64.7675 80.7416C68.0718 80.0405 69.7843 78.224 70.0226 75.1938C70.1915 73.0397 70.5742 73.3582 70.5982 71.4321L70.9052 70.5204C71.259 67.6003 70.9614 66.6582 72.9971 67.0964L73.4921 67.1394C74.9902 67.2068 76.9515 66.9007 78.1025 66.3712C80.5809 65.2327 82.0509 63.3315 79.607 63.831H79.6074Z" fill="#336791"/>
<path d="M55.2645 49.1312C54.762 49.062 54.3069 49.126 54.0767 49.2986C53.9473 49.3957 53.9072 49.5082 53.8963 49.5856C53.8674 49.7907 54.0126 50.0175 54.1018 50.1344C54.3542 50.4655 54.7228 50.6931 55.0877 50.7432C55.1406 50.7506 55.1933 50.754 55.2456 50.754C55.854 50.754 56.4073 50.2849 56.4561 49.9388C56.517 49.5052 55.8812 49.2162 55.2645 49.1314M71.9115 49.145C71.8635 48.8051 71.2526 48.7082 70.6729 48.788C70.0939 48.8678 69.5325 49.1266 69.5794 49.4672C69.6169 49.732 70.1001 50.1842 70.6719 50.1842C70.7203 50.1842 70.7691 50.181 70.8182 50.1741C71.1999 50.1218 71.4801 49.8818 71.6132 49.7435C71.8157 49.5327 71.9331 49.2977 71.9115 49.145Z" fill="white"/>
<path d="M81.4629 63.7017C81.2502 63.0652 80.5659 62.8605 79.4289 63.0929C76.0529 63.7826 74.8439 63.3048 74.447 63.0155C77.0711 59.0584 79.2297 54.2749 80.3943 49.812C80.9459 47.698 81.2506 45.7346 81.2756 44.1343C81.3031 42.3779 81.0009 41.0872 80.3776 40.2988C77.8647 37.1203 74.1766 35.4153 69.7122 35.3685C66.6431 35.3344 64.0499 36.1119 63.5472 36.3305C62.4886 36.0699 61.3346 35.9099 60.0781 35.8895C57.7741 35.8526 55.7825 36.3986 54.1336 37.5117C53.4174 37.2478 51.5664 36.6188 49.3027 36.2578C45.3892 35.6341 42.2793 36.1067 40.0601 37.663C37.412 39.5202 36.1895 42.8399 36.4263 47.5298C36.506 49.1076 37.4142 53.9616 38.8475 58.6101C40.7341 64.7284 42.785 68.192 44.9427 68.9046C45.1953 68.9879 45.4865 69.0462 45.8077 69.0462C46.5948 69.0462 47.5599 68.695 48.5639 67.5001C49.7886 66.0458 51.0554 64.6268 52.3629 63.2449C53.2111 63.6955 54.143 63.9472 55.0961 63.9725C55.0979 63.9971 55.1004 64.0218 55.1026 64.0463C54.9386 64.24 54.7779 64.4365 54.6207 64.6356C53.9604 65.4655 53.8229 65.6383 51.6972 66.0715C51.0926 66.1951 49.4866 66.5227 49.463 67.6371C49.4375 68.8546 51.3614 69.366 51.5806 69.4202C52.3445 69.6095 53.0804 69.7029 53.7822 69.7029C55.4891 69.7029 56.9911 69.1475 58.1915 68.0731C58.1546 72.4136 58.3374 76.6907 58.8639 77.9939C59.2951 79.0607 60.3485 81.668 63.6759 81.6678C64.1641 81.6678 64.7015 81.6115 65.2927 81.4861C68.7654 80.7492 70.2734 79.2298 70.8567 75.8802C71.1689 74.09 71.7046 69.8153 71.9566 67.5224C72.4884 67.6866 73.1729 67.7618 73.913 67.7616C75.4565 67.7616 77.2376 67.437 78.3545 66.9238C79.6092 66.3469 81.8735 64.9315 81.4629 63.7017ZM73.193 48.2073C73.1816 48.8842 73.0874 49.4987 72.9877 50.1402C72.8802 50.8301 72.7692 51.5433 72.7413 52.4092C72.7137 53.2519 72.8201 54.1279 72.9228 54.9752C73.1306 56.6865 73.3437 58.4483 72.5186 60.1867C72.3815 59.9462 72.2594 59.6977 72.1529 59.4426C72.0504 59.1964 71.8276 58.8011 71.5192 58.2539C70.3194 56.1239 67.5097 51.1359 68.948 49.1006C69.3764 48.4948 70.4637 47.8719 73.193 48.2073ZM69.8847 36.7392C73.8849 36.8266 77.0491 38.308 79.2894 41.1418C81.0076 43.3154 79.1156 53.2058 73.6381 61.7383C73.583 61.669 73.5277 61.5999 73.472 61.531L73.4026 61.4452C74.8181 59.1313 74.5413 56.8418 74.2949 54.8121C74.1937 53.9791 74.0981 53.1923 74.1224 52.4532C74.1476 51.6699 74.2522 50.998 74.3534 50.3484C74.4777 49.5479 74.6043 48.7195 74.5694 47.7431C74.5955 47.6406 74.606 47.5196 74.5923 47.3759C74.5032 46.4396 73.4232 43.6371 71.222 41.1006C70.0179 39.7132 68.2619 38.1606 65.8644 37.1134C66.8956 36.9018 68.3058 36.7045 69.8847 36.7392ZM47.5014 66.6255C46.3951 67.9422 45.6312 67.6898 45.38 67.607C43.7431 67.0665 41.8437 63.6417 40.1692 58.2109C38.7202 53.5117 37.8734 48.7864 37.8063 47.4613C37.5948 43.2707 38.621 40.3502 40.8566 38.7807C44.4948 36.2268 50.4764 37.7554 52.88 38.5307C52.8455 38.5645 52.8095 38.596 52.7754 38.6304C48.8311 42.5734 48.9247 49.3101 48.9344 49.722C48.9341 49.8809 48.9476 50.1058 48.9659 50.4152C49.0338 51.5484 49.1602 53.6572 48.8227 56.0454C48.5092 58.2647 49.2003 60.4368 50.7185 62.005C50.8743 62.1657 51.0381 62.3185 51.2092 62.4631C50.5334 63.1796 49.0647 64.7639 47.5014 66.6255ZM51.7162 61.0586C50.4926 59.7947 49.9368 58.0366 50.1912 56.2347C50.5475 53.712 50.4161 51.5148 50.3454 50.3343C50.3354 50.1691 50.3266 50.0243 50.3216 49.9102C50.8977 49.4044 53.5679 47.9882 55.4722 48.4202C56.3411 48.6171 56.8706 49.2029 57.0907 50.2103C58.2299 55.4264 57.2414 57.6004 56.4472 59.3475C56.2835 59.7074 56.1288 60.0476 55.9968 60.3995L55.8944 60.6716C55.6353 61.3595 55.3942 61.9991 55.2447 62.6064C53.9439 62.6027 52.6784 62.0525 51.7162 61.0584V61.0586ZM51.9159 68.0931C51.536 67.9992 51.1944 67.836 50.9939 67.7007C51.1614 67.6228 51.4593 67.5166 51.9761 67.4112C54.4767 66.9017 54.863 66.542 55.7064 65.482C55.8997 65.2388 56.1189 64.9634 56.4224 64.6278L56.4228 64.6275C56.8749 64.1263 57.0817 64.2113 57.4567 64.3654C57.7606 64.4897 58.0567 64.8669 58.1767 65.2819C58.2335 65.4779 58.2972 65.8499 58.0886 66.1394C56.3268 68.5812 53.7596 68.5499 51.9159 68.0931ZM65.0032 80.1486C61.9439 80.7975 60.8607 79.2523 60.1469 77.4859C59.6862 76.3455 59.4597 71.2031 59.6204 65.5241C59.6225 65.4486 59.6116 65.3756 59.5906 65.307C59.5718 65.1714 59.5433 65.0373 59.5051 64.9057C59.2662 64.0794 58.6841 63.3882 57.9856 63.1016C57.7081 62.9878 57.1989 62.779 56.5869 62.934C56.7174 62.4017 56.9437 61.8005 57.1891 61.1496L57.2921 60.8758C57.4079 60.5671 57.5534 60.2473 57.7072 59.9088C58.5384 58.0809 59.6767 55.5773 58.4412 49.9213C57.9785 47.8028 56.4331 46.7683 54.0905 47.0086C52.6861 47.1525 51.4012 47.7134 50.7603 48.035C50.6225 48.1041 50.4965 48.1709 50.3787 48.2358C50.5576 46.1014 51.2334 42.1123 53.7612 39.5885C55.3529 37.9997 57.4726 37.2149 60.0552 37.2572C65.144 37.3397 68.4072 39.9248 70.2489 42.0791C71.8359 43.9354 72.6952 45.8053 73.0381 46.8139C70.4591 46.5543 68.705 47.0582 67.8159 48.3166C65.8814 51.0539 68.8741 56.3667 70.3124 58.9201C70.5762 59.388 70.8039 59.7924 70.8755 59.9643C71.3439 61.088 71.9502 61.8382 72.3929 62.3857C72.5287 62.5535 72.6603 62.7163 72.7604 62.8584C71.9793 63.0814 70.5762 63.5964 70.7041 66.171C70.601 67.4628 69.8677 73.5109 69.4951 75.6478C69.0033 78.4709 67.9539 79.5223 65.0032 80.1488V80.1486ZM77.7727 65.6832C76.9739 66.0501 75.6372 66.3254 74.3675 66.3846C72.965 66.4496 72.251 66.2291 72.083 66.0934C72.0042 64.489 72.6074 64.3214 73.2459 64.144C73.3462 64.1161 73.4441 64.0888 73.5386 64.0562C73.5972 64.1035 73.6616 64.1505 73.7321 64.1965C74.8593 64.933 76.8699 65.0124 79.7084 64.4324L79.7396 64.4263C79.3567 64.7806 78.7016 65.2561 77.7727 65.6832Z" fill="white"/>
</g>
<defs>
<filter id="filter0_d_103_876" x="0" y="0" width="120" height="120" filterUnits="userSpaceOnUse" color-interpolation-filters="sRGB">
<feFlood flood-opacity="0" result="BackgroundImageFix"/>
<feColorMatrix in="SourceAlpha" type="matrix" values="0 0 0 0 0 0 0 0 0 0 0 0 0 0 0 0 0 0 127 0" result="hardAlpha"/>
<feOffset dx="1" dy="1"/>
<feGaussianBlur stdDeviation="5"/>
<feComposite in2="hardAlpha" operator="out"/>
<feColorMatrix type="matrix" values="0 0 0 0 0 0 0 0 0 0.407843 0 0 0 0 0.717647 0 0 0 0.1 0"/>
<feBlend mode="normal" in2="BackgroundImageFix" result="effect1_dropShadow_103_876"/>
<feBlend mode="normal" in="SourceGraphic" in2="effect1_dropShadow_103_876" result="shape"/>
</filter>
<clipPath id="clip0_103_876">
<rect width="48" height="49" fill="white" transform="translate(35 34)"/>
</clipPath>
</defs>
</svg>
