<svg width="29" height="29" viewBox="0 0 29 29" fill="none" xmlns="http://www.w3.org/2000/svg">
<path d="M15.7049 0.423828V2.35227C17.6123 2.35227 19.3992 2.83437 21.0657 3.79859C22.6518 4.74272 23.9167 6.00826 24.8603 7.5952C25.8241 9.2625 26.3059 11.0503 26.3059 12.9587H28.2334C28.2334 10.6887 27.6612 8.57951 26.5168 6.63098C25.4125 4.74272 23.9167 3.24618 22.0294 2.14134C20.0819 0.996333 17.9737 0.423828 15.7049 0.423828ZM5.73636 3.31648C5.19426 3.31648 4.72243 3.48723 4.32088 3.82872L1.21888 6.99257L1.30923 6.9323C0.807285 7.35415 0.476004 7.87643 0.315382 8.49916C0.174839 9.12188 0.214994 9.72452 0.435848 10.3071C0.998023 11.8739 1.75094 13.481 2.69459 15.1282C4.01971 17.3981 5.59581 19.437 7.42288 21.2449C10.3542 24.1978 13.9983 26.528 18.3552 28.2355H18.3853C18.9675 28.4364 19.5498 28.4766 20.1321 28.356C20.7344 28.2355 21.2664 27.9744 21.7282 27.5726L24.77 24.5293C25.1716 24.1275 25.3723 23.6354 25.3723 23.0528C25.3723 22.4502 25.1716 21.948 24.77 21.5462L20.8247 17.5688C20.4232 17.1671 19.9212 16.9662 19.3189 16.9662C18.7166 16.9662 18.2146 17.1671 17.8131 17.5688L15.9157 19.4973C14.3898 18.7741 13.0647 17.8802 11.9404 16.8155C10.816 15.7308 9.92255 14.415 9.25999 12.8683L11.1874 10.9398C11.6091 10.4979 11.8199 9.97562 11.8199 9.37298C11.8199 8.75026 11.579 8.24806 11.0971 7.86639L11.1874 7.95678L7.15183 3.82872C6.75028 3.48723 6.27845 3.31648 5.73636 3.31648ZM15.7049 4.2807V6.20914C16.9297 6.20914 18.054 6.51046 19.078 7.11309C20.122 7.71573 20.9452 8.53933 21.5475 9.5839C22.1499 10.6084 22.451 11.7333 22.451 12.9587H24.3785C24.3785 11.3918 23.987 9.93544 23.2039 8.58955C22.4209 7.28384 21.3769 6.23927 20.0718 5.45584C18.7266 4.67242 17.271 4.2807 15.7049 4.2807ZM5.73636 5.24492C5.79659 5.24492 5.86686 5.27505 5.94717 5.33532L9.89244 9.37298C9.91251 9.45333 9.89244 9.52364 9.8322 9.5839L6.97113 12.4163L7.18195 13.0189L7.57346 13.8626C7.89471 14.5456 8.26614 15.2085 8.68778 15.8513C9.27003 16.7553 9.91251 17.5287 10.6152 18.1715C11.5589 19.0955 12.6933 19.9392 14.0184 20.7025C14.681 21.0842 15.2431 21.3654 15.7049 21.5462L16.3073 21.8174L19.2286 18.8946C19.2687 18.8545 19.2988 18.8344 19.3189 18.8344C19.339 18.8344 19.3691 18.8545 19.4093 18.8946L23.475 22.9624C23.5151 23.0026 23.5352 23.0327 23.5352 23.0528C23.5352 23.0528 23.5151 23.0729 23.475 23.1131L20.4633 26.0961C20.0216 26.4778 19.5398 26.5783 19.0177 26.3975C14.9219 24.8105 11.5087 22.641 8.77812 19.889C7.0916 18.2016 5.61589 16.2832 4.351 14.1338C3.4475 12.587 2.74478 11.0905 2.24284 9.64417V9.61404C2.16253 9.43324 2.15249 9.22232 2.21272 8.98127C2.27296 8.72012 2.38338 8.51925 2.544 8.37863L5.52554 5.33532C5.58577 5.27505 5.65605 5.24492 5.73636 5.24492ZM15.7049 8.13758V10.066C16.508 10.066 17.1907 10.3472 17.7528 10.9097C18.315 11.4722 18.5961 12.1552 18.5961 12.9587H20.5236C20.5236 12.0949 20.3027 11.2914 19.861 10.5481C19.4394 9.80487 18.8571 9.22232 18.1142 8.80048C17.3714 8.35854 16.5683 8.13758 15.7049 8.13758Z" fill="#EF5423"/>
</svg>
