<svg width="120" height="120" viewBox="0 0 120 120" fill="none" xmlns="http://www.w3.org/2000/svg">
<g filter="url(#filter0_d_98_1532)">
<rect x="9" y="9" width="100" height="100" rx="16" fill="white"/>
</g>
<g clip-path="url(#clip0_98_1532)">
<path d="M59 77.8844C79.4345 77.8844 96 69.1799 96 58.4422C96 47.7046 79.4345 39 59 39C38.5655 39 22 47.7046 22 58.4422C22 69.1799 38.5655 77.8844 59 77.8844Z" fill="url(#paint0_radial_98_1532)"/>
<path d="M59 76.4399C78.6363 76.4399 94.5547 68.382 94.5547 58.4421C94.5547 48.5022 78.6363 40.4443 59 40.4443C39.3637 40.4443 23.4453 48.5022 23.4453 58.4421C23.4453 68.382 39.3637 76.4399 59 76.4399Z" fill="#6181B6"/>
<path d="M66.1973 64.2773L67.9606 55.2062C68.3653 53.1551 68.0184 51.624 66.9778 50.6707C65.9661 49.7462 64.2317 49.284 61.688 49.284H58.6239L59.4911 44.7773C59.52 44.604 59.4911 44.4307 59.3755 44.2862C59.2598 44.1418 59.1153 44.084 58.9419 44.084H54.7216C54.4325 44.084 54.2012 44.2862 54.1434 44.5462L52.2645 54.1662C52.0911 53.0684 51.6864 52.144 50.9927 51.3929C49.7497 49.9773 47.813 49.2551 45.1825 49.2551H37.0598C36.7708 49.2551 36.5395 49.4573 36.4817 49.7173L32.695 69.2462C32.6661 69.4195 32.695 69.5929 32.8106 69.7373C32.9262 69.8818 33.0708 69.9395 33.2442 69.9395H37.4934C37.7825 69.9395 38.0137 69.7373 38.0716 69.4773L38.9966 64.7684H42.1473C43.795 64.7684 45.2114 64.5951 46.2809 64.2484C47.4083 63.8729 48.42 63.2662 49.3161 62.4284C50.0387 61.764 50.6458 61.0129 51.1083 60.204L50.3567 64.104C50.3278 64.2773 50.3567 64.4507 50.4723 64.5951C50.588 64.7395 50.7325 64.7973 50.9059 64.7973H55.1262C55.4153 64.7973 55.6466 64.5951 55.7044 64.3351L57.7856 53.6462H60.6762C61.9192 53.6462 62.2661 53.8773 62.3817 53.9929C62.4684 54.0795 62.6419 54.4262 62.4395 55.4951L60.763 64.1329C60.7341 64.3062 60.763 64.4795 60.8786 64.624C60.9942 64.7684 61.1387 64.8262 61.3122 64.8262H65.6481C65.9083 64.7395 66.1395 64.5373 66.1973 64.2773ZM46.6567 56.7662C46.3966 58.124 45.9052 59.1062 45.1825 59.6551C44.4598 60.204 43.2747 60.4929 41.7137 60.4929H39.8348L41.1934 53.5018H43.6216C45.4137 53.5018 46.1364 53.8773 46.4255 54.1951C46.8012 54.6573 46.888 55.5529 46.6567 56.7662ZM84.2348 51.3929C82.9919 49.9773 81.0552 49.2551 78.4247 49.2551H70.2442C69.9552 49.2551 69.7239 49.4573 69.6661 49.7173L65.8794 69.2173C65.8505 69.3907 65.8794 69.564 65.995 69.7084C66.1106 69.8529 66.2551 69.9107 66.4286 69.9107H70.6778C70.9669 69.9107 71.1981 69.7084 71.2559 69.4484L72.1809 64.7395H75.3317C76.9794 64.7395 78.3958 64.5662 79.4653 64.2195C80.5927 63.844 81.6044 63.2373 82.5005 62.3995C83.252 61.7062 83.888 60.9262 84.3505 60.0884C84.813 59.2507 85.1598 58.3262 85.3622 57.3151C85.8536 54.8018 85.4778 52.8373 84.2348 51.3929ZM79.8122 56.7662C79.552 58.124 79.0606 59.1062 78.338 59.6551C77.6153 60.204 76.4302 60.4929 74.8692 60.4929H72.9903L74.3489 53.5018H76.777C78.5692 53.5018 79.2919 53.8773 79.5809 54.1951C79.9856 54.6573 80.0723 55.5529 79.8122 56.7662Z" fill="white"/>
<path d="M43.6219 52.9243C45.2406 52.9243 46.3102 53.2132 46.8594 53.8199C47.4086 54.4266 47.5242 55.4377 47.2352 56.8821C46.9461 58.3843 46.368 59.4821 45.5297 60.1177C44.6914 60.7532 43.4195 61.071 41.7141 61.071H39.1414L40.7313 52.9243H43.6219ZM33.2734 69.3332H37.5227L38.5344 64.1621H42.1766C43.7953 64.1621 45.0961 63.9888 46.1367 63.6421C47.1773 63.2954 48.1023 62.7466 48.9695 61.9377C49.6922 61.2732 50.2703 60.551 50.7039 59.771C51.1375 58.991 51.4555 58.1243 51.6289 57.171C52.0914 54.8599 51.7445 53.0688 50.6172 51.7688C49.4898 50.4688 47.6977 49.8332 45.2406 49.8332H37.0602L33.2734 69.3332ZM54.7508 44.6621H58.9711L57.9594 49.8332H61.7172C64.0875 49.8332 65.7062 50.2377 66.6023 51.0754C67.4984 51.9132 67.7586 53.2421 67.4117 55.091L65.6484 64.1621H61.3703L63.0469 55.5243C63.2492 54.5421 63.1625 53.8777 62.8445 53.531C62.5266 53.1843 61.8039 52.9821 60.7344 52.9821H57.3523L55.1844 64.1621H50.9641L54.7508 44.6621ZM76.7773 52.9243C78.3961 52.9243 79.4656 53.2132 80.0148 53.8199C80.5641 54.4266 80.6797 55.4377 80.3906 56.8821C80.1016 58.3843 79.5234 59.4821 78.6852 60.1177C77.8469 60.7532 76.575 61.071 74.8695 61.071H72.2969L73.8867 52.9243H76.7773ZM66.4289 69.3332H70.6781L71.6898 64.1621H75.332C76.9508 64.1621 78.2516 63.9888 79.2922 63.6421C80.3328 63.2954 81.2578 62.7466 82.125 61.9377C82.8477 61.2732 83.4258 60.551 83.8594 59.771C84.293 58.991 84.6109 58.1243 84.7844 57.171C85.2469 54.8599 84.9 53.0688 83.7727 51.7688C82.6453 50.4688 80.8531 49.8332 78.3961 49.8332H70.2156L66.4289 69.3332Z" fill="#000004"/>
</g>
<defs>
<filter id="filter0_d_98_1532" x="0" y="0" width="120" height="120" filterUnits="userSpaceOnUse" color-interpolation-filters="sRGB">
<feFlood flood-opacity="0" result="BackgroundImageFix"/>
<feColorMatrix in="SourceAlpha" type="matrix" values="0 0 0 0 0 0 0 0 0 0 0 0 0 0 0 0 0 0 127 0" result="hardAlpha"/>
<feOffset dx="1" dy="1"/>
<feGaussianBlur stdDeviation="5"/>
<feComposite in2="hardAlpha" operator="out"/>
<feColorMatrix type="matrix" values="0 0 0 0 0 0 0 0 0 0.407843 0 0 0 0 0.717647 0 0 0 0.1 0"/>
<feBlend mode="normal" in2="BackgroundImageFix" result="effect1_dropShadow_98_1532"/>
<feBlend mode="normal" in="SourceGraphic" in2="effect1_dropShadow_98_1532" result="shape"/>
</filter>
<radialGradient id="paint0_radial_98_1532" cx="0" cy="0" r="1" gradientUnits="userSpaceOnUse" gradientTransform="translate(44.2149 45.8373) scale(48.5901 48.5609)">
<stop stop-color="white"/>
<stop offset="0.5" stop-color="#4C6B97"/>
<stop offset="1" stop-color="#231F20"/>
</radialGradient>
<clipPath id="clip0_98_1532">
<rect width="74" height="39" fill="white" transform="translate(22 39)"/>
</clipPath>
</defs>
</svg>
