<svg width="84" height="84" viewBox="0 0 84 84" fill="none" xmlns="http://www.w3.org/2000/svg">
<g opacity="0.5">
<circle cx="42" cy="42" r="41" stroke="#0068B7" stroke-width="2"/>
<path d="M61.3333 42C61.3333 42.6847 61.1013 43.2591 60.6373 43.7231C60.1733 44.1871 59.5997 44.4183 58.9166 44.4167L31.9104 44.4167L43.6916 56.1979C44.175 56.6813 44.4166 57.2556 44.4166 57.921C44.4166 58.5864 44.175 59.1599 43.6916 59.6417C43.2083 60.125 42.6444 60.3667 42 60.3667C41.3555 60.3667 40.7916 60.125 40.3083 59.6417L24.3583 43.6917C24.1166 43.45 23.9459 43.1882 23.846 42.9063C23.7461 42.6243 23.6953 42.3222 23.6937 42C23.6937 41.6778 23.7445 41.3652 23.846 41.0623C23.9475 40.7594 24.1183 40.5081 24.3583 40.3083L40.3083 24.3583C40.7916 23.875 41.3555 23.6333 42 23.6333C42.6444 23.6333 43.2083 23.875 43.6916 24.3583C44.175 24.8417 44.4166 25.416 44.4166 26.0814C44.4166 26.7468 44.175 27.3204 43.6916 27.8021L31.9104 39.5833L58.9166 39.5833C59.6014 39.5833 60.1757 39.8153 60.6397 40.2793C61.1037 40.7433 61.3349 41.3169 61.3333 42Z" fill="#0068B7"/>
</g>
</svg>
