<svg width="64" height="64" viewBox="0 0 64 64" fill="none" xmlns="http://www.w3.org/2000/svg">
<path d="M45.018 25.3784L33.018 18.2784C32.7098 18.0958 32.358 17.9996 31.9997 18C31.6414 18.0004 31.2899 18.0972 30.982 18.2804L18.982 25.3804C18.6828 25.5569 18.4348 25.8084 18.2626 26.11C18.0904 26.4117 17.9999 26.7531 18 27.1004V40.9004C18 41.6084 18.374 42.2624 18.982 42.6204L30.982 49.7204C31.2895 49.905 31.6414 50.0025 32 50.0025C32.3586 50.0025 32.7105 49.905 33.018 49.7204L45.018 42.6204C45.3172 42.444 45.5652 42.1925 45.7374 41.8908C45.9096 41.5892 46.0001 41.2478 46 40.9004V27.1004C46.0001 26.7528 45.9096 26.4112 45.7374 26.1092C45.5652 25.8072 45.3172 25.5554 45.018 25.3784ZM42 39.7604L32 45.6764L22 39.7604V28.2404L32 22.3244L42 28.2404V39.7604Z" fill="#0068B7"/>
<path d="M12 40.368V22.14L24.4 14.812L22.366 11.368L8.982 19.278C8.68278 19.4549 8.43485 19.7068 8.26264 20.0088C8.09044 20.3107 7.99992 20.6524 8 21V40.368C6.83354 40.7792 5.82288 41.5412 5.10672 42.5496C4.39055 43.5579 4.00396 44.7632 4 46C4 49.308 6.692 52 10 52C13.308 52 16 49.308 16 46C15.996 44.7632 15.6094 43.5579 14.8933 42.5496C14.1771 41.5412 13.1665 40.7792 12 40.368ZM10 48C9.48504 47.977 8.99881 47.7562 8.64255 47.3836C8.28629 47.0111 8.08747 46.5155 8.08747 46C8.08747 45.4845 8.28629 44.9889 8.64255 44.6164C8.99881 44.2438 9.48504 44.023 10 44C10.515 44.023 11.0012 44.2438 11.3574 44.6164C11.7137 44.9889 11.9125 45.4845 11.9125 46C11.9125 46.5155 11.7137 47.0111 11.3574 47.3836C11.0012 47.7562 10.515 47.977 10 48ZM54 40C50.692 40 48 42.692 48 46C48 46.706 48.144 47.374 48.37 48.004L32 57.676L19.192 50.108L17.158 53.552L30.982 61.72C31.2899 61.9032 31.6414 62.0001 31.9997 62.0004C32.358 62.0008 32.7098 61.9046 33.018 61.722L50.938 51.132C51.838 51.67 52.878 52 54 52C57.308 52 60 49.308 60 46C60 42.692 57.308 40 54 40ZM54 48C53.485 47.977 52.9988 47.7562 52.6426 47.3836C52.2863 47.0111 52.0875 46.5155 52.0875 46C52.0875 45.4845 52.2863 44.9889 52.6426 44.6164C52.9988 44.2438 53.485 44.023 54 44C54.515 44.023 55.0012 44.2438 55.3574 44.6164C55.7137 44.9889 55.9125 45.4845 55.9125 46C55.9125 46.5155 55.7137 47.0111 55.3574 47.3836C55.0012 47.7562 54.515 47.977 54 48ZM32 14C33.462 14 34.784 13.454 35.826 12.584L52 22.142V36H56V21C56.0001 20.6524 55.9096 20.3107 55.7374 20.0088C55.5652 19.7068 55.3172 19.4549 55.018 19.278L37.884 9.154C37.956 8.78 38 8.396 38 8C38 4.692 35.308 2 32 2C28.692 2 26 4.692 26 8C26 11.308 28.692 14 32 14ZM32 6C32.3961 5.9996 32.7835 6.11673 33.113 6.33656C33.4425 6.5564 33.6994 6.86904 33.8512 7.23494C34.003 7.60084 34.0428 8.00354 33.9656 8.39208C33.8884 8.78062 33.6977 9.13752 33.4176 9.41763C33.1375 9.69773 32.7806 9.88844 32.3921 9.96563C32.0035 10.0428 31.6008 10.003 31.2349 9.85122C30.869 9.69945 30.5564 9.44254 30.3366 9.113C30.1167 8.78347 29.9996 8.39613 30 8C30 6.896 30.898 6 32 6Z" fill="#0068B7"/>
</svg>
