<svg width="120" height="120" viewBox="0 0 120 120" fill="none" xmlns="http://www.w3.org/2000/svg">
<g filter="url(#filter0_d_98_1542)">
<rect x="9" y="9" width="100" height="100" rx="16" fill="white"/>
</g>
<g clip-path="url(#clip0_98_1542)">
<path d="M58.7883 34.0137C46.1258 34.0137 46.9164 39.4162 46.9164 39.4162L46.9305 45.0133H59.0141V46.6937H42.1311C42.1311 46.6937 34.0283 45.7896 34.0283 58.3596C34.0283 70.9299 41.1006 70.4841 41.1006 70.4841H45.3213V64.651C45.3213 64.651 45.0938 57.693 52.2807 57.693H64.2654C64.2654 57.693 70.9988 57.8 70.9988 51.2905V40.5274C70.9988 40.5274 72.0215 34.0137 58.7883 34.0137ZM52.1254 37.7776C52.4109 37.7774 52.6937 37.8325 52.9576 37.9399C53.2214 38.0473 53.4612 38.2048 53.6631 38.4035C53.865 38.6021 54.0251 38.838 54.1343 39.0976C54.2434 39.3572 54.2995 39.6354 54.2992 39.9163C54.2995 40.1973 54.2434 40.4755 54.1343 40.7351C54.0251 40.9947 53.865 41.2306 53.6631 41.4292C53.4612 41.6279 53.2214 41.7854 52.9576 41.8928C52.6937 42.0002 52.4109 42.0553 52.1254 42.0551C51.8398 42.0553 51.5571 42.0002 51.2932 41.8928C51.0293 41.7854 50.7896 41.6279 50.5877 41.4292C50.3858 41.2306 50.2257 40.9947 50.1165 40.7351C50.0074 40.4755 49.9513 40.1973 49.9516 39.9163C49.9513 39.6354 50.0074 39.3572 50.1165 39.0976C50.2257 38.838 50.3858 38.6021 50.5877 38.4035C50.7896 38.2048 51.0293 38.0473 51.2932 37.9399C51.5571 37.8325 51.8398 37.7774 52.1254 37.7776Z" fill="url(#paint0_linear_98_1542)"/>
<path d="M59.148 82.8317C71.8105 82.8317 71.0199 77.4292 71.0199 77.4292L71.0058 71.8323H58.922V70.1519H75.805C75.805 70.1519 83.9078 71.056 83.9078 58.4857C83.9078 45.9155 76.8355 46.3613 76.8355 46.3613H72.6148V52.1943C72.6148 52.1943 72.8423 59.1523 65.6554 59.1523H53.6707C53.6707 59.1523 46.9373 59.0452 46.9373 65.5549V76.3182C46.9373 76.3182 45.9148 82.8317 59.1478 82.8317H59.148ZM65.8109 79.0682C65.5254 79.0684 65.2426 79.0133 64.9787 78.9059C64.7148 78.7985 64.4751 78.641 64.2732 78.4423C64.0713 78.2437 63.9112 78.0078 63.802 77.7482C63.6929 77.4886 63.6368 77.2104 63.6371 76.9294C63.6368 76.6485 63.6928 76.3703 63.802 76.1106C63.9111 75.851 64.0712 75.6151 64.2731 75.4165C64.475 75.2178 64.7148 75.0603 64.9787 74.9529C65.2425 74.8455 65.5253 74.7903 65.8109 74.7906C66.0964 74.7903 66.3792 74.8454 66.6431 74.9528C66.9069 75.0602 67.1467 75.2178 67.3486 75.4164C67.5505 75.615 67.7106 75.8509 67.8198 76.1105C67.9289 76.3701 67.985 76.6483 67.9847 76.9293C67.985 77.2102 67.9289 77.4884 67.8198 77.748C67.7106 78.0076 67.5505 78.2435 67.3486 78.4421C67.1467 78.6408 66.9069 78.7983 66.6431 78.9057C66.3792 79.0131 66.0964 79.0682 65.8109 79.068V79.0682Z" fill="url(#paint1_linear_98_1542)"/>
</g>
<defs>
<filter id="filter0_d_98_1542" x="0" y="0" width="120" height="120" filterUnits="userSpaceOnUse" color-interpolation-filters="sRGB">
<feFlood flood-opacity="0" result="BackgroundImageFix"/>
<feColorMatrix in="SourceAlpha" type="matrix" values="0 0 0 0 0 0 0 0 0 0 0 0 0 0 0 0 0 0 127 0" result="hardAlpha"/>
<feOffset dx="1" dy="1"/>
<feGaussianBlur stdDeviation="5"/>
<feComposite in2="hardAlpha" operator="out"/>
<feColorMatrix type="matrix" values="0 0 0 0 0 0 0 0 0 0.407843 0 0 0 0 0.717647 0 0 0 0.1 0"/>
<feBlend mode="normal" in2="BackgroundImageFix" result="effect1_dropShadow_98_1542"/>
<feBlend mode="normal" in="SourceGraphic" in2="effect1_dropShadow_98_1542" result="shape"/>
</filter>
<linearGradient id="paint0_linear_98_1542" x1="38.8217" y1="38.4046" x2="63.1417" y2="62.8774" gradientUnits="userSpaceOnUse">
<stop stop-color="#387EB8"/>
<stop offset="1" stop-color="#366994"/>
</linearGradient>
<linearGradient id="paint1_linear_98_1542" x1="53.9942" y1="53.865" x2="80.1307" y2="78.9785" gradientUnits="userSpaceOnUse">
<stop stop-color="#FFE052"/>
<stop offset="1" stop-color="#FFC331"/>
</linearGradient>
<clipPath id="clip0_98_1542">
<rect width="50" height="49" fill="white" transform="translate(34 34)"/>
</clipPath>
</defs>
</svg>
