<svg width="40" height="40" viewBox="0 0 40 40" fill="none" xmlns="http://www.w3.org/2000/svg">
<path d="M37.5 35.75L34 32.25C34.625 31.25 35 30 35 28.75C35 25.25 32.25 22.5 28.75 22.5C25.25 22.5 22.5 25.25 22.5 28.75C22.5 32.25 25.25 35 28.75 35C30 35 31.25 34.625 32.25 34L35.75 37.5L37.5 35.75ZM25 28.75C25 26.625 26.625 25 28.75 25C30.875 25 32.5 26.625 32.5 28.75C32.5 30.875 30.875 32.5 28.75 32.5C26.625 32.5 25 30.875 25 28.75ZM10 20H22.5V22.5H10V20ZM10 12.5H25V15H10V12.5Z" fill="#0068B7"/>
<path d="M17.5 34.625L11 31.125C7.25 29.25 5 25.375 5 21.25V5H30V18.75H32.5V5C32.5 3.625 31.375 2.5 30 2.5H5C3.625 2.5 2.5 3.625 2.5 5V21.25C2.5 26.375 5.25 31 9.75 33.375L17.5 37.5V34.625Z" fill="#0068B7"/>
</svg>
