<svg width="120" height="120" viewBox="0 0 120 120" fill="none" xmlns="http://www.w3.org/2000/svg">
<g filter="url(#filter0_d_98_1451)">
<rect x="9" y="9" width="100" height="100" rx="16" fill="white"/>
</g>
<path d="M59 62.793C61.6751 62.793 63.8438 60.6243 63.8438 57.9492C63.8438 55.2741 61.6751 53.1055 59 53.1055C56.3249 53.1055 54.1562 55.2741 54.1562 57.9492C54.1562 60.6243 56.3249 62.793 59 62.793Z" fill="#00D8FF"/>
<path d="M59 69.0553C53.1781 69.1962 47.3707 68.4114 41.795 66.7303C39.2193 65.9139 36.817 64.6276 34.7096 62.9367C33.9054 62.3591 33.2357 61.6143 32.7464 60.7534C32.2571 59.8926 31.9598 58.9361 31.875 57.9496C31.875 54.7469 35.3935 51.6082 41.2874 49.5544C47.0122 47.7346 52.9936 46.8526 59 46.9427C64.9262 46.8599 70.8275 47.7259 76.4801 49.5079C78.9607 50.2987 81.2815 51.5228 83.335 53.1233C84.1255 53.674 84.7851 54.3918 85.2673 55.2259C85.7494 56.0599 86.0422 56.9898 86.125 57.9496C86.125 61.2782 82.1919 64.6514 75.8563 66.7478C70.3885 68.3741 64.7037 69.1523 59 69.0553ZM59 49.2599C53.2536 49.1831 47.5316 50.0215 42.0488 51.7438C36.6238 53.6367 34.1923 56.2252 34.1923 57.9438C34.1923 59.7418 36.8059 62.5686 42.5448 64.5313C47.8789 66.1314 53.4328 66.8762 59 66.7381C64.4568 66.8357 69.8964 66.0973 75.1297 64.5487C81.0875 62.5744 83.8 59.7437 83.8 57.9496C83.7022 57.3339 83.4779 56.7452 83.1411 56.2206C82.8042 55.696 82.3623 55.247 81.8431 54.9019C80.0059 53.482 77.9327 52.3972 75.7187 51.6973C70.3112 49.9996 64.6671 49.1767 59 49.2599Z" fill="#00D8FF"/>
<path d="M47.9952 82.1079C47.0914 82.1287 46.1982 81.9094 45.4067 81.4724C42.6322 79.8721 41.6712 75.2569 42.8357 69.1247C44.1195 63.2562 46.3441 57.634 49.4232 52.4758C52.3114 47.3009 56.0091 42.6215 60.3758 38.6149C62.3001 36.8609 64.5199 35.4617 66.9323 34.4822C67.8049 34.0733 68.7568 33.8613 69.7204 33.8613C70.6841 33.8613 71.6359 34.0733 72.5085 34.4822C75.3934 36.1446 76.3486 41.2364 75.002 47.7716C73.6785 53.3216 71.5117 58.636 68.5773 63.5292C65.7906 68.643 62.2094 73.2817 57.9675 77.2719C55.9734 79.0947 53.6592 80.5326 51.1417 81.5131C50.1339 81.8872 49.0701 82.0883 47.9952 82.1079ZM51.4304 53.6267C48.4933 58.566 46.3613 63.9414 45.1142 69.551C44.0427 75.1988 45.0715 78.5952 46.5673 79.4594C48.1173 80.3564 51.8799 79.5059 56.4485 75.5146C60.498 71.6918 63.9161 67.2516 66.5758 62.359C69.387 57.6809 71.4655 52.6001 72.739 47.293C74.0062 41.1414 72.9115 37.3749 71.3576 36.4798C70.7752 36.2567 70.1529 36.1568 69.5299 36.1864C68.9069 36.2161 68.2969 36.3747 67.7383 36.6522C65.591 37.5383 63.6168 38.7963 61.9065 40.3684C57.7344 44.2061 54.2024 48.6859 51.444 53.6383L51.4304 53.6267Z" fill="#00D8FF"/>
<path d="M69.9991 82.1335C67.3738 82.1335 64.0393 80.5448 60.5673 77.5591C56.1241 73.5161 52.3639 68.781 49.4325 63.5374C46.3921 58.4502 44.1851 52.9093 42.8954 47.1248C42.3361 44.5799 42.2324 41.956 42.5893 39.3748C42.6718 38.4173 42.9633 37.4896 43.4434 36.657C43.9234 35.8245 44.5803 35.1074 45.3677 34.5563C48.2487 32.8881 53.137 34.6028 58.1261 39.0319C62.2735 42.9499 65.7955 47.4808 68.5692 52.4665C71.6078 57.4349 73.8379 62.8545 75.1761 68.5226C75.7595 71.1609 75.8495 73.8844 75.4415 76.5555C75.3445 77.5405 75.0355 78.4929 74.5359 79.3474C74.0363 80.2018 73.3578 80.9381 72.5469 81.5058C71.7683 81.9373 70.889 82.1539 69.9991 82.1335ZM51.4378 62.371C54.25 67.3822 57.8418 71.9139 62.0786 75.796C66.436 79.545 69.8925 80.351 71.3786 79.4772C72.9286 78.5763 74.0717 74.8989 72.8937 68.9488C71.6031 63.5373 69.4641 58.3641 66.5562 53.6213C63.9092 48.8494 60.5475 44.5109 56.5877 40.7563C51.8912 36.5868 48.0821 35.6548 46.5302 36.5538C46.0464 36.9469 45.6495 37.436 45.3644 37.9903C45.0792 38.5445 44.9121 39.1519 44.8736 39.774C44.5655 42.0759 44.6659 44.4141 45.17 46.6811C46.4106 52.213 48.5272 57.511 51.4398 62.3749L51.4378 62.371Z" fill="#00D8FF"/>
<defs>
<filter id="filter0_d_98_1451" x="0" y="0" width="120" height="120" filterUnits="userSpaceOnUse" color-interpolation-filters="sRGB">
<feFlood flood-opacity="0" result="BackgroundImageFix"/>
<feColorMatrix in="SourceAlpha" type="matrix" values="0 0 0 0 0 0 0 0 0 0 0 0 0 0 0 0 0 0 127 0" result="hardAlpha"/>
<feOffset dx="1" dy="1"/>
<feGaussianBlur stdDeviation="5"/>
<feComposite in2="hardAlpha" operator="out"/>
<feColorMatrix type="matrix" values="0 0 0 0 0 0 0 0 0 0.407843 0 0 0 0 0.717647 0 0 0 0.1 0"/>
<feBlend mode="normal" in2="BackgroundImageFix" result="effect1_dropShadow_98_1451"/>
<feBlend mode="normal" in="SourceGraphic" in2="effect1_dropShadow_98_1451" result="shape"/>
</filter>
</defs>
</svg>
