<svg width="120" height="120" viewBox="0 0 120 120" fill="none" xmlns="http://www.w3.org/2000/svg">
<g filter="url(#filter0_d_92_2460)">
<rect x="9" y="9" width="100" height="100" rx="16" fill="white"/>
</g>
<path d="M82.8247 62.1921C80.7523 62.1948 78.7076 62.6644 76.8452 63.5654C76.2621 62.6065 75.8119 61.5743 75.5065 60.4965C75.3311 59.6516 75.2905 58.7847 75.3863 57.9274C75.5878 56.984 75.8491 56.0541 76.1688 55.1434C76.157 55.0243 76.025 54.4614 74.6981 54.4427C73.3712 54.424 72.2281 54.6926 72.1055 55.0406C71.875 55.6763 71.69 56.3271 71.5516 56.9885C70.4534 59.6732 69.1016 62.2491 67.5143 64.6818C66.6249 63.237 66.2591 61.535 66.4772 59.8565C66.6787 58.9132 66.94 57.9833 67.2597 57.0726C67.2479 56.9534 67.1159 56.3906 65.789 56.3719C64.4621 56.3532 63.319 56.6218 63.1964 56.9698C63.0738 57.3178 62.9183 58.1376 62.6425 58.9177C62.3668 59.6977 59.1473 66.8259 58.3035 68.6639C57.8698 69.5982 57.4951 70.3595 57.2311 70.8734C57.2186 70.9067 57.2028 70.9388 57.184 70.9691L56.8233 71.6511V71.6628C56.6419 71.9851 56.4486 72.284 56.352 72.284C56.1834 71.6168 56.1915 70.9177 56.3755 70.2544C56.8469 67.7811 58.0018 63.9368 57.99 63.8036C57.99 63.7312 58.2068 63.0633 57.2429 62.7176C57.0193 62.6122 56.7682 62.578 56.5243 62.6199C56.2803 62.6617 56.0554 62.7774 55.8806 62.9512C55.7957 62.9512 55.7368 63.1544 55.7368 63.1544C55.7368 63.1544 56.7856 58.8312 53.7358 58.8312C52.5481 59.068 51.4202 59.5377 50.4185 60.2127C49.4167 60.8878 48.5612 61.7545 47.9025 62.762C47.0823 63.2034 45.3358 64.147 43.4668 65.1629C42.7597 65.5576 42.0196 65.9524 41.3338 66.3307C41.2866 66.284 41.2372 66.2233 41.19 66.1766C37.4779 62.2575 30.6547 59.4922 30.9493 54.2489C31.0577 52.3384 31.72 47.3216 44.0513 41.2281C54.2001 36.2721 62.2772 37.6454 63.6749 40.691C65.6759 45.0398 59.3476 53.1138 48.8617 54.2839C47.7017 54.5171 46.5036 54.489 45.356 54.2015C44.2084 53.9141 43.1407 53.3747 42.2318 52.6233C41.6779 52.0254 41.593 51.9904 41.388 52.1095C41.051 52.2893 41.2678 52.8265 41.388 53.1371C41.788 53.8545 42.3291 54.4852 42.9792 54.9918C43.6293 55.4985 44.3754 55.8708 45.1732 56.087C49.2983 56.9703 53.5992 56.548 57.4691 54.8795C63.8328 52.4435 68.7823 45.6704 67.3304 39.9973C65.8715 34.2401 56.2294 32.3413 47.1035 35.5597C41.3874 37.4657 36.1058 40.4679 31.5597 44.3952C26.5324 49.0546 25.7382 53.1021 26.0634 54.8001C27.2419 60.8211 35.6112 64.7379 38.9604 67.6456C38.8091 67.7309 38.6566 67.8142 38.5031 67.8955C36.8274 68.72 30.4402 72.0295 28.8398 75.5281C27.0321 79.4986 29.1297 82.3363 30.5156 82.7193C32.6038 83.2147 34.796 83.0515 36.7862 82.2526C38.7763 81.4537 40.465 80.059 41.6166 78.2631C42.5972 76.7735 43.2 75.0711 43.3736 73.3009C43.5472 71.5307 43.2864 69.7452 42.6136 68.0964C42.6022 68.0697 42.5863 68.0452 42.5664 68.024L43.8792 67.2603C44.6769 66.793 45.4848 66.3429 46.3021 65.9103C45.8115 67.3127 45.5234 68.7768 45.4466 70.2591C45.28 72.5311 45.9816 74.7821 47.4122 76.5651C47.6299 76.7508 47.8826 76.8918 48.1557 76.98C48.4288 77.0682 48.7168 77.1019 49.0031 77.0789C50.4173 77.0789 51.0654 75.9112 51.7749 74.5238C52.6422 72.8282 53.4247 70.857 53.4247 70.857C53.4247 70.857 52.4489 76.1844 55.1005 76.1844C56.0644 76.1844 57.0402 74.9419 57.4762 74.316V74.3277L57.5493 74.2085L57.7048 73.9586V73.9353C58.0914 73.2673 58.9587 71.7492 60.2479 69.2291C61.9119 65.9804 63.5146 61.9188 63.5146 61.9188C63.6692 62.8114 63.8825 63.693 64.1533 64.558C64.5415 65.6065 65.0006 66.6279 65.5274 67.6153C65.1409 68.1524 64.9004 68.4514 64.9004 68.4514L64.9122 68.4631C64.5988 68.8695 64.2617 69.3109 63.887 69.7406C62.772 70.9553 61.7375 72.2402 60.79 73.5873C60.6492 73.8135 60.6008 74.0845 60.6547 74.3449C60.7086 74.6053 60.8606 74.8355 61.0799 74.9886C61.5761 75.2445 62.1416 75.3369 62.6944 75.2525C63.5274 75.2059 64.3466 75.0204 65.1173 74.7037C65.8621 74.444 66.5648 74.0781 67.2031 73.6177C67.8613 73.1658 68.391 72.5538 68.7415 71.8405C69.0919 71.1271 69.2512 70.3364 69.2042 69.5444C69.13 68.5468 68.8729 67.5709 68.4452 66.6647C68.5654 66.4965 68.6809 66.3307 68.7941 66.1626C70.134 64.1806 71.3418 62.1139 72.4095 59.9757C72.5641 60.8682 72.7775 61.7499 73.0483 62.6148C73.3684 63.5209 73.7626 64.3997 74.2267 65.2423C72.6852 66.4176 71.4709 67.9624 70.6984 69.7313C69.9395 71.9057 70.5287 72.8843 71.6412 73.1108C72.2499 73.1524 72.8586 73.0289 73.4018 72.7535C74.2005 72.4934 74.9529 72.1103 75.6314 71.6184C76.3469 71.2 76.9461 70.6119 77.3752 69.907C77.8043 69.2021 78.0498 68.4025 78.0897 67.5802C78.0362 66.7594 77.8491 65.9526 77.5358 65.191C79.57 64.4034 81.7757 64.1523 83.9371 64.4623C89.6739 65.1302 90.8075 68.6779 90.5907 70.1727C90.489 70.7026 90.274 71.2048 89.9602 71.6455C89.6463 72.0862 89.2409 72.4553 88.7712 72.7278C88.3728 72.9777 88.2409 73.0618 88.2762 73.2416C88.3233 73.5055 88.5119 73.4915 88.8536 73.4448C89.7183 73.1785 90.4811 72.6588 91.0416 71.9541C91.602 71.2495 91.9338 70.393 91.993 69.4977C92.1745 65.9944 88.7994 62.1524 82.8318 62.1874L82.8247 62.1921ZM38.5621 76.9715C36.6577 79.0268 34.0062 79.8022 32.8607 79.1459C31.6304 78.4452 32.1136 75.409 34.4516 73.2323C35.8385 71.9951 37.3376 70.8873 38.9297 69.9228C39.2079 69.7546 39.618 69.5164 40.1082 69.2221L40.2402 69.1497L40.5301 68.9699C40.9478 70.3567 40.9857 71.8287 40.6398 73.2349C40.294 74.641 39.5769 75.9306 38.5621 76.9715ZM52.423 67.6293C51.7607 69.2291 50.3749 73.328 49.5311 73.0992C48.8075 72.9076 48.3526 69.8014 49.3873 66.7324C49.9097 65.2551 50.6707 63.8716 51.6405 62.6359C52.6776 61.4891 53.823 61.1061 54.0988 61.5732C53.8472 63.6632 53.2824 65.7044 52.423 67.6293ZM63.8611 73.0524C63.5829 73.1949 63.319 73.286 63.1988 73.2206C63.1139 73.1739 63.319 72.9871 63.319 72.9871C63.319 72.9871 64.7543 71.4573 65.32 70.7659C65.6452 70.3596 66.0271 69.8831 66.4419 69.3436V69.4977C66.4419 71.3241 64.6577 72.555 63.8634 73.0571L63.8611 73.0524ZM72.6853 71.0579C72.4802 70.9154 72.5156 70.4366 73.2038 68.9442C73.6823 67.9857 74.3509 67.1326 75.1695 66.4358C75.295 66.7893 75.3603 67.1611 75.3627 67.5359C75.372 68.3335 75.1146 69.1118 74.6307 69.7494C74.1468 70.3869 73.4636 70.8478 72.6877 71.0602L72.6853 71.0579Z" fill="#CD6799"/>
<defs>
<filter id="filter0_d_92_2460" x="0" y="0" width="120" height="120" filterUnits="userSpaceOnUse" color-interpolation-filters="sRGB">
<feFlood flood-opacity="0" result="BackgroundImageFix"/>
<feColorMatrix in="SourceAlpha" type="matrix" values="0 0 0 0 0 0 0 0 0 0 0 0 0 0 0 0 0 0 127 0" result="hardAlpha"/>
<feOffset dx="1" dy="1"/>
<feGaussianBlur stdDeviation="5"/>
<feComposite in2="hardAlpha" operator="out"/>
<feColorMatrix type="matrix" values="0 0 0 0 0 0 0 0 0 0.407843 0 0 0 0 0.717647 0 0 0 0.1 0"/>
<feBlend mode="normal" in2="BackgroundImageFix" result="effect1_dropShadow_92_2460"/>
<feBlend mode="normal" in="SourceGraphic" in2="effect1_dropShadow_92_2460" result="shape"/>
</filter>
</defs>
</svg>
