<svg width="14" height="103" viewBox="0 0 14 103" fill="none" xmlns="http://www.w3.org/2000/svg">
<path d="M13.626 98.528C13.626 99.368 13.482 100.124 13.194 100.796C12.894 101.468 12.474 101.996 11.934 102.38C11.394 102.764 10.764 102.956 10.044 102.956L10.044 100.76C10.584 100.712 11.028 100.502 11.376 100.13C11.724 99.746 11.898 99.212 11.898 98.528C11.898 97.82 11.73 97.268 11.394 96.872C11.046 96.476 10.602 96.278 10.062 96.278C9.642 96.278 9.3 96.404 9.036 96.656C8.772 96.896 8.568 97.202 8.424 97.574C8.28 97.934 8.124 98.438 7.956 99.086C7.74 99.902 7.524 100.568 7.308 101.084C7.08 101.588 6.732 102.02 6.264 102.38C5.796 102.74 5.172 102.92 4.392 102.92C3.672 102.92 3.042 102.74 2.502 102.38C1.962 102.02 1.548 101.516 1.26 100.868C0.971999 100.22 0.827999 99.47 0.827999 98.618C0.827999 97.406 1.134 96.416 1.746 95.648C2.346 94.868 3.174 94.436 4.23 94.352L4.23 96.62C3.774 96.656 3.384 96.872 3.06 97.268C2.736 97.664 2.574 98.186 2.574 98.834C2.574 99.422 2.724 99.902 3.024 100.274C3.324 100.646 3.756 100.832 4.32 100.832C4.704 100.832 5.022 100.718 5.274 100.49C5.514 100.25 5.706 99.95 5.85 99.59C5.994 99.23 6.15 98.738 6.318 98.114C6.546 97.286 6.774 96.614 7.002 96.098C7.23 95.57 7.584 95.126 8.064 94.766C8.532 94.394 9.162 94.208 9.954 94.208C10.59 94.208 11.19 94.382 11.754 94.73C12.318 95.066 12.774 95.564 13.122 96.224C13.458 96.872 13.626 97.64 13.626 98.528ZM8.532 92.4707C7.512 92.4707 6.618 92.2667 5.85 91.8587C5.07 91.4387 4.47 90.8627 4.05 90.1307C3.63 89.3987 3.42 88.5587 3.42 87.6107C3.42 86.4107 3.708 85.4207 4.284 84.6407C4.848 83.8487 5.658 83.3147 6.714 83.0387L6.714 85.2527C6.222 85.4327 5.838 85.7207 5.562 86.1167C5.286 86.5127 5.148 87.0107 5.148 87.6107C5.148 88.4507 5.448 89.1227 6.048 89.6267C6.636 90.1187 7.464 90.3647 8.532 90.3647C9.6 90.3647 10.434 90.1187 11.034 89.6267C11.634 89.1227 11.934 88.4507 11.934 87.6107C11.934 86.4227 11.412 85.6367 10.368 85.2527L10.368 83.0387C11.376 83.3267 12.18 83.8667 12.78 84.6587C13.368 85.4507 13.662 86.4347 13.662 87.6107C13.662 88.5587 13.452 89.3987 13.032 90.1307C12.6 90.8627 12 91.4387 11.232 91.8587C10.452 92.2667 9.552 92.4707 8.532 92.4707ZM5.022 78.9417C4.518 78.6417 4.128 78.2457 3.852 77.7537C3.564 77.2497 3.42 76.6557 3.42 75.9717L5.544 75.9717L5.544 76.4937C5.544 77.2977 5.748 77.9097 6.156 78.3297C6.564 78.7377 7.272 78.9417 8.28 78.9417L13.5 78.9417L13.5 80.9937L3.582 80.9937L3.582 78.9417L5.022 78.9417ZM13.662 69.7835C13.662 70.7195 13.452 71.5655 13.032 72.3215C12.6 73.0775 12 73.6715 11.232 74.1035C10.452 74.5355 9.552 74.7515 8.532 74.7515C7.524 74.7515 6.63 74.5295 5.85 74.0855C5.07 73.6415 4.47 73.0355 4.05 72.2675C3.63 71.4995 3.42 70.6415 3.42 69.6935C3.42 68.7455 3.63 67.8875 4.05 67.1195C4.47 66.3515 5.07 65.7455 5.85 65.3015C6.63 64.8575 7.524 64.6355 8.532 64.6355C9.54 64.6355 10.434 64.8635 11.214 65.3195C11.994 65.7755 12.6 66.3995 13.032 67.1915C13.452 67.9715 13.662 68.8355 13.662 69.7835ZM11.88 69.7835C11.88 69.2555 11.754 68.7635 11.502 68.3075C11.25 67.8395 10.872 67.4615 10.368 67.1735C9.864 66.8855 9.252 66.7415 8.532 66.7415C7.812 66.7415 7.206 66.8795 6.714 67.1555C6.21 67.4315 5.832 67.7975 5.58 68.2535C5.328 68.7095 5.202 69.2015 5.202 69.7295C5.202 70.2575 5.328 70.7495 5.58 71.2055C5.832 71.6495 6.21 72.0035 6.714 72.2675C7.206 72.5315 7.812 72.6635 8.532 72.6635C9.6 72.6635 10.428 72.3935 11.016 71.8535C11.592 71.3015 11.88 70.6115 11.88 69.7835ZM0.179998 60.555L13.5 60.555L13.5 62.607L0.179998 62.607L0.179998 60.555ZM0.179998 55.8089L13.5 55.8089L13.5 57.8609L0.179998 57.8609L0.179998 55.8089ZM0.989996 44.3531C0.989996 43.0211 1.248 41.8571 1.764 40.8611C2.268 39.8531 3 39.0791 3.96 38.5391C4.908 37.9871 6.018 37.7111 7.29 37.7111C8.562 37.7111 9.666 37.9871 10.602 38.5391C11.538 39.0791 12.258 39.8531 12.762 40.8611C13.254 41.8571 13.5 43.0211 13.5 44.3531L13.5 48.4391L0.989997 48.4391L0.989996 44.3531ZM11.826 44.3531C11.826 42.8891 11.43 41.7671 10.638 40.9871C9.846 40.2071 8.73 39.8171 7.29 39.8171C5.838 39.8171 4.704 40.2071 3.888 40.9871C3.072 41.7671 2.664 42.8891 2.664 44.3531L2.664 46.3871L11.826 46.3871L11.826 44.3531ZM13.662 31.3753C13.662 32.3113 13.452 33.1573 13.032 33.9133C12.6 34.6693 12 35.2633 11.232 35.6953C10.452 36.1273 9.552 36.3433 8.532 36.3433C7.524 36.3433 6.63 36.1213 5.85 35.6773C5.07 35.2333 4.47 34.6273 4.05 33.8593C3.63 33.0913 3.42 32.2333 3.42 31.2853C3.42 30.3373 3.63 29.4793 4.05 28.7113C4.47 27.9433 5.07 27.3373 5.85 26.8933C6.63 26.4493 7.524 26.2273 8.532 26.2273C9.54 26.2273 10.434 26.4553 11.214 26.9113C11.994 27.3673 12.6 27.9913 13.032 28.7833C13.452 29.5633 13.662 30.4273 13.662 31.3753ZM11.88 31.3753C11.88 30.8473 11.754 30.3553 11.502 29.8993C11.25 29.4313 10.872 29.0533 10.368 28.7653C9.864 28.4773 9.252 28.3333 8.532 28.3333C7.812 28.3333 7.206 28.4713 6.714 28.7473C6.21 29.0233 5.832 29.3893 5.58 29.8453C5.328 30.3013 5.202 30.7933 5.202 31.3213C5.202 31.8493 5.328 32.3413 5.58 32.7973C5.832 33.2413 6.21 33.5953 6.714 33.8593C7.206 34.1233 7.812 34.2553 8.532 34.2553C9.6 34.2553 10.428 33.9853 11.016 33.4453C11.592 32.8933 11.88 32.2033 11.88 31.3753ZM3.582 10.8788L13.5 13.9568L13.5 16.1168L6.174 18.1148L13.5 20.1128L13.5 22.2728L3.582 25.3688L3.582 23.2808L11.556 21.2108L3.582 19.1048L3.582 16.9628L11.52 14.9468L3.582 12.8948L3.582 10.8788ZM3.42 4.34131C3.42 3.56131 3.582 2.86531 3.90599 2.25331C4.22999 1.62931 4.70999 1.14331 5.346 0.795312C5.982 0.447311 6.75 0.273311 7.65 0.273311L13.5 0.273311L13.5 2.30731L7.956 2.30731C7.068 2.30731 6.39 2.52931 5.92199 2.97331C5.442 3.41731 5.202 4.02331 5.202 4.79131C5.202 5.55931 5.442 6.17131 5.922 6.62731C6.39 7.07131 7.068 7.29331 7.956 7.29331L13.5 7.29331L13.5 9.34531L3.582 9.34531L3.582 7.29331L4.716 7.29331C4.308 6.95731 3.99 6.53131 3.762 6.01531C3.534 5.48731 3.42 4.92931 3.42 4.34131Z" fill="white" fill-opacity="0.75"/>
</svg>
