<svg width="120" height="120" viewBox="0 0 120 120" fill="none" xmlns="http://www.w3.org/2000/svg">
<g filter="url(#filter0_d_98_1569)">
<rect x="9" y="9" width="100" height="100" rx="16" fill="white"/>
</g>
<g clip-path="url(#clip0_98_1569)">
<path d="M71.5156 34H45.4844C39.1417 34 34 39.1417 34 45.4844V71.5156C34 77.8583 39.1417 83 45.4844 83H71.5156C77.8583 83 83 77.8583 83 71.5156V45.4844C83 39.1417 77.8583 34 71.5156 34Z" fill="#59B943"/>
<path fill-rule="evenodd" clip-rule="evenodd" d="M78.7462 32.8516H83V83.957H82.6046C82.654 83.9572 82.703 83.9476 82.7487 83.9288C82.7944 83.91 82.836 83.8823 82.871 83.8474C82.906 83.8125 82.9337 83.771 82.9527 83.7254C82.9716 83.6797 82.9813 83.6307 82.9812 83.5813V40.4573C83.011 40.3695 83.0048 40.2734 82.9638 40.1903C82.9228 40.1071 82.8504 40.0436 82.7627 40.0138C82.6748 39.984 82.5787 39.9902 82.4954 40.031C82.4121 40.0719 82.3484 40.1441 82.3182 40.2318L66.4935 57.9533C66.4483 58.0021 66.3935 58.041 66.3326 58.0677C66.2716 58.0943 66.2058 58.108 66.1393 58.108C66.0728 58.108 66.007 58.0943 65.9461 58.0677C65.8851 58.041 65.8303 58.0021 65.7851 57.9533L57.707 49.6411C57.6386 49.5559 57.6013 49.4499 57.6013 49.3406C57.6013 49.2314 57.6386 49.1253 57.707 49.0401L60.3744 45.6279C60.4192 45.5658 60.4781 45.5153 60.5462 45.4804C60.6143 45.4455 60.6898 45.4273 60.7663 45.4273C60.8429 45.4273 60.9183 45.4455 60.9865 45.4804C61.0546 45.5153 61.1135 45.5658 61.1583 45.6279L65.6796 50.6183C65.725 50.672 65.7815 50.7152 65.8453 50.7448C65.9091 50.7745 65.9785 50.7898 66.0489 50.7898C66.1192 50.7898 66.1887 50.7745 66.2524 50.7448C66.3162 50.7152 66.3727 50.672 66.4181 50.6183L79.0176 33.3927C79.0526 33.3418 79.0733 33.2824 79.0777 33.2208C79.0818 33.1592 79.0693 33.0976 79.0416 33.0424C79.0139 32.9872 78.972 32.9404 78.9202 32.9069C78.8681 32.8733 78.8081 32.8542 78.7462 32.8516ZM34.3767 32.8516H34V33.2273C34 33.1278 34.0396 33.0321 34.1104 32.9616C34.1811 32.8912 34.277 32.8516 34.3767 32.8516ZM34 83.5813V83.957H34.3767C34.2769 83.957 34.1811 83.9174 34.1104 83.847C34.0755 83.8121 34.0477 83.7707 34.0288 83.7251C34.0098 83.6796 34 83.6307 34 83.5813V83.5813ZM66.3415 65.2069C65.4068 65.1782 64.4953 65.5006 63.7864 66.1105C63.08 66.718 62.6289 67.5698 62.5234 68.4956C62.5188 68.5136 62.5185 68.5323 62.5224 68.5504C62.5262 68.5685 62.5342 68.5854 62.5458 68.5999C62.5575 68.6143 62.5724 68.6259 62.5893 68.6336C62.6062 68.6413 62.6246 68.6451 62.6432 68.6445H70.055C70.072 68.6445 70.0889 68.641 70.1045 68.6341C70.1201 68.6272 70.1341 68.6171 70.1455 68.6045C70.1569 68.5919 70.1654 68.577 70.1705 68.5607C70.1756 68.5445 70.177 68.5274 70.1748 68.5105C70.1012 67.568 69.6576 66.6928 68.941 66.076C68.2218 65.457 67.2884 65.145 66.3415 65.2069ZM39.0036 75.3443C41.3873 77.432 44.4899 78.5101 47.6545 78.3506H47.6392C53.3514 78.3506 56.1093 75.4345 56.1093 71.6165C56.1093 66.8281 51.6536 65.7614 48.1392 64.92C45.8511 64.372 43.9621 63.9199 43.9621 62.598C43.9621 61.3353 45.0472 60.4786 46.9762 60.4786C49.0754 60.4587 51.1181 61.159 52.7636 62.4627C52.8122 62.5043 52.8688 62.5354 52.9299 62.5542C52.9911 62.5729 53.0554 62.5789 53.119 62.5718C53.1825 62.5646 53.2439 62.5446 53.2994 62.5129C53.3549 62.4812 53.4033 62.4385 53.4417 62.3875L55.2955 59.8173C55.3792 59.7305 55.426 59.6146 55.426 59.4941C55.426 59.3735 55.3792 59.2576 55.2955 59.1709C53.0639 57.3628 50.2534 56.4232 47.3831 56.5255C42.3796 56.5255 39.3653 59.4415 39.3653 62.9437C39.3653 67.6527 43.6526 68.6681 47.1395 69.4938C49.5292 70.0598 51.5428 70.5366 51.5428 72.0525C51.5428 73.2549 50.3371 74.3972 47.8655 74.3972C45.5198 74.4049 43.2583 73.5242 41.5357 71.9321C41.4555 71.8832 41.3624 71.8596 41.2686 71.8644C41.1748 71.8692 41.0847 71.9021 41.0099 71.9589C40.9602 71.9965 40.9186 72.0436 40.8874 72.0975L39.0036 74.728C38.9284 74.813 38.8869 74.9226 38.8869 75.0362C38.8869 75.1497 38.9284 75.2593 39.0036 75.3443ZM74.1821 71.1939C74.2026 71.1418 74.212 71.0861 74.2099 71.0304L74.1947 70.5494C74.1947 65.4237 71.0147 61.9216 66.3276 61.9216C65.2461 61.9028 64.172 62.103 63.1699 62.51C62.1686 62.9167 61.26 63.5219 60.4989 64.2893C59.7384 65.0559 59.1415 65.9689 58.7442 66.973C58.3473 67.9764 58.1585 69.0499 58.1892 70.1285C58.1456 71.2336 58.3339 72.3356 58.7419 73.3635C59.1505 74.392 59.7697 75.3237 60.5597 76.0989C61.3506 76.8747 62.2947 77.4769 63.3317 77.8669C64.3693 78.2573 65.4769 78.4272 66.5839 78.3655C68.7992 78.4214 70.9711 77.7452 72.763 76.4415C72.8444 76.3765 72.8988 76.2836 72.9155 76.1809C72.9321 76.0781 72.91 75.9728 72.8534 75.8854L71.4971 73.9162C71.4496 73.8436 71.3802 73.788 71.299 73.7575C71.2177 73.7269 71.1289 73.7231 71.0453 73.7465C70.9898 73.762 70.9383 73.7891 70.8941 73.8261C69.7617 74.6202 68.4188 75.0597 67.036 75.0888C65.9822 75.1756 64.934 74.866 64.0965 74.2206C63.2603 73.5761 62.6959 72.6417 62.5146 71.6016C62.5124 71.5838 62.5139 71.5657 62.5188 71.5485C62.5238 71.5313 62.5322 71.5152 62.5435 71.5013C62.5547 71.4873 62.5685 71.4757 62.5843 71.4671C62.6 71.4585 62.6173 71.4532 62.6351 71.4513H73.7878C73.8439 71.4534 73.8996 71.4438 73.9518 71.4236C74.004 71.4033 74.0514 71.3724 74.0911 71.3329C74.1307 71.2933 74.1617 71.246 74.1821 71.1939Z" fill="white"/>
</g>
<defs>
<filter id="filter0_d_98_1569" x="0" y="0" width="120" height="120" filterUnits="userSpaceOnUse" color-interpolation-filters="sRGB">
<feFlood flood-opacity="0" result="BackgroundImageFix"/>
<feColorMatrix in="SourceAlpha" type="matrix" values="0 0 0 0 0 0 0 0 0 0 0 0 0 0 0 0 0 0 127 0" result="hardAlpha"/>
<feOffset dx="1" dy="1"/>
<feGaussianBlur stdDeviation="5"/>
<feComposite in2="hardAlpha" operator="out"/>
<feColorMatrix type="matrix" values="0 0 0 0 0 0 0 0 0 0.407843 0 0 0 0 0.717647 0 0 0 0.1 0"/>
<feBlend mode="normal" in2="BackgroundImageFix" result="effect1_dropShadow_98_1569"/>
<feBlend mode="normal" in="SourceGraphic" in2="effect1_dropShadow_98_1569" result="shape"/>
</filter>
<clipPath id="clip0_98_1569">
<rect width="49" height="49" fill="white" transform="translate(34 34)"/>
</clipPath>
</defs>
</svg>
