<svg width="40" height="40" viewBox="0 0 40 40" fill="none" xmlns="http://www.w3.org/2000/svg">
<path d="M35 15H25V5H35V15ZM27.5 12.5H32.5V7.5H27.5V12.5Z" fill="#0068B7"/>
<path d="M21.25 18.75V11.25H11.25V28.75H28.75V18.75H21.25ZM13.75 13.75H18.75V18.75H13.75V13.75ZM18.75 26.25H13.75V21.25H18.75V26.25ZM26.25 26.25H21.25V21.25H26.25V26.25Z" fill="#0068B7"/>
<path d="M32.5 35H7.5C6.83716 34.9993 6.20166 34.7357 5.73296 34.267C5.26427 33.7983 5.00066 33.1628 5 32.5V7.5C5.00066 6.83716 5.26427 6.20166 5.73296 5.73296C6.20166 5.26427 6.83716 5.00066 7.5 5H20V7.5H7.5V32.5H32.5V20H35V32.5C34.9993 33.1628 34.7357 33.7983 34.267 34.267C33.7983 34.7357 33.1628 34.9993 32.5 35Z" fill="#0068B7"/>
</svg>
