<svg width="215" height="192" viewBox="0 0 215 192" fill="none" xmlns="http://www.w3.org/2000/svg">
<path d="M150.737 0.369019H64.4727C57.0554 0.369019 50.1964 4.32359 46.4798 10.7498L3.34777 85.4401C-0.368853 91.8662 -0.368853 99.7754 3.34777 106.202L46.4798 180.892C50.1964 187.318 57.0554 191.273 64.4727 191.273H150.737C158.154 191.273 165.013 187.318 168.73 180.892L211.862 106.202C215.578 99.7754 215.578 91.8662 211.862 85.4401L168.73 10.7498C165.013 4.32359 158.154 0.369019 150.737 0.369019Z" fill="url(#paint0_linear_92_1881)"/>
<path d="M64.4727 188.881C57.9328 188.881 51.8235 185.357 48.5535 179.696L5.42149 105.006C2.1515 99.3449 2.1515 92.2968 5.42149 86.636L48.5535 11.9457C51.8235 6.28496 57.9328 2.76093 64.4727 2.76093H150.737C157.277 2.76093 163.386 6.28496 166.656 11.9457L209.788 86.636C213.058 92.2968 213.058 99.3449 209.788 105.006L166.656 179.696C163.386 185.357 157.277 188.881 150.737 188.881H64.4727Z" fill="white"/>
<path d="M115.812 49H123.625C126.111 49 128.496 49.9877 130.254 51.7459C132.012 53.504 133 55.8886 133 58.375V89.625C133 92.1114 132.012 94.496 130.254 96.2541C128.496 98.0123 126.111 99 123.625 99H92.375C89.8886 99 87.504 98.0123 85.7459 96.2541C83.9877 94.496 83 92.1114 83 89.625V74M89.25 52.125L83 58.375L89.25 64.625" stroke="url(#paint1_linear_92_1881)" stroke-width="3" stroke-linecap="round" stroke-linejoin="round"/>
<path d="M101.75 64.625L108 58.375L101.75 52.125" stroke="url(#paint2_linear_92_1881)" stroke-width="3" stroke-linecap="round" stroke-linejoin="round"/>
<path d="M109.625 66C111.027 69.309 104.598 71.336 104 74.094C103.453 76.625 107.809 79.594 107.813 79.594C107.148 78.547 106.664 77.664 106 76.031C104.875 73.273 112.855 70.785 109.625 66ZM113.875 70.594C113.875 70.594 108.254 70.949 107.969 74.625C107.839 76.262 109.453 77.121 109.5 78.313C109.54 79.285 108.531 80.093 108.531 80.093C108.531 80.093 110.34 79.766 110.906 78.281C111.531 76.633 109.688 75.508 109.875 74.187C110.055 72.926 113.875 70.594 113.875 70.594ZM115.25 79.062C114.66 79.035 113.996 79.254 113.406 79.687C114.57 79.43 115.563 80.16 115.563 81C115.563 82.883 112.875 84.656 112.875 84.656C112.875 84.656 117.031 84.191 117.031 81.094C117.031 79.816 116.231 79.109 115.25 79.062ZM104.219 79.094C102.769 79.144 99.875 79.383 99.875 80.5C99.875 82.055 106.617 82.176 111.438 81.219C111.438 81.219 112.75 80.305 113.094 79.969C109.934 80.625 102.719 80.727 102.719 80.156C102.719 79.633 105.031 79.094 105.031 79.094C105.031 79.094 104.703 79.078 104.219 79.094ZM103.781 81.969C102.988 81.969 101.812 82.586 101.812 83.187C101.812 84.398 107.782 85.328 112.188 83.562L110.656 82.625C107.668 83.602 102.148 83.277 103.781 81.969ZM104.531 84.687C103.449 84.687 102.75 85.371 102.75 85.875C102.75 87.425 109.215 87.578 111.781 86L110.156 84.937C108.242 85.762 103.426 85.883 104.531 84.687ZM100.906 86.094C99.141 86.059 98 86.859 98 87.53C98 91.104 116.094 90.933 116.094 87.28C116.094 86.675 115.379 86.386 115.125 86.249C116.602 89.741 100.344 89.468 100.344 87.405C100.344 86.937 101.547 86.468 102.656 86.687L101.719 86.155C101.45 86.1158 101.178 86.0961 100.906 86.094ZM118 88.5C115.25 91.16 108.29 92.113 101.281 90.469C108.289 93.399 117.965 91.769 118 88.5Z" fill="url(#paint3_linear_92_1881)"/>
<path d="M37.3031 112.88V120.896C37.3031 121.888 36.9991 122.672 36.3911 123.248C35.7937 123.824 35.0044 124.112 34.0231 124.112C33.0417 124.112 32.2471 123.824 31.6391 123.248C31.0417 122.672 30.7431 121.888 30.7431 120.896H32.5831C32.5937 121.387 32.7164 121.776 32.9511 122.064C33.1964 122.352 33.5537 122.496 34.0231 122.496C34.4924 122.496 34.8497 122.352 35.0951 122.064C35.3404 121.765 35.4631 121.376 35.4631 120.896V112.88H37.3031ZM39.6623 119.552C39.6623 118.667 39.8436 117.883 40.2063 117.2C40.5796 116.517 41.081 115.989 41.7103 115.616C42.3503 115.232 43.0543 115.04 43.8223 115.04C44.5156 115.04 45.1183 115.179 45.6303 115.456C46.153 115.723 46.569 116.059 46.8783 116.464V115.184H48.7183V124H46.8783V122.688C46.569 123.104 46.1476 123.451 45.6143 123.728C45.081 124.005 44.473 124.144 43.7903 124.144C43.033 124.144 42.3396 123.952 41.7103 123.568C41.081 123.173 40.5796 122.629 40.2063 121.936C39.8436 121.232 39.6623 120.437 39.6623 119.552ZM46.8783 119.584C46.8783 118.976 46.7503 118.448 46.4943 118C46.249 117.552 45.9236 117.211 45.5183 116.976C45.113 116.741 44.6756 116.624 44.2063 116.624C43.737 116.624 43.2996 116.741 42.8943 116.976C42.489 117.2 42.1583 117.536 41.9023 117.984C41.657 118.421 41.5343 118.944 41.5343 119.552C41.5343 120.16 41.657 120.693 41.9023 121.152C42.1583 121.611 42.489 121.963 42.8943 122.208C43.3103 122.443 43.7476 122.56 44.2063 122.56C44.6756 122.56 45.113 122.443 45.5183 122.208C45.9236 121.973 46.249 121.632 46.4943 121.184C46.7503 120.725 46.8783 120.192 46.8783 119.584ZM54.5221 122.368L57.0181 115.184H58.9541L55.5941 124H53.4181L50.0741 115.184H52.0261L54.5221 122.368ZM59.7248 119.552C59.7248 118.667 59.9061 117.883 60.2688 117.2C60.6421 116.517 61.1435 115.989 61.7728 115.616C62.4128 115.232 63.1168 115.04 63.8848 115.04C64.5781 115.04 65.1808 115.179 65.6928 115.456C66.2155 115.723 66.6315 116.059 66.9408 116.464V115.184H68.7808V124H66.9408V122.688C66.6315 123.104 66.2101 123.451 65.6768 123.728C65.1435 124.005 64.5355 124.144 63.8528 124.144C63.0955 124.144 62.4021 123.952 61.7728 123.568C61.1435 123.173 60.6421 122.629 60.2688 121.936C59.9061 121.232 59.7248 120.437 59.7248 119.552ZM66.9408 119.584C66.9408 118.976 66.8128 118.448 66.5568 118C66.3115 117.552 65.9861 117.211 65.5808 116.976C65.1755 116.741 64.7381 116.624 64.2688 116.624C63.7995 116.624 63.3621 116.741 62.9568 116.976C62.5515 117.2 62.2208 117.536 61.9648 117.984C61.7195 118.421 61.5968 118.944 61.5968 119.552C61.5968 120.16 61.7195 120.693 61.9648 121.152C62.2208 121.611 62.5515 121.963 62.9568 122.208C63.3728 122.443 63.8101 122.56 64.2688 122.56C64.7381 122.56 65.1755 122.443 65.5808 122.208C65.9861 121.973 66.3115 121.632 66.5568 121.184C66.8128 120.725 66.9408 120.192 66.9408 119.584ZM77.0966 108.896L72.7446 126.8H70.9526L75.2886 108.896H77.0966ZM84.4673 124.112C83.4326 124.112 82.478 123.872 81.6033 123.392C80.7393 122.901 80.0513 122.224 79.5393 121.36C79.038 120.485 78.7873 119.504 78.7873 118.416C78.7873 117.328 79.038 116.352 79.5393 115.488C80.0513 114.624 80.7393 113.952 81.6033 113.472C82.478 112.981 83.4326 112.736 84.4673 112.736C85.5126 112.736 86.4673 112.981 87.3313 113.472C88.206 113.952 88.894 114.624 89.3953 115.488C89.8966 116.352 90.1473 117.328 90.1473 118.416C90.1473 119.504 89.8966 120.485 89.3953 121.36C88.894 122.224 88.206 122.901 87.3313 123.392C86.4673 123.872 85.5126 124.112 84.4673 124.112ZM84.4673 122.528C85.2033 122.528 85.8593 122.363 86.4353 122.032C87.0113 121.691 87.4593 121.211 87.7793 120.592C88.11 119.963 88.2753 119.237 88.2753 118.416C88.2753 117.595 88.11 116.875 87.7793 116.256C87.4593 115.637 87.0113 115.163 86.4353 114.832C85.8593 114.501 85.2033 114.336 84.4673 114.336C83.7313 114.336 83.0753 114.501 82.4993 114.832C81.9233 115.163 81.47 115.637 81.1393 116.256C80.8193 116.875 80.6593 117.595 80.6593 118.416C80.6593 119.237 80.8193 119.963 81.1393 120.592C81.47 121.211 81.9233 121.691 82.4993 122.032C83.0753 122.363 83.7313 122.528 84.4673 122.528ZM93.7662 116.48C94.0755 116.075 94.4969 115.733 95.0302 115.456C95.5635 115.179 96.1662 115.04 96.8382 115.04C97.6062 115.04 98.3049 115.232 98.9342 115.616C99.5742 115.989 100.076 116.517 100.438 117.2C100.801 117.883 100.982 118.667 100.982 119.552C100.982 120.437 100.801 121.232 100.438 121.936C100.076 122.629 99.5742 123.173 98.9342 123.568C98.3049 123.952 97.6062 124.144 96.8382 124.144C96.1662 124.144 95.5689 124.011 95.0462 123.744C94.5235 123.467 94.0969 123.125 93.7662 122.72V128.192H91.9422V115.184H93.7662V116.48ZM99.1262 119.552C99.1262 118.944 98.9982 118.421 98.7422 117.984C98.4969 117.536 98.1662 117.2 97.7502 116.976C97.3449 116.741 96.9075 116.624 96.4382 116.624C95.9795 116.624 95.5422 116.741 95.1262 116.976C94.7209 117.211 94.3902 117.552 94.1342 118C93.8889 118.448 93.7662 118.976 93.7662 119.584C93.7662 120.192 93.8889 120.725 94.1342 121.184C94.3902 121.632 94.7209 121.973 95.1262 122.208C95.5422 122.443 95.9795 122.56 96.4382 122.56C96.9075 122.56 97.3449 122.443 97.7502 122.208C98.1662 121.963 98.4969 121.611 98.7422 121.152C98.9982 120.693 99.1262 120.16 99.1262 119.552ZM110.866 119.376C110.866 119.707 110.845 120.005 110.802 120.272H104.066C104.119 120.976 104.381 121.541 104.85 121.968C105.319 122.395 105.895 122.608 106.578 122.608C107.559 122.608 108.253 122.197 108.658 121.376H110.626C110.359 122.187 109.874 122.853 109.17 123.376C108.477 123.888 107.613 124.144 106.578 124.144C105.735 124.144 104.978 123.957 104.306 123.584C103.645 123.2 103.122 122.667 102.738 121.984C102.365 121.291 102.178 120.491 102.178 119.584C102.178 118.677 102.359 117.883 102.722 117.2C103.095 116.507 103.613 115.973 104.274 115.6C104.946 115.227 105.714 115.04 106.578 115.04C107.41 115.04 108.151 115.221 108.802 115.584C109.453 115.947 109.959 116.459 110.322 117.12C110.685 117.771 110.866 118.523 110.866 119.376ZM108.962 118.8C108.951 118.128 108.711 117.589 108.242 117.184C107.773 116.779 107.191 116.576 106.498 116.576C105.869 116.576 105.33 116.779 104.882 117.184C104.434 117.579 104.167 118.117 104.082 118.8H108.962ZM117.109 115.04C117.802 115.04 118.421 115.184 118.965 115.472C119.52 115.76 119.952 116.187 120.261 116.752C120.57 117.317 120.725 118 120.725 118.8V124H118.917V119.072C118.917 118.283 118.72 117.68 118.325 117.264C117.93 116.837 117.392 116.624 116.709 116.624C116.026 116.624 115.482 116.837 115.077 117.264C114.682 117.68 114.485 118.283 114.485 119.072V124H112.661V115.184H114.485V116.192C114.784 115.829 115.162 115.547 115.621 115.344C116.09 115.141 116.586 115.04 117.109 115.04ZM129.82 117.44V118.976H123.244V117.44H129.82ZM135.611 124.144C134.918 124.144 134.294 124.021 133.739 123.776C133.195 123.52 132.763 123.179 132.443 122.752C132.123 122.315 131.952 121.829 131.931 121.296H133.819C133.851 121.669 134.027 121.984 134.347 122.24C134.678 122.485 135.088 122.608 135.579 122.608C136.091 122.608 136.486 122.512 136.763 122.32C137.051 122.117 137.195 121.861 137.195 121.552C137.195 121.221 137.035 120.976 136.715 120.816C136.406 120.656 135.91 120.48 135.227 120.288C134.566 120.107 134.027 119.931 133.611 119.76C133.195 119.589 132.832 119.328 132.523 118.976C132.224 118.624 132.075 118.16 132.075 117.584C132.075 117.115 132.214 116.688 132.491 116.304C132.768 115.909 133.163 115.6 133.675 115.376C134.198 115.152 134.795 115.04 135.467 115.04C136.47 115.04 137.275 115.296 137.883 115.808C138.502 116.309 138.832 116.997 138.875 117.872H137.051C137.019 117.477 136.859 117.163 136.571 116.928C136.283 116.693 135.894 116.576 135.403 116.576C134.923 116.576 134.555 116.667 134.299 116.848C134.043 117.029 133.915 117.269 133.915 117.568C133.915 117.803 134 118 134.171 118.16C134.342 118.32 134.55 118.448 134.795 118.544C135.04 118.629 135.403 118.741 135.883 118.88C136.523 119.051 137.046 119.227 137.451 119.408C137.867 119.579 138.224 119.835 138.523 120.176C138.822 120.517 138.976 120.971 138.987 121.536C138.987 122.037 138.848 122.485 138.571 122.88C138.294 123.275 137.899 123.584 137.387 123.808C136.886 124.032 136.294 124.144 135.611 124.144ZM144.782 124.144C143.95 124.144 143.198 123.957 142.526 123.584C141.854 123.2 141.326 122.667 140.942 121.984C140.558 121.291 140.366 120.491 140.366 119.584C140.366 118.688 140.563 117.893 140.958 117.2C141.352 116.507 141.891 115.973 142.574 115.6C143.256 115.227 144.019 115.04 144.862 115.04C145.704 115.04 146.467 115.227 147.15 115.6C147.832 115.973 148.371 116.507 148.766 117.2C149.16 117.893 149.358 118.688 149.358 119.584C149.358 120.48 149.155 121.275 148.75 121.968C148.344 122.661 147.79 123.2 147.086 123.584C146.392 123.957 145.624 124.144 144.782 124.144ZM144.782 122.56C145.251 122.56 145.688 122.448 146.094 122.224C146.51 122 146.846 121.664 147.102 121.216C147.358 120.768 147.486 120.224 147.486 119.584C147.486 118.944 147.363 118.405 147.118 117.968C146.872 117.52 146.547 117.184 146.142 116.96C145.736 116.736 145.299 116.624 144.83 116.624C144.36 116.624 143.923 116.736 143.518 116.96C143.123 117.184 142.808 117.52 142.574 117.968C142.339 118.405 142.222 118.944 142.222 119.584C142.222 120.533 142.462 121.269 142.942 121.792C143.432 122.304 144.046 122.56 144.782 122.56ZM159.145 115.184V124H157.321V122.96C157.033 123.323 156.654 123.611 156.185 123.824C155.726 124.027 155.236 124.128 154.713 124.128C154.02 124.128 153.396 123.984 152.841 123.696C152.297 123.408 151.865 122.981 151.545 122.416C151.236 121.851 151.081 121.168 151.081 120.368V115.184H152.889V120.096C152.889 120.885 153.086 121.493 153.481 121.92C153.876 122.336 154.414 122.544 155.097 122.544C155.78 122.544 156.318 122.336 156.713 121.92C157.118 121.493 157.321 120.885 157.321 120.096V115.184H159.145ZM163.376 116.464C163.642 116.016 163.994 115.669 164.432 115.424C164.88 115.168 165.408 115.04 166.016 115.04V116.928H165.552C164.837 116.928 164.293 117.109 163.92 117.472C163.557 117.835 163.376 118.464 163.376 119.36V124H161.552V115.184H163.376V116.464ZM167.084 119.584C167.084 118.677 167.266 117.883 167.628 117.2C168.002 116.507 168.514 115.973 169.164 115.6C169.815 115.227 170.562 115.04 171.404 115.04C172.471 115.04 173.351 115.296 174.044 115.808C174.748 116.309 175.223 117.029 175.468 117.968H173.5C173.34 117.531 173.084 117.189 172.732 116.944C172.38 116.699 171.938 116.576 171.404 116.576C170.658 116.576 170.06 116.843 169.612 117.376C169.175 117.899 168.956 118.635 168.956 119.584C168.956 120.533 169.175 121.275 169.612 121.808C170.06 122.341 170.658 122.608 171.404 122.608C172.46 122.608 173.159 122.144 173.5 121.216H175.468C175.212 122.112 174.732 122.827 174.028 123.36C173.324 123.883 172.45 124.144 171.404 124.144C170.562 124.144 169.815 123.957 169.164 123.584C168.514 123.2 168.002 122.667 167.628 121.984C167.266 121.291 167.084 120.491 167.084 119.584ZM185.366 119.376C185.366 119.707 185.345 120.005 185.302 120.272H178.566C178.619 120.976 178.881 121.541 179.35 121.968C179.819 122.395 180.395 122.608 181.078 122.608C182.059 122.608 182.753 122.197 183.158 121.376H185.126C184.859 122.187 184.374 122.853 183.67 123.376C182.977 123.888 182.113 124.144 181.078 124.144C180.235 124.144 179.478 123.957 178.806 123.584C178.145 123.2 177.622 122.667 177.238 121.984C176.865 121.291 176.678 120.491 176.678 119.584C176.678 118.677 176.859 117.883 177.222 117.2C177.595 116.507 178.113 115.973 178.774 115.6C179.446 115.227 180.214 115.04 181.078 115.04C181.91 115.04 182.651 115.221 183.302 115.584C183.953 115.947 184.459 116.459 184.822 117.12C185.185 117.771 185.366 118.523 185.366 119.376ZM183.462 118.8C183.451 118.128 183.211 117.589 182.742 117.184C182.273 116.779 181.691 116.576 180.998 116.576C180.369 116.576 179.83 116.779 179.382 117.184C178.934 117.579 178.667 118.117 178.582 118.8H183.462ZM62.6887 132.88V134.368H59.7287V144H57.9047V134.368H54.9287V132.88H62.6887ZM72.6159 139.376C72.6159 139.707 72.5946 140.005 72.5519 140.272H65.8159C65.8693 140.976 66.1306 141.541 66.5999 141.968C67.0693 142.395 67.6453 142.608 68.3279 142.608C69.3093 142.608 70.0026 142.197 70.4079 141.376H72.3759C72.1093 142.187 71.6239 142.853 70.9199 143.376C70.2266 143.888 69.3626 144.144 68.3279 144.144C67.4853 144.144 66.7279 143.957 66.0559 143.584C65.3946 143.2 64.8719 142.667 64.4879 141.984C64.1146 141.291 63.9279 140.491 63.9279 139.584C63.9279 138.677 64.1093 137.883 64.4719 137.2C64.8453 136.507 65.3626 135.973 66.0239 135.6C66.6959 135.227 67.4639 135.04 68.3279 135.04C69.1599 135.04 69.9013 135.221 70.5519 135.584C71.2026 135.947 71.7093 136.459 72.0719 137.12C72.4346 137.771 72.6159 138.523 72.6159 139.376ZM70.7119 138.8C70.7013 138.128 70.4613 137.589 69.9919 137.184C69.5226 136.779 68.9413 136.576 68.2479 136.576C67.6186 136.576 67.0799 136.779 66.6319 137.184C66.1839 137.579 65.9173 138.117 65.8319 138.8H70.7119ZM73.8029 139.584C73.8029 138.677 73.9843 137.883 74.3469 137.2C74.7203 136.507 75.2323 135.973 75.8829 135.6C76.5336 135.227 77.2803 135.04 78.1229 135.04C79.1896 135.04 80.0696 135.296 80.7629 135.808C81.4669 136.309 81.9416 137.029 82.1869 137.968H80.2189C80.0589 137.531 79.8029 137.189 79.4509 136.944C79.0989 136.699 78.6563 136.576 78.1229 136.576C77.3763 136.576 76.7789 136.843 76.3309 137.376C75.8936 137.899 75.6749 138.635 75.6749 139.584C75.6749 140.533 75.8936 141.275 76.3309 141.808C76.7789 142.341 77.3763 142.608 78.1229 142.608C79.1789 142.608 79.8776 142.144 80.2189 141.216H82.1869C81.9309 142.112 81.4509 142.827 80.7469 143.36C80.0429 143.883 79.1683 144.144 78.1229 144.144C77.2803 144.144 76.5336 143.957 75.8829 143.584C75.2323 143.2 74.7203 142.667 74.3469 141.984C73.9843 141.291 73.8029 140.491 73.8029 139.584ZM88.5647 135.04C89.2367 135.04 89.834 135.184 90.3567 135.472C90.89 135.76 91.306 136.187 91.6047 136.752C91.914 137.317 92.0687 138 92.0687 138.8V144H90.2607V139.072C90.2607 138.283 90.0634 137.68 89.6687 137.264C89.274 136.837 88.7354 136.624 88.0527 136.624C87.37 136.624 86.826 136.837 86.4207 137.264C86.026 137.68 85.8287 138.283 85.8287 139.072V144H84.0047V132.16H85.8287V136.208C86.138 135.835 86.5274 135.547 86.9967 135.344C87.4767 135.141 87.9994 135.04 88.5647 135.04ZM98.8433 135.04C99.5366 135.04 100.155 135.184 100.699 135.472C101.254 135.76 101.686 136.187 101.995 136.752C102.305 137.317 102.459 138 102.459 138.8V144H100.651V139.072C100.651 138.283 100.454 137.68 100.059 137.264C99.6646 136.837 99.126 136.624 98.4433 136.624C97.7606 136.624 97.2166 136.837 96.8113 137.264C96.4166 137.68 96.2193 138.283 96.2193 139.072V144H94.3953V135.184H96.2193V136.192C96.518 135.829 96.8966 135.547 97.3553 135.344C97.8246 135.141 98.3206 135.04 98.8433 135.04ZM108.61 144.144C107.778 144.144 107.026 143.957 106.354 143.584C105.682 143.2 105.154 142.667 104.77 141.984C104.386 141.291 104.194 140.491 104.194 139.584C104.194 138.688 104.391 137.893 104.786 137.2C105.181 136.507 105.719 135.973 106.402 135.6C107.085 135.227 107.847 135.04 108.69 135.04C109.533 135.04 110.295 135.227 110.978 135.6C111.661 135.973 112.199 136.507 112.594 137.2C112.989 137.893 113.186 138.688 113.186 139.584C113.186 140.48 112.983 141.275 112.578 141.968C112.173 142.661 111.618 143.2 110.914 143.584C110.221 143.957 109.453 144.144 108.61 144.144ZM108.61 142.56C109.079 142.56 109.517 142.448 109.922 142.224C110.338 142 110.674 141.664 110.93 141.216C111.186 140.768 111.314 140.224 111.314 139.584C111.314 138.944 111.191 138.405 110.946 137.968C110.701 137.52 110.375 137.184 109.97 136.96C109.565 136.736 109.127 136.624 108.658 136.624C108.189 136.624 107.751 136.736 107.346 136.96C106.951 137.184 106.637 137.52 106.402 137.968C106.167 138.405 106.05 138.944 106.05 139.584C106.05 140.533 106.29 141.269 106.77 141.792C107.261 142.304 107.874 142.56 108.61 142.56ZM116.813 132.16V144H114.989V132.16H116.813ZM123.032 144.144C122.2 144.144 121.448 143.957 120.776 143.584C120.104 143.2 119.576 142.667 119.192 141.984C118.808 141.291 118.616 140.491 118.616 139.584C118.616 138.688 118.813 137.893 119.208 137.2C119.602 136.507 120.141 135.973 120.824 135.6C121.506 135.227 122.269 135.04 123.112 135.04C123.954 135.04 124.717 135.227 125.4 135.6C126.082 135.973 126.621 136.507 127.016 137.2C127.41 137.893 127.608 138.688 127.608 139.584C127.608 140.48 127.405 141.275 127 141.968C126.594 142.661 126.04 143.2 125.336 143.584C124.642 143.957 123.874 144.144 123.032 144.144ZM123.032 142.56C123.501 142.56 123.938 142.448 124.344 142.224C124.76 142 125.096 141.664 125.352 141.216C125.608 140.768 125.736 140.224 125.736 139.584C125.736 138.944 125.613 138.405 125.368 137.968C125.122 137.52 124.797 137.184 124.392 136.96C123.986 136.736 123.549 136.624 123.08 136.624C122.61 136.624 122.173 136.736 121.768 136.96C121.373 137.184 121.058 137.52 120.824 137.968C120.589 138.405 120.472 138.944 120.472 139.584C120.472 140.533 120.712 141.269 121.192 141.792C121.682 142.304 122.296 142.56 123.032 142.56ZM132.963 135.04C133.646 135.04 134.248 135.179 134.771 135.456C135.304 135.723 135.72 136.059 136.019 136.464V135.184H137.859V144.144C137.859 144.955 137.688 145.675 137.347 146.304C137.006 146.944 136.51 147.445 135.859 147.808C135.219 148.171 134.451 148.352 133.555 148.352C132.36 148.352 131.368 148.069 130.579 147.504C129.79 146.949 129.342 146.192 129.235 145.232H131.043C131.182 145.691 131.475 146.059 131.923 146.336C132.382 146.624 132.926 146.768 133.555 146.768C134.291 146.768 134.883 146.544 135.331 146.096C135.79 145.648 136.019 144.997 136.019 144.144V142.672C135.71 143.088 135.288 143.44 134.755 143.728C134.232 144.005 133.635 144.144 132.963 144.144C132.195 144.144 131.491 143.952 130.851 143.568C130.222 143.173 129.72 142.629 129.347 141.936C128.984 141.232 128.803 140.437 128.803 139.552C128.803 138.667 128.984 137.883 129.347 137.2C129.72 136.517 130.222 135.989 130.851 135.616C131.491 135.232 132.195 135.04 132.963 135.04ZM136.019 139.584C136.019 138.976 135.891 138.448 135.635 138C135.39 137.552 135.064 137.211 134.659 136.976C134.254 136.741 133.816 136.624 133.347 136.624C132.878 136.624 132.44 136.741 132.035 136.976C131.63 137.2 131.299 137.536 131.043 137.984C130.798 138.421 130.675 138.944 130.675 139.552C130.675 140.16 130.798 140.693 131.043 141.152C131.299 141.611 131.63 141.963 132.035 142.208C132.451 142.443 132.888 142.56 133.347 142.56C133.816 142.56 134.254 142.443 134.659 142.208C135.064 141.973 135.39 141.632 135.635 141.184C135.891 140.725 136.019 140.192 136.019 139.584ZM141.183 134.016C140.852 134.016 140.575 133.904 140.351 133.68C140.127 133.456 140.015 133.179 140.015 132.848C140.015 132.517 140.127 132.24 140.351 132.016C140.575 131.792 140.852 131.68 141.183 131.68C141.503 131.68 141.775 131.792 141.999 132.016C142.223 132.24 142.335 132.517 142.335 132.848C142.335 133.179 142.223 133.456 141.999 133.68C141.775 133.904 141.503 134.016 141.183 134.016ZM142.079 135.184V144H140.255V135.184H142.079ZM152.553 139.376C152.553 139.707 152.532 140.005 152.489 140.272H145.753C145.807 140.976 146.068 141.541 146.537 141.968C147.007 142.395 147.583 142.608 148.265 142.608C149.247 142.608 149.94 142.197 150.345 141.376H152.313C152.047 142.187 151.561 142.853 150.857 143.376C150.164 143.888 149.3 144.144 148.265 144.144C147.423 144.144 146.665 143.957 145.993 143.584C145.332 143.2 144.809 142.667 144.425 141.984C144.052 141.291 143.865 140.491 143.865 139.584C143.865 138.677 144.047 137.883 144.409 137.2C144.783 136.507 145.3 135.973 145.961 135.6C146.633 135.227 147.401 135.04 148.265 135.04C149.097 135.04 149.839 135.221 150.489 135.584C151.14 135.947 151.647 136.459 152.009 137.12C152.372 137.771 152.553 138.523 152.553 139.376ZM150.649 138.8C150.639 138.128 150.399 137.589 149.929 137.184C149.46 136.779 148.879 136.576 148.185 136.576C147.556 136.576 147.017 136.779 146.569 137.184C146.121 137.579 145.855 138.117 145.769 138.8H150.649ZM157.548 144.144C156.855 144.144 156.231 144.021 155.676 143.776C155.132 143.52 154.7 143.179 154.38 142.752C154.06 142.315 153.89 141.829 153.868 141.296H155.756C155.788 141.669 155.964 141.984 156.284 142.24C156.615 142.485 157.026 142.608 157.516 142.608C158.028 142.608 158.423 142.512 158.7 142.32C158.988 142.117 159.132 141.861 159.132 141.552C159.132 141.221 158.972 140.976 158.652 140.816C158.343 140.656 157.847 140.48 157.164 140.288C156.503 140.107 155.964 139.931 155.548 139.76C155.132 139.589 154.77 139.328 154.46 138.976C154.162 138.624 154.012 138.16 154.012 137.584C154.012 137.115 154.151 136.688 154.428 136.304C154.706 135.909 155.1 135.6 155.612 135.376C156.135 135.152 156.732 135.04 157.404 135.04C158.407 135.04 159.212 135.296 159.82 135.808C160.439 136.309 160.77 136.997 160.812 137.872H158.988C158.956 137.477 158.796 137.163 158.508 136.928C158.22 136.693 157.831 136.576 157.34 136.576C156.86 136.576 156.492 136.667 156.236 136.848C155.98 137.029 155.852 137.269 155.852 137.568C155.852 137.803 155.938 138 156.108 138.16C156.279 138.32 156.487 138.448 156.732 138.544C156.978 138.629 157.34 138.741 157.82 138.88C158.46 139.051 158.983 139.227 159.388 139.408C159.804 139.579 160.162 139.835 160.46 140.176C160.759 140.517 160.914 140.971 160.924 141.536C160.924 142.037 160.786 142.485 160.508 142.88C160.231 143.275 159.836 143.584 159.324 143.808C158.823 144.032 158.231 144.144 157.548 144.144Z" fill="#232C68"/>
<defs>
<linearGradient id="paint0_linear_92_1881" x1="555.345" y1="94.7269" x2="-45.1588" y2="94.7494" gradientUnits="userSpaceOnUse">
<stop stop-color="#00499D"/>
<stop offset="0.296875" stop-color="#00ADEE"/>
<stop offset="0.609375" stop-color="#0068B7"/>
<stop offset="1" stop-color="white"/>
</linearGradient>
<linearGradient id="paint1_linear_92_1881" x1="212.569" y1="73.7135" x2="72.3224" y2="73.7182" gradientUnits="userSpaceOnUse">
<stop stop-color="#00499D"/>
<stop offset="0.338542" stop-color="#00ADEE"/>
<stop offset="0.674427" stop-color="#0068B7"/>
<stop offset="1" stop-color="#232C68"/>
</linearGradient>
<linearGradient id="paint2_linear_92_1881" x1="117.946" y1="58.3034" x2="100.415" y2="58.3037" gradientUnits="userSpaceOnUse">
<stop stop-color="#00499D"/>
<stop offset="0.338542" stop-color="#00ADEE"/>
<stop offset="0.674427" stop-color="#0068B7"/>
<stop offset="1" stop-color="#232C68"/>
</linearGradient>
<linearGradient id="paint3_linear_92_1881" x1="149.828" y1="78.8495" x2="93.729" y2="78.8509" gradientUnits="userSpaceOnUse">
<stop stop-color="#00499D"/>
<stop offset="0.338542" stop-color="#00ADEE"/>
<stop offset="0.674427" stop-color="#0068B7"/>
<stop offset="1" stop-color="#232C68"/>
</linearGradient>
</defs>
</svg>
