<svg width="215" height="192" viewBox="0 0 215 192" fill="none" xmlns="http://www.w3.org/2000/svg">
<path d="M151.087 0.584961H64.8235C57.4062 0.584961 50.5472 4.53953 46.8306 10.9657L3.6986 85.656C-0.0180231 92.0822 -0.0180231 99.9913 3.6986 106.417L46.8306 181.108C50.5472 187.534 57.4062 191.489 64.8235 191.489H151.087C158.505 191.489 165.364 187.534 169.08 181.108L212.212 106.417C215.929 99.9913 215.929 92.0822 212.212 85.656L169.08 10.9657C165.364 4.53953 158.505 0.584961 151.087 0.584961Z" fill="url(#paint0_linear_92_1893)"/>
<path d="M64.8076 189.097C58.2677 189.097 52.1584 185.573 48.8884 179.912L5.75645 105.222C2.48646 99.5608 2.48646 92.5127 5.75645 86.852L48.8884 12.1617C52.1584 6.5009 58.2677 2.97687 64.8076 2.97687H151.072C157.612 2.97687 163.721 6.5009 166.991 12.1617L210.123 86.852C213.393 92.5127 213.393 99.5608 210.123 105.222L166.991 179.912C163.721 185.573 157.612 189.097 151.072 189.097H64.8076Z" fill="white"/>
<path d="M85.5 74V60.875L100.5 57.575V73.775L85.5 74ZM128 51.5V73.375L103 73.75V57.025L128 51.5ZM85.5 76.5L100.5 76.725V93.75L85.5 90.875V76.5ZM128 77.125V99L103 94.225V76.75L128 77.125Z" fill="url(#paint1_linear_92_1893)"/>
<path d="M83.7714 112.88V124H81.9474V116.384L78.5554 124H77.2914L73.8834 116.384V124H72.0594V112.88H74.0274L77.9314 121.6L81.8194 112.88H83.7714ZM87.0968 114.016C86.7661 114.016 86.4888 113.904 86.2648 113.68C86.0408 113.456 85.9288 113.179 85.9288 112.848C85.9288 112.517 86.0408 112.24 86.2648 112.016C86.4888 111.792 86.7661 111.68 87.0968 111.68C87.4168 111.68 87.6888 111.792 87.9128 112.016C88.1368 112.24 88.2488 112.517 88.2488 112.848C88.2488 113.179 88.1368 113.456 87.9128 113.68C87.6888 113.904 87.4168 114.016 87.0968 114.016ZM87.9928 115.184V124H86.1688V115.184H87.9928ZM89.7795 119.584C89.7795 118.677 89.9608 117.883 90.3235 117.2C90.6968 116.507 91.2088 115.973 91.8595 115.6C92.5102 115.227 93.2568 115.04 94.0995 115.04C95.1662 115.04 96.0462 115.296 96.7395 115.808C97.4435 116.309 97.9182 117.029 98.1635 117.968H96.1955C96.0355 117.531 95.7795 117.189 95.4275 116.944C95.0755 116.699 94.6328 116.576 94.0995 116.576C93.3528 116.576 92.7555 116.843 92.3075 117.376C91.8702 117.899 91.6515 118.635 91.6515 119.584C91.6515 120.533 91.8702 121.275 92.3075 121.808C92.7555 122.341 93.3528 122.608 94.0995 122.608C95.1555 122.608 95.8542 122.144 96.1955 121.216H98.1635C97.9075 122.112 97.4275 122.827 96.7235 123.36C96.0195 123.883 95.1448 124.144 94.0995 124.144C93.2568 124.144 92.5102 123.957 91.8595 123.584C91.2088 123.2 90.6968 122.667 90.3235 121.984C89.9608 121.291 89.7795 120.491 89.7795 119.584ZM101.805 116.464C102.072 116.016 102.424 115.669 102.861 115.424C103.309 115.168 103.837 115.04 104.445 115.04V116.928H103.981C103.267 116.928 102.723 117.109 102.349 117.472C101.987 117.835 101.805 118.464 101.805 119.36V124H99.9813V115.184H101.805V116.464ZM109.946 124.144C109.114 124.144 108.362 123.957 107.69 123.584C107.018 123.2 106.49 122.667 106.106 121.984C105.722 121.291 105.53 120.491 105.53 119.584C105.53 118.688 105.727 117.893 106.122 117.2C106.517 116.507 107.055 115.973 107.738 115.6C108.421 115.227 109.183 115.04 110.026 115.04C110.869 115.04 111.631 115.227 112.314 115.6C112.997 115.973 113.535 116.507 113.93 117.2C114.325 117.893 114.522 118.688 114.522 119.584C114.522 120.48 114.319 121.275 113.914 121.968C113.509 122.661 112.954 123.2 112.25 123.584C111.557 123.957 110.789 124.144 109.946 124.144ZM109.946 122.56C110.415 122.56 110.853 122.448 111.258 122.224C111.674 122 112.01 121.664 112.266 121.216C112.522 120.768 112.65 120.224 112.65 119.584C112.65 118.944 112.527 118.405 112.282 117.968C112.037 117.52 111.711 117.184 111.306 116.96C110.901 116.736 110.463 116.624 109.994 116.624C109.525 116.624 109.087 116.736 108.682 116.96C108.287 117.184 107.973 117.52 107.738 117.968C107.503 118.405 107.386 118.944 107.386 119.584C107.386 120.533 107.626 121.269 108.106 121.792C108.597 122.304 109.21 122.56 109.946 122.56ZM119.525 124.144C118.832 124.144 118.208 124.021 117.653 123.776C117.109 123.52 116.677 123.179 116.357 122.752C116.037 122.315 115.866 121.829 115.845 121.296H117.733C117.765 121.669 117.941 121.984 118.261 122.24C118.592 122.485 119.002 122.608 119.493 122.608C120.005 122.608 120.4 122.512 120.677 122.32C120.965 122.117 121.109 121.861 121.109 121.552C121.109 121.221 120.949 120.976 120.629 120.816C120.32 120.656 119.824 120.48 119.141 120.288C118.48 120.107 117.941 119.931 117.525 119.76C117.109 119.589 116.746 119.328 116.437 118.976C116.138 118.624 115.989 118.16 115.989 117.584C115.989 117.115 116.128 116.688 116.405 116.304C116.682 115.909 117.077 115.6 117.589 115.376C118.112 115.152 118.709 115.04 119.381 115.04C120.384 115.04 121.189 115.296 121.797 115.808C122.416 116.309 122.746 116.997 122.789 117.872H120.965C120.933 117.477 120.773 117.163 120.485 116.928C120.197 116.693 119.808 116.576 119.317 116.576C118.837 116.576 118.469 116.667 118.213 116.848C117.957 117.029 117.829 117.269 117.829 117.568C117.829 117.803 117.914 118 118.085 118.16C118.256 118.32 118.464 118.448 118.709 118.544C118.954 118.629 119.317 118.741 119.797 118.88C120.437 119.051 120.96 119.227 121.365 119.408C121.781 119.579 122.138 119.835 122.437 120.176C122.736 120.517 122.89 120.971 122.901 121.536C122.901 122.037 122.762 122.485 122.485 122.88C122.208 123.275 121.813 123.584 121.301 123.808C120.8 124.032 120.208 124.144 119.525 124.144ZM128.696 124.144C127.864 124.144 127.112 123.957 126.44 123.584C125.768 123.2 125.24 122.667 124.856 121.984C124.472 121.291 124.28 120.491 124.28 119.584C124.28 118.688 124.477 117.893 124.872 117.2C125.267 116.507 125.805 115.973 126.488 115.6C127.171 115.227 127.933 115.04 128.776 115.04C129.619 115.04 130.381 115.227 131.064 115.6C131.747 115.973 132.285 116.507 132.68 117.2C133.075 117.893 133.272 118.688 133.272 119.584C133.272 120.48 133.069 121.275 132.664 121.968C132.259 122.661 131.704 123.2 131 123.584C130.307 123.957 129.539 124.144 128.696 124.144ZM128.696 122.56C129.165 122.56 129.603 122.448 130.008 122.224C130.424 122 130.76 121.664 131.016 121.216C131.272 120.768 131.4 120.224 131.4 119.584C131.4 118.944 131.277 118.405 131.032 117.968C130.787 117.52 130.461 117.184 130.056 116.96C129.651 116.736 129.213 116.624 128.744 116.624C128.275 116.624 127.837 116.736 127.432 116.96C127.037 117.184 126.723 117.52 126.488 117.968C126.253 118.405 126.136 118.944 126.136 119.584C126.136 120.533 126.376 121.269 126.856 121.792C127.347 122.304 127.96 122.56 128.696 122.56ZM138.771 116.672H137.139V124H135.299V116.672H134.259V115.184H135.299V114.56C135.299 113.547 135.566 112.811 136.099 112.352C136.643 111.883 137.491 111.648 138.643 111.648V113.168C138.088 113.168 137.699 113.275 137.475 113.488C137.251 113.691 137.139 114.048 137.139 114.56V115.184H138.771V116.672ZM142.516 116.672V121.552C142.516 121.883 142.59 122.123 142.74 122.272C142.9 122.411 143.166 122.48 143.54 122.48H144.66V124H143.22C142.398 124 141.769 123.808 141.332 123.424C140.894 123.04 140.676 122.416 140.676 121.552V116.672H139.636V115.184H140.676V112.992H142.516V115.184H144.66V116.672H142.516ZM62.6887 132.88V134.368H59.7287V144H57.9047V134.368H54.9287V132.88H62.6887ZM72.6159 139.376C72.6159 139.707 72.5946 140.005 72.5519 140.272H65.8159C65.8693 140.976 66.1306 141.541 66.5999 141.968C67.0693 142.395 67.6453 142.608 68.3279 142.608C69.3093 142.608 70.0026 142.197 70.4079 141.376H72.3759C72.1093 142.187 71.6239 142.853 70.9199 143.376C70.2266 143.888 69.3626 144.144 68.3279 144.144C67.4853 144.144 66.7279 143.957 66.0559 143.584C65.3946 143.2 64.8719 142.667 64.4879 141.984C64.1146 141.291 63.9279 140.491 63.9279 139.584C63.9279 138.677 64.1093 137.883 64.4719 137.2C64.8453 136.507 65.3626 135.973 66.0239 135.6C66.6959 135.227 67.4639 135.04 68.3279 135.04C69.1599 135.04 69.9013 135.221 70.5519 135.584C71.2026 135.947 71.7093 136.459 72.0719 137.12C72.4346 137.771 72.6159 138.523 72.6159 139.376ZM70.7119 138.8C70.7013 138.128 70.4613 137.589 69.9919 137.184C69.5226 136.779 68.9413 136.576 68.2479 136.576C67.6186 136.576 67.0799 136.779 66.6319 137.184C66.1839 137.579 65.9173 138.117 65.8319 138.8H70.7119ZM73.8029 139.584C73.8029 138.677 73.9843 137.883 74.3469 137.2C74.7203 136.507 75.2323 135.973 75.8829 135.6C76.5336 135.227 77.2803 135.04 78.1229 135.04C79.1896 135.04 80.0696 135.296 80.7629 135.808C81.4669 136.309 81.9416 137.029 82.1869 137.968H80.2189C80.0589 137.531 79.8029 137.189 79.4509 136.944C79.0989 136.699 78.6563 136.576 78.1229 136.576C77.3763 136.576 76.7789 136.843 76.3309 137.376C75.8936 137.899 75.6749 138.635 75.6749 139.584C75.6749 140.533 75.8936 141.275 76.3309 141.808C76.7789 142.341 77.3763 142.608 78.1229 142.608C79.1789 142.608 79.8776 142.144 80.2189 141.216H82.1869C81.9309 142.112 81.4509 142.827 80.7469 143.36C80.0429 143.883 79.1683 144.144 78.1229 144.144C77.2803 144.144 76.5336 143.957 75.8829 143.584C75.2323 143.2 74.7203 142.667 74.3469 141.984C73.9843 141.291 73.8029 140.491 73.8029 139.584ZM88.5647 135.04C89.2367 135.04 89.834 135.184 90.3567 135.472C90.89 135.76 91.306 136.187 91.6047 136.752C91.914 137.317 92.0687 138 92.0687 138.8V144H90.2607V139.072C90.2607 138.283 90.0634 137.68 89.6687 137.264C89.274 136.837 88.7354 136.624 88.0527 136.624C87.37 136.624 86.826 136.837 86.4207 137.264C86.026 137.68 85.8287 138.283 85.8287 139.072V144H84.0047V132.16H85.8287V136.208C86.138 135.835 86.5274 135.547 86.9967 135.344C87.4767 135.141 87.9994 135.04 88.5647 135.04ZM98.8433 135.04C99.5366 135.04 100.155 135.184 100.699 135.472C101.254 135.76 101.686 136.187 101.995 136.752C102.305 137.317 102.459 138 102.459 138.8V144H100.651V139.072C100.651 138.283 100.454 137.68 100.059 137.264C99.6646 136.837 99.126 136.624 98.4433 136.624C97.7606 136.624 97.2166 136.837 96.8113 137.264C96.4166 137.68 96.2193 138.283 96.2193 139.072V144H94.3953V135.184H96.2193V136.192C96.518 135.829 96.8966 135.547 97.3553 135.344C97.8246 135.141 98.3206 135.04 98.8433 135.04ZM108.61 144.144C107.778 144.144 107.026 143.957 106.354 143.584C105.682 143.2 105.154 142.667 104.77 141.984C104.386 141.291 104.194 140.491 104.194 139.584C104.194 138.688 104.391 137.893 104.786 137.2C105.181 136.507 105.719 135.973 106.402 135.6C107.085 135.227 107.847 135.04 108.69 135.04C109.533 135.04 110.295 135.227 110.978 135.6C111.661 135.973 112.199 136.507 112.594 137.2C112.989 137.893 113.186 138.688 113.186 139.584C113.186 140.48 112.983 141.275 112.578 141.968C112.173 142.661 111.618 143.2 110.914 143.584C110.221 143.957 109.453 144.144 108.61 144.144ZM108.61 142.56C109.079 142.56 109.517 142.448 109.922 142.224C110.338 142 110.674 141.664 110.93 141.216C111.186 140.768 111.314 140.224 111.314 139.584C111.314 138.944 111.191 138.405 110.946 137.968C110.701 137.52 110.375 137.184 109.97 136.96C109.565 136.736 109.127 136.624 108.658 136.624C108.189 136.624 107.751 136.736 107.346 136.96C106.951 137.184 106.637 137.52 106.402 137.968C106.167 138.405 106.05 138.944 106.05 139.584C106.05 140.533 106.29 141.269 106.77 141.792C107.261 142.304 107.874 142.56 108.61 142.56ZM116.813 132.16V144H114.989V132.16H116.813ZM123.032 144.144C122.2 144.144 121.448 143.957 120.776 143.584C120.104 143.2 119.576 142.667 119.192 141.984C118.808 141.291 118.616 140.491 118.616 139.584C118.616 138.688 118.813 137.893 119.208 137.2C119.602 136.507 120.141 135.973 120.824 135.6C121.506 135.227 122.269 135.04 123.112 135.04C123.954 135.04 124.717 135.227 125.4 135.6C126.082 135.973 126.621 136.507 127.016 137.2C127.41 137.893 127.608 138.688 127.608 139.584C127.608 140.48 127.405 141.275 127 141.968C126.594 142.661 126.04 143.2 125.336 143.584C124.642 143.957 123.874 144.144 123.032 144.144ZM123.032 142.56C123.501 142.56 123.938 142.448 124.344 142.224C124.76 142 125.096 141.664 125.352 141.216C125.608 140.768 125.736 140.224 125.736 139.584C125.736 138.944 125.613 138.405 125.368 137.968C125.122 137.52 124.797 137.184 124.392 136.96C123.986 136.736 123.549 136.624 123.08 136.624C122.61 136.624 122.173 136.736 121.768 136.96C121.373 137.184 121.058 137.52 120.824 137.968C120.589 138.405 120.472 138.944 120.472 139.584C120.472 140.533 120.712 141.269 121.192 141.792C121.682 142.304 122.296 142.56 123.032 142.56ZM132.963 135.04C133.646 135.04 134.248 135.179 134.771 135.456C135.304 135.723 135.72 136.059 136.019 136.464V135.184H137.859V144.144C137.859 144.955 137.688 145.675 137.347 146.304C137.006 146.944 136.51 147.445 135.859 147.808C135.219 148.171 134.451 148.352 133.555 148.352C132.36 148.352 131.368 148.069 130.579 147.504C129.79 146.949 129.342 146.192 129.235 145.232H131.043C131.182 145.691 131.475 146.059 131.923 146.336C132.382 146.624 132.926 146.768 133.555 146.768C134.291 146.768 134.883 146.544 135.331 146.096C135.79 145.648 136.019 144.997 136.019 144.144V142.672C135.71 143.088 135.288 143.44 134.755 143.728C134.232 144.005 133.635 144.144 132.963 144.144C132.195 144.144 131.491 143.952 130.851 143.568C130.222 143.173 129.72 142.629 129.347 141.936C128.984 141.232 128.803 140.437 128.803 139.552C128.803 138.667 128.984 137.883 129.347 137.2C129.72 136.517 130.222 135.989 130.851 135.616C131.491 135.232 132.195 135.04 132.963 135.04ZM136.019 139.584C136.019 138.976 135.891 138.448 135.635 138C135.39 137.552 135.064 137.211 134.659 136.976C134.254 136.741 133.816 136.624 133.347 136.624C132.878 136.624 132.44 136.741 132.035 136.976C131.63 137.2 131.299 137.536 131.043 137.984C130.798 138.421 130.675 138.944 130.675 139.552C130.675 140.16 130.798 140.693 131.043 141.152C131.299 141.611 131.63 141.963 132.035 142.208C132.451 142.443 132.888 142.56 133.347 142.56C133.816 142.56 134.254 142.443 134.659 142.208C135.064 141.973 135.39 141.632 135.635 141.184C135.891 140.725 136.019 140.192 136.019 139.584ZM141.183 134.016C140.852 134.016 140.575 133.904 140.351 133.68C140.127 133.456 140.015 133.179 140.015 132.848C140.015 132.517 140.127 132.24 140.351 132.016C140.575 131.792 140.852 131.68 141.183 131.68C141.503 131.68 141.775 131.792 141.999 132.016C142.223 132.24 142.335 132.517 142.335 132.848C142.335 133.179 142.223 133.456 141.999 133.68C141.775 133.904 141.503 134.016 141.183 134.016ZM142.079 135.184V144H140.255V135.184H142.079ZM152.553 139.376C152.553 139.707 152.532 140.005 152.489 140.272H145.753C145.807 140.976 146.068 141.541 146.537 141.968C147.007 142.395 147.583 142.608 148.265 142.608C149.247 142.608 149.94 142.197 150.345 141.376H152.313C152.047 142.187 151.561 142.853 150.857 143.376C150.164 143.888 149.3 144.144 148.265 144.144C147.423 144.144 146.665 143.957 145.993 143.584C145.332 143.2 144.809 142.667 144.425 141.984C144.052 141.291 143.865 140.491 143.865 139.584C143.865 138.677 144.047 137.883 144.409 137.2C144.783 136.507 145.3 135.973 145.961 135.6C146.633 135.227 147.401 135.04 148.265 135.04C149.097 135.04 149.839 135.221 150.489 135.584C151.14 135.947 151.647 136.459 152.009 137.12C152.372 137.771 152.553 138.523 152.553 139.376ZM150.649 138.8C150.639 138.128 150.399 137.589 149.929 137.184C149.46 136.779 148.879 136.576 148.185 136.576C147.556 136.576 147.017 136.779 146.569 137.184C146.121 137.579 145.855 138.117 145.769 138.8H150.649ZM157.548 144.144C156.855 144.144 156.231 144.021 155.676 143.776C155.132 143.52 154.7 143.179 154.38 142.752C154.06 142.315 153.89 141.829 153.868 141.296H155.756C155.788 141.669 155.964 141.984 156.284 142.24C156.615 142.485 157.026 142.608 157.516 142.608C158.028 142.608 158.423 142.512 158.7 142.32C158.988 142.117 159.132 141.861 159.132 141.552C159.132 141.221 158.972 140.976 158.652 140.816C158.343 140.656 157.847 140.48 157.164 140.288C156.503 140.107 155.964 139.931 155.548 139.76C155.132 139.589 154.77 139.328 154.46 138.976C154.162 138.624 154.012 138.16 154.012 137.584C154.012 137.115 154.151 136.688 154.428 136.304C154.706 135.909 155.1 135.6 155.612 135.376C156.135 135.152 156.732 135.04 157.404 135.04C158.407 135.04 159.212 135.296 159.82 135.808C160.439 136.309 160.77 136.997 160.812 137.872H158.988C158.956 137.477 158.796 137.163 158.508 136.928C158.22 136.693 157.831 136.576 157.34 136.576C156.86 136.576 156.492 136.667 156.236 136.848C155.98 137.029 155.852 137.269 155.852 137.568C155.852 137.803 155.938 138 156.108 138.16C156.279 138.32 156.487 138.448 156.732 138.544C156.978 138.629 157.34 138.741 157.82 138.88C158.46 139.051 158.983 139.227 159.388 139.408C159.804 139.579 160.162 139.835 160.46 140.176C160.759 140.517 160.914 140.971 160.924 141.536C160.924 142.037 160.786 142.485 160.508 142.88C160.231 143.275 159.836 143.584 159.324 143.808C158.823 144.032 158.231 144.144 157.548 144.144Z" fill="#232C68"/>
<defs>
<linearGradient id="paint0_linear_92_1893" x1="555.695" y1="94.9429" x2="-44.808" y2="94.9653" gradientUnits="userSpaceOnUse">
<stop stop-color="#00499D"/>
<stop offset="0.296875" stop-color="#00ADEE"/>
<stop offset="0.609375" stop-color="#0068B7"/>
<stop offset="1" stop-color="white"/>
</linearGradient>
<linearGradient id="paint1_linear_92_1893" x1="195.633" y1="74.9778" x2="76.424" y2="74.9814" gradientUnits="userSpaceOnUse">
<stop stop-color="#00499D"/>
<stop offset="0.338542" stop-color="#00ADEE"/>
<stop offset="0.674427" stop-color="#0068B7"/>
<stop offset="1" stop-color="#232C68"/>
</linearGradient>
</defs>
</svg>
