<svg width="215" height="192" viewBox="0 0 215 192" fill="none" xmlns="http://www.w3.org/2000/svg">
<path d="M150.176 0.584961H63.9124C56.4951 0.584961 49.6361 4.53953 45.9195 10.9657L2.78747 85.656C-0.929156 92.0822 -0.929156 99.9913 2.78747 106.417L45.9195 181.108C49.6361 187.534 56.4951 191.489 63.9124 191.489H150.176C157.594 191.489 164.453 187.534 168.169 181.108L211.301 106.417C215.018 99.9913 215.018 92.0822 211.301 85.656L168.169 10.9657C164.453 4.53953 157.594 0.584961 150.176 0.584961Z" fill="url(#paint0_linear_103_972)"/>
<path d="M63.9125 189.097C57.3725 189.097 51.2632 185.573 47.9932 179.912L4.86118 105.222C1.59119 99.5607 1.59119 92.5127 4.86118 86.8519L47.9932 12.1616C51.2632 6.50084 57.3725 2.97681 63.9125 2.97681H150.176C156.716 2.97681 162.826 6.50084 166.096 12.1616L209.228 86.8519C212.498 92.5127 212.498 99.5607 209.228 105.222L166.096 179.912C162.826 185.573 156.716 189.097 150.176 189.097H63.9125Z" fill="#232C68"/>
<g clip-path="url(#clip0_103_972)">
<path d="M125.375 69.1C124.535 64.8443 122.244 61.0121 118.893 58.2581C115.541 55.5041 111.338 53.999 107 54C99.775 54 93.5 58.1 90.375 64.1C86.7006 64.4971 83.3025 66.238 80.8337 68.9883C78.3649 71.7386 76.9996 75.3042 77 79C77 87.275 83.725 94 92 94H124.5C131.4 94 137 88.4 137 81.5C137 74.9 131.875 69.55 125.375 69.1ZM124.5 89H92C86.475 89 82 84.525 82 79C82 73.475 86.475 69 92 69H93.775C95.425 63.225 100.7 59 107 59C114.6 59 120.75 65.15 120.75 72.75V74H124.5C128.65 74 132 77.35 132 81.5C132 85.65 128.65 89 124.5 89Z" fill="white"/>
</g>
<path d="M83.5764 118.416C83.5764 117.328 83.827 116.352 84.3284 115.488C84.8404 114.624 85.5284 113.952 86.3924 113.472C87.267 112.981 88.2217 112.736 89.2564 112.736C90.4404 112.736 91.491 113.029 92.4084 113.616C93.3364 114.192 94.0084 115.013 94.4244 116.08H92.2324C91.9444 115.493 91.5444 115.056 91.0324 114.768C90.5204 114.48 89.9284 114.336 89.2564 114.336C88.5204 114.336 87.8644 114.501 87.2884 114.832C86.7124 115.163 86.259 115.637 85.9284 116.256C85.6084 116.875 85.4484 117.595 85.4484 118.416C85.4484 119.237 85.6084 119.957 85.9284 120.576C86.259 121.195 86.7124 121.675 87.2884 122.016C87.8644 122.347 88.5204 122.512 89.2564 122.512C89.9284 122.512 90.5204 122.368 91.0324 122.08C91.5444 121.792 91.9444 121.355 92.2324 120.768H94.4244C94.0084 121.835 93.3364 122.656 92.4084 123.232C91.491 123.808 90.4404 124.096 89.2564 124.096C88.211 124.096 87.2564 123.856 86.3924 123.376C85.5284 122.885 84.8404 122.208 84.3284 121.344C83.827 120.48 83.5764 119.504 83.5764 118.416ZM98.3834 112.16V124H96.5594V112.16H98.3834ZM104.602 124.144C103.77 124.144 103.018 123.957 102.346 123.584C101.674 123.2 101.146 122.667 100.762 121.984C100.378 121.291 100.186 120.491 100.186 119.584C100.186 118.688 100.383 117.893 100.778 117.2C101.173 116.507 101.711 115.973 102.394 115.6C103.077 115.227 103.839 115.04 104.682 115.04C105.525 115.04 106.287 115.227 106.97 115.6C107.653 115.973 108.191 116.507 108.586 117.2C108.981 117.893 109.178 118.688 109.178 119.584C109.178 120.48 108.975 121.275 108.57 121.968C108.165 122.661 107.61 123.2 106.906 123.584C106.213 123.957 105.445 124.144 104.602 124.144ZM104.602 122.56C105.071 122.56 105.509 122.448 105.914 122.224C106.33 122 106.666 121.664 106.922 121.216C107.178 120.768 107.306 120.224 107.306 119.584C107.306 118.944 107.183 118.405 106.938 117.968C106.693 117.52 106.367 117.184 105.962 116.96C105.557 116.736 105.119 116.624 104.65 116.624C104.181 116.624 103.743 116.736 103.338 116.96C102.943 117.184 102.629 117.52 102.394 117.968C102.159 118.405 102.042 118.944 102.042 119.584C102.042 120.533 102.282 121.269 102.762 121.792C103.253 122.304 103.866 122.56 104.602 122.56ZM118.965 115.184V124H117.141V122.96C116.853 123.323 116.475 123.611 116.005 123.824C115.547 124.027 115.056 124.128 114.533 124.128C113.84 124.128 113.216 123.984 112.661 123.696C112.117 123.408 111.685 122.981 111.365 122.416C111.056 121.851 110.901 121.168 110.901 120.368V115.184H112.709V120.096C112.709 120.885 112.907 121.493 113.301 121.92C113.696 122.336 114.235 122.544 114.917 122.544C115.6 122.544 116.139 122.336 116.533 121.92C116.939 121.493 117.141 120.885 117.141 120.096V115.184H118.965ZM120.764 119.552C120.764 118.667 120.945 117.883 121.308 117.2C121.681 116.517 122.183 115.989 122.812 115.616C123.452 115.232 124.161 115.04 124.94 115.04C125.516 115.04 126.081 115.168 126.636 115.424C127.201 115.669 127.649 116 127.98 116.416V112.16H129.82V124H127.98V122.672C127.681 123.099 127.265 123.451 126.732 123.728C126.209 124.005 125.607 124.144 124.924 124.144C124.156 124.144 123.452 123.952 122.812 123.568C122.183 123.173 121.681 122.629 121.308 121.936C120.945 121.232 120.764 120.437 120.764 119.552ZM127.98 119.584C127.98 118.976 127.852 118.448 127.596 118C127.351 117.552 127.025 117.211 126.62 116.976C126.215 116.741 125.777 116.624 125.308 116.624C124.839 116.624 124.401 116.741 123.996 116.976C123.591 117.2 123.26 117.536 123.004 117.984C122.759 118.421 122.636 118.944 122.636 119.552C122.636 120.16 122.759 120.693 123.004 121.152C123.26 121.611 123.591 121.963 123.996 122.208C124.412 122.443 124.849 122.56 125.308 122.56C125.777 122.56 126.215 122.443 126.62 122.208C127.025 121.973 127.351 121.632 127.596 121.184C127.852 120.725 127.98 120.192 127.98 119.584ZM77.2963 136.192C77.2963 136.757 77.163 137.291 76.8963 137.792C76.6296 138.293 76.203 138.704 75.6163 139.024C75.0296 139.333 74.2776 139.488 73.3603 139.488H71.3443V144H69.5203V132.88H73.3603C74.2136 132.88 74.9336 133.029 75.5203 133.328C76.1176 133.616 76.5603 134.011 76.8483 134.512C77.147 135.013 77.2963 135.573 77.2963 136.192ZM73.3603 138C74.0536 138 74.571 137.845 74.9123 137.536C75.2536 137.216 75.4243 136.768 75.4243 136.192C75.4243 134.976 74.7363 134.368 73.3603 134.368H71.3443V138H73.3603ZM80.8599 132.16V144H79.0359V132.16H80.8599ZM82.6467 139.552C82.6467 138.667 82.828 137.883 83.1907 137.2C83.564 136.517 84.0654 135.989 84.6947 135.616C85.3347 135.232 86.0387 135.04 86.8067 135.04C87.5 135.04 88.1027 135.179 88.6147 135.456C89.1374 135.723 89.5534 136.059 89.8627 136.464V135.184H91.7027V144H89.8627V142.688C89.5534 143.104 89.132 143.451 88.5987 143.728C88.0654 144.005 87.4574 144.144 86.7747 144.144C86.0174 144.144 85.324 143.952 84.6947 143.568C84.0654 143.173 83.564 142.629 83.1907 141.936C82.828 141.232 82.6467 140.437 82.6467 139.552ZM89.8627 139.584C89.8627 138.976 89.7347 138.448 89.4787 138C89.2334 137.552 88.908 137.211 88.5027 136.976C88.0974 136.741 87.66 136.624 87.1907 136.624C86.7214 136.624 86.284 136.741 85.8787 136.976C85.4734 137.2 85.1427 137.536 84.8867 137.984C84.6414 138.421 84.5187 138.944 84.5187 139.552C84.5187 140.16 84.6414 140.693 84.8867 141.152C85.1427 141.611 85.4734 141.963 85.8787 142.208C86.2947 142.443 86.732 142.56 87.1907 142.56C87.66 142.56 88.0974 142.443 88.5027 142.208C88.908 141.973 89.2334 141.632 89.4787 141.184C89.7347 140.725 89.8627 140.192 89.8627 139.584ZM96.2264 136.672V141.552C96.2264 141.883 96.3011 142.123 96.4504 142.272C96.6104 142.411 96.8771 142.48 97.2504 142.48H98.3704V144H96.9304C96.1091 144 95.4798 143.808 95.0424 143.424C94.6051 143.04 94.3864 142.416 94.3864 141.552V136.672H93.3464V135.184H94.3864V132.992H96.2264V135.184H98.3704V136.672H96.2264ZM103.748 136.672H102.116V144H100.276V136.672H99.2356V135.184H100.276V134.56C100.276 133.547 100.542 132.811 101.076 132.352C101.62 131.883 102.468 131.648 103.62 131.648V133.168C103.065 133.168 102.676 133.275 102.452 133.488C102.228 133.691 102.116 134.048 102.116 134.56V135.184H103.748V136.672ZM109.188 144.144C108.356 144.144 107.604 143.957 106.932 143.584C106.26 143.2 105.732 142.667 105.348 141.984C104.964 141.291 104.772 140.491 104.772 139.584C104.772 138.688 104.969 137.893 105.364 137.2C105.759 136.507 106.297 135.973 106.98 135.6C107.663 135.227 108.425 135.04 109.268 135.04C110.111 135.04 110.873 135.227 111.556 135.6C112.239 135.973 112.777 136.507 113.172 137.2C113.567 137.893 113.764 138.688 113.764 139.584C113.764 140.48 113.561 141.275 113.156 141.968C112.751 142.661 112.196 143.2 111.492 143.584C110.799 143.957 110.031 144.144 109.188 144.144ZM109.188 142.56C109.657 142.56 110.095 142.448 110.5 142.224C110.916 142 111.252 141.664 111.508 141.216C111.764 140.768 111.892 140.224 111.892 139.584C111.892 138.944 111.769 138.405 111.524 137.968C111.279 137.52 110.953 137.184 110.548 136.96C110.143 136.736 109.705 136.624 109.236 136.624C108.767 136.624 108.329 136.736 107.924 136.96C107.529 137.184 107.215 137.52 106.98 137.968C106.745 138.405 106.628 138.944 106.628 139.584C106.628 140.533 106.868 141.269 107.348 141.792C107.839 142.304 108.452 142.56 109.188 142.56ZM117.391 136.464C117.658 136.016 118.01 135.669 118.447 135.424C118.895 135.168 119.423 135.04 120.031 135.04V136.928H119.567C118.853 136.928 118.309 137.109 117.935 137.472C117.573 137.835 117.391 138.464 117.391 139.36V144H115.567V135.184H117.391V136.464ZM132.38 135.04C133.073 135.04 133.692 135.184 134.236 135.472C134.79 135.76 135.222 136.187 135.532 136.752C135.852 137.317 136.012 138 136.012 138.8V144H134.204V139.072C134.204 138.283 134.006 137.68 133.612 137.264C133.217 136.837 132.678 136.624 131.996 136.624C131.313 136.624 130.769 136.837 130.364 137.264C129.969 137.68 129.772 138.283 129.772 139.072V144H127.964V139.072C127.964 138.283 127.766 137.68 127.372 137.264C126.977 136.837 126.438 136.624 125.756 136.624C125.073 136.624 124.529 136.837 124.124 137.264C123.729 137.68 123.532 138.283 123.532 139.072V144H121.708V135.184H123.532V136.192C123.83 135.829 124.209 135.547 124.668 135.344C125.126 135.141 125.617 135.04 126.14 135.04C126.844 135.04 127.473 135.189 128.028 135.488C128.582 135.787 129.009 136.219 129.308 136.784C129.574 136.251 129.99 135.829 130.556 135.52C131.121 135.2 131.729 135.04 132.38 135.04ZM141.533 144.144C140.839 144.144 140.215 144.021 139.661 143.776C139.117 143.52 138.685 143.179 138.365 142.752C138.045 142.315 137.874 141.829 137.853 141.296H139.741C139.773 141.669 139.949 141.984 140.269 142.24C140.599 142.485 141.01 142.608 141.501 142.608C142.013 142.608 142.407 142.512 142.685 142.32C142.973 142.117 143.117 141.861 143.117 141.552C143.117 141.221 142.957 140.976 142.637 140.816C142.327 140.656 141.831 140.48 141.149 140.288C140.487 140.107 139.949 139.931 139.533 139.76C139.117 139.589 138.754 139.328 138.445 138.976C138.146 138.624 137.997 138.16 137.997 137.584C137.997 137.115 138.135 136.688 138.413 136.304C138.69 135.909 139.085 135.6 139.597 135.376C140.119 135.152 140.717 135.04 141.389 135.04C142.391 135.04 143.197 135.296 143.805 135.808C144.423 136.309 144.754 136.997 144.797 137.872H142.973C142.941 137.477 142.781 137.163 142.493 136.928C142.205 136.693 141.815 136.576 141.325 136.576C140.845 136.576 140.477 136.667 140.221 136.848C139.965 137.029 139.837 137.269 139.837 137.568C139.837 137.803 139.922 138 140.093 138.16C140.263 138.32 140.471 138.448 140.717 138.544C140.962 138.629 141.325 138.741 141.805 138.88C142.445 139.051 142.967 139.227 143.373 139.408C143.789 139.579 144.146 139.835 144.445 140.176C144.743 140.517 144.898 140.971 144.909 141.536C144.909 142.037 144.77 142.485 144.493 142.88C144.215 143.275 143.821 143.584 143.309 143.808C142.807 144.032 142.215 144.144 141.533 144.144Z" fill="white"/>
<defs>
<linearGradient id="paint0_linear_103_972" x1="554.784" y1="94.9429" x2="-45.7192" y2="94.9653" gradientUnits="userSpaceOnUse">
<stop stop-color="#00499D"/>
<stop offset="0.296875" stop-color="#00ADEE"/>
<stop offset="0.609375" stop-color="#0068B7"/>
<stop offset="1" stop-color="white"/>
</linearGradient>
<clipPath id="clip0_103_972">
<rect width="60" height="60" fill="white" transform="translate(77 44)"/>
</clipPath>
</defs>
</svg>
