<svg width="215" height="192" viewBox="0 0 215 192" fill="none" xmlns="http://www.w3.org/2000/svg">
<path d="M150.607 0.978027H64.3426C56.9253 0.978027 50.0662 4.93259 46.3496 11.3588L3.21764 86.0491C-0.49898 92.4753 -0.49898 100.384 3.21764 106.811L46.3496 181.501C50.0662 187.927 56.9253 191.882 64.3426 191.882H150.607C158.024 191.882 164.883 187.927 168.599 181.501L211.731 106.811C215.448 100.384 215.448 92.4753 211.731 86.0491L168.599 11.3588C164.883 4.93259 158.024 0.978027 150.607 0.978027Z" fill="url(#paint0_linear_103_1059)"/>
<path d="M64.3426 189.49C57.8026 189.49 51.6933 185.966 48.4233 180.305L5.29136 105.615C2.02137 99.9538 2.02137 92.9058 5.29136 87.245L48.4233 12.5547C51.6933 6.8939 57.8026 3.36987 64.3426 3.36987H150.607C157.147 3.36987 163.256 6.8939 166.526 12.5547L209.658 87.245C212.928 92.9058 212.928 99.9538 209.658 105.615L166.526 180.305C163.256 185.966 157.147 189.49 150.607 189.49H64.3426Z" fill="#232C68"/>
<path d="M122.75 94C122.75 94.3315 122.618 94.6495 122.384 94.8839C122.149 95.1183 121.832 95.25 121.5 95.25H107.17C106.454 96.6216 105.547 97.8843 104.475 99H121.5C122.826 99 124.098 98.4732 125.036 97.5355C125.973 96.5979 126.5 95.3261 126.5 94V68.57C126.5 67.244 125.973 65.9725 125.035 65.035L110.462 50.465C110.424 50.4291 110.383 50.3957 110.34 50.365C110.309 50.3411 110.279 50.3161 110.25 50.29C110.078 50.1277 109.895 49.9773 109.702 49.84C109.638 49.7987 109.572 49.7619 109.503 49.73L109.382 49.67L109.257 49.5975C109.122 49.52 108.985 49.44 108.843 49.38C108.345 49.1812 107.818 49.0646 107.282 49.035C107.233 49.0318 107.184 49.0259 107.135 49.0175C107.067 49.007 106.999 49.0012 106.93 49H91.5C90.1739 49 88.9021 49.5268 87.9645 50.4645C87.0268 51.4021 86.5 52.6739 86.5 54V72.745C87.7028 72.2431 88.962 71.8889 90.25 71.69V54C90.25 53.6685 90.3817 53.3505 90.6161 53.1161C90.8505 52.8817 91.1685 52.75 91.5 52.75H106.5V64C106.5 65.3261 107.027 66.5979 107.964 67.5355C108.902 68.4732 110.174 69 111.5 69H122.75V94ZM110.25 55.5525L119.945 65.25H111.5C111.168 65.25 110.851 65.1183 110.616 64.8839C110.382 64.6495 110.25 64.3315 110.25 64V55.5525Z" fill="white"/>
<path d="M106.5 87.75C106.5 89.5557 106.144 91.3437 105.453 93.0119C104.762 94.6801 103.75 96.1959 102.473 97.4727C101.196 98.7495 99.6801 99.7623 98.0119 100.453C96.3437 101.144 94.5557 101.5 92.75 101.5C90.9443 101.5 89.1563 101.144 87.4881 100.453C85.8199 99.7623 84.3041 98.7495 83.0273 97.4727C81.7505 96.1959 80.7377 94.6801 80.0467 93.0119C79.3557 91.3437 79 89.5557 79 87.75C79 84.1033 80.4487 80.6059 83.0273 78.0273C85.6059 75.4487 89.1033 74 92.75 74C96.3967 74 99.8941 75.4487 102.473 78.0273C105.051 80.6059 106.5 84.1033 106.5 87.75ZM101.135 81.865C101.019 81.7486 100.881 81.6562 100.729 81.5932C100.577 81.5302 100.414 81.4978 100.25 81.4978C100.086 81.4978 99.9228 81.5302 99.7709 81.5932C99.6191 81.6562 99.4811 81.7486 99.365 81.865L90.25 90.9825L86.135 86.865C85.9003 86.6303 85.5819 86.4984 85.25 86.4984C84.9181 86.4984 84.5997 86.6303 84.365 86.865C84.1303 87.0997 83.9984 87.4181 83.9984 87.75C83.9984 88.0819 84.1303 88.4003 84.365 88.635L89.365 93.635C89.4811 93.7514 89.6191 93.8438 89.7709 93.9068C89.9228 93.9698 90.0856 94.0022 90.25 94.0022C90.4144 94.0022 90.5772 93.9698 90.7291 93.9068C90.8809 93.8438 91.0189 93.7514 91.135 93.635L101.135 83.635C101.251 83.5189 101.344 83.3809 101.407 83.2291C101.47 83.0772 101.502 82.9144 101.502 82.75C101.502 82.5856 101.47 82.4228 101.407 82.2709C101.344 82.1191 101.251 81.9811 101.135 81.865Z" fill="white"/>
<path d="M46.4465 112.88V114.368H43.4865V124H41.6625V114.368H38.6865V112.88H46.4465ZM56.3738 119.376C56.3738 119.707 56.3524 120.005 56.3098 120.272H49.5738C49.6271 120.976 49.8884 121.541 50.3578 121.968C50.8271 122.395 51.4031 122.608 52.0858 122.608C53.0671 122.608 53.7604 122.197 54.1658 121.376H56.1337C55.8671 122.187 55.3818 122.853 54.6778 123.376C53.9844 123.888 53.1204 124.144 52.0858 124.144C51.2431 124.144 50.4858 123.957 49.8138 123.584C49.1524 123.2 48.6298 122.667 48.2458 121.984C47.8724 121.291 47.6858 120.491 47.6858 119.584C47.6858 118.677 47.8671 117.883 48.2298 117.2C48.6031 116.507 49.1204 115.973 49.7818 115.6C50.4538 115.227 51.2218 115.04 52.0858 115.04C52.9178 115.04 53.6591 115.221 54.3098 115.584C54.9604 115.947 55.4671 116.459 55.8298 117.12C56.1924 117.771 56.3738 118.523 56.3738 119.376ZM54.4698 118.8C54.4591 118.128 54.2191 117.589 53.7498 117.184C53.2804 116.779 52.6991 116.576 52.0058 116.576C51.3764 116.576 50.8378 116.779 50.3898 117.184C49.9418 117.579 49.6751 118.117 49.5898 118.8H54.4698ZM61.3688 124.144C60.6754 124.144 60.0514 124.021 59.4968 123.776C58.9528 123.52 58.5208 123.179 58.2008 122.752C57.8808 122.315 57.7101 121.829 57.6888 121.296H59.5768C59.6088 121.669 59.7848 121.984 60.1048 122.24C60.4354 122.485 60.8461 122.608 61.3368 122.608C61.8488 122.608 62.2434 122.512 62.5208 122.32C62.8088 122.117 62.9528 121.861 62.9528 121.552C62.9528 121.221 62.7928 120.976 62.4728 120.816C62.1634 120.656 61.6674 120.48 60.9848 120.288C60.3234 120.107 59.7848 119.931 59.3688 119.76C58.9528 119.589 58.5901 119.328 58.2808 118.976C57.9821 118.624 57.8328 118.16 57.8328 117.584C57.8328 117.115 57.9714 116.688 58.2488 116.304C58.5261 115.909 58.9208 115.6 59.4328 115.376C59.9554 115.152 60.5528 115.04 61.2248 115.04C62.2274 115.04 63.0328 115.296 63.6408 115.808C64.2594 116.309 64.5901 116.997 64.6328 117.872H62.8088C62.7768 117.477 62.6168 117.163 62.3288 116.928C62.0408 116.693 61.6514 116.576 61.1608 116.576C60.6808 116.576 60.3128 116.667 60.0568 116.848C59.8008 117.029 59.6728 117.269 59.6728 117.568C59.6728 117.803 59.7581 118 59.9288 118.16C60.0994 118.32 60.3074 118.448 60.5528 118.544C60.7981 118.629 61.1608 118.741 61.6408 118.88C62.2808 119.051 62.8034 119.227 63.2088 119.408C63.6248 119.579 63.9821 119.835 64.2808 120.176C64.5794 120.517 64.7341 120.971 64.7448 121.536C64.7448 122.037 64.6061 122.485 64.3288 122.88C64.0514 123.275 63.6568 123.584 63.1448 123.808C62.6434 124.032 62.0514 124.144 61.3688 124.144ZM68.8436 116.672V121.552C68.8436 121.883 68.9183 122.123 69.0676 122.272C69.2276 122.411 69.4943 122.48 69.8676 122.48H70.9876V124H69.5476C68.7263 124 68.097 123.808 67.6596 123.424C67.2223 123.04 67.0036 122.416 67.0036 121.552V116.672H65.9636V115.184H67.0036V112.992H68.8436V115.184H70.9876V116.672H68.8436ZM73.5968 114.016C73.2661 114.016 72.9888 113.904 72.7648 113.68C72.5408 113.456 72.4288 113.179 72.4288 112.848C72.4288 112.517 72.5408 112.24 72.7648 112.016C72.9888 111.792 73.2661 111.68 73.5968 111.68C73.9168 111.68 74.1888 111.792 74.4128 112.016C74.6368 112.24 74.7488 112.517 74.7488 112.848C74.7488 113.179 74.6368 113.456 74.4128 113.68C74.1888 113.904 73.9168 114.016 73.5968 114.016ZM74.4928 115.184V124H72.6688V115.184H74.4928ZM81.3355 115.04C82.0288 115.04 82.6475 115.184 83.1915 115.472C83.7462 115.76 84.1782 116.187 84.4875 116.752C84.7968 117.317 84.9515 118 84.9515 118.8V124H83.1435V119.072C83.1435 118.283 82.9462 117.68 82.5515 117.264C82.1568 116.837 81.6182 116.624 80.9355 116.624C80.2528 116.624 79.7088 116.837 79.3035 117.264C78.9088 117.68 78.7115 118.283 78.7115 119.072V124H76.8875V115.184H78.7115V116.192C79.0102 115.829 79.3888 115.547 79.8475 115.344C80.3168 115.141 80.8128 115.04 81.3355 115.04ZM90.8301 115.04C91.5128 115.04 92.1155 115.179 92.6381 115.456C93.1715 115.723 93.5875 116.059 93.8861 116.464V115.184H95.7261V124.144C95.7261 124.955 95.5555 125.675 95.2141 126.304C94.8728 126.944 94.3768 127.445 93.7261 127.808C93.0861 128.171 92.3181 128.352 91.4221 128.352C90.2275 128.352 89.2355 128.069 88.4461 127.504C87.6568 126.949 87.2088 126.192 87.1021 125.232H88.9101C89.0488 125.691 89.3421 126.059 89.7901 126.336C90.2488 126.624 90.7928 126.768 91.4221 126.768C92.1581 126.768 92.7501 126.544 93.1981 126.096C93.6568 125.648 93.8861 124.997 93.8861 124.144V122.672C93.5768 123.088 93.1555 123.44 92.6221 123.728C92.0995 124.005 91.5021 124.144 90.8301 124.144C90.0621 124.144 89.3581 123.952 88.7181 123.568C88.0888 123.173 87.5875 122.629 87.2141 121.936C86.8515 121.232 86.6701 120.437 86.6701 119.552C86.6701 118.667 86.8515 117.883 87.2141 117.2C87.5875 116.517 88.0888 115.989 88.7181 115.616C89.3581 115.232 90.0621 115.04 90.8301 115.04ZM93.8861 119.584C93.8861 118.976 93.7581 118.448 93.5021 118C93.2568 117.552 92.9315 117.211 92.5261 116.976C92.1208 116.741 91.6835 116.624 91.2141 116.624C90.7448 116.624 90.3075 116.741 89.9021 116.976C89.4968 117.2 89.1661 117.536 88.9101 117.984C88.6648 118.421 88.5421 118.944 88.5421 119.552C88.5421 120.16 88.6648 120.693 88.9101 121.152C89.1661 121.611 89.4968 121.963 89.9021 122.208C90.3181 122.443 90.7555 122.56 91.2141 122.56C91.6835 122.56 92.1208 122.443 92.5261 122.208C92.9315 121.973 93.2568 121.632 93.5021 121.184C93.7581 120.725 93.8861 120.192 93.8861 119.584ZM110.87 124L109.494 122.624C108.961 123.157 108.379 123.557 107.75 123.824C107.121 124.08 106.417 124.208 105.638 124.208C104.849 124.208 104.15 124.069 103.542 123.792C102.934 123.515 102.465 123.12 102.134 122.608C101.803 122.085 101.638 121.483 101.638 120.8C101.638 120.032 101.857 119.349 102.294 118.752C102.731 118.144 103.382 117.664 104.246 117.312C103.937 116.939 103.718 116.592 103.59 116.272C103.462 115.941 103.398 115.579 103.398 115.184C103.398 114.693 103.521 114.256 103.766 113.872C104.022 113.488 104.385 113.184 104.854 112.96C105.323 112.736 105.867 112.624 106.486 112.624C107.115 112.624 107.649 112.747 108.086 112.992C108.534 113.227 108.865 113.552 109.078 113.968C109.302 114.384 109.393 114.848 109.35 115.36H107.526C107.537 114.965 107.441 114.661 107.238 114.448C107.035 114.224 106.758 114.112 106.406 114.112C106.054 114.112 105.766 114.219 105.542 114.432C105.329 114.635 105.222 114.885 105.222 115.184C105.222 115.472 105.302 115.76 105.462 116.048C105.633 116.325 105.926 116.688 106.342 117.136L109.286 120.064L110.422 118.192H112.39L110.95 120.656L110.55 121.312L113.254 124H110.87ZM105.638 122.656C106.641 122.656 107.526 122.245 108.294 121.424L105.35 118.464C104.091 118.965 103.462 119.723 103.462 120.736C103.462 121.28 103.665 121.739 104.07 122.112C104.475 122.475 104.998 122.656 105.638 122.656ZM127.214 126.016L125.262 123.904C124.782 124.043 124.254 124.112 123.678 124.112C122.644 124.112 121.689 123.872 120.814 123.392C119.95 122.901 119.262 122.224 118.75 121.36C118.249 120.485 117.998 119.504 117.998 118.416C117.998 117.328 118.249 116.352 118.75 115.488C119.262 114.624 119.95 113.952 120.814 113.472C121.689 112.981 122.644 112.736 123.678 112.736C124.724 112.736 125.678 112.981 126.542 113.472C127.417 113.952 128.105 114.624 128.606 115.488C129.108 116.352 129.358 117.328 129.358 118.416C129.358 119.44 129.134 120.368 128.686 121.2C128.249 122.021 127.641 122.683 126.862 123.184L129.534 126.016H127.214ZM119.87 118.416C119.87 119.237 120.03 119.963 120.35 120.592C120.681 121.211 121.134 121.691 121.71 122.032C122.286 122.363 122.942 122.528 123.678 122.528C124.414 122.528 125.07 122.363 125.646 122.032C126.222 121.691 126.67 121.211 126.99 120.592C127.321 119.963 127.486 119.237 127.486 118.416C127.486 117.595 127.321 116.875 126.99 116.256C126.67 115.637 126.222 115.163 125.646 114.832C125.07 114.501 124.414 114.336 123.678 114.336C122.942 114.336 122.286 114.501 121.71 114.832C121.134 115.163 120.681 115.637 120.35 116.256C120.03 116.875 119.87 117.595 119.87 118.416ZM139.184 115.184V124H137.36V122.96C137.072 123.323 136.693 123.611 136.224 123.824C135.765 124.027 135.275 124.128 134.752 124.128C134.059 124.128 133.435 123.984 132.88 123.696C132.336 123.408 131.904 122.981 131.584 122.416C131.275 121.851 131.12 121.168 131.12 120.368V115.184H132.928V120.096C132.928 120.885 133.125 121.493 133.52 121.92C133.915 122.336 134.453 122.544 135.136 122.544C135.819 122.544 136.357 122.336 136.752 121.92C137.157 121.493 137.36 120.885 137.36 120.096V115.184H139.184ZM140.983 119.552C140.983 118.667 141.164 117.883 141.527 117.2C141.9 116.517 142.401 115.989 143.031 115.616C143.671 115.232 144.375 115.04 145.143 115.04C145.836 115.04 146.439 115.179 146.951 115.456C147.473 115.723 147.889 116.059 148.199 116.464V115.184H150.039V124H148.199V122.688C147.889 123.104 147.468 123.451 146.935 123.728C146.401 124.005 145.793 124.144 145.111 124.144C144.353 124.144 143.66 123.952 143.031 123.568C142.401 123.173 141.9 122.629 141.527 121.936C141.164 121.232 140.983 120.437 140.983 119.552ZM148.199 119.584C148.199 118.976 148.071 118.448 147.815 118C147.569 117.552 147.244 117.211 146.839 116.976C146.433 116.741 145.996 116.624 145.527 116.624C145.057 116.624 144.62 116.741 144.215 116.976C143.809 117.2 143.479 117.536 143.223 117.984C142.977 118.421 142.855 118.944 142.855 119.552C142.855 120.16 142.977 120.693 143.223 121.152C143.479 121.611 143.809 121.963 144.215 122.208C144.631 122.443 145.068 122.56 145.527 122.56C145.996 122.56 146.433 122.443 146.839 122.208C147.244 121.973 147.569 121.632 147.815 121.184C148.071 120.725 148.199 120.192 148.199 119.584ZM154.258 112.16V124H152.434V112.16H154.258ZM157.581 114.016C157.25 114.016 156.973 113.904 156.749 113.68C156.525 113.456 156.413 113.179 156.413 112.848C156.413 112.517 156.525 112.24 156.749 112.016C156.973 111.792 157.25 111.68 157.581 111.68C157.901 111.68 158.173 111.792 158.397 112.016C158.621 112.24 158.733 112.517 158.733 112.848C158.733 113.179 158.621 113.456 158.397 113.68C158.173 113.904 157.901 114.016 157.581 114.016ZM158.477 115.184V124H156.653V115.184H158.477ZM163 116.672V121.552C163 121.883 163.075 122.123 163.224 122.272C163.384 122.411 163.651 122.48 164.024 122.48H165.144V124H163.704C162.883 124 162.253 123.808 161.816 123.424C161.379 123.04 161.16 122.416 161.16 121.552V116.672H160.12V115.184H161.16V112.992H163V115.184H165.144V116.672H163ZM174.761 115.184L169.353 128.144H167.465L169.257 123.856L165.785 115.184H167.817L170.297 121.904L172.873 115.184H174.761ZM78.3354 136.192C78.3354 136.757 78.202 137.291 77.9354 137.792C77.6687 138.293 77.242 138.704 76.6554 139.024C76.0687 139.333 75.3167 139.488 74.3994 139.488H72.3834V144H70.5594V132.88H74.3994C75.2527 132.88 75.9727 133.029 76.5594 133.328C77.1567 133.616 77.5994 134.011 77.8874 134.512C78.186 135.013 78.3354 135.573 78.3354 136.192ZM74.3994 138C75.0927 138 75.61 137.845 75.9514 137.536C76.2927 137.216 76.4634 136.768 76.4634 136.192C76.4634 134.976 75.7754 134.368 74.3994 134.368H72.3834V138H74.3994ZM81.899 136.464C82.1657 136.016 82.5177 135.669 82.955 135.424C83.403 135.168 83.931 135.04 84.539 135.04V136.928H84.075C83.3603 136.928 82.8163 137.109 82.443 137.472C82.0803 137.835 81.899 138.464 81.899 139.36V144H80.075V135.184H81.899V136.464ZM85.6076 139.552C85.6076 138.667 85.789 137.883 86.1516 137.2C86.525 136.517 87.0263 135.989 87.6556 135.616C88.2956 135.232 88.9996 135.04 89.7676 135.04C90.461 135.04 91.0636 135.179 91.5756 135.456C92.0983 135.723 92.5143 136.059 92.8236 136.464V135.184H94.6636V144H92.8236V142.688C92.5143 143.104 92.093 143.451 91.5596 143.728C91.0263 144.005 90.4183 144.144 89.7356 144.144C88.9783 144.144 88.285 143.952 87.6556 143.568C87.0263 143.173 86.525 142.629 86.1516 141.936C85.789 141.232 85.6076 140.437 85.6076 139.552ZM92.8236 139.584C92.8236 138.976 92.6956 138.448 92.4396 138C92.1943 137.552 91.869 137.211 91.4636 136.976C91.0583 136.741 90.621 136.624 90.1516 136.624C89.6823 136.624 89.245 136.741 88.8396 136.976C88.4343 137.2 88.1036 137.536 87.8476 137.984C87.6023 138.421 87.4796 138.944 87.4796 139.552C87.4796 140.16 87.6023 140.693 87.8476 141.152C88.1036 141.611 88.4343 141.963 88.8396 142.208C89.2556 142.443 89.693 142.56 90.1516 142.56C90.621 142.56 91.0583 142.443 91.4636 142.208C91.869 141.973 92.1943 141.632 92.4396 141.184C92.6956 140.725 92.8236 140.192 92.8236 139.584ZM96.4514 139.584C96.4514 138.677 96.6327 137.883 96.9954 137.2C97.3687 136.507 97.8807 135.973 98.5314 135.6C99.182 135.227 99.9287 135.04 100.771 135.04C101.838 135.04 102.718 135.296 103.411 135.808C104.115 136.309 104.59 137.029 104.835 137.968H102.867C102.707 137.531 102.451 137.189 102.099 136.944C101.747 136.699 101.305 136.576 100.771 136.576C100.025 136.576 99.4274 136.843 98.9794 137.376C98.542 137.899 98.3234 138.635 98.3234 139.584C98.3234 140.533 98.542 141.275 98.9794 141.808C99.4274 142.341 100.025 142.608 100.771 142.608C101.827 142.608 102.526 142.144 102.867 141.216H104.835C104.579 142.112 104.099 142.827 103.395 143.36C102.691 143.883 101.817 144.144 100.771 144.144C99.9287 144.144 99.182 143.957 98.5314 143.584C97.8807 143.2 97.3687 142.667 96.9954 141.984C96.6327 141.291 96.4514 140.491 96.4514 139.584ZM108.781 136.672V141.552C108.781 141.883 108.856 142.123 109.005 142.272C109.165 142.411 109.432 142.48 109.805 142.48H110.925V144H109.485C108.664 144 108.034 143.808 107.597 143.424C107.16 143.04 106.941 142.416 106.941 141.552V136.672H105.901V135.184H106.941V132.992H108.781V135.184H110.925V136.672H108.781ZM113.534 134.016C113.204 134.016 112.926 133.904 112.702 133.68C112.478 133.456 112.366 133.179 112.366 132.848C112.366 132.517 112.478 132.24 112.702 132.016C112.926 131.792 113.204 131.68 113.534 131.68C113.854 131.68 114.126 131.792 114.35 132.016C114.574 132.24 114.686 132.517 114.686 132.848C114.686 133.179 114.574 133.456 114.35 133.68C114.126 133.904 113.854 134.016 113.534 134.016ZM114.43 135.184V144H112.606V135.184H114.43ZM116.217 139.584C116.217 138.677 116.398 137.883 116.761 137.2C117.134 136.507 117.646 135.973 118.297 135.6C118.948 135.227 119.694 135.04 120.537 135.04C121.604 135.04 122.484 135.296 123.177 135.808C123.881 136.309 124.356 137.029 124.601 137.968H122.633C122.473 137.531 122.217 137.189 121.865 136.944C121.513 136.699 121.07 136.576 120.537 136.576C119.79 136.576 119.193 136.843 118.745 137.376C118.308 137.899 118.089 138.635 118.089 139.584C118.089 140.533 118.308 141.275 118.745 141.808C119.193 142.341 119.79 142.608 120.537 142.608C121.593 142.608 122.292 142.144 122.633 141.216H124.601C124.345 142.112 123.865 142.827 123.161 143.36C122.457 143.883 121.582 144.144 120.537 144.144C119.694 144.144 118.948 143.957 118.297 143.584C117.646 143.2 117.134 142.667 116.761 141.984C116.398 141.291 116.217 140.491 116.217 139.584ZM134.499 139.376C134.499 139.707 134.477 140.005 134.435 140.272H127.699C127.752 140.976 128.013 141.541 128.483 141.968C128.952 142.395 129.528 142.608 130.211 142.608C131.192 142.608 131.885 142.197 132.291 141.376H134.259C133.992 142.187 133.507 142.853 132.803 143.376C132.109 143.888 131.245 144.144 130.211 144.144C129.368 144.144 128.611 143.957 127.939 143.584C127.277 143.2 126.755 142.667 126.371 141.984C125.997 141.291 125.811 140.491 125.811 139.584C125.811 138.677 125.992 137.883 126.355 137.2C126.728 136.507 127.245 135.973 127.907 135.6C128.579 135.227 129.347 135.04 130.211 135.04C131.043 135.04 131.784 135.221 132.435 135.584C133.085 135.947 133.592 136.459 133.955 137.12C134.317 137.771 134.499 138.523 134.499 139.376ZM132.595 138.8C132.584 138.128 132.344 137.589 131.875 137.184C131.405 136.779 130.824 136.576 130.131 136.576C129.501 136.576 128.963 136.779 128.515 137.184C128.067 137.579 127.8 138.117 127.715 138.8H132.595ZM139.494 144.144C138.8 144.144 138.176 144.021 137.622 143.776C137.078 143.52 136.646 143.179 136.326 142.752C136.006 142.315 135.835 141.829 135.814 141.296H137.702C137.734 141.669 137.91 141.984 138.23 142.24C138.56 142.485 138.971 142.608 139.462 142.608C139.974 142.608 140.368 142.512 140.646 142.32C140.934 142.117 141.078 141.861 141.078 141.552C141.078 141.221 140.918 140.976 140.598 140.816C140.288 140.656 139.792 140.48 139.11 140.288C138.448 140.107 137.91 139.931 137.494 139.76C137.078 139.589 136.715 139.328 136.406 138.976C136.107 138.624 135.958 138.16 135.958 137.584C135.958 137.115 136.096 136.688 136.374 136.304C136.651 135.909 137.046 135.6 137.558 135.376C138.08 135.152 138.678 135.04 139.35 135.04C140.352 135.04 141.158 135.296 141.766 135.808C142.384 136.309 142.715 136.997 142.758 137.872H140.934C140.902 137.477 140.742 137.163 140.454 136.928C140.166 136.693 139.776 136.576 139.286 136.576C138.806 136.576 138.438 136.667 138.182 136.848C137.926 137.029 137.798 137.269 137.798 137.568C137.798 137.803 137.883 138 138.054 138.16C138.224 138.32 138.432 138.448 138.678 138.544C138.923 138.629 139.286 138.741 139.766 138.88C140.406 139.051 140.928 139.227 141.334 139.408C141.75 139.579 142.107 139.835 142.406 140.176C142.704 140.517 142.859 140.971 142.87 141.536C142.87 142.037 142.731 142.485 142.454 142.88C142.176 143.275 141.782 143.584 141.27 143.808C140.768 144.032 140.176 144.144 139.494 144.144Z" fill="white"/>
<defs>
<linearGradient id="paint0_linear_103_1059" x1="555.214" y1="95.3359" x2="-45.289" y2="95.3584" gradientUnits="userSpaceOnUse">
<stop stop-color="#00499D"/>
<stop offset="0.296875" stop-color="#00ADEE"/>
<stop offset="0.609375" stop-color="#0068B7"/>
<stop offset="1" stop-color="white"/>
</linearGradient>
</defs>
</svg>
