<svg width="215" height="192" viewBox="0 0 215 192" fill="none" xmlns="http://www.w3.org/2000/svg">
<path d="M151.087 0.977905H64.8235C57.4062 0.977905 50.5472 4.93247 46.8306 11.3586L3.6986 86.049C-0.0180231 92.4751 -0.0180231 100.384 3.6986 106.81L46.8306 181.501C50.5472 187.927 57.4062 191.881 64.8235 191.881H151.087C158.505 191.881 165.364 187.927 169.08 181.501L212.212 106.81C215.929 100.384 215.929 92.4751 212.212 86.049L169.08 11.3586C165.364 4.93247 158.505 0.977905 151.087 0.977905Z" fill="url(#paint0_linear_98_1347)"/>
<path d="M64.5037 189.12C57.9637 189.12 51.8544 185.596 48.5844 179.935L5.45249 105.245C2.1825 99.584 2.1825 92.5359 5.45249 86.8752L48.5844 12.1849C51.8544 6.52409 57.9637 3.00006 64.5037 3.00006H150.768C157.308 3.00006 163.417 6.52409 166.687 12.1849L209.819 86.8752C213.089 92.5359 213.089 99.584 209.819 105.245L166.687 179.935C163.417 185.596 157.308 189.12 150.768 189.12H64.5037Z" fill="#232C68"/>
<path d="M121.125 57.125H128.625V64.625H121.125V57.125ZM121.125 68.375H128.625V75.875H121.125V68.375ZM109.875 57.125H117.375V64.625H109.875V57.125ZM109.875 68.375H117.375V75.875H109.875V68.375Z" fill="white"/>
<path d="M105.188 92.75C106.741 92.75 108 91.4908 108 89.9375C108 88.3842 106.741 87.125 105.188 87.125C103.634 87.125 102.375 88.3842 102.375 89.9375C102.375 91.4908 103.634 92.75 105.188 92.75Z" fill="white"/>
<path d="M117.375 100.25H93C92.0057 100.249 91.0525 99.8536 90.3494 99.1506C89.6464 98.4475 89.251 97.4943 89.25 96.5V51.5C89.251 50.5057 89.6464 49.5525 90.3494 48.8494C91.0525 48.1464 92.0057 47.751 93 47.75H117.375V51.5H93V96.5H117.375V81.5H121.125V96.5C121.124 97.4943 120.729 98.4475 120.026 99.1506C119.323 99.8536 118.369 100.249 117.375 100.25Z" fill="white"/>
<path d="M94.1776 112.88V124H92.3536V116.384L88.9616 124H87.6976L84.2896 116.384V124H82.4656V112.88H84.4336L88.3376 121.6L92.2256 112.88H94.1776ZM100.399 124.144C99.567 124.144 98.815 123.957 98.143 123.584C97.471 123.2 96.943 122.667 96.559 121.984C96.175 121.291 95.983 120.491 95.983 119.584C95.983 118.688 96.1803 117.893 96.575 117.2C96.9697 116.507 97.5083 115.973 98.191 115.6C98.8737 115.227 99.6363 115.04 100.479 115.04C101.322 115.04 102.084 115.227 102.767 115.6C103.45 115.973 103.988 116.507 104.383 117.2C104.778 117.893 104.975 118.688 104.975 119.584C104.975 120.48 104.772 121.275 104.367 121.968C103.962 122.661 103.407 123.2 102.703 123.584C102.01 123.957 101.242 124.144 100.399 124.144ZM100.399 122.56C100.868 122.56 101.306 122.448 101.711 122.224C102.127 122 102.463 121.664 102.719 121.216C102.975 120.768 103.103 120.224 103.103 119.584C103.103 118.944 102.98 118.405 102.735 117.968C102.49 117.52 102.164 117.184 101.759 116.96C101.354 116.736 100.916 116.624 100.447 116.624C99.9777 116.624 99.5403 116.736 99.135 116.96C98.7403 117.184 98.4257 117.52 98.191 117.968C97.9563 118.405 97.839 118.944 97.839 119.584C97.839 120.533 98.079 121.269 98.559 121.792C99.0497 122.304 99.663 122.56 100.399 122.56ZM108.602 116.496C108.911 116.069 109.333 115.723 109.866 115.456C110.41 115.179 111.013 115.04 111.674 115.04C112.453 115.04 113.157 115.227 113.786 115.6C114.415 115.973 114.911 116.507 115.274 117.2C115.637 117.883 115.818 118.667 115.818 119.552C115.818 120.437 115.637 121.232 115.274 121.936C114.911 122.629 114.41 123.173 113.77 123.568C113.141 123.952 112.442 124.144 111.674 124.144C110.991 124.144 110.383 124.011 109.85 123.744C109.327 123.477 108.911 123.136 108.602 122.72V124H106.778V112.16H108.602V116.496ZM113.962 119.552C113.962 118.944 113.834 118.421 113.578 117.984C113.333 117.536 113.002 117.2 112.586 116.976C112.181 116.741 111.743 116.624 111.274 116.624C110.815 116.624 110.378 116.741 109.962 116.976C109.557 117.211 109.226 117.552 108.97 118C108.725 118.448 108.602 118.976 108.602 119.584C108.602 120.192 108.725 120.725 108.97 121.184C109.226 121.632 109.557 121.973 109.962 122.208C110.378 122.443 110.815 122.56 111.274 122.56C111.743 122.56 112.181 122.443 112.586 122.208C113.002 121.963 113.333 121.611 113.578 121.152C113.834 120.693 113.962 120.16 113.962 119.552ZM118.55 114.016C118.219 114.016 117.942 113.904 117.718 113.68C117.494 113.456 117.382 113.179 117.382 112.848C117.382 112.517 117.494 112.24 117.718 112.016C117.942 111.792 118.219 111.68 118.55 111.68C118.87 111.68 119.142 111.792 119.366 112.016C119.59 112.24 119.702 112.517 119.702 112.848C119.702 113.179 119.59 113.456 119.366 113.68C119.142 113.904 118.87 114.016 118.55 114.016ZM119.446 115.184V124H117.622V115.184H119.446ZM123.665 112.16V124H121.841V112.16H123.665ZM134.139 119.376C134.139 119.707 134.118 120.005 134.075 120.272H127.339C127.393 120.976 127.654 121.541 128.123 121.968C128.593 122.395 129.169 122.608 129.851 122.608C130.833 122.608 131.526 122.197 131.931 121.376H133.899C133.633 122.187 133.147 122.853 132.443 123.376C131.75 123.888 130.886 124.144 129.851 124.144C129.009 124.144 128.251 123.957 127.579 123.584C126.918 123.2 126.395 122.667 126.011 121.984C125.638 121.291 125.451 120.491 125.451 119.584C125.451 118.677 125.633 117.883 125.995 117.2C126.369 116.507 126.886 115.973 127.547 115.6C128.219 115.227 128.987 115.04 129.851 115.04C130.683 115.04 131.425 115.221 132.075 115.584C132.726 115.947 133.233 116.459 133.595 117.12C133.958 117.771 134.139 118.523 134.139 119.376ZM132.235 118.8C132.225 118.128 131.985 117.589 131.515 117.184C131.046 116.779 130.465 116.576 129.771 116.576C129.142 116.576 128.603 116.779 128.155 117.184C127.707 117.579 127.441 118.117 127.355 118.8H132.235ZM95.2087 141.728H90.5527L89.7527 144H87.8487L91.8327 132.864H93.9447L97.9287 144H96.0087L95.2087 141.728ZM94.6967 140.24L92.8887 135.072L91.0647 140.24H94.6967ZM101.485 136.48C101.794 136.075 102.216 135.733 102.749 135.456C103.282 135.179 103.885 135.04 104.557 135.04C105.325 135.04 106.024 135.232 106.653 135.616C107.293 135.989 107.794 136.517 108.157 137.2C108.52 137.883 108.701 138.667 108.701 139.552C108.701 140.437 108.52 141.232 108.157 141.936C107.794 142.629 107.293 143.173 106.653 143.568C106.024 143.952 105.325 144.144 104.557 144.144C103.885 144.144 103.288 144.011 102.765 143.744C102.242 143.467 101.816 143.125 101.485 142.72V148.192H99.6609V135.184H101.485V136.48ZM106.845 139.552C106.845 138.944 106.717 138.421 106.461 137.984C106.216 137.536 105.885 137.2 105.469 136.976C105.064 136.741 104.626 136.624 104.157 136.624C103.698 136.624 103.261 136.741 102.845 136.976C102.44 137.211 102.109 137.552 101.853 138C101.608 138.448 101.485 138.976 101.485 139.584C101.485 140.192 101.608 140.725 101.853 141.184C102.109 141.632 102.44 141.973 102.845 142.208C103.261 142.443 103.698 142.56 104.157 142.56C104.626 142.56 105.064 142.443 105.469 142.208C105.885 141.963 106.216 141.611 106.461 141.152C106.717 140.693 106.845 140.16 106.845 139.552ZM112.329 136.48C112.638 136.075 113.059 135.733 113.593 135.456C114.126 135.179 114.729 135.04 115.401 135.04C116.169 135.04 116.867 135.232 117.497 135.616C118.137 135.989 118.638 136.517 119.001 137.2C119.363 137.883 119.545 138.667 119.545 139.552C119.545 140.437 119.363 141.232 119.001 141.936C118.638 142.629 118.137 143.173 117.497 143.568C116.867 143.952 116.169 144.144 115.401 144.144C114.729 144.144 114.131 144.011 113.609 143.744C113.086 143.467 112.659 143.125 112.329 142.72V148.192H110.505V135.184H112.329V136.48ZM117.689 139.552C117.689 138.944 117.561 138.421 117.305 137.984C117.059 137.536 116.729 137.2 116.313 136.976C115.907 136.741 115.47 136.624 115.001 136.624C114.542 136.624 114.105 136.741 113.689 136.976C113.283 137.211 112.953 137.552 112.697 138C112.451 138.448 112.329 138.976 112.329 139.584C112.329 140.192 112.451 140.725 112.697 141.184C112.953 141.632 113.283 141.973 113.689 142.208C114.105 142.443 114.542 142.56 115.001 142.56C115.47 142.56 115.907 142.443 116.313 142.208C116.729 141.963 117.059 141.611 117.305 141.152C117.561 140.693 117.689 140.16 117.689 139.552ZM124.548 144.144C123.855 144.144 123.231 144.021 122.676 143.776C122.132 143.52 121.7 143.179 121.38 142.752C121.06 142.315 120.89 141.829 120.868 141.296H122.756C122.788 141.669 122.964 141.984 123.284 142.24C123.615 142.485 124.026 142.608 124.516 142.608C125.028 142.608 125.423 142.512 125.7 142.32C125.988 142.117 126.132 141.861 126.132 141.552C126.132 141.221 125.972 140.976 125.652 140.816C125.343 140.656 124.847 140.48 124.164 140.288C123.503 140.107 122.964 139.931 122.548 139.76C122.132 139.589 121.77 139.328 121.46 138.976C121.162 138.624 121.012 138.16 121.012 137.584C121.012 137.115 121.151 136.688 121.428 136.304C121.706 135.909 122.1 135.6 122.612 135.376C123.135 135.152 123.732 135.04 124.404 135.04C125.407 135.04 126.212 135.296 126.82 135.808C127.439 136.309 127.77 136.997 127.812 137.872H125.988C125.956 137.477 125.796 137.163 125.508 136.928C125.22 136.693 124.831 136.576 124.34 136.576C123.86 136.576 123.492 136.667 123.236 136.848C122.98 137.029 122.852 137.269 122.852 137.568C122.852 137.803 122.938 138 123.108 138.16C123.279 138.32 123.487 138.448 123.732 138.544C123.978 138.629 124.34 138.741 124.82 138.88C125.46 139.051 125.983 139.227 126.388 139.408C126.804 139.579 127.162 139.835 127.46 140.176C127.759 140.517 127.914 140.971 127.924 141.536C127.924 142.037 127.786 142.485 127.508 142.88C127.231 143.275 126.836 143.584 126.324 143.808C125.823 144.032 125.231 144.144 124.548 144.144Z" fill="white"/>
<defs>
<linearGradient id="paint0_linear_98_1347" x1="555.695" y1="95.3358" x2="-44.808" y2="95.3583" gradientUnits="userSpaceOnUse">
<stop stop-color="#00499D"/>
<stop offset="0.296875" stop-color="#00ADEE"/>
<stop offset="0.609375" stop-color="#0068B7"/>
<stop offset="1" stop-color="white"/>
</linearGradient>
</defs>
</svg>
