<svg width="215" height="192" viewBox="0 0 215 192" fill="none" xmlns="http://www.w3.org/2000/svg">
<path d="M150.737 0.702454H64.4726C57.0553 0.702454 50.1964 4.65702 46.4798 11.0832L3.34777 85.7735C-0.368853 92.1997 -0.368853 100.109 3.34777 106.535L46.4798 181.225C50.1964 187.651 57.0553 191.606 64.4726 191.606H150.737C158.154 191.606 165.013 187.651 168.73 181.225L211.862 106.535C215.578 100.109 215.578 92.1997 211.862 85.7735L168.73 11.0832C165.013 4.65702 158.154 0.702454 150.737 0.702454Z" fill="url(#paint0_linear_92_1896)"/>
<path d="M64.4568 189.214C57.9168 189.214 51.8076 185.69 48.5376 180.029L5.40562 105.339C2.13563 99.6783 2.13563 92.6302 5.40562 86.9695L48.5376 12.2792C51.8076 6.61839 57.9168 3.09436 64.4568 3.09436H150.721C157.261 3.09436 163.37 6.61839 166.64 12.2792L209.772 86.9695C213.042 92.6302 213.042 99.6783 209.772 105.339L166.64 180.029C163.37 185.69 157.261 189.214 150.721 189.214H64.4568Z" fill="white"/>
<path d="M108 59.6251C95.3906 59.6251 85.5 65.3907 85.5 72.7501V95.2501C85.5 102.609 95.3906 108.375 108 108.375C120.609 108.375 130.5 102.609 130.5 95.2501V72.7501C130.5 65.3907 120.609 59.6251 108 59.6251ZM126.75 84.0001C126.75 86.2501 124.898 88.5469 121.688 90.3047C118.055 92.2969 113.203 93.3751 108 93.3751C102.797 93.3751 97.9453 92.2969 94.3125 90.3047C91.1016 88.5469 89.25 86.2501 89.25 84.0001V80.1094C93.2578 83.6016 100.078 85.8751 108 85.8751C115.922 85.8751 122.742 83.6016 126.75 80.1094V84.0001ZM121.688 101.555C118.055 103.547 113.203 104.625 108 104.625C102.797 104.625 97.9453 103.547 94.3125 101.555C91.1016 99.7969 89.25 97.5001 89.25 95.2501V91.3594C93.2578 94.8516 100.078 97.1251 108 97.1251C115.922 97.1251 122.742 94.8516 126.75 91.3594V95.2501C126.75 97.5001 124.898 99.7969 121.688 101.555Z" fill="url(#paint1_linear_92_1896)"/>
<path d="M69.0117 122.88C70.1957 122.88 71.2304 123.109 72.1157 123.568C73.0117 124.016 73.6997 124.667 74.1797 125.52C74.6704 126.363 74.9157 127.349 74.9157 128.48C74.9157 129.611 74.6704 130.592 74.1797 131.424C73.6997 132.256 73.0117 132.896 72.1157 133.344C71.2304 133.781 70.1957 134 69.0117 134H65.3797V122.88H69.0117ZM69.0117 132.512C70.313 132.512 71.3104 132.16 72.0037 131.456C72.697 130.752 73.0437 129.76 73.0437 128.48C73.0437 127.189 72.697 126.181 72.0037 125.456C71.3104 124.731 70.313 124.368 69.0117 124.368H67.2037V132.512H69.0117ZM76.1154 129.552C76.1154 128.667 76.2968 127.883 76.6594 127.2C77.0328 126.517 77.5341 125.989 78.1634 125.616C78.8034 125.232 79.5074 125.04 80.2754 125.04C80.9688 125.04 81.5714 125.179 82.0834 125.456C82.6061 125.723 83.0221 126.059 83.3314 126.464V125.184H85.1714V134H83.3314V132.688C83.0221 133.104 82.6008 133.451 82.0674 133.728C81.5341 134.005 80.9261 134.144 80.2434 134.144C79.4861 134.144 78.7928 133.952 78.1634 133.568C77.5341 133.173 77.0328 132.629 76.6594 131.936C76.2968 131.232 76.1154 130.437 76.1154 129.552ZM83.3314 129.584C83.3314 128.976 83.2034 128.448 82.9474 128C82.7021 127.552 82.3768 127.211 81.9714 126.976C81.5661 126.741 81.1288 126.624 80.6594 126.624C80.1901 126.624 79.7528 126.741 79.3474 126.976C78.9421 127.2 78.6114 127.536 78.3554 127.984C78.1101 128.421 77.9874 128.944 77.9874 129.552C77.9874 130.16 78.1101 130.693 78.3554 131.152C78.6114 131.611 78.9421 131.963 79.3474 132.208C79.7634 132.443 80.2008 132.56 80.6594 132.56C81.1288 132.56 81.5661 132.443 81.9714 132.208C82.3768 131.973 82.7021 131.632 82.9474 131.184C83.2034 130.725 83.3314 130.192 83.3314 129.584ZM89.6952 126.672V131.552C89.6952 131.883 89.7699 132.123 89.9192 132.272C90.0792 132.411 90.3459 132.48 90.7192 132.48H91.8392V134H90.3992C89.5779 134 88.9485 133.808 88.5112 133.424C88.0739 133.04 87.8552 132.416 87.8552 131.552V126.672H86.8152V125.184H87.8552V122.992H89.6952V125.184H91.8392V126.672H89.6952ZM92.9123 129.552C92.9123 128.667 93.0936 127.883 93.4563 127.2C93.8296 126.517 94.331 125.989 94.9603 125.616C95.6003 125.232 96.3043 125.04 97.0723 125.04C97.7656 125.04 98.3683 125.179 98.8803 125.456C99.403 125.723 99.819 126.059 100.128 126.464V125.184H101.968V134H100.128V132.688C99.819 133.104 99.3976 133.451 98.8643 133.728C98.331 134.005 97.723 134.144 97.0403 134.144C96.283 134.144 95.5896 133.952 94.9603 133.568C94.331 133.173 93.8296 132.629 93.4563 131.936C93.0936 131.232 92.9123 130.437 92.9123 129.552ZM100.128 129.584C100.128 128.976 100 128.448 99.7443 128C99.499 127.552 99.1736 127.211 98.7683 126.976C98.363 126.741 97.9256 126.624 97.4563 126.624C96.987 126.624 96.5496 126.741 96.1443 126.976C95.739 127.2 95.4083 127.536 95.1523 127.984C94.907 128.421 94.7843 128.944 94.7843 129.552C94.7843 130.16 94.907 130.693 95.1523 131.152C95.4083 131.611 95.739 131.963 96.1443 132.208C96.5603 132.443 96.9976 132.56 97.4563 132.56C97.9256 132.56 98.363 132.443 98.7683 132.208C99.1736 131.973 99.499 131.632 99.7443 131.184C100 130.725 100.128 130.192 100.128 129.584ZM106.188 126.496C106.497 126.069 106.919 125.723 107.452 125.456C107.996 125.179 108.599 125.04 109.26 125.04C110.039 125.04 110.743 125.227 111.372 125.6C112.001 125.973 112.497 126.507 112.86 127.2C113.223 127.883 113.404 128.667 113.404 129.552C113.404 130.437 113.223 131.232 112.86 131.936C112.497 132.629 111.996 133.173 111.356 133.568C110.727 133.952 110.028 134.144 109.26 134.144C108.577 134.144 107.969 134.011 107.436 133.744C106.913 133.477 106.497 133.136 106.188 132.72V134H104.364V122.16H106.188V126.496ZM111.548 129.552C111.548 128.944 111.42 128.421 111.164 127.984C110.919 127.536 110.588 127.2 110.172 126.976C109.767 126.741 109.329 126.624 108.86 126.624C108.401 126.624 107.964 126.741 107.548 126.976C107.143 127.211 106.812 127.552 106.556 128C106.311 128.448 106.188 128.976 106.188 129.584C106.188 130.192 106.311 130.725 106.556 131.184C106.812 131.632 107.143 131.973 107.548 132.208C107.964 132.443 108.401 132.56 108.86 132.56C109.329 132.56 109.767 132.443 110.172 132.208C110.588 131.963 110.919 131.611 111.164 131.152C111.42 130.693 111.548 130.16 111.548 129.552ZM114.6 129.552C114.6 128.667 114.781 127.883 115.144 127.2C115.517 126.517 116.018 125.989 116.648 125.616C117.288 125.232 117.992 125.04 118.76 125.04C119.453 125.04 120.056 125.179 120.568 125.456C121.09 125.723 121.506 126.059 121.816 126.464V125.184H123.656V134H121.816V132.688C121.506 133.104 121.085 133.451 120.552 133.728C120.018 134.005 119.41 134.144 118.728 134.144C117.97 134.144 117.277 133.952 116.648 133.568C116.018 133.173 115.517 132.629 115.144 131.936C114.781 131.232 114.6 130.437 114.6 129.552ZM121.816 129.584C121.816 128.976 121.688 128.448 121.432 128C121.186 127.552 120.861 127.211 120.456 126.976C120.05 126.741 119.613 126.624 119.144 126.624C118.674 126.624 118.237 126.741 117.832 126.976C117.426 127.2 117.096 127.536 116.84 127.984C116.594 128.421 116.472 128.944 116.472 129.552C116.472 130.16 116.594 130.693 116.84 131.152C117.096 131.611 117.426 131.963 117.832 132.208C118.248 132.443 118.685 132.56 119.144 132.56C119.613 132.56 120.05 132.443 120.456 132.208C120.861 131.973 121.186 131.632 121.432 131.184C121.688 130.725 121.816 130.192 121.816 129.584ZM129.252 134.144C128.558 134.144 127.934 134.021 127.38 133.776C126.836 133.52 126.404 133.179 126.084 132.752C125.764 132.315 125.593 131.829 125.572 131.296H127.46C127.492 131.669 127.668 131.984 127.988 132.24C128.318 132.485 128.729 132.608 129.22 132.608C129.732 132.608 130.126 132.512 130.404 132.32C130.692 132.117 130.836 131.861 130.836 131.552C130.836 131.221 130.676 130.976 130.356 130.816C130.046 130.656 129.55 130.48 128.868 130.288C128.206 130.107 127.668 129.931 127.252 129.76C126.836 129.589 126.473 129.328 126.164 128.976C125.865 128.624 125.716 128.16 125.716 127.584C125.716 127.115 125.854 126.688 126.132 126.304C126.409 125.909 126.804 125.6 127.316 125.376C127.838 125.152 128.436 125.04 129.108 125.04C130.11 125.04 130.916 125.296 131.524 125.808C132.142 126.309 132.473 126.997 132.516 127.872H130.692C130.66 127.477 130.5 127.163 130.212 126.928C129.924 126.693 129.534 126.576 129.044 126.576C128.564 126.576 128.196 126.667 127.94 126.848C127.684 127.029 127.556 127.269 127.556 127.568C127.556 127.803 127.641 128 127.812 128.16C127.982 128.32 128.19 128.448 128.436 128.544C128.681 128.629 129.044 128.741 129.524 128.88C130.164 129.051 130.686 129.227 131.092 129.408C131.508 129.579 131.865 129.835 132.164 130.176C132.462 130.517 132.617 130.971 132.628 131.536C132.628 132.037 132.489 132.485 132.212 132.88C131.934 133.275 131.54 133.584 131.028 133.808C130.526 134.032 129.934 134.144 129.252 134.144ZM142.678 129.376C142.678 129.707 142.657 130.005 142.614 130.272H135.878C135.932 130.976 136.193 131.541 136.662 131.968C137.132 132.395 137.708 132.608 138.39 132.608C139.372 132.608 140.065 132.197 140.47 131.376H142.438C142.172 132.187 141.686 132.853 140.982 133.376C140.289 133.888 139.425 134.144 138.39 134.144C137.548 134.144 136.79 133.957 136.118 133.584C135.457 133.2 134.934 132.667 134.55 131.984C134.177 131.291 133.99 130.491 133.99 129.584C133.99 128.677 134.172 127.883 134.534 127.2C134.908 126.507 135.425 125.973 136.086 125.6C136.758 125.227 137.526 125.04 138.39 125.04C139.222 125.04 139.964 125.221 140.614 125.584C141.265 125.947 141.772 126.459 142.134 127.12C142.497 127.771 142.678 128.523 142.678 129.376ZM140.774 128.8C140.764 128.128 140.524 127.589 140.054 127.184C139.585 126.779 139.004 126.576 138.31 126.576C137.681 126.576 137.142 126.779 136.694 127.184C136.246 127.579 135.98 128.117 135.894 128.8H140.774ZM147.673 134.144C146.98 134.144 146.356 134.021 145.801 133.776C145.257 133.52 144.825 133.179 144.505 132.752C144.185 132.315 144.015 131.829 143.993 131.296H145.881C145.913 131.669 146.089 131.984 146.409 132.24C146.74 132.485 147.151 132.608 147.641 132.608C148.153 132.608 148.548 132.512 148.825 132.32C149.113 132.117 149.257 131.861 149.257 131.552C149.257 131.221 149.097 130.976 148.777 130.816C148.468 130.656 147.972 130.48 147.289 130.288C146.628 130.107 146.089 129.931 145.673 129.76C145.257 129.589 144.895 129.328 144.585 128.976C144.287 128.624 144.137 128.16 144.137 127.584C144.137 127.115 144.276 126.688 144.553 126.304C144.831 125.909 145.225 125.6 145.737 125.376C146.26 125.152 146.857 125.04 147.529 125.04C148.532 125.04 149.337 125.296 149.945 125.808C150.564 126.309 150.895 126.997 150.937 127.872H149.113C149.081 127.477 148.921 127.163 148.633 126.928C148.345 126.693 147.956 126.576 147.465 126.576C146.985 126.576 146.617 126.667 146.361 126.848C146.105 127.029 145.977 127.269 145.977 127.568C145.977 127.803 146.063 128 146.233 128.16C146.404 128.32 146.612 128.448 146.857 128.544C147.103 128.629 147.465 128.741 147.945 128.88C148.585 129.051 149.108 129.227 149.513 129.408C149.929 129.579 150.287 129.835 150.585 130.176C150.884 130.517 151.039 130.971 151.049 131.536C151.049 132.037 150.911 132.485 150.633 132.88C150.356 133.275 149.961 133.584 149.449 133.808C148.948 134.032 148.356 134.144 147.673 134.144Z" fill="#232C68"/>
<defs>
<linearGradient id="paint0_linear_92_1896" x1="555.345" y1="95.0603" x2="-45.1588" y2="95.0828" gradientUnits="userSpaceOnUse">
<stop stop-color="#00499D"/>
<stop offset="0.296875" stop-color="#00ADEE"/>
<stop offset="0.609375" stop-color="#0068B7"/>
<stop offset="1" stop-color="white"/>
</linearGradient>
<linearGradient id="paint1_linear_92_1896" x1="202.112" y1="83.7207" x2="75.8901" y2="83.7246" gradientUnits="userSpaceOnUse">
<stop stop-color="#00499D"/>
<stop offset="0.338542" stop-color="#00ADEE"/>
<stop offset="0.674427" stop-color="#0068B7"/>
<stop offset="1" stop-color="#232C68"/>
</linearGradient>
</defs>
</svg>
