<svg width="215" height="191" viewBox="0 0 215 191" fill="none" xmlns="http://www.w3.org/2000/svg">
<path d="M150.737 0H64.4726C57.0553 0 50.1963 3.95456 46.4797 10.3807L3.34777 85.0711C-0.368853 91.4972 -0.368853 99.4064 3.34777 105.833L46.4797 180.523C50.1963 186.949 57.0553 190.904 64.4726 190.904H150.737C158.154 190.904 165.013 186.949 168.73 180.523L211.862 105.833C215.578 99.4064 215.578 91.4972 211.862 85.0711L168.73 10.3807C165.013 3.95456 158.154 0 150.737 0Z" fill="url(#paint0_linear_92_1884)"/>
<path d="M64.5037 188.12C57.9637 188.12 51.8545 184.596 48.5845 178.935L5.45249 104.245C2.1825 98.5839 2.1825 91.5359 5.45249 85.8751L48.5845 11.1848C51.8545 5.52403 57.9637 2 64.5037 2H150.768C157.308 2 163.417 5.52403 166.687 11.1848L209.819 85.8751C213.089 91.5359 213.089 98.5839 209.819 104.245L166.687 178.935C163.417 184.596 157.308 188.12 150.768 188.12H64.5037Z" fill="white"/>
<path d="M103.75 50.5H88.75C87.7554 50.5 86.8016 50.8951 86.0983 51.5983C85.3951 52.3016 85 53.2554 85 54.25V81.75C85 82.7446 85.3951 83.6984 86.0983 84.4016C86.8016 85.1049 87.7554 85.5 88.75 85.5H126.25C127.245 85.5 128.198 85.1049 128.902 84.4016C129.605 83.6984 130 82.7446 130 81.75V69.25M107.5 85.5V95.5" stroke="url(#paint1_linear_92_1884)" stroke-width="4" stroke-linecap="round" stroke-linejoin="round"/>
<path d="M117.5 50.5L112.5 55.5L117.5 60.5M125 50.5L130 55.5L125 60.5M95 95.5H120" stroke="url(#paint2_linear_92_1884)" stroke-width="4" stroke-linecap="round" stroke-linejoin="round"/>
<path d="M79.2284 111.88V113.368H74.5084V116.648H78.1884V118.136H74.5084V123H72.6844V111.88H79.2284ZM82.7428 115.464C83.0094 115.016 83.3614 114.669 83.7988 114.424C84.2468 114.168 84.7748 114.04 85.3828 114.04V115.928H84.9188C84.2041 115.928 83.6601 116.109 83.2868 116.472C82.9241 116.835 82.7428 117.464 82.7428 118.36V123H80.9188V114.184H82.7428V115.464ZM90.8834 123.144C90.0514 123.144 89.2994 122.957 88.6274 122.584C87.9554 122.2 87.4274 121.667 87.0434 120.984C86.6594 120.291 86.4674 119.491 86.4674 118.584C86.4674 117.688 86.6647 116.893 87.0594 116.2C87.454 115.507 87.9927 114.973 88.6754 114.6C89.358 114.227 90.1207 114.04 90.9634 114.04C91.806 114.04 92.5687 114.227 93.2514 114.6C93.934 114.973 94.4727 115.507 94.8674 116.2C95.262 116.893 95.4594 117.688 95.4594 118.584C95.4594 119.48 95.2567 120.275 94.8514 120.968C94.446 121.661 93.8914 122.2 93.1874 122.584C92.494 122.957 91.726 123.144 90.8834 123.144ZM90.8834 121.56C91.3527 121.56 91.79 121.448 92.1954 121.224C92.6114 121 92.9474 120.664 93.2034 120.216C93.4594 119.768 93.5874 119.224 93.5874 118.584C93.5874 117.944 93.4647 117.405 93.2194 116.968C92.974 116.52 92.6487 116.184 92.2434 115.96C91.838 115.736 91.4007 115.624 90.9314 115.624C90.462 115.624 90.0247 115.736 89.6194 115.96C89.2247 116.184 88.91 116.52 88.6754 116.968C88.4407 117.405 88.3234 117.944 88.3234 118.584C88.3234 119.533 88.5634 120.269 89.0434 120.792C89.534 121.304 90.1474 121.56 90.8834 121.56ZM101.711 114.04C102.404 114.04 103.023 114.184 103.567 114.472C104.121 114.76 104.553 115.187 104.863 115.752C105.172 116.317 105.327 117 105.327 117.8V123H103.519V118.072C103.519 117.283 103.321 116.68 102.927 116.264C102.532 115.837 101.993 115.624 101.311 115.624C100.628 115.624 100.084 115.837 99.6785 116.264C99.2838 116.68 99.0865 117.283 99.0865 118.072V123H97.2625V114.184H99.0865V115.192C99.3852 114.829 99.7638 114.547 100.223 114.344C100.692 114.141 101.188 114.04 101.711 114.04ZM109.781 115.672V120.552C109.781 120.883 109.856 121.123 110.005 121.272C110.165 121.411 110.432 121.48 110.805 121.48H111.925V123H110.485C109.664 123 109.034 122.808 108.597 122.424C108.16 122.04 107.941 121.416 107.941 120.552V115.672H106.901V114.184H107.941V111.992H109.781V114.184H111.925V115.672H109.781ZM121.686 118.376C121.686 118.707 121.665 119.005 121.622 119.272H114.886C114.94 119.976 115.201 120.541 115.67 120.968C116.14 121.395 116.716 121.608 117.398 121.608C118.38 121.608 119.073 121.197 119.478 120.376H121.446C121.18 121.187 120.694 121.853 119.99 122.376C119.297 122.888 118.433 123.144 117.398 123.144C116.556 123.144 115.798 122.957 115.126 122.584C114.465 122.2 113.942 121.667 113.558 120.984C113.185 120.291 112.998 119.491 112.998 118.584C112.998 117.677 113.18 116.883 113.542 116.2C113.916 115.507 114.433 114.973 115.094 114.6C115.766 114.227 116.534 114.04 117.398 114.04C118.23 114.04 118.972 114.221 119.622 114.584C120.273 114.947 120.78 115.459 121.142 116.12C121.505 116.771 121.686 117.523 121.686 118.376ZM119.782 117.8C119.772 117.128 119.532 116.589 119.062 116.184C118.593 115.779 118.012 115.576 117.318 115.576C116.689 115.576 116.15 115.779 115.702 116.184C115.254 116.579 114.988 117.117 114.902 117.8H119.782ZM127.929 114.04C128.623 114.04 129.241 114.184 129.785 114.472C130.34 114.76 130.772 115.187 131.081 115.752C131.391 116.317 131.545 117 131.545 117.8V123H129.737V118.072C129.737 117.283 129.54 116.68 129.145 116.264C128.751 115.837 128.212 115.624 127.529 115.624C126.847 115.624 126.303 115.837 125.897 116.264C125.503 116.68 125.305 117.283 125.305 118.072V123H123.481V114.184H125.305V115.192C125.604 114.829 125.983 114.547 126.441 114.344C126.911 114.141 127.407 114.04 127.929 114.04ZM133.264 118.552C133.264 117.667 133.445 116.883 133.808 116.2C134.181 115.517 134.683 114.989 135.312 114.616C135.952 114.232 136.661 114.04 137.44 114.04C138.016 114.04 138.581 114.168 139.136 114.424C139.701 114.669 140.149 115 140.48 115.416V111.16H142.32V123H140.48V121.672C140.181 122.099 139.765 122.451 139.232 122.728C138.709 123.005 138.107 123.144 137.424 123.144C136.656 123.144 135.952 122.952 135.312 122.568C134.683 122.173 134.181 121.629 133.808 120.936C133.445 120.232 133.264 119.437 133.264 118.552ZM140.48 118.584C140.48 117.976 140.352 117.448 140.096 117C139.851 116.552 139.525 116.211 139.12 115.976C138.715 115.741 138.277 115.624 137.808 115.624C137.339 115.624 136.901 115.741 136.496 115.976C136.091 116.2 135.76 116.536 135.504 116.984C135.259 117.421 135.136 117.944 135.136 118.552C135.136 119.16 135.259 119.693 135.504 120.152C135.76 120.611 136.091 120.963 136.496 121.208C136.912 121.443 137.349 121.56 137.808 121.56C138.277 121.56 138.715 121.443 139.12 121.208C139.525 120.973 139.851 120.632 140.096 120.184C140.352 119.725 140.48 119.192 140.48 118.584ZM79.3354 135.192C79.3354 135.757 79.202 136.291 78.9354 136.792C78.6687 137.293 78.242 137.704 77.6554 138.024C77.0687 138.333 76.3167 138.488 75.3994 138.488H73.3834V143H71.5594V131.88H75.3994C76.2527 131.88 76.9727 132.029 77.5594 132.328C78.1567 132.616 78.5994 133.011 78.8874 133.512C79.186 134.013 79.3354 134.573 79.3354 135.192ZM75.3994 137C76.0927 137 76.61 136.845 76.9514 136.536C77.2927 136.216 77.4634 135.768 77.4634 135.192C77.4634 133.976 76.7754 133.368 75.3994 133.368H73.3834V137H75.3994ZM82.899 135.464C83.1657 135.016 83.5177 134.669 83.955 134.424C84.403 134.168 84.931 134.04 85.539 134.04V135.928H85.075C84.3603 135.928 83.8163 136.109 83.443 136.472C83.0803 136.835 82.899 137.464 82.899 138.36V143H81.075V134.184H82.899V135.464ZM86.6076 138.552C86.6076 137.667 86.789 136.883 87.1516 136.2C87.525 135.517 88.0263 134.989 88.6556 134.616C89.2956 134.232 89.9996 134.04 90.7676 134.04C91.461 134.04 92.0636 134.179 92.5756 134.456C93.0983 134.723 93.5143 135.059 93.8236 135.464V134.184H95.6636V143H93.8236V141.688C93.5143 142.104 93.093 142.451 92.5596 142.728C92.0263 143.005 91.4183 143.144 90.7356 143.144C89.9783 143.144 89.285 142.952 88.6556 142.568C88.0263 142.173 87.525 141.629 87.1516 140.936C86.789 140.232 86.6076 139.437 86.6076 138.552ZM93.8236 138.584C93.8236 137.976 93.6956 137.448 93.4396 137C93.1943 136.552 92.869 136.211 92.4636 135.976C92.0583 135.741 91.621 135.624 91.1516 135.624C90.6823 135.624 90.245 135.741 89.8396 135.976C89.4343 136.2 89.1036 136.536 88.8476 136.984C88.6023 137.421 88.4796 137.944 88.4796 138.552C88.4796 139.16 88.6023 139.693 88.8476 140.152C89.1036 140.611 89.4343 140.963 89.8396 141.208C90.2556 141.443 90.693 141.56 91.1516 141.56C91.621 141.56 92.0583 141.443 92.4636 141.208C92.869 140.973 93.1943 140.632 93.4396 140.184C93.6956 139.725 93.8236 139.192 93.8236 138.584ZM97.4514 138.584C97.4514 137.677 97.6327 136.883 97.9954 136.2C98.3687 135.507 98.8807 134.973 99.5314 134.6C100.182 134.227 100.929 134.04 101.771 134.04C102.838 134.04 103.718 134.296 104.411 134.808C105.115 135.309 105.59 136.029 105.835 136.968H103.867C103.707 136.531 103.451 136.189 103.099 135.944C102.747 135.699 102.305 135.576 101.771 135.576C101.025 135.576 100.427 135.843 99.9794 136.376C99.542 136.899 99.3234 137.635 99.3234 138.584C99.3234 139.533 99.542 140.275 99.9794 140.808C100.427 141.341 101.025 141.608 101.771 141.608C102.827 141.608 103.526 141.144 103.867 140.216H105.835C105.579 141.112 105.099 141.827 104.395 142.36C103.691 142.883 102.817 143.144 101.771 143.144C100.929 143.144 100.182 142.957 99.5314 142.584C98.8807 142.2 98.3687 141.667 97.9954 140.984C97.6327 140.291 97.4514 139.491 97.4514 138.584ZM109.781 135.672V140.552C109.781 140.883 109.856 141.123 110.005 141.272C110.165 141.411 110.432 141.48 110.805 141.48H111.925V143H110.485C109.664 143 109.034 142.808 108.597 142.424C108.16 142.04 107.941 141.416 107.941 140.552V135.672H106.901V134.184H107.941V131.992H109.781V134.184H111.925V135.672H109.781ZM114.534 133.016C114.204 133.016 113.926 132.904 113.702 132.68C113.478 132.456 113.366 132.179 113.366 131.848C113.366 131.517 113.478 131.24 113.702 131.016C113.926 130.792 114.204 130.68 114.534 130.68C114.854 130.68 115.126 130.792 115.35 131.016C115.574 131.24 115.686 131.517 115.686 131.848C115.686 132.179 115.574 132.456 115.35 132.68C115.126 132.904 114.854 133.016 114.534 133.016ZM115.43 134.184V143H113.606V134.184H115.43ZM117.217 138.584C117.217 137.677 117.398 136.883 117.761 136.2C118.134 135.507 118.646 134.973 119.297 134.6C119.948 134.227 120.694 134.04 121.537 134.04C122.604 134.04 123.484 134.296 124.177 134.808C124.881 135.309 125.356 136.029 125.601 136.968H123.633C123.473 136.531 123.217 136.189 122.865 135.944C122.513 135.699 122.07 135.576 121.537 135.576C120.79 135.576 120.193 135.843 119.745 136.376C119.308 136.899 119.089 137.635 119.089 138.584C119.089 139.533 119.308 140.275 119.745 140.808C120.193 141.341 120.79 141.608 121.537 141.608C122.593 141.608 123.292 141.144 123.633 140.216H125.601C125.345 141.112 124.865 141.827 124.161 142.36C123.457 142.883 122.582 143.144 121.537 143.144C120.694 143.144 119.948 142.957 119.297 142.584C118.646 142.2 118.134 141.667 117.761 140.984C117.398 140.291 117.217 139.491 117.217 138.584ZM135.499 138.376C135.499 138.707 135.477 139.005 135.435 139.272H128.699C128.752 139.976 129.013 140.541 129.483 140.968C129.952 141.395 130.528 141.608 131.211 141.608C132.192 141.608 132.885 141.197 133.291 140.376H135.259C134.992 141.187 134.507 141.853 133.803 142.376C133.109 142.888 132.245 143.144 131.211 143.144C130.368 143.144 129.611 142.957 128.939 142.584C128.277 142.2 127.755 141.667 127.371 140.984C126.997 140.291 126.811 139.491 126.811 138.584C126.811 137.677 126.992 136.883 127.355 136.2C127.728 135.507 128.245 134.973 128.907 134.6C129.579 134.227 130.347 134.04 131.211 134.04C132.043 134.04 132.784 134.221 133.435 134.584C134.085 134.947 134.592 135.459 134.955 136.12C135.317 136.771 135.499 137.523 135.499 138.376ZM133.595 137.8C133.584 137.128 133.344 136.589 132.875 136.184C132.405 135.779 131.824 135.576 131.131 135.576C130.501 135.576 129.963 135.779 129.515 136.184C129.067 136.579 128.8 137.117 128.715 137.8H133.595ZM140.494 143.144C139.8 143.144 139.176 143.021 138.622 142.776C138.078 142.52 137.646 142.179 137.326 141.752C137.006 141.315 136.835 140.829 136.814 140.296H138.702C138.734 140.669 138.91 140.984 139.23 141.24C139.56 141.485 139.971 141.608 140.462 141.608C140.974 141.608 141.368 141.512 141.646 141.32C141.934 141.117 142.078 140.861 142.078 140.552C142.078 140.221 141.918 139.976 141.598 139.816C141.288 139.656 140.792 139.48 140.11 139.288C139.448 139.107 138.91 138.931 138.494 138.76C138.078 138.589 137.715 138.328 137.406 137.976C137.107 137.624 136.958 137.16 136.958 136.584C136.958 136.115 137.096 135.688 137.374 135.304C137.651 134.909 138.046 134.6 138.558 134.376C139.08 134.152 139.678 134.04 140.35 134.04C141.352 134.04 142.158 134.296 142.766 134.808C143.384 135.309 143.715 135.997 143.758 136.872H141.934C141.902 136.477 141.742 136.163 141.454 135.928C141.166 135.693 140.776 135.576 140.286 135.576C139.806 135.576 139.438 135.667 139.182 135.848C138.926 136.029 138.798 136.269 138.798 136.568C138.798 136.803 138.883 137 139.054 137.16C139.224 137.32 139.432 137.448 139.678 137.544C139.923 137.629 140.286 137.741 140.766 137.88C141.406 138.051 141.928 138.227 142.334 138.408C142.75 138.579 143.107 138.835 143.406 139.176C143.704 139.517 143.859 139.971 143.87 140.536C143.87 141.037 143.731 141.485 143.454 141.88C143.176 142.275 142.782 142.584 142.27 142.808C141.768 143.032 141.176 143.144 140.494 143.144Z" fill="#232C68"/>
<defs>
<linearGradient id="paint0_linear_92_1884" x1="555.345" y1="94.3579" x2="-45.1588" y2="94.3804" gradientUnits="userSpaceOnUse">
<stop stop-color="#00499D"/>
<stop offset="0.296875" stop-color="#00ADEE"/>
<stop offset="0.609375" stop-color="#0068B7"/>
<stop offset="1" stop-color="white"/>
</linearGradient>
<linearGradient id="paint1_linear_92_1884" x1="201.612" y1="72.7421" x2="75.3901" y2="72.7464" gradientUnits="userSpaceOnUse">
<stop stop-color="#00499D"/>
<stop offset="0.338542" stop-color="#00ADEE"/>
<stop offset="0.674427" stop-color="#0068B7"/>
<stop offset="1" stop-color="#232C68"/>
</linearGradient>
<linearGradient id="paint2_linear_92_1884" x1="185.698" y1="72.7421" x2="87.5257" y2="72.7447" gradientUnits="userSpaceOnUse">
<stop stop-color="#00499D"/>
<stop offset="0.338542" stop-color="#00ADEE"/>
<stop offset="0.674427" stop-color="#0068B7"/>
<stop offset="1" stop-color="#232C68"/>
</linearGradient>
</defs>
</svg>
