<svg width="40" height="41" viewBox="0 0 40 41" fill="none" xmlns="http://www.w3.org/2000/svg">
<path d="M23.2031 16.0078C23.7891 15.4479 24.2383 14.8034 24.5508 14.0742C24.8633 13.3451 25.026 12.5703 25.0391 11.75C25.0391 10.9297 24.8828 10.1549 24.5703 9.42578C24.2578 8.69661 23.8021 8.05208 23.2031 7.49219L24.9414 5.69531C25.7747 6.5026 26.4128 7.42057 26.8555 8.44922C27.2982 9.47786 27.526 10.5781 27.5391 11.75C27.5391 12.9089 27.3177 14.0026 26.875 15.0312C26.4323 16.0599 25.7878 16.9844 24.9414 17.8047L23.2031 16.0078ZM28.418 2.10156C29.069 2.72656 29.6484 3.41016 30.1562 4.15234C30.6641 4.89453 31.1003 5.67578 31.4648 6.49609C31.8294 7.31641 32.0964 8.16927 32.2656 9.05469C32.4349 9.9401 32.526 10.8385 32.5391 11.75C32.5391 12.6615 32.4479 13.5599 32.2656 14.4453C32.0833 15.3307 31.8164 16.1836 31.4648 17.0039C31.1133 17.8242 30.6836 18.6055 30.1758 19.3477C29.668 20.0898 29.082 20.7734 28.418 21.3984L26.6797 19.6016C27.7604 18.5599 28.5872 17.3685 29.1602 16.0273C29.7331 14.6862 30.026 13.2604 30.0391 11.75C30.0391 10.2526 29.7526 8.83333 29.1797 7.49219C28.6068 6.15104 27.7734 4.95312 26.6797 3.89844L28.418 2.10156ZM12.5586 17.8047C11.7253 16.9974 11.0872 16.0794 10.6445 15.0508C10.2018 14.0221 9.97396 12.9219 9.96094 11.75C9.96094 10.5911 10.1823 9.4974 10.625 8.46875C11.0677 7.4401 11.7122 6.51562 12.5586 5.69531L14.2969 7.49219C13.7109 8.05208 13.2617 8.69661 12.9492 9.42578C12.6367 10.1549 12.474 10.9297 12.4609 11.75C12.4609 12.5703 12.6172 13.3451 12.9297 14.0742C13.2422 14.8034 13.6979 15.4479 14.2969 16.0078L12.5586 17.8047ZM9.08203 21.3984C8.43099 20.7734 7.85156 20.0898 7.34375 19.3477C6.83594 18.6055 6.39974 17.8242 6.03516 17.0039C5.67057 16.1836 5.40365 15.3307 5.23438 14.4453C5.0651 13.5599 4.97396 12.6615 4.96094 11.75C4.96094 10.8385 5.05208 9.9401 5.23438 9.05469C5.41667 8.16927 5.68359 7.31641 6.03516 6.49609C6.38672 5.67578 6.81641 4.89453 7.32422 4.15234C7.83203 3.41016 8.41797 2.72656 9.08203 2.10156L10.8203 3.89844C9.73958 4.9401 8.91276 6.13151 8.33984 7.47266C7.76693 8.8138 7.47396 10.2396 7.46094 11.75C7.46094 13.2474 7.7474 14.6667 8.32031 16.0078C8.89323 17.349 9.72656 18.5469 10.8203 19.6016L9.08203 21.3984ZM22.5 11.75C22.5 12.3359 22.3763 12.8828 22.1289 13.3906C21.8815 13.8984 21.5234 14.3346 21.0547 14.6992L28.8086 38H26.1914L24.5117 33H12.9883L11.3086 38H8.69141L16.4453 14.6992C15.9896 14.3477 15.638 13.918 15.3906 13.4102C15.1432 12.9023 15.013 12.349 15 11.75C15 11.2292 15.0977 10.7409 15.293 10.2852C15.4883 9.82943 15.7552 9.43229 16.0938 9.09375C16.4323 8.75521 16.8294 8.48828 17.2852 8.29297C17.7409 8.09766 18.2292 8 18.75 8C19.2708 8 19.7591 8.09766 20.2148 8.29297C20.6706 8.48828 21.0677 8.75521 21.4062 9.09375C21.7448 9.43229 22.0117 9.82943 22.207 10.2852C22.4023 10.7409 22.5 11.2292 22.5 11.75ZM18.75 10.5C18.4115 10.5 18.1185 10.6237 17.8711 10.8711C17.6237 11.1185 17.5 11.4115 17.5 11.75C17.5 12.0885 17.6237 12.3815 17.8711 12.6289C18.1185 12.8763 18.4115 13 18.75 13C19.0885 13 19.3815 12.8763 19.6289 12.6289C19.8763 12.3815 20 12.0885 20 11.75C20 11.4115 19.8763 11.1185 19.6289 10.8711C19.3815 10.6237 19.0885 10.5 18.75 10.5ZM18.75 15.6953L16.3086 23H21.1914L18.75 15.6953ZM23.6914 30.5L22.0117 25.5H15.4883L13.8086 30.5H23.6914Z" fill="#0068B7"/>
</svg>
