<svg width="120" height="120" viewBox="0 0 120 120" fill="none" xmlns="http://www.w3.org/2000/svg">
<g filter="url(#filter0_d_98_2066)">
<rect x="9" y="9" width="100" height="100" rx="16" fill="white"/>
</g>
<g clip-path="url(#clip0_98_2066)">
<path d="M71.5156 34H45.4844C39.1417 34 34 39.1417 34 45.4844V71.5156C34 77.8583 39.1417 83 45.4844 83H71.5156C77.8583 83 83 77.8583 83 71.5156V45.4844C83 39.1417 77.8583 34 71.5156 34Z" fill="#007ACC"/>
<path d="M44.8358 58.6628L44.8203 60.6695H51.198V78.7917H55.7094V60.6695H62.0871V58.7017C62.0871 57.6128 62.0639 56.7028 62.0327 56.6795C62.0094 56.6485 58.1282 56.6328 53.4227 56.6406L44.8594 56.664L44.836 58.6628H44.8358ZM73.5383 56.6069C74.7827 56.9182 75.7317 57.4704 76.6027 58.3725C77.0539 58.8548 77.7227 59.7337 77.7772 59.9437C77.7927 60.0059 75.6616 61.4371 74.3706 62.2381C74.3239 62.2693 74.1371 62.067 73.9271 61.756C73.2972 60.8382 72.636 60.4414 71.6248 60.3715C70.1393 60.2703 69.1827 61.0481 69.1905 62.347C69.1905 62.7281 69.2449 62.9536 69.4005 63.2648C69.7271 63.9414 70.3338 64.3459 72.2394 65.1703C75.7472 66.6793 77.2482 67.6748 78.1817 69.0903C79.2239 70.6692 79.4572 73.1892 78.7494 75.0637C77.9717 77.1014 76.0427 78.4858 73.3282 78.9448C72.4883 79.0926 70.4971 79.0692 69.595 78.906C67.6271 78.5559 65.7605 77.5837 64.6094 76.3082C64.1583 75.8103 63.2793 74.5115 63.3339 74.4181C63.357 74.387 63.5594 74.2626 63.7848 74.1304C64.0027 74.006 64.8272 73.5315 65.6049 73.0803L67.0127 72.2636L67.3083 72.6992C67.7205 73.3291 68.6226 74.1926 69.1672 74.4803C70.7304 75.3048 72.8772 75.1881 73.9349 74.2393C74.3861 73.827 74.5727 73.3992 74.5727 72.7693C74.5727 72.2014 74.5026 71.9525 74.2071 71.5248C73.826 70.9804 73.0483 70.5214 70.8393 69.5648C68.3116 68.4758 67.2227 67.7992 66.2272 66.7258C65.6516 66.1037 65.1071 65.1081 64.8816 64.2758C64.695 63.5837 64.6483 61.8492 64.796 61.1492C65.3171 58.707 67.1605 57.0037 69.8205 56.498C70.6839 56.3348 72.6904 56.397 73.5383 56.6069Z" fill="white"/>
</g>
<defs>
<filter id="filter0_d_98_2066" x="0" y="0" width="120" height="120" filterUnits="userSpaceOnUse" color-interpolation-filters="sRGB">
<feFlood flood-opacity="0" result="BackgroundImageFix"/>
<feColorMatrix in="SourceAlpha" type="matrix" values="0 0 0 0 0 0 0 0 0 0 0 0 0 0 0 0 0 0 127 0" result="hardAlpha"/>
<feOffset dx="1" dy="1"/>
<feGaussianBlur stdDeviation="5"/>
<feComposite in2="hardAlpha" operator="out"/>
<feColorMatrix type="matrix" values="0 0 0 0 0 0 0 0 0 0.407843 0 0 0 0 0.717647 0 0 0 0.1 0"/>
<feBlend mode="normal" in2="BackgroundImageFix" result="effect1_dropShadow_98_2066"/>
<feBlend mode="normal" in="SourceGraphic" in2="effect1_dropShadow_98_2066" result="shape"/>
</filter>
<clipPath id="clip0_98_2066">
<rect width="49" height="49" fill="white" transform="translate(34 34)"/>
</clipPath>
</defs>
</svg>
